<?xml version="1.0" standalone="no"?>
<!DOCTYPE svg PUBLIC "-//W3C//DTD SVG 1.1//EN" "http://www.w3.org/Graphics/SVG/1.1/DTD/svg11.dtd" >
<svg xmlns="http://www.w3.org/2000/svg" xmlns:xlink="http://www.w3.org/1999/xlink" version="1.1">
<metadata>
Created by FontForge 20170731 at Tue Feb 22 20:19:44 2022
 By Aleksey,,,
(c) Copyright 2009-2018. All rights reserved. FAKT is a design by Thomas Thiemich, published by TYPE BY.
</metadata>
<defs>
<font id="Copyright-TYPE-BY" horiz-adv-x="568" >
  <font-face 
    font-family="Copyright TYPE BY"
    font-weight="400"
    font-stretch="normal"
    units-per-em="1000"
    panose-1="2 1 5 4 1 1 1 1 1 4"
    ascent="800"
    descent="-200"
    x-height="488"
    cap-height="688"
    bbox="-172 -312 1452 1012"
    underline-thickness="50"
    underline-position="-150"
    unicode-range="U+0020-FEFF"
  />
<missing-glyph horiz-adv-x="680" 
d="M0 688h680v-688h-680v688zM342 299l120 -123l50 50l-121 124l121 124l-50 50l-120 -124l-120 124l-50 -50l120 -124l-120 -124l50 -50z" />
    <glyph glyph-name="f_b" unicode="fb" horiz-adv-x="904" 
d="M396 656h-128q-48 0 -66 -23.5t-18 -68.5v-76h108v-72h-108v-416h-88v416h-92v72h92v80q0 164 164 164h224v-156q0 -25 -0.5 -70.5t-3.5 -93.5h4q24 48 68.5 68t95.5 20q46 0 86 -17t68.5 -49t45 -79t16.5 -107t-17.5 -108t-48 -82t-71.5 -52t-87 -18q-51 0 -91.5 20
t-64.5 68h-4v-76h-84v656zM484 244q0 -44 11 -77.5t30.5 -56t46 -34.5t56.5 -12t56 12.5t45.5 36t31 57.5t11.5 78q0 43 -11.5 76t-31 55.5t-45.5 33.5t-56 11q-29 0 -55 -11.5t-45.5 -33t-31 -53.5t-12.5 -74v-8z" />
    <glyph glyph-name="f_f" unicode="ff" horiz-adv-x="608" 
d="M96 416h-92v72h92v80q0 164 164 164h56v-76h-48q-48 0 -66 -23.5t-18 -68.5v-76h212v80q0 164 164 164h60v-76h-52q-48 0 -66 -23.5t-18 -68.5v-76h120v-72h-120v-416h-88v416h-212v-416h-88v416z" />
    <glyph glyph-name="f_f_b" unicode="ffb" horiz-adv-x="1204" 
d="M396 416h-212v-416h-88v416h-92v72h92v80q0 164 164 164h56v-76h-48q-48 0 -66 -23.5t-18 -68.5v-76h212v80q0 164 164 164h224v-156q0 -25 -0.5 -70.5t-3.5 -93.5h4q24 48 68.5 68t95.5 20q46 0 86 -17t68.5 -49t45 -79t16.5 -107t-17.5 -108t-48 -82t-71.5 -52t-87 -18
q-51 0 -91.5 20t-64.5 68h-4v-76h-84v656h-128q-48 0 -66 -23.5t-18 -68.5v-76h132v-72h-132v-416h-88v416zM784 244q0 -44 11 -77.5t30.5 -56t46 -34.5t56.5 -12t56 12.5t45.5 36t31 57.5t11.5 78q0 43 -11.5 76t-31 55.5t-45.5 33.5t-56 11q-29 0 -55 -11.5t-45.5 -33
t-31 -53.5t-12.5 -74v-8z" />
    <glyph glyph-name="f_f_h" unicode="ffh" horiz-adv-x="1184" 
d="M396 416h-212v-416h-88v416h-92v72h92v80q0 164 164 164h56v-76h-48q-48 0 -66 -23.5t-18 -68.5v-76h212v80q0 164 164 164h224v-152q0 -25 -0.5 -70.5t-3.5 -93.5h4q42 84 152 84q36 0 68.5 -10.5t57.5 -34.5t39.5 -63t14.5 -96v-296h-88v284q0 78 -30.5 109t-81.5 31
q-28 0 -52 -12t-42 -33.5t-28 -52.5t-10 -70v-256h-88v656h-128q-48 0 -66 -23.5t-18 -68.5v-76h132v-72h-132v-416h-88v416z" />
    <glyph glyph-name="f_f_i" unicode="ffi" horiz-adv-x="860" 
d="M396 416h-212v-416h-88v416h-92v72h92v80q0 164 164 164h64v-76h-56q-48 0 -66 -23.5t-18 -68.5v-76h212v80q0 164 164 164h56v-76h-48q-48 0 -66 -23.5t-18 -68.5v-76h300v-488h-88v416h-212v-416h-88v416zM692 732h96v-100h-96v100z" />
    <glyph glyph-name="f_f_j" unicode="ffj" horiz-adv-x="860" 
d="M396 416h-212v-416h-88v416h-92v72h92v80q0 164 164 164h64v-76h-56q-48 0 -66 -23.5t-18 -68.5v-76h212v80q0 164 164 164h56v-76h-48q-48 0 -66 -23.5t-18 -68.5v-76h300v-576q0 -29 -7 -53t-23.5 -41.5t-42.5 -27.5t-63 -10h-32v76h24q32 0 44 18t12 54v488h-212v-416
h-88v416zM692 732h96v-100h-96v100z" />
    <glyph glyph-name="f_f_k" unicode="ffk" horiz-adv-x="1124" 
d="M396 416h-212v-416h-88v416h-92v72h92v80q0 164 164 164h56v-76h-48q-48 0 -66 -23.5t-18 -68.5v-76h212v80q0 164 164 164h224v-479l216 235h100l-181 -195l201 -293h-104l-157 229l-75 -82v-147h-88v656h-128q-48 0 -66 -23.5t-18 -68.5v-76h132v-72h-132v-416h-88v416
z" />
    <glyph glyph-name="f_f_l" unicode="ffl" horiz-adv-x="860" 
d="M396 416h-212v-416h-88v416h-92v72h92v80q0 164 164 164h56v-76h-48q-48 0 -66 -23.5t-18 -68.5v-76h212v80q0 164 164 164h224v-732h-88v656h-128q-48 0 -66 -23.5t-18 -68.5v-76h132v-72h-132v-416h-88v416z" />
    <glyph glyph-name="f_f_t" unicode="fft" horiz-adv-x="928" 
d="M396 416h-212v-416h-88v416h-92v72h92v80q0 164 164 164h56v-76h-48q-48 0 -66 -23.5t-18 -68.5v-76h212v80q0 164 164 164h56v-76h-48q-48 0 -66 -23.5t-18 -68.5v-76h204v148h88v-148h128v-72h-128v-268q0 -39 19 -55.5t49 -16.5h60v-76h-72q-72 0 -108 34t-36 106v276
h-204v-416h-88v416z" />
    <glyph glyph-name="f_h" unicode="fh" horiz-adv-x="884" 
d="M396 656h-128q-48 0 -66 -23.5t-18 -68.5v-76h108v-72h-108v-416h-88v416h-92v72h92v80q0 164 164 164h224v-152q0 -25 -0.5 -70.5t-3.5 -93.5h4q42 84 152 84q36 0 68.5 -10.5t57.5 -34.5t39.5 -63t14.5 -96v-296h-88v284q0 78 -30.5 109t-81.5 31q-29 0 -53 -12.5
t-41.5 -35t-27.5 -54t-10 -70.5v-252h-88v656z" />
    <glyph glyph-name="f_i" unicode="fi" horiz-adv-x="560" 
d="M396 416h-212v-416h-88v416h-92v72h92v80q0 164 164 164h56v-76h-48q-48 0 -66 -23.5t-18 -68.5v-76h300v-488h-88v416zM392 732h96v-100h-96v100z" />
    <glyph glyph-name="f_j" unicode="fj" horiz-adv-x="560" 
d="M340 -144q32 0 44 18t12 54v488h-212v-416h-88v416h-92v72h92v80q0 164 164 164h56v-76h-48q-48 0 -66 -23.5t-18 -68.5v-76h300v-576q0 -29 -7 -53t-23.5 -41.5t-42.5 -27.5t-63 -10h-32v76h24zM392 732h96v-100h-96v100z" />
    <glyph glyph-name="f_k" unicode="fk" horiz-adv-x="824" 
d="M396 656h-128q-48 0 -66 -23.5t-18 -68.5v-76h108v-72h-108v-416h-88v416h-92v72h92v80q0 164 164 164h224v-479l216 235h100l-181 -195l201 -293h-104l-157 229l-75 -82v-147h-88v656z" />
    <glyph glyph-name="f_l" unicode="fl" horiz-adv-x="560" 
d="M96 416h-92v72h92v80q0 164 164 164h224v-732h-88v656h-128q-48 0 -66 -23.5t-18 -68.5v-76h108v-72h-108v-416h-88v416z" />
    <glyph glyph-name="f_t" unicode="ft" horiz-adv-x="628" 
d="M388 416h-204v-416h-88v416h-92v72h92v80q0 164 164 164h56v-76h-48q-48 0 -66 -23.5t-18 -68.5v-76h204v148h88v-148h128v-72h-128v-268q0 -39 19 -55.5t49 -16.5h60v-76h-72q-72 0 -108 34t-36 106v276z" />
    <glyph glyph-name=".notdef" horiz-adv-x="680" 
d="M0 688h680v-688h-680v688zM342 299l120 -123l50 50l-121 124l121 124l-50 50l-120 -124l-120 124l-50 -50l120 -124l-120 -124l50 -50z" />
    <glyph glyph-name=".null" horiz-adv-x="0" 
 />
    <glyph glyph-name="nonmarkingreturn" horiz-adv-x="220" 
 />
    <glyph glyph-name="space" unicode=" " horiz-adv-x="220" 
 />
    <glyph glyph-name="exclam" unicode="!" horiz-adv-x="280" 
d="M88 496v192h104v-192l-28 -304h-48zM88 108h104v-108h-104v108z" />
    <glyph glyph-name="quotedbl" unicode="&#x22;" horiz-adv-x="392" 
d="M64 604v84h88v-84l-16 -168h-56zM240 604v84h88v-84l-16 -168h-56z" />
    <glyph glyph-name="numbersign" unicode="#" horiz-adv-x="616" 
d="M60 524h127l29 164h80l-29 -164h144l29 164h80l-29 -164h105v-68h-117l-38 -220h115v-68h-127l-29 -168h-80l29 168h-144l-29 -168h-80l29 168h-105v68h117l38 220h-115v68zM217 236h144l38 220h-144z" />
    <glyph glyph-name="dollar" unicode="$" 
d="M132 192q4 -63 44.5 -97.5t103.5 -34.5q66 0 105 33t39 91q0 50 -33 74t-91 42l-88 28q-26 8 -52.5 22t-49 36t-36.5 53t-14 73q0 37 13 68.5t36.5 55t55.5 39t71 21.5v108h88v-108q72 -12 121 -58t55 -122h-88q-8 58 -44.5 85t-87.5 27q-26 0 -49 -6.5t-40.5 -20
t-28 -34t-10.5 -47.5q0 -50 29.5 -74t86.5 -42l88 -28q81 -26 120.5 -71t39.5 -117q0 -42 -14 -76t-39.5 -59.5t-61 -41t-77.5 -20.5v-111h-88v111q-85 11 -137 63.5t-55 137.5h88z" />
    <glyph glyph-name="percent" unicode="%" horiz-adv-x="776" 
d="M176 336q-39 0 -67 14t-46 38.5t-26.5 57t-8.5 70.5q0 37 8.5 70t26.5 57.5t46 38.5t67 14t67 -14t46 -38.5t26.5 -57.5t8.5 -70q0 -38 -8.5 -70.5t-26.5 -57t-46 -38.5t-67 -14zM176 396q72 0 72 120t-72 120t-72 -120t72 -120zM528 700h68l-348 -712h-68zM600 -8
q-39 0 -67 14t-46 38.5t-26.5 57t-8.5 70.5q0 37 8.5 70t26.5 57.5t46 38.5t67 14t67 -14t46 -38.5t26.5 -57.5t8.5 -70q0 -38 -8.5 -70.5t-26.5 -57t-46 -38.5t-67 -14zM600 52q72 0 72 120t-72 120t-72 -120t72 -120z" />
    <glyph glyph-name="ampersand" unicode="&#x26;" horiz-adv-x="712" 
d="M48 180q0 40 13 70.5t35 54.5t51 42t60 33q-22 23 -37.5 42t-25.5 37t-15 36.5t-5 40.5q0 31 12.5 61t36.5 52.5t59 36.5t80 14q43 0 78 -11.5t59.5 -32t37.5 -49.5t13 -63q0 -37 -14 -64.5t-37.5 -48.5t-53.5 -37t-62 -30l180 -182q16 34 23.5 73t7.5 81v8h80v-20
q0 -18 -2.5 -41t-9 -49.5t-17 -54.5t-26.5 -55l123 -124h-104l-66 66q-36 -35 -89.5 -56.5t-128.5 -21.5q-123 0 -189.5 52t-66.5 140zM304 60q55 0 95 15.5t69 43.5l-210 211q-26 -12 -48 -26t-38.5 -31t-26 -38t-9.5 -47q0 -31 13 -54.5t35.5 -40t53 -25t66.5 -8.5z
M204 540q0 -32 20 -59.5t58 -66.5q27 12 51.5 25t43 28.5t29 34t10.5 42.5q0 36 -26.5 62t-77.5 26q-55 0 -81.5 -28t-26.5 -64z" />
    <glyph glyph-name="quotesingle" unicode="'" horiz-adv-x="216" 
d="M64 604v84h88v-84l-16 -168h-56z" />
    <glyph glyph-name="parenleft" unicode="(" horiz-adv-x="284" 
d="M24 260q0 80 16 152.5t40 134.5t53 112t55 85h80q-21 -28 -48.5 -77t-52.5 -113t-42 -139t-17 -155t17.5 -156t42.5 -140.5t52.5 -114t47.5 -77.5h-80q-26 35 -55 85.5t-53 113.5t-40 136t-16 153z" />
    <glyph glyph-name="parenright" unicode=")" horiz-adv-x="284" 
d="M16 -228q20 28 47.5 77.5t52.5 114t42.5 140.5t17.5 156t-17 155t-42 139t-52.5 113t-48.5 77h80q26 -35 55 -85t53 -112t40 -134.5t16 -152.5t-16 -153t-40 -136t-53 -113.5t-55 -85.5h-80z" />
    <glyph glyph-name="asterisk" unicode="*" horiz-adv-x="456" 
d="M264 696l-17 -134l122 58l22 -69l-131 -26l91 -97l-58 -42l-66 116l-64 -116l-58 42l90 98l-130 25l22 69l121 -57l-16 133h72z" />
    <glyph glyph-name="plus" unicode="+" 
d="M56 292h188v188h80v-188h188v-76h-188v-188h-80v188h-188v76z" />
    <glyph glyph-name="comma" unicode="," horiz-adv-x="256" 
d="M76 0v108h104v-100l-40 -152h-52l32 144h-44z" />
    <glyph glyph-name="hyphen" unicode="-" horiz-adv-x="396" 
d="M60 292h276v-80h-276v80z" />
    <glyph glyph-name="period" unicode="." horiz-adv-x="256" 
d="M76 108h104v-108h-104v108z" />
    <glyph glyph-name="slash" unicode="/" horiz-adv-x="400" 
d="M316 700h76l-308 -712h-76z" />
    <glyph glyph-name="zero" unicode="0" 
d="M284 -12q-65 0 -110.5 27.5t-74 75.5t-42 113t-13.5 140t13.5 140t42 113t74 75.5t110.5 27.5q64 0 110 -27.5t74.5 -75.5t42 -113t13.5 -140t-13.5 -140t-42 -113t-74.5 -75.5t-110 -27.5zM284 68q75 0 111.5 71t36.5 205t-36.5 205t-111.5 71q-78 0 -113 -71t-35 -205
t36.5 -205t111.5 -71z" />
    <glyph glyph-name="one" unicode="1" 
d="M60 536l220 152h68v-612h164v-76h-428v76h176v503l-160 -111z" />
    <glyph glyph-name="two" unicode="2" 
d="M56 0q2 58 13.5 101t33 77.5t52 62.5t69.5 55l76 52q27 18 48.5 33.5t36.5 33t23 38.5t8 51q0 21 -7 42.5t-22.5 38.5t-40 28t-58.5 11q-66 0 -100 -35.5t-40 -104.5h-80q3 61 22.5 102.5t50 67t68.5 36t79 10.5q47 0 87 -13.5t68.5 -38.5t44.5 -61.5t16 -82.5
q0 -45 -13 -77t-34 -56t-47.5 -42.5t-53.5 -36.5l-76 -52q-39 -27 -62.5 -49.5t-37 -43t-18.5 -38t-6 -33.5h356v-76h-456z" />
    <glyph glyph-name="three" unicode="3" 
d="M132 208q0 -74 42 -109t106 -35q69 0 108.5 33t39.5 94q0 31 -11.5 54.5t-32 39.5t-47.5 24.5t-57 8.5h-52v76h52q25 0 48 8.5t39.5 24.5t26.5 37.5t10 48.5t-10 47.5t-26.5 34.5t-39.5 21.5t-48 7.5q-26 0 -48.5 -7.5t-39 -22.5t-26.5 -38.5t-10 -55.5h-80q0 46 14.5 83
t41.5 63t64.5 40t83.5 14q47 0 85.5 -14t65.5 -38.5t42 -59t15 -74.5q0 -28 -8.5 -52.5t-22 -44t-32 -34t-37.5 -21.5q54 -15 91 -60t37 -118q0 -46 -17.5 -82.5t-48.5 -61.5t-74.5 -38.5t-95.5 -13.5q-105 0 -168.5 54.5t-63.5 165.5h84z" />
    <glyph glyph-name="four" unicode="4" 
d="M32 236l332 452h72v-440h100v-76h-100v-172h-88v172h-316v64zM348 248v303l-226 -303h226z" />
    <glyph glyph-name="five" unicode="5" 
d="M136 184q3 -23 13 -44.5t28 -38t44.5 -27t62.5 -10.5q28 0 55 9.5t47.5 28t33 46.5t12.5 64t-11.5 64t-31 47.5t-47 30t-58.5 10.5q-42 0 -72.5 -17.5t-59.5 -50.5l-80 4l20 388h388v-80h-308l-12 -216h4q21 21 54 34.5t78 13.5q46 0 87 -15t71.5 -43.5t48 -69
t17.5 -92.5q0 -59 -20 -102.5t-53 -72t-75.5 -43t-87.5 -14.5q-106 0 -167 53t-69 143h88z" />
    <glyph glyph-name="six" unicode="6" 
d="M48 328q0 104 21 175t57 115t83 63t99 19t90 -13.5t63.5 -38t38.5 -58.5t16 -74h-88q-3 22 -10 42t-20.5 34.5t-35 23t-54.5 8.5t-63 -14.5t-52.5 -46.5t-36.5 -84.5t-16 -128.5v-1q10 21 29 38t42.5 28.5t50.5 18t54 6.5q48 0 87.5 -16t68 -45t44.5 -70.5t16 -92.5
q0 -55 -19.5 -97.5t-52 -71.5t-74 -44t-86.5 -15q-51 0 -97 17.5t-80.5 57.5t-54.5 105t-20 160zM304 364q-32 0 -60 -11.5t-48.5 -31.5t-32 -47.5t-11.5 -58.5v-1q0 -32 11 -59.5t30 -47.5t45.5 -31.5t57.5 -11.5t58 10t47 29.5t31.5 47.5t11.5 65q0 33 -11 60t-30.5 46.5
t-45 30.5t-53.5 11z" />
    <glyph glyph-name="seven" unicode="7" 
d="M428 608h-376v80h472v-64l-292 -624h-92z" />
    <glyph glyph-name="eight" unicode="8" 
d="M44 184q0 64 34 111.5t94 62.5q-21 7 -39.5 23t-32 37t-21 45.5t-7.5 50.5q0 40 15 74.5t42.5 59t66.5 38.5t88 14t88 -14t66.5 -38.5t42.5 -59t15 -74.5q0 -25 -8 -50t-21.5 -46.5t-31.5 -37t-39 -22.5q60 -15 94 -62.5t34 -111.5q0 -94 -62.5 -145t-177.5 -51
t-177.5 51t-62.5 145zM132 191q0 -61 39.5 -94t112.5 -33t112.5 33t39.5 94q0 58 -41 92.5t-111 34.5t-111 -34.5t-41 -92.5zM284 394q27 0 50.5 8.5t40.5 24.5t27 37.5t10 48.5t-10 48t-27 36t-40.5 23t-50.5 8t-50.5 -8t-40.5 -23t-27 -36t-10 -48t10 -48.5t27 -37.5
t40.5 -24.5t50.5 -8.5z" />
    <glyph glyph-name="nine" unicode="9" 
d="M520 360q0 -104 -18 -175t-51 -115t-79.5 -63t-103.5 -19q-54 0 -92.5 13.5t-65 38t-40.5 58t-18 74.5h88q3 -21 10.5 -40.5t22 -34.5t37.5 -24t58 -9q38 0 67 14t49 46.5t31 84.5t13 128v1q-11 -21 -29.5 -37.5t-42 -28t-50.5 -18t-54 -6.5q-48 0 -88 16t-68.5 45
t-44 70.5t-15.5 92.5q0 55 19.5 97.5t52 71.5t74 44t86.5 15q51 0 96.5 -17.5t80 -57.5t55 -105t20.5 -160zM264 324q32 0 60 11.5t48.5 31.5t32 47t11.5 59v1q0 32 -11 59.5t-30.5 47.5t-45.5 31.5t-57 11.5q-29 0 -56 -10t-47.5 -29.5t-32.5 -47.5t-12 -65q0 -33 11 -60.5
t30.5 -47t44.5 -30t54 -10.5z" />
    <glyph glyph-name="colon" unicode=":" horiz-adv-x="256" 
d="M76 488h104v-108h-104v108zM76 108h104v-108h-104v108z" />
    <glyph glyph-name="semicolon" unicode=";" horiz-adv-x="256" 
d="M76 488h104v-108h-104v108zM76 0v108h104v-100l-40 -152h-52l32 144h-44z" />
    <glyph glyph-name="less" unicode="&#x3c;" 
d="M72 292l424 180v-80l-335 -136l335 -136v-84l-424 180v76z" />
    <glyph glyph-name="equal" unicode="=" 
d="M56 396h456v-76h-456v76zM56 188h456v-76h-456v76z" />
    <glyph glyph-name="greater" unicode="&#x3e;" 
d="M496 216l-424 -180v80l335 136l-335 136v84l424 -180v-76z" />
    <glyph glyph-name="question" unicode="?" horiz-adv-x="504" 
d="M204 224q0 35 7 61.5t19 47t27.5 35.5t32.5 28l22 17q25 20 44.5 42.5t19.5 60.5q0 46 -31 77t-85 31q-34 0 -59 -11.5t-41 -31t-24 -46t-8 -55.5h-88q0 42 13 82t40 70.5t68.5 49t98.5 18.5q45 0 83.5 -12.5t66 -36t43 -56.5t15.5 -75q0 -31 -7.5 -54t-19.5 -41
t-28 -32.5t-32 -27.5l-22 -17q-28 -21 -47.5 -46t-19.5 -66v-40h-88v28zM196 108h104v-108h-104v108z" />
    <glyph glyph-name="at" unicode="@" horiz-adv-x="1032" 
d="M300 128q0 57 37 95.5t123 52.5l96 16q36 6 50 12t14 24q0 48 -25 74t-79 26t-81.5 -23.5t-30.5 -68.5h-84q1 34 14.5 64t38 52.5t59.5 35t80 12.5q100 0 148 -48t48 -136v-151q0 -35 7 -57t18 -34.5t25.5 -17t29.5 -4.5q22 0 43.5 12.5t38.5 39.5t27.5 68.5t10.5 99.5
q0 85 -29.5 152.5t-81.5 114.5t-123 72t-154 25q-91 0 -164 -31.5t-124.5 -86t-79.5 -128t-28 -158.5t27.5 -157.5t78 -125.5t121.5 -83t157 -30q60 0 116.5 18t95.5 58h100q-54 -69 -133 -104.5t-179 -35.5q-103 0 -187.5 35.5t-145 97t-94 145.5t-33.5 182
q0 97 33.5 182.5t95 149t149 100t194.5 36.5q100 0 185 -30.5t147 -86t97 -135t35 -176.5q0 -75 -16.5 -129t-45 -88.5t-65.5 -50.5t-77 -16q-23 0 -44.5 3.5t-39.5 13t-32.5 26.5t-23.5 43q-26 -47 -73 -66.5t-103 -19.5q-78 0 -121 38.5t-43 101.5zM620 251
q-14 -17 -52 -23l-96 -16q-48 -8 -66 -28t-18 -52q0 -35 23.5 -55.5t68.5 -20.5q28 0 53.5 9t45 27.5t30.5 46t11 65.5v47z" />
    <glyph glyph-name="A" unicode="A" horiz-adv-x="644" 
d="M268 688h108l256 -688h-96l-65 180h-302l-65 -180h-92zM442 260l-120 332h-4l-120 -332h244z" />
    <glyph glyph-name="B" unicode="B" horiz-adv-x="664" 
d="M84 688h284q112 0 166 -47.5t54 -132.5q0 -49 -27 -89t-81 -57q63 -11 99.5 -54.5t36.5 -103.5q0 -44 -14.5 -81.5t-43.5 -64.5t-71.5 -42.5t-98.5 -15.5h-304v688zM176 316v-236h212q69 0 102.5 34.5t33.5 88.5q0 48 -33.5 80.5t-102.5 32.5h-212zM176 608v-212h192
q63 0 95.5 32.5t32.5 80.5q0 45 -29.5 72t-98.5 27h-192z" />
    <glyph glyph-name="C" unicode="C" horiz-adv-x="712" 
d="M44 344q0 76 24 141.5t68 113t105 74.5t135 27q61 0 110 -16.5t86 -46.5t61 -72t35 -93h-95q-20 70 -68 107t-129 37q-53 0 -96.5 -20t-74.5 -56t-48 -86t-17 -110q0 -59 17 -108.5t47.5 -86t73.5 -57t94 -20.5q86 0 133.5 37t67.5 107h95q-11 -51 -36 -93t-62.5 -72
t-87 -46.5t-110.5 -16.5q-72 0 -132.5 26t-104 73.5t-67.5 113t-24 143.5z" />
    <glyph glyph-name="D" unicode="D" horiz-adv-x="704" 
d="M88 688h212q89 0 156.5 -25.5t112.5 -71t68 -109t23 -138.5t-23 -138.5t-68 -109t-112.5 -71t-156.5 -25.5h-212v688zM180 608v-528h120q72 0 122.5 21.5t82 58t45.5 84t14 100.5q0 52 -14 100t-45.5 84.5t-82 58t-122.5 21.5h-120z" />
    <glyph glyph-name="E" unicode="E" horiz-adv-x="612" 
d="M88 688h464v-80h-372v-218h296v-80h-296v-230h380v-80h-472v688z" />
    <glyph glyph-name="F" unicode="F" horiz-adv-x="576" 
d="M88 688h456v-80h-364v-240h288v-80h-288v-288h-92v688z" />
    <glyph glyph-name="G" unicode="G" horiz-adv-x="760" 
d="M608 100h-3q-37 -58 -92 -85t-133 -27q-74 0 -135.5 27t-106 74.5t-69.5 112.5t-25 142q0 76 25 141.5t70 113t107.5 74.5t137.5 27q61 0 111.5 -16.5t89 -45.5t63.5 -68.5t36 -85.5h-96q-8 27 -24.5 51t-42 42t-60 28.5t-77.5 10.5q-56 0 -101 -20.5t-77 -57t-49 -86.5
t-17 -108q0 -59 17.5 -108.5t49.5 -86t76 -57t97 -20.5q43 0 83 12.5t70.5 37t48.5 60t18 82.5v20h-216v80h300v-364h-60z" />
    <glyph glyph-name="H" unicode="H" horiz-adv-x="728" 
d="M88 688h92v-300h368v300h92v-688h-92v308h-368v-308h-92v688z" />
    <glyph glyph-name="I" unicode="I" horiz-adv-x="268" 
d="M88 688h92v-688h-92v688z" />
    <glyph glyph-name="J" unicode="J" horiz-adv-x="512" 
d="M36 228h92v-32q0 -37 8 -61.5t22.5 -39.5t34.5 -21t43 -6t43 6t34.5 21t22.5 39.5t8 61.5v492h92v-496q0 -56 -15 -95t-41.5 -63t-63.5 -35t-80 -11q-44 0 -80.5 11t-63 35t-41.5 63t-15 95v36z" />
    <glyph glyph-name="K" unicode="K" horiz-adv-x="652" 
d="M88 688h92v-370l344 370h108l-283 -299l295 -389h-104l-252 325l-108 -115v-210h-92v688z" />
    <glyph glyph-name="L" unicode="L" horiz-adv-x="544" 
d="M88 688h92v-608h336v-80h-428v688z" />
    <glyph glyph-name="M" unicode="M" horiz-adv-x="904" 
d="M88 688h112l253 -564h2l249 564h112v-688h-92l8 544h-4l-240 -544h-72l-240 532h-4l8 -532h-92v688z" />
    <glyph glyph-name="N" unicode="N" horiz-adv-x="736" 
d="M88 688h88l380 -532h4l-4 532h92v-688h-88l-380 528h-4l4 -528h-92v688z" />
    <glyph glyph-name="O" unicode="O" horiz-adv-x="760" 
d="M44 344q0 76 24 141.5t68.5 113t106.5 74.5t137 27q73 0 135 -27t106.5 -74.5t69.5 -113t25 -141.5q0 -77 -25 -142t-69.5 -112.5t-106.5 -74.5t-135 -27q-75 0 -137 27t-106.5 74.5t-68.5 112.5t-24 142zM140 344q0 -59 17 -108.5t48.5 -86t76 -57t98.5 -20.5t98.5 20.5
t76 57t48.5 86t17 108.5q0 58 -17 108t-48.5 86.5t-76 57t-98.5 20.5t-98.5 -20.5t-76 -57t-48.5 -86.5t-17 -108z" />
    <glyph glyph-name="P" unicode="P" horiz-adv-x="636" 
d="M88 688h260q59 0 104.5 -16t76.5 -45.5t47 -70t16 -88.5t-16 -90t-47 -72.5t-76.5 -48t-104.5 -17.5h-168v-240h-92v688zM180 608v-288h172q37 0 65 12t46.5 32t27.5 47t9 57q0 60 -36.5 100t-111.5 40h-172z" />
    <glyph glyph-name="Q" unicode="Q" horiz-adv-x="764" 
d="M44 344q0 76 24 141.5t68.5 113t106.5 74.5t137 27q73 0 135 -27t106.5 -74.5t69.5 -113t25 -141.5q0 -84 -28 -152t-79 -116l131 -136l-64 -64l-140 148q-35 -17 -73 -26.5t-83 -9.5q-75 0 -137 27t-106.5 74.5t-68.5 112.5t-24 142zM140 344q0 -59 17 -108.5t48.5 -86
t76 -57t98.5 -20.5t98.5 20.5t76 57t48.5 86t17 108.5q0 58 -17 108t-48.5 86.5t-76 57t-98.5 20.5t-98.5 -20.5t-76 -57t-48.5 -86.5t-17 -108z" />
    <glyph glyph-name="R" unicode="R" horiz-adv-x="652" 
d="M88 688h260q118 0 179 -53.5t61 -150.5q0 -78 -38 -131.5t-113 -73.5l175 -279h-100l-171 268h-161v-268h-92v688zM180 608v-260h172q72 0 108 39.5t36 96.5t-37.5 90.5t-106.5 33.5h-172z" />
    <glyph glyph-name="S" unicode="S" horiz-adv-x="648" 
d="M148 204q0 -63 45.5 -101.5t126.5 -38.5q85 0 130.5 33.5t45.5 94.5q0 28 -12.5 47t-34 31.5t-50 20t-59.5 13.5l-44 8q-42 7 -83 18t-73 31.5t-52 53.5t-20 85q0 43 18 80t51 63.5t79.5 41.5t103.5 15q55 0 101.5 -13.5t80 -39.5t52 -64t18.5 -87h-92q0 63 -45.5 95.5
t-114.5 32.5q-33 0 -62.5 -7.5t-51 -22t-34 -36.5t-12.5 -50q0 -29 13.5 -48t36.5 -31t53.5 -19.5t64.5 -13.5l44 -8q41 -8 80.5 -19t70.5 -32t50 -54.5t19 -86.5q0 -47 -18.5 -85t-53 -65.5t-85.5 -42.5t-115 -15q-128 0 -196 58t-68 158h92z" />
    <glyph glyph-name="T" unicode="T" horiz-adv-x="588" 
d="M8 688h572v-78h-240v-610h-92v610h-240v78z" />
    <glyph glyph-name="U" unicode="U" horiz-adv-x="696" 
d="M72 688h92v-416q0 -96 45 -148t139 -52t139 52t45 148v416h92v-416q0 -77 -20 -130.5t-56.5 -88t-87.5 -50t-112 -15.5q-62 0 -112.5 15.5t-87 50t-56.5 88t-20 130.5v416z" />
    <glyph glyph-name="V" unicode="V" horiz-adv-x="620" 
d="M8 688h96l206 -592h4l206 592h92l-252 -688h-102z" />
    <glyph glyph-name="W" unicode="W" horiz-adv-x="936" 
d="M12 688h96l146 -592h4l158 592h112l158 -592h4l142 592h92l-180 -688h-116l-156 584h-4l-156 -584h-116z" />
    <glyph glyph-name="X" unicode="X" horiz-adv-x="596" 
d="M245 351l-229 337h104l177 -264l175 264h100l-225 -334l241 -354h-104l-189 281l-187 -281h-100z" />
    <glyph glyph-name="Y" unicode="Y" horiz-adv-x="608" 
d="M256 270l-244 418h104l186 -324h4l194 324h96l-248 -411v-277h-92v270z" />
    <glyph glyph-name="Z" unicode="Z" horiz-adv-x="584" 
d="M56 688h492v-60l-397 -550h393v-78h-508v60l397 550h-377v78z" />
    <glyph glyph-name="bracketleft" unicode="[" horiz-adv-x="332" 
d="M316 -156v-72h-228v972h228v-72h-148v-828h148z" />
    <glyph glyph-name="backslash" unicode="\" horiz-adv-x="400" 
d="M8 700h76l308 -712h-76z" />
    <glyph glyph-name="bracketright" unicode="]" horiz-adv-x="332" 
d="M164 -156v828h-148v72h228v-972h-228v72h148z" />
    <glyph glyph-name="asciicircum" unicode="^" 
d="M242 688h88l188 -336h-92l-142 265l-142 -265h-88z" />
    <glyph glyph-name="underscore" unicode="_" horiz-adv-x="500" 
d="M500 -72v-68h-500v68h500z" />
    <glyph glyph-name="grave" unicode="`" horiz-adv-x="560" 
d="M104 732h104l104 -164h-64z" />
    <glyph glyph-name="a" unicode="a" horiz-adv-x="524" 
d="M48 130q0 64 36 99t120 49l100 16q19 3 31.5 5.5t20 7t10 11.5t2.5 18q0 38 -26 65t-78 27q-54 0 -81.5 -25t-30.5 -67h-84q1 34 14.5 64t38.5 52.5t61 35t82 12.5q97 0 144.5 -47.5t47.5 -132.5v-320h-84v78h-4q-18 -38 -59 -62t-101 -24q-72 0 -116 36t-44 102z
M368 255q-14 -17 -52 -23l-92 -16q-45 -8 -66.5 -25.5t-21.5 -52.5q0 -32 21 -53t63 -21q28 0 55 9t47.5 27t33 45t12.5 63v47z" />
    <glyph glyph-name="b" unicode="b" horiz-adv-x="584" 
d="M76 732h88v-156q0 -25 -0.5 -70.5t-3.5 -93.5h4q24 48 68.5 68t95.5 20q46 0 86 -17t68.5 -49t45 -79t16.5 -107t-17.5 -108t-48 -82t-71.5 -52t-87 -18q-51 0 -91.5 20t-64.5 68h-4v-76h-84v732zM164 244q0 -44 11 -77.5t30.5 -56t46 -34.5t56.5 -12t56 12.5t45.5 36
t31 57.5t11.5 78q0 43 -11.5 76t-31 55.5t-45.5 33.5t-56 11q-29 0 -55 -11.5t-45.5 -33t-31 -53.5t-12.5 -74v-8z" />
    <glyph glyph-name="c" unicode="c" horiz-adv-x="516" 
d="M40 244q0 58 17.5 105.5t49 81t73.5 51.5t92 18q96 0 149 -51t63 -133h-88q-8 48 -37.5 78t-86.5 30q-30 0 -55.5 -13t-44.5 -36.5t-29.5 -57t-10.5 -73.5q0 -41 10.5 -74t29.5 -56.5t44.5 -36.5t55.5 -13q57 0 86.5 30t37.5 78h88q-10 -82 -63 -133t-149 -51
q-54 0 -97 18t-73 51.5t-46 80.5t-16 106z" />
    <glyph glyph-name="d" unicode="d" horiz-adv-x="584" 
d="M40 240q0 60 17.5 108t48 82t71 52t87.5 18q51 0 91.5 -20t64.5 -68h4q-3 48 -3.5 93.5t-0.5 70.5v156h88v-732h-84v76h-4q-24 -48 -68.5 -68t-95.5 -20q-47 0 -86.5 17t-68 49t-45 79t-16.5 107zM132 240q0 -44 11 -76.5t30.5 -55t46 -33.5t56.5 -11t56 12t45.5 34.5
t31 56t11.5 77.5q0 43 -11.5 77t-31 56.5t-45.5 34.5t-56 12t-56.5 -12.5t-46 -36t-30.5 -58t-11 -77.5z" />
    <glyph glyph-name="e" unicode="e" horiz-adv-x="524" 
d="M40 244q0 57 17.5 104t49 81t73.5 52.5t92 18.5q48 0 87.5 -15.5t68 -45.5t44.5 -73t16 -98v-36h-356q3 -78 41.5 -123t102.5 -45q54 0 83 25.5t37 58.5h88q-5 -33 -22 -62t-44 -50.5t-63 -34.5t-79 -13q-57 0 -101 18t-74 51.5t-45.5 80.5t-15.5 106zM272 424
q-51 0 -87 -33t-48 -93h261q-6 66 -38.5 96t-87.5 30z" />
    <glyph glyph-name="f" unicode="f" horiz-adv-x="308" 
d="M96 416h-92v72h92v80q0 164 164 164h60v-76h-52q-48 0 -66 -23.5t-18 -68.5v-76h120v-72h-120v-416h-88v416z" />
    <glyph glyph-name="g" unicode="g" horiz-adv-x="584" 
d="M136 -60q0 -45 37.5 -70.5t94.5 -25.5q32 0 60.5 9t49.5 30t33.5 55.5t12.5 85.5v52h-4q-24 -48 -68.5 -68t-95.5 -20q-47 0 -86.5 17t-68 49t-45 79t-16.5 107t17.5 108t48 82t71 52t87.5 18q51 0 91.5 -20t64.5 -68h4v76h84v-464q0 -69 -19 -117t-52 -78t-76.5 -43.5
t-92.5 -13.5q-46 0 -85.5 11t-68.5 32t-45.5 52.5t-16.5 72.5h84zM132 240q0 -44 11 -76.5t30.5 -55t46 -33.5t56.5 -11t56 12t45.5 34.5t31 56t11.5 77.5q0 43 -11.5 77t-31 56.5t-45.5 34.5t-56 12t-56.5 -12.5t-46 -36t-30.5 -58t-11 -77.5z" />
    <glyph glyph-name="h" unicode="h" horiz-adv-x="564" 
d="M76 732h88v-152q0 -25 -0.5 -70.5t-3.5 -93.5h4q42 84 152 84q36 0 68.5 -10.5t57.5 -34.5t39.5 -63t14.5 -96v-296h-88v284q0 78 -30.5 109t-81.5 31q-28 0 -52 -12t-42 -33.5t-28 -53t-10 -70.5v-255h-88v732z" />
    <glyph glyph-name="i" unicode="i" horiz-adv-x="240" 
d="M72 732h96v-100h-96v100zM76 488h88v-488h-88v488z" />
    <glyph glyph-name="j" unicode="j" horiz-adv-x="240" 
d="M72 732h96v-100h-96v100zM76 488h88v-576q0 -29 -7 -53t-23.5 -41.5t-42.5 -27.5t-63 -10h-32v76h24q32 0 44 18t12 54v560z" />
    <glyph glyph-name="k" unicode="k" horiz-adv-x="504" 
d="M76 732h88v-479l216 235h100l-181 -195l201 -293h-104l-157 229l-75 -82v-147h-88v732z" />
    <glyph glyph-name="l" unicode="l" horiz-adv-x="240" 
d="M76 732h88v-732h-88v732z" />
    <glyph glyph-name="m" unicode="m" horiz-adv-x="864" 
d="M76 488h84v-72h4q21 42 59 63t89 21q50 0 91 -23t61 -76q25 52 64.5 75.5t99.5 23.5q34 0 65 -10.5t53.5 -33.5t36 -60.5t13.5 -91.5v-304h-88v292q0 72 -24.5 102t-75.5 30q-26 0 -49.5 -12t-41 -34t-27.5 -53.5t-10 -70.5v-254h-88v292q0 72 -26 102t-74 30
q-26 0 -49.5 -12t-41 -34t-27.5 -53.5t-10 -71.5v-253h-88v488z" />
    <glyph glyph-name="n" unicode="n" horiz-adv-x="564" 
d="M76 488h84v-72h4q42 84 152 84q36 0 68.5 -10.5t57.5 -34.5t39.5 -63t14.5 -96v-296h-88v284q0 78 -30.5 109t-81.5 31q-28 0 -52 -12t-42 -34t-28 -53.5t-10 -71.5v-253h-88v488z" />
    <glyph glyph-name="o" unicode="o" horiz-adv-x="560" 
d="M40 244q0 58 18 105.5t49.5 81t75.5 51.5t97 18q55 0 99.5 -18t76 -51.5t48 -81t16.5 -105.5q0 -59 -18 -106t-49.5 -80.5t-76 -51.5t-96.5 -18q-56 0 -100 18t-75.5 51.5t-48 80.5t-16.5 106zM132 244q0 -41 10.5 -74t30 -56.5t47 -36.5t60.5 -13t60 13t46.5 36.5
t30.5 56.5t11 74q0 85 -41 132.5t-107 47.5q-33 0 -60.5 -13t-47 -36.5t-30 -57t-10.5 -73.5z" />
    <glyph glyph-name="p" unicode="p" horiz-adv-x="584" 
d="M164 -220h-88v708h84v-76h4q24 48 68.5 68t95.5 20q46 0 86 -17t68.5 -49t45 -79t16.5 -107t-17.5 -108t-48 -82t-71.5 -52t-87 -18q-51 0 -91.5 20t-64.5 68h-4q3 -48 3.5 -93.5t0.5 -70.5v-132zM452 248q0 43 -11.5 76t-31 55.5t-45.5 33.5t-56 11q-29 0 -55 -11.5
t-45.5 -33t-31 -53.5t-12.5 -74v-8q0 -44 11 -77.5t30.5 -56t46 -34.5t56.5 -12t56 12.5t45.5 36t31 57.5t11.5 78z" />
    <glyph glyph-name="q" unicode="q" horiz-adv-x="580" 
d="M420 -88q0 25 0.5 70.5t3.5 93.5h-4q-24 -48 -68.5 -68t-95.5 -20q-47 0 -86.5 17t-68 49t-45 79t-16.5 107t17.5 108t48 82t71 52t87.5 18q51 0 91.5 -20t64.5 -68h4v76h84v-708h-88v132zM132 240q0 -44 11 -76.5t30.5 -55t46 -33.5t56.5 -11q29 0 55 11t45.5 33t31 54
t12.5 73v17q-1 42 -12.5 74t-31 53.5t-45.5 33t-55 11.5q-30 0 -56.5 -12.5t-46 -36t-30.5 -58t-11 -77.5z" />
    <glyph glyph-name="r" unicode="r" horiz-adv-x="360" 
d="M76 488h84v-71h3q18 39 49.5 61t79.5 22q15 0 32 -3.5t36 -16.5l-28 -80q-31 16 -60 16q-27 0 -47.5 -13t-34 -35.5t-20 -51.5t-6.5 -61v-255h-88v488z" />
    <glyph glyph-name="s" unicode="s" horiz-adv-x="484" 
d="M124 144q0 -23 9.5 -40t25.5 -27.5t36.5 -15.5t42.5 -5q60 0 87 19t27 61q0 29 -17 43.5t-55 21.5l-92 16q-23 4 -47.5 12t-44.5 23t-33 38t-13 58q0 36 14.5 64t40 47.5t60 30t75.5 10.5q39 0 73 -9t59.5 -28t40.5 -47.5t15 -67.5h-84q0 39 -28 61.5t-76 22.5
q-45 0 -74.5 -19t-29.5 -57q0 -27 17.5 -42t62.5 -23l92 -16q26 -5 50 -13.5t42 -24t29 -39t11 -58.5q0 -77 -55 -114.5t-145 -37.5q-94 0 -147 40.5t-53 115.5h84z" />
    <glyph glyph-name="t" unicode="t" horiz-adv-x="328" 
d="M88 416h-92v72h92v148h88v-148h128v-72h-128v-268q0 -39 16 -55.5t52 -16.5h60v-76h-72q-72 0 -108 34t-36 106v276z" />
    <glyph glyph-name="u" unicode="u" horiz-adv-x="560" 
d="M68 488h88v-284q0 -78 30.5 -109t81.5 -31q57 0 92.5 47t35.5 125v252h88v-488h-84v72h-4q-42 -84 -148 -84q-36 0 -68.5 10.5t-57.5 34.5t-39.5 63t-14.5 96v296z" />
    <glyph glyph-name="v" unicode="v" horiz-adv-x="468" 
d="M4 488h96l136 -392h4l136 392h88l-180 -488h-96z" />
    <glyph glyph-name="w" unicode="w" horiz-adv-x="724" 
d="M4 488h92l100 -396h4l112 396h104l112 -396h4l100 396h88l-140 -488h-108l-108 400h-4l-108 -400h-108z" />
    <glyph glyph-name="x" unicode="x" horiz-adv-x="464" 
d="M184 246l-168 242h104l117 -175l115 175h96l-169 -241l173 -247h-104l-121 181l-119 -181h-96z" />
    <glyph glyph-name="y" unicode="y" horiz-adv-x="468" 
d="M65 -152q84 0 120 100l11 31l-192 509h96l136 -392h4l136 392h88l-207 -564q-10 -27 -25 -54t-36 -49t-49.5 -35.5t-65.5 -13.5h-48v76h32z" />
    <glyph glyph-name="z" unicode="z" horiz-adv-x="444" 
d="M32 488h376v-60l-259 -356h263v-72h-376v52l264 364h-268v72z" />
    <glyph glyph-name="braceleft" unicode="{" horiz-adv-x="356" 
d="M132 100q0 37 -4.5 62t-17 40.5t-34.5 22.5t-56 7v60q34 0 56 7t34.5 22.5t17 40.5t4.5 62v168q0 36 7.5 64t25.5 47.5t48 30t75 10.5h52v-68h-48q-47 0 -63.5 -19t-16.5 -61v-196q0 -54 -21.5 -87.5t-78.5 -48.5v-4q57 -15 78.5 -48.5t21.5 -87.5v-204q0 -42 16.5 -61
t63.5 -19h48v-68h-52q-45 0 -75 10t-48 29.5t-25.5 48t-7.5 64.5v176z" />
    <glyph glyph-name="bar" unicode="|" horiz-adv-x="256" 
d="M88 760h80v-1000h-80v1000z" />
    <glyph glyph-name="braceright" unicode="}" horiz-adv-x="356" 
d="M64 -160q47 0 63.5 19t16.5 61v204q0 54 21.5 87.5t78.5 48.5v4q-57 15 -78.5 48.5t-21.5 87.5v196q0 42 -16.5 61t-63.5 19h-48v68h52q45 0 75 -10.5t48 -30t25.5 -47.5t7.5 -64v-168q0 -37 4.5 -62t17 -40.5t34 -22.5t56.5 -7v-60q-35 0 -56.5 -7t-34 -22.5t-17 -40.5
t-4.5 -62v-176q0 -36 -7.5 -64.5t-25.5 -48t-48 -29.5t-75 -10h-52v68h48z" />
    <glyph glyph-name="asciitilde" unicode="~" 
d="M56 184q0 39 10.5 67.5t28 47.5t40.5 28t49 9q34 0 61 -12t50.5 -26t44.5 -26t44 -12q24 0 38 17t14 59h76q0 -39 -10 -67.5t-27.5 -47.5t-40 -28t-46.5 -9q-34 0 -62 12.5t-52 27.5t-46 27.5t-44 12.5q-24 0 -38 -19t-14 -61h-76z" />
    <glyph glyph-name="uni00A0" unicode="&#xa0;" horiz-adv-x="220" 
 />
    <glyph glyph-name="exclamdown" unicode="&#xa1;" horiz-adv-x="280" 
d="M88 488h104v-108h-104v108zM116 296h48l28 -304v-192h-104v192z" />
    <glyph glyph-name="cent" unicode="&#xa2;" 
d="M252 95q-93 14 -144.5 80.5t-51.5 172.5q0 53 15.5 96.5t42.5 76t63.5 53t78.5 27.5v99h88v-100q76 -13 119.5 -60.5t52.5 -119.5h-88q-8 48 -40 78t-92 30q-32 0 -59 -13t-46.5 -36.5t-31 -57t-11.5 -73.5q0 -41 11.5 -74t31 -56.5t46.5 -36.5t59 -13q60 0 92 30t40 78
h88q-9 -73 -53.5 -121.5t-122.5 -59.5v-107h-88v107z" />
    <glyph glyph-name="sterling" unicode="&#xa3;" 
d="M60 388h87q-11 33 -19 67t-8 69q0 81 50 128.5t134 47.5q164 0 176 -180h-84q-5 60 -28 84t-68 24q-38 0 -65 -25t-27 -71q0 -37 10 -72.5t23 -71.5h159v-62h-138q6 -23 10 -45t4 -45q0 -52 -14 -105q37 -25 71.5 -46t70.5 -21q31 0 48.5 22.5t19.5 77.5h76
q-2 -32 -9.5 -63t-24.5 -56.5t-44.5 -41t-69.5 -15.5q-23 0 -44 7t-41.5 18t-40 25.5t-38.5 28.5q-20 -35 -51.5 -57t-76.5 -22q-49 0 -76.5 26.5t-27.5 65.5q0 54 32.5 81t83.5 27q19 0 36 -4.5t34 -11.5q1 8 1.5 16t0.5 16q0 31 -7 61.5t-17 60.5h-108v62zM110 40
q26 0 42.5 20t25.5 48q-17 11 -33.5 17.5t-32.5 6.5q-20 0 -34 -13t-14 -33t11.5 -33t34.5 -13z" />
    <glyph glyph-name="currency" unicode="&#xa4;" 
d="M88 192l58 59q-13 20 -21.5 43t-8.5 50t9 51t23 44l-60 61l44 44l60 -62q41 26 92 26q50 0 91 -26l61 62l44 -44l-60 -61q14 -20 23 -44t9 -51t-9 -50t-22 -43l59 -59l-44 -44l-58 59q-39 -27 -94 -27t-94 27l-58 -59zM284 244q42 0 69 27t27 73t-27 73t-69 27t-69 -27
t-27 -73t27 -73t69 -27z" />
    <glyph glyph-name="yen" unicode="&#xa5;" 
d="M88 304h152v6l-224 378h100l170 -296h4l170 296h92l-224 -381v-3h152v-56h-152v-76h152v-56h-152v-116h-88v116h-152v56h152v76h-152v56z" />
    <glyph glyph-name="brokenbar" unicode="&#xa6;" horiz-adv-x="256" 
d="M88 688h80v-352h-80v352zM88 188h80v-352h-80v352z" />
    <glyph glyph-name="section" unicode="&#xa7;" horiz-adv-x="572" 
d="M152 -60q5 -54 39.5 -77t88.5 -23q60 0 92 25.5t32 70.5q0 39 -25 58.5t-71 33.5l-92 28q-82 25 -119 66t-37 110q0 54 31.5 94.5t85.5 60.5q-45 20 -71 52t-26 89q0 40 15.5 72t44 54.5t67 34t85.5 11.5q45 0 82.5 -9.5t65.5 -29.5t44.5 -52t19.5 -77h-84
q-5 54 -39.5 77t-88.5 23q-60 0 -92 -25.5t-32 -70.5q0 -39 25 -58.5t71 -33.5l92 -28q82 -25 119 -66t37 -110q0 -54 -31.5 -94.5t-85.5 -60.5q43 -20 70 -52t27 -89q0 -41 -15.5 -72.5t-44 -54t-67.5 -34t-85 -11.5q-45 0 -82.5 9.5t-65.5 29.5t-44.5 52t-19.5 77h84z
M255 359q-57 -14 -84 -45.5t-27 -69.5q0 -26 7 -43.5t20.5 -30t33.5 -21.5t47 -17l57 -18q60 13 89.5 44t29.5 70q0 25 -7 42.5t-20.5 30.5t-33.5 22t-47 17z" />
    <glyph glyph-name="dieresis" unicode="&#xa8;" horiz-adv-x="560" 
d="M336 696h88v-92h-88v92zM136 696h88v-92h-88v92z" />
    <glyph glyph-name="copyright" unicode="&#xa9;" horiz-adv-x="776" 
d="M36 348q0 75 26.5 139.5t73.5 112t111.5 74t140.5 26.5q75 0 139 -26.5t111.5 -74t74.5 -112t27 -139.5t-26.5 -141t-73.5 -114.5t-111.5 -76.5t-140.5 -28t-140.5 28t-111.5 76.5t-73.5 114.5t-26.5 141zM108 348q0 -62 20.5 -116.5t57.5 -95t88.5 -64.5t113.5 -24
q60 0 111.5 24t89 64.5t58.5 95t21 116.5q0 61 -20.5 114t-57.5 91.5t-88.5 60.5t-113.5 22t-113.5 -22t-88.5 -60.5t-57.5 -91.5t-20.5 -114zM216 348q0 79 45.5 127.5t126.5 48.5q66 0 103 -33.5t47 -90.5h-70q-8 32 -26.5 48t-53.5 16q-23 0 -41.5 -9.5t-31.5 -25
t-20 -36.5t-7 -45t7 -45t20 -36.5t31.5 -25t41.5 -9.5q35 0 53.5 16t26.5 48h70q-10 -57 -48 -90.5t-104 -33.5q-81 0 -125.5 48.5t-44.5 127.5z" />
    <glyph glyph-name="ordfeminine" unicode="&#xaa;" horiz-adv-x="388" 
d="M36 434q0 48 27.5 73.5t87.5 33.5l65 8q28 4 36 8.5t8 18.5q0 25 -15 43t-49 18q-29 0 -48 -14t-21 -45h-75q2 32 14.5 54.5t32 36.5t44.5 20.5t53 6.5q69 0 106.5 -30t37.5 -93v-229h-77v41h-3q-28 -49 -109 -49q-57 0 -86 26.5t-29 71.5zM260 513q-9 -13 -34 -16
l-56 -7q-29 -4 -41.5 -17.5t-12.5 -32.5q0 -23 15 -33.5t42 -10.5q35 0 61 21.5t26 69.5v26z" />
    <glyph glyph-name="guillemotleft" unicode="&#xab;" horiz-adv-x="512" 
d="M388 456h72l-116 -204l116 -204h-72l-144 204zM52 252l144 204h72l-116 -204l116 -204h-72z" />
    <glyph glyph-name="logicalnot" unicode="&#xac;" 
d="M56 292h456v-264h-80v188h-376v76z" />
    <glyph glyph-name="uni00AD" unicode="&#xad;" horiz-adv-x="396" 
d="M60 292h276v-80h-276v80z" />
    <glyph glyph-name="registered" unicode="&#xae;" horiz-adv-x="776" 
d="M36 348q0 75 26.5 139.5t73.5 112t111.5 74t140.5 26.5q75 0 139 -26.5t111.5 -74t74.5 -112t27 -139.5t-26.5 -141t-73.5 -114.5t-111.5 -76.5t-140.5 -28t-140.5 28t-111.5 76.5t-73.5 114.5t-26.5 141zM108 348q0 -62 20.5 -116.5t57.5 -95t88.5 -64.5t113.5 -24
q60 0 111.5 24t89 64.5t58.5 95t21 116.5q0 61 -20.5 114t-57.5 91.5t-88.5 60.5t-113.5 22t-113.5 -22t-88.5 -60.5t-57.5 -91.5t-20.5 -114zM248 520h158q64 0 97 -28.5t33 -79.5q0 -35 -21 -62.5t-55 -40.5l88 -133h-78l-77 124h-73v-124h-72v344zM320 460v-100h84
q30 0 45 14t15 38q0 48 -60 48h-84z" />
    <glyph glyph-name="macron" unicode="&#xaf;" horiz-adv-x="560" 
d="M140 684h276v-68h-276v68z" />
    <glyph glyph-name="degree" unicode="&#xb0;" horiz-adv-x="360" 
d="M180 428q-30 0 -55.5 10t-44 28t-29.5 43t-11 55t11 55t29.5 43t44 28t55.5 10t55.5 -10t44 -28t29.5 -43t11 -55t-11 -55t-29.5 -43t-44 -28t-55.5 -10zM180 636q-29 0 -48.5 -20t-19.5 -52t19.5 -52t48.5 -20t48.5 20t19.5 52t-19.5 52t-48.5 20z" />
    <glyph glyph-name="plusminus" unicode="&#xb1;" 
d="M56 392h188v174h80v-174h188v-76h-188v-174h-80v174h-188v76zM56 76h456v-76h-456v76z" />
    <glyph glyph-name="twosuperior" unicode="&#xb2;" horiz-adv-x="352" 
d="M32 496q0 39 10 66.5t26 47t36 32.5t40 23l24 12q29 14 48.5 29.5t19.5 33.5q0 22 -14.5 35t-45.5 13q-30 0 -48 -16.5t-20 -47.5h-72q1 34 13 57.5t31.5 38.5t44 21.5t51.5 6.5q60 0 98 -27t38 -79q0 -24 -10 -42t-26 -31.5t-36 -24.5t-40 -21l-24 -12
q-22 -11 -39 -25.5t-17 -25.5h192v-64h-280z" />
    <glyph glyph-name="threesuperior" unicode="&#xb3;" horiz-adv-x="352" 
d="M106 600q0 -27 19.5 -40.5t50.5 -13.5q30 0 50 11.5t20 38.5t-20 39.5t-50 12.5h-28v52h28q29 0 45.5 11.5t16.5 34.5t-16.5 33.5t-45.5 10.5t-45.5 -13.5t-16.5 -36.5h-72q0 54 37.5 81t100.5 27q60 0 96 -27t36 -69q0 -27 -14.5 -49t-41.5 -28q30 -7 49 -30.5t19 -56.5
q0 -48 -39.5 -74t-108.5 -26q-63 0 -102.5 25.5t-39.5 86.5h72z" />
    <glyph glyph-name="acute" unicode="&#xb4;" horiz-adv-x="560" 
d="M352 732h104l-144 -164h-64z" />
    <glyph glyph-name="mu" unicode="&#xb5;" 
d="M76 488h88v-284q0 -78 29 -109t83 -31q57 0 92.5 47t35.5 125v252h88v-364q0 -27 10.5 -37.5t33.5 -10.5h16v-76h-36q-49 0 -75 18.5t-34 53.5h-3q-42 -84 -148 -84q-65 0 -100 38h-4q8 -48 10 -87t2 -85v-74h-88v708z" />
    <glyph glyph-name="paragraph" unicode="&#xb6;" horiz-adv-x="628" 
d="M436 688h88v-688h-88v688zM264 249q-105 8 -164.5 66.5t-59.5 152.5q0 50 17.5 90.5t50 69.5t79 44.5t105.5 15.5h60v-688h-88v249z" />
    <glyph glyph-name="periodcentered" unicode="&#xb7;" horiz-adv-x="264" 
d="M76 308h112v-112h-112v112z" />
    <glyph glyph-name="cedilla" unicode="&#xb8;" horiz-adv-x="560" 
d="M264 0h32v-36q45 -3 68.5 -28t23.5 -60q0 -42 -29 -69t-87 -27h-56v56h52q24 0 38 8t14 32q0 21 -14 30.5t-38 9.5h-32z" />
    <glyph glyph-name="onesuperior" unicode="&#xb9;" horiz-adv-x="352" 
d="M40 756l140 84h48v-280h92v-64h-268v64h100v188l-80 -46z" />
    <glyph glyph-name="ordmasculine" unicode="&#xba;" horiz-adv-x="417" 
d="M32 516q0 41 13 74.5t36 57t55.5 36.5t71.5 13q82 0 129.5 -48.5t47.5 -132.5q0 -41 -13 -74.5t-36 -57t-56 -36t-72 -12.5q-81 0 -128.5 48t-47.5 132zM115 516q0 -52 25.5 -84t67.5 -32q43 0 68.5 32t25.5 84q0 54 -25.5 85t-68.5 31q-42 0 -67.5 -31t-25.5 -85z" />
    <glyph glyph-name="guillemotright" unicode="&#xbb;" horiz-adv-x="512" 
d="M360 252l-116 204h72l144 -204l-144 -204h-72zM168 252l-116 204h72l144 -204l-144 -204h-72z" />
    <glyph glyph-name="onequarter" unicode="&#xbc;" horiz-adv-x="776" 
d="M40 604l140 84h48v-280h92v-64h-268v64h100v188l-80 -46zM552 700h68l-348 -712h-68zM448 112l188 232h64v-220h48v-60h-48v-64h-76v64h-176v48zM624 124v117l-93 -117h93z" />
    <glyph glyph-name="onehalf" unicode="&#xbd;" horiz-adv-x="776" 
d="M40 604l140 84h48v-280h92v-64h-268v64h100v188l-80 -46zM544 700h68l-348 -712h-68zM456 0q0 39 10 66.5t26 47t36 32.5t40 23l24 12q29 14 48.5 29.5t19.5 33.5q0 22 -14.5 35t-45.5 13q-30 0 -48 -16.5t-20 -47.5h-72q1 34 13 57.5t31.5 38.5t44 21.5t51.5 6.5
q60 0 98 -27t38 -79q0 -24 -10 -42t-26 -31.5t-36 -24.5t-40 -21l-24 -12q-22 -11 -39 -25.5t-17 -25.5h192v-64h-280z" />
    <glyph glyph-name="threequarters" unicode="&#xbe;" horiz-adv-x="776" 
d="M106 448q0 -27 19.5 -40.5t50.5 -13.5q30 0 50 11.5t20 38.5t-20 39.5t-50 12.5h-28v52h28q29 0 45.5 11.5t16.5 34.5t-16.5 33.5t-45.5 10.5t-45.5 -13.5t-16.5 -36.5h-72q0 54 37.5 81t100.5 27q60 0 96 -27t36 -69q0 -27 -14.5 -49t-41.5 -28q30 -7 49 -30.5t19 -56.5
q0 -48 -39.5 -74t-108.5 -26q-63 0 -102.5 25.5t-39.5 86.5h72zM548 700h68l-348 -712h-68zM448 112l188 232h64v-220h48v-60h-48v-64h-76v64h-176v48zM624 124v117l-93 -117h93z" />
    <glyph glyph-name="questiondown" unicode="&#xbf;" horiz-adv-x="504" 
d="M304 264q0 -35 -7.5 -61.5t-19.5 -47t-27.5 -35.5t-31.5 -28l-22 -17q-26 -20 -45 -43t-19 -60q0 -46 31 -77t85 -31q34 0 59 11.5t41 31t24 46t8 55.5h88q0 -42 -13 -82t-40 -70.5t-68.5 -49t-98.5 -18.5q-45 0 -83.5 12.5t-66 36t-43 56.5t-15.5 75q0 30 7.5 53.5
t19.5 41.5t27.5 32.5t32.5 27.5l22 17q28 21 47.5 46t19.5 66v40h88v-28zM312 380h-104v108h104v-108z" />
    <glyph glyph-name="Agrave" unicode="&#xc0;" horiz-adv-x="644" 
d="M268 688h108l256 -688h-96l-65 180h-302l-65 -180h-92zM442 260l-120 332h-4l-120 -332h244zM144 932h104l104 -164h-64z" />
    <glyph glyph-name="Aacute" unicode="&#xc1;" horiz-adv-x="644" 
d="M268 688h108l256 -688h-96l-65 180h-302l-65 -180h-92zM442 260l-120 332h-4l-120 -332h244zM392 932h104l-144 -164h-64z" />
    <glyph glyph-name="Acircumflex" unicode="&#xc2;" horiz-adv-x="644" 
d="M268 688h108l256 -688h-96l-65 180h-302l-65 -180h-92zM442 260l-120 332h-4l-120 -332h244zM280 932h80l128 -164h-84l-84 112l-84 -112h-84z" />
    <glyph glyph-name="Atilde" unicode="&#xc3;" horiz-adv-x="644" 
d="M268 688h108l256 -688h-96l-65 180h-302l-65 -180h-92zM442 260l-120 332h-4l-120 -332h244zM156 768q2 45 26 76.5t70 31.5q22 0 42 -7.5t37 -16.5t32 -16.5t29 -7.5q21 0 31 15.5t13 32.5h48q-2 -45 -26 -76.5t-70 -31.5q-23 0 -42.5 7.5t-36.5 16.5t-32.5 16.5
t-28.5 7.5q-21 0 -31 -15.5t-13 -32.5h-48z" />
    <glyph glyph-name="Adieresis" unicode="&#xc4;" horiz-adv-x="644" 
d="M268 688h108l256 -688h-96l-65 180h-302l-65 -180h-92zM442 260l-120 332h-4l-120 -332h244zM376 860h88v-92h-88v92zM176 860h88v-92h-88v92z" />
    <glyph glyph-name="Aring" unicode="&#xc5;" horiz-adv-x="644" 
d="M268 688h108l256 -688h-96l-65 180h-302l-65 -180h-92zM442 260l-120 332h-4l-120 -332h244zM320 764q-20 0 -38 7t-32 19.5t-22 30.5t-8 39t8 39t22 30.5t32 19.5t38 7t38 -7t32 -19.5t22 -30.5t8 -39t-8 -39t-22 -30.5t-32 -19.5t-38 -7zM320 808q22 0 37 15t15 37
t-15 37t-37 15t-37 -15t-15 -37t15 -37t37 -15z" />
    <glyph glyph-name="AE" unicode="&#xc6;" horiz-adv-x="1064" 
d="M512 688h492v-80h-372v-218h296v-80h-296v-230h380v-80h-472v160h-305l-115 -160h-104zM292 240h248v340h-4z" />
    <glyph glyph-name="Ccedilla" unicode="&#xc7;" horiz-adv-x="712" 
d="M44 344q0 76 24 141.5t68 113t105 74.5t135 27q61 0 110 -16.5t86 -46.5t61 -72t35 -93h-95q-20 70 -68 107t-129 37q-53 0 -96.5 -20t-74.5 -56t-48 -86t-17 -110q0 -59 17 -108.5t47.5 -86t73.5 -57t94 -20.5q86 0 133.5 37t67.5 107h95q-11 -51 -36 -93t-62.5 -72
t-87 -46.5t-110.5 -16.5q-72 0 -132.5 26t-104 73.5t-67.5 113t-24 143.5zM356 0h32v-36q45 -3 68.5 -28t23.5 -60q0 -42 -29 -69t-87 -27h-56v56h52q24 0 38 8t14 32q0 21 -14 30.5t-38 9.5h-32z" />
    <glyph glyph-name="Egrave" unicode="&#xc8;" horiz-adv-x="612" 
d="M88 688h464v-80h-372v-218h296v-80h-296v-230h380v-80h-472v688zM144 932h104l104 -164h-64z" />
    <glyph glyph-name="Eacute" unicode="&#xc9;" horiz-adv-x="612" 
d="M88 688h464v-80h-372v-218h296v-80h-296v-230h380v-80h-472v688zM392 932h104l-144 -164h-64z" />
    <glyph glyph-name="Ecircumflex" unicode="&#xca;" horiz-adv-x="612" 
d="M88 688h464v-80h-372v-218h296v-80h-296v-230h380v-80h-472v688zM280 932h80l128 -164h-84l-84 112l-84 -112h-84z" />
    <glyph glyph-name="Edieresis" unicode="&#xcb;" horiz-adv-x="612" 
d="M88 688h464v-80h-372v-218h296v-80h-296v-230h380v-80h-472v688zM376 860h88v-92h-88v92zM176 860h88v-92h-88v92z" />
    <glyph glyph-name="Igrave" unicode="&#xcc;" horiz-adv-x="268" 
d="M88 688h92v-688h-92v688zM-41 932h104l104 -164h-64z" />
    <glyph glyph-name="Iacute" unicode="&#xcd;" horiz-adv-x="268" 
d="M88 688h92v-688h-92v688zM207 932h104l-144 -164h-64z" />
    <glyph glyph-name="Icircumflex" unicode="&#xce;" horiz-adv-x="268" 
d="M88 688h92v-688h-92v688zM95 932h80l128 -164h-84l-84 112l-84 -112h-84z" />
    <glyph glyph-name="Idieresis" unicode="&#xcf;" horiz-adv-x="268" 
d="M88 688h92v-688h-92v688zM191 860h88v-92h-88v92zM-9 860h88v-92h-88v92z" />
    <glyph glyph-name="Eth" unicode="&#xd0;" horiz-adv-x="704" 
d="M4 384h84v304h212q89 0 156.5 -25.5t112.5 -71t68 -109t23 -138.5t-23 -138.5t-68 -109t-112.5 -71t-156.5 -25.5h-212v308h-84v76zM180 608v-224h160v-76h-160v-228h120q72 0 122.5 21.5t82 58t45.5 84t14 100.5q0 52 -14 100t-45.5 84.5t-82 58t-122.5 21.5h-120z" />
    <glyph glyph-name="Ntilde" unicode="&#xd1;" horiz-adv-x="736" 
d="M88 688h88l380 -532h4l-4 532h92v-688h-88l-380 528h-4l4 -528h-92v688zM204 768q2 45 26 76.5t70 31.5q22 0 42 -7.5t37 -16.5t32 -16.5t29 -7.5q21 0 31 15.5t13 32.5h48q-2 -45 -26 -76.5t-70 -31.5q-23 0 -42.5 7.5t-36.5 16.5t-32.5 16.5t-28.5 7.5q-21 0 -31 -15.5
t-13 -32.5h-48z" />
    <glyph glyph-name="Ograve" unicode="&#xd2;" horiz-adv-x="760" 
d="M44 344q0 76 24 141.5t68.5 113t106.5 74.5t137 27q73 0 135 -27t106.5 -74.5t69.5 -113t25 -141.5q0 -77 -25 -142t-69.5 -112.5t-106.5 -74.5t-135 -27q-75 0 -137 27t-106.5 74.5t-68.5 112.5t-24 142zM140 344q0 -59 17 -108.5t48.5 -86t76 -57t98.5 -20.5t98.5 20.5
t76 57t48.5 86t17 108.5q0 58 -17 108t-48.5 86.5t-76 57t-98.5 20.5t-98.5 -20.5t-76 -57t-48.5 -86.5t-17 -108zM204 932h104l104 -164h-64z" />
    <glyph glyph-name="Oacute" unicode="&#xd3;" horiz-adv-x="760" 
d="M44 344q0 76 24 141.5t68.5 113t106.5 74.5t137 27q73 0 135 -27t106.5 -74.5t69.5 -113t25 -141.5q0 -77 -25 -142t-69.5 -112.5t-106.5 -74.5t-135 -27q-75 0 -137 27t-106.5 74.5t-68.5 112.5t-24 142zM140 344q0 -59 17 -108.5t48.5 -86t76 -57t98.5 -20.5t98.5 20.5
t76 57t48.5 86t17 108.5q0 58 -17 108t-48.5 86.5t-76 57t-98.5 20.5t-98.5 -20.5t-76 -57t-48.5 -86.5t-17 -108zM452 932h104l-144 -164h-64z" />
    <glyph glyph-name="Ocircumflex" unicode="&#xd4;" horiz-adv-x="760" 
d="M44 344q0 76 24 141.5t68.5 113t106.5 74.5t137 27q73 0 135 -27t106.5 -74.5t69.5 -113t25 -141.5q0 -77 -25 -142t-69.5 -112.5t-106.5 -74.5t-135 -27q-75 0 -137 27t-106.5 74.5t-68.5 112.5t-24 142zM140 344q0 -59 17 -108.5t48.5 -86t76 -57t98.5 -20.5t98.5 20.5
t76 57t48.5 86t17 108.5q0 58 -17 108t-48.5 86.5t-76 57t-98.5 20.5t-98.5 -20.5t-76 -57t-48.5 -86.5t-17 -108zM340 932h80l128 -164h-84l-84 112l-84 -112h-84z" />
    <glyph glyph-name="Otilde" unicode="&#xd5;" horiz-adv-x="760" 
d="M44 344q0 76 24 141.5t68.5 113t106.5 74.5t137 27q73 0 135 -27t106.5 -74.5t69.5 -113t25 -141.5q0 -77 -25 -142t-69.5 -112.5t-106.5 -74.5t-135 -27q-75 0 -137 27t-106.5 74.5t-68.5 112.5t-24 142zM140 344q0 -59 17 -108.5t48.5 -86t76 -57t98.5 -20.5t98.5 20.5
t76 57t48.5 86t17 108.5q0 58 -17 108t-48.5 86.5t-76 57t-98.5 20.5t-98.5 -20.5t-76 -57t-48.5 -86.5t-17 -108zM216 768q2 45 26 76.5t70 31.5q22 0 42 -7.5t37 -16.5t32 -16.5t29 -7.5q21 0 31 15.5t13 32.5h48q-2 -45 -26 -76.5t-70 -31.5q-23 0 -42.5 7.5t-36.5 16.5
t-32.5 16.5t-28.5 7.5q-21 0 -31 -15.5t-13 -32.5h-48z" />
    <glyph glyph-name="Odieresis" unicode="&#xd6;" horiz-adv-x="760" 
d="M44 344q0 76 24 141.5t68.5 113t106.5 74.5t137 27q73 0 135 -27t106.5 -74.5t69.5 -113t25 -141.5q0 -77 -25 -142t-69.5 -112.5t-106.5 -74.5t-135 -27q-75 0 -137 27t-106.5 74.5t-68.5 112.5t-24 142zM140 344q0 -59 17 -108.5t48.5 -86t76 -57t98.5 -20.5t98.5 20.5
t76 57t48.5 86t17 108.5q0 58 -17 108t-48.5 86.5t-76 57t-98.5 20.5t-98.5 -20.5t-76 -57t-48.5 -86.5t-17 -108zM436 860h88v-92h-88v92zM236 860h88v-92h-88v92z" />
    <glyph glyph-name="multiply" unicode="&#xd7;" 
d="M128 464l156 -158l156 158l52 -52l-157 -158l157 -158l-52 -52l-156 158l-156 -158l-52 52l156 158l-156 158z" />
    <glyph glyph-name="Oslash" unicode="&#xd8;" horiz-adv-x="760" 
d="M137 89q-45 48 -69 112.5t-24 142.5q0 76 25 141.5t69.5 113t106 74.5t135.5 27q57 0 106 -17t91 -47l51 64h76l-82 -103q45 -48 69.5 -112.5t24.5 -140.5q0 -77 -25.5 -142t-70.5 -112.5t-106.5 -74.5t-133.5 -27q-58 0 -107 16.5t-91 45.5l-50 -62h-76zM620 344
q0 54 -14.5 100t-41.5 82l-327 -407q59 -47 143 -47q54 0 98.5 20.5t76 57t48.5 86t17 108.5zM140 344q0 -54 14.5 -100.5t40.5 -81.5l327 406q-60 48 -142 48q-54 0 -98.5 -20.5t-76 -57t-48.5 -86.5t-17 -108z" />
    <glyph glyph-name="Ugrave" unicode="&#xd9;" horiz-adv-x="696" 
d="M72 688h92v-416q0 -96 45 -148t139 -52t139 52t45 148v416h92v-416q0 -77 -20 -130.5t-56.5 -88t-87.5 -50t-112 -15.5q-62 0 -112.5 15.5t-87 50t-56.5 88t-20 130.5v416zM172 932h104l104 -164h-64z" />
    <glyph glyph-name="Uacute" unicode="&#xda;" horiz-adv-x="696" 
d="M72 688h92v-416q0 -96 45 -148t139 -52t139 52t45 148v416h92v-416q0 -77 -20 -130.5t-56.5 -88t-87.5 -50t-112 -15.5q-62 0 -112.5 15.5t-87 50t-56.5 88t-20 130.5v416zM420 932h104l-144 -164h-64z" />
    <glyph glyph-name="Ucircumflex" unicode="&#xdb;" horiz-adv-x="696" 
d="M72 688h92v-416q0 -96 45 -148t139 -52t139 52t45 148v416h92v-416q0 -77 -20 -130.5t-56.5 -88t-87.5 -50t-112 -15.5q-62 0 -112.5 15.5t-87 50t-56.5 88t-20 130.5v416zM308 932h80l128 -164h-84l-84 112l-84 -112h-84z" />
    <glyph glyph-name="Udieresis" unicode="&#xdc;" horiz-adv-x="696" 
d="M72 688h92v-416q0 -96 45 -148t139 -52t139 52t45 148v416h92v-416q0 -77 -20 -130.5t-56.5 -88t-87.5 -50t-112 -15.5q-62 0 -112.5 15.5t-87 50t-56.5 88t-20 130.5v416zM404 860h88v-92h-88v92zM204 860h88v-92h-88v92z" />
    <glyph glyph-name="Yacute" unicode="&#xdd;" horiz-adv-x="608" 
d="M256 270l-244 418h104l186 -324h4l194 324h96l-248 -411v-277h-92v270zM376 932h104l-144 -164h-64z" />
    <glyph glyph-name="Thorn" unicode="&#xde;" horiz-adv-x="636" 
d="M88 688h92v-112h168q59 0 104.5 -16t76.5 -45.5t47 -70t16 -88.5t-16 -90t-47 -72.5t-76.5 -48t-104.5 -17.5h-168v-128h-92v688zM180 496v-288h172q37 0 65 12t46.5 32t27.5 47t9 57q0 60 -36.5 100t-111.5 40h-172z" />
    <glyph glyph-name="germandbls" unicode="&#xdf;" 
d="M76 512q0 61 16.5 104.5t45.5 72t68.5 42t85.5 13.5q48 0 82.5 -13t57 -34t33.5 -48.5t11 -56.5q0 -39 -16.5 -64t-36 -44t-35.5 -36t-16 -40q0 -19 12.5 -33.5t31 -28.5t40.5 -29t40.5 -35t31 -46.5t12.5 -63.5q0 -42 -15 -74t-41.5 -53.5t-63.5 -33t-80 -11.5h-84v72
h84q51 0 81.5 23.5t30.5 68.5q0 29 -12 48t-29.5 33.5t-38.5 27.5t-38.5 29.5t-29.5 39.5t-12 58q0 26 7.5 45t19.5 33.5t25 26.5t25 24.5t19.5 27.5t7.5 35q0 15 -6 29t-19.5 25.5t-34 18.5t-48.5 7q-57 0 -90.5 -37t-33.5 -123v-512h-88v512z" />
    <glyph glyph-name="agrave" unicode="&#xe0;" horiz-adv-x="524" 
d="M48 130q0 64 36 99t120 49l100 16q19 3 31.5 5.5t20 7t10 11.5t2.5 18q0 38 -26 65t-78 27q-54 0 -81.5 -25t-30.5 -67h-84q1 34 14.5 64t38.5 52.5t61 35t82 12.5q97 0 144.5 -47.5t47.5 -132.5v-320h-84v78h-4q-18 -38 -59 -62t-101 -24q-72 0 -116 36t-44 102z
M368 255q-14 -17 -52 -23l-92 -16q-45 -8 -66.5 -25.5t-21.5 -52.5q0 -32 21 -53t63 -21q28 0 55 9t47.5 27t33 45t12.5 63v47zM85 732h104l104 -164h-64z" />
    <glyph glyph-name="aacute" unicode="&#xe1;" horiz-adv-x="524" 
d="M48 130q0 64 36 99t120 49l100 16q19 3 31.5 5.5t20 7t10 11.5t2.5 18q0 38 -26 65t-78 27q-54 0 -81.5 -25t-30.5 -67h-84q1 34 14.5 64t38.5 52.5t61 35t82 12.5q97 0 144.5 -47.5t47.5 -132.5v-320h-84v78h-4q-18 -38 -59 -62t-101 -24q-72 0 -116 36t-44 102z
M368 255q-14 -17 -52 -23l-92 -16q-45 -8 -66.5 -25.5t-21.5 -52.5q0 -32 21 -53t63 -21q28 0 55 9t47.5 27t33 45t12.5 63v47zM333 732h104l-144 -164h-64z" />
    <glyph glyph-name="acircumflex" unicode="&#xe2;" horiz-adv-x="524" 
d="M48 130q0 64 36 99t120 49l100 16q19 3 31.5 5.5t20 7t10 11.5t2.5 18q0 38 -26 65t-78 27q-54 0 -81.5 -25t-30.5 -67h-84q1 34 14.5 64t38.5 52.5t61 35t82 12.5q97 0 144.5 -47.5t47.5 -132.5v-320h-84v78h-4q-18 -38 -59 -62t-101 -24q-72 0 -116 36t-44 102z
M368 255q-14 -17 -52 -23l-92 -16q-45 -8 -66.5 -25.5t-21.5 -52.5q0 -32 21 -53t63 -21q28 0 55 9t47.5 27t33 45t12.5 63v47zM221 732h80l128 -164h-84l-84 112l-84 -112h-84z" />
    <glyph glyph-name="atilde" unicode="&#xe3;" horiz-adv-x="524" 
d="M48 130q0 64 36 99t120 49l100 16q19 3 31.5 5.5t20 7t10 11.5t2.5 18q0 38 -26 65t-78 27q-54 0 -81.5 -25t-30.5 -67h-84q1 34 14.5 64t38.5 52.5t61 35t82 12.5q97 0 144.5 -47.5t47.5 -132.5v-320h-84v78h-4q-18 -38 -59 -62t-101 -24q-72 0 -116 36t-44 102z
M368 255q-14 -17 -52 -23l-92 -16q-45 -8 -66.5 -25.5t-21.5 -52.5q0 -32 21 -53t63 -21q28 0 55 9t47.5 27t33 45t12.5 63v47zM97 596q2 45 26 76.5t70 31.5q22 0 42 -7.5t37 -16.5t32 -16.5t29 -7.5q21 0 31 15.5t13 32.5h48q-2 -45 -26 -76.5t-70 -31.5q-23 0 -42.5 7.5
t-36.5 16.5t-32.5 16.5t-28.5 7.5q-21 0 -31 -15.5t-13 -32.5h-48z" />
    <glyph glyph-name="adieresis" unicode="&#xe4;" horiz-adv-x="524" 
d="M48 130q0 64 36 99t120 49l100 16q19 3 31.5 5.5t20 7t10 11.5t2.5 18q0 38 -26 65t-78 27q-54 0 -81.5 -25t-30.5 -67h-84q1 34 14.5 64t38.5 52.5t61 35t82 12.5q97 0 144.5 -47.5t47.5 -132.5v-320h-84v78h-4q-18 -38 -59 -62t-101 -24q-72 0 -116 36t-44 102z
M368 255q-14 -17 -52 -23l-92 -16q-45 -8 -66.5 -25.5t-21.5 -52.5q0 -32 21 -53t63 -21q28 0 55 9t47.5 27t33 45t12.5 63v47zM317 696h88v-92h-88v92zM117 696h88v-92h-88v92z" />
    <glyph glyph-name="aring" unicode="&#xe5;" horiz-adv-x="524" 
d="M48 130q0 64 36 99t120 49l100 16q19 3 31.5 5.5t20 7t10 11.5t2.5 18q0 38 -26 65t-78 27q-54 0 -81.5 -25t-30.5 -67h-84q1 34 14.5 64t38.5 52.5t61 35t82 12.5q97 0 144.5 -47.5t47.5 -132.5v-320h-84v78h-4q-18 -38 -59 -62t-101 -24q-72 0 -116 36t-44 102z
M368 255q-14 -17 -52 -23l-92 -16q-45 -8 -66.5 -25.5t-21.5 -52.5q0 -32 21 -53t63 -21q28 0 55 9t47.5 27t33 45t12.5 63v47zM261 564q-20 0 -38 7t-32 19.5t-22 30.5t-8 39t8 39t22 30.5t32 19.5t38 7t38 -7t32 -19.5t22 -30.5t8 -39t-8 -39t-22 -30.5t-32 -19.5t-38 -7z
M261 608q22 0 37 15t15 37t-15 37t-37 15t-37 -15t-15 -37t15 -37t37 -15z" />
    <glyph glyph-name="ae" unicode="&#xe6;" horiz-adv-x="844" 
d="M68 336q3 43 20 74.5t44 51t61 29t71 9.5q57 0 99 -18.5t65 -55.5q29 35 70 54.5t98 19.5q46 0 85 -15.5t67.5 -45.5t44 -73t15.5 -98v-36h-348q3 -79 41 -123.5t99 -44.5q28 0 48.5 7t34 18.5t21.5 26.5t12 32h88q-5 -33 -22 -62t-43.5 -50.5t-62 -34.5t-76.5 -13
q-69 0 -117 26.5t-76 75.5q-17 -30 -39.5 -49.5t-48 -31.5t-53 -16.5t-54.5 -4.5q-78 0 -121 38.5t-43 101.5t36.5 99.5t123.5 50.5l96 16q39 7 51.5 13t12.5 23q0 42 -25 70t-79 28q-45 0 -77 -22t-35 -70h-84zM228 60q28 0 53.5 8.5t45 26t30.5 44.5t11 65v51
q-14 -17 -52 -23l-92 -16q-48 -8 -68 -28t-20 -52q0 -35 23.5 -55.5t68.5 -20.5zM596 424q-52 0 -86.5 -34t-45.5 -92h251q-5 63 -36.5 94.5t-82.5 31.5z" />
    <glyph glyph-name="ccedilla" unicode="&#xe7;" horiz-adv-x="516" 
d="M40 244q0 58 17.5 105.5t49 81t73.5 51.5t92 18q96 0 149 -51t63 -133h-88q-8 48 -37.5 78t-86.5 30q-30 0 -55.5 -13t-44.5 -36.5t-29.5 -57t-10.5 -73.5q0 -41 10.5 -74t29.5 -56.5t44.5 -36.5t55.5 -13q57 0 86.5 30t37.5 78h88q-10 -82 -63 -133t-149 -51
q-54 0 -97 18t-73 51.5t-46 80.5t-16 106zM257 0h32v-36q45 -3 68.5 -28t23.5 -60q0 -42 -29 -69t-87 -27h-56v56h52q24 0 38 8t14 32q0 21 -14 30.5t-38 9.5h-32z" />
    <glyph glyph-name="egrave" unicode="&#xe8;" horiz-adv-x="524" 
d="M40 244q0 57 17.5 104t49 81t73.5 52.5t92 18.5q48 0 87.5 -15.5t68 -45.5t44.5 -73t16 -98v-36h-356q3 -78 41.5 -123t102.5 -45q54 0 83 25.5t37 58.5h88q-5 -33 -22 -62t-44 -50.5t-63 -34.5t-79 -13q-57 0 -101 18t-74 51.5t-45.5 80.5t-15.5 106zM272 424
q-51 0 -87 -33t-48 -93h261q-6 66 -38.5 96t-87.5 30zM97 732h104l104 -164h-64z" />
    <glyph glyph-name="eacute" unicode="&#xe9;" horiz-adv-x="524" 
d="M40 244q0 57 17.5 104t49 81t73.5 52.5t92 18.5q48 0 87.5 -15.5t68 -45.5t44.5 -73t16 -98v-36h-356q3 -78 41.5 -123t102.5 -45q54 0 83 25.5t37 58.5h88q-5 -33 -22 -62t-44 -50.5t-63 -34.5t-79 -13q-57 0 -101 18t-74 51.5t-45.5 80.5t-15.5 106zM272 424
q-51 0 -87 -33t-48 -93h261q-6 66 -38.5 96t-87.5 30zM345 732h104l-144 -164h-64z" />
    <glyph glyph-name="ecircumflex" unicode="&#xea;" horiz-adv-x="524" 
d="M40 244q0 57 17.5 104t49 81t73.5 52.5t92 18.5q48 0 87.5 -15.5t68 -45.5t44.5 -73t16 -98v-36h-356q3 -78 41.5 -123t102.5 -45q54 0 83 25.5t37 58.5h88q-5 -33 -22 -62t-44 -50.5t-63 -34.5t-79 -13q-57 0 -101 18t-74 51.5t-45.5 80.5t-15.5 106zM272 424
q-51 0 -87 -33t-48 -93h261q-6 66 -38.5 96t-87.5 30zM233 732h80l128 -164h-84l-84 112l-84 -112h-84z" />
    <glyph glyph-name="edieresis" unicode="&#xeb;" horiz-adv-x="524" 
d="M40 244q0 57 17.5 104t49 81t73.5 52.5t92 18.5q48 0 87.5 -15.5t68 -45.5t44.5 -73t16 -98v-36h-356q3 -78 41.5 -123t102.5 -45q54 0 83 25.5t37 58.5h88q-5 -33 -22 -62t-44 -50.5t-63 -34.5t-79 -13q-57 0 -101 18t-74 51.5t-45.5 80.5t-15.5 106zM272 424
q-51 0 -87 -33t-48 -93h261q-6 66 -38.5 96t-87.5 30zM329 696h88v-92h-88v92zM129 696h88v-92h-88v92z" />
    <glyph glyph-name="igrave" unicode="&#xec;" horiz-adv-x="240" 
d="M76 488h88v-488h-88v488zM-55 732h104l104 -164h-64z" />
    <glyph glyph-name="iacute" unicode="&#xed;" horiz-adv-x="240" 
d="M76 488h88v-488h-88v488zM193 732h104l-144 -164h-64z" />
    <glyph glyph-name="icircumflex" unicode="&#xee;" horiz-adv-x="240" 
d="M76 488h88v-488h-88v488zM81 732h80l128 -164h-84l-84 112l-84 -112h-84z" />
    <glyph glyph-name="idieresis" unicode="&#xef;" horiz-adv-x="240" 
d="M76 488h88v-488h-88v488zM177 696h88v-92h-88v92zM-23 696h88v-92h-88v92z" />
    <glyph glyph-name="eth" unicode="&#xf0;" horiz-adv-x="576" 
d="M172 568l90 62q-27 14 -59.5 26.5t-70.5 23.5l20 64q100 -27 175 -69l101 69l32 -48l-81 -56q35 -27 63 -61t48 -78.5t31 -101t11 -128.5v-3q0 -68 -18.5 -120t-51 -87.5t-77.5 -54t-97 -18.5q-56 0 -101 18t-76.5 49.5t-49 75.5t-17.5 97q0 52 19 96.5t51 76t75 49.5
t91 18q37 0 78 -14t70 -46h5q-18 63 -46 108t-73 80l-110 -76zM136 228q0 -36 11.5 -66t31.5 -52t48 -34t61 -12t61 12t48 34t31.5 52t11.5 66q0 37 -11.5 67.5t-31.5 52t-48 33t-61 11.5t-61 -12t-48 -34t-31.5 -52t-11.5 -66z" />
    <glyph glyph-name="ntilde" unicode="&#xf1;" horiz-adv-x="564" 
d="M76 488h84v-72h4q42 84 152 84q36 0 68.5 -10.5t57.5 -34.5t39.5 -63t14.5 -96v-296h-88v284q0 78 -30.5 109t-81.5 31q-28 0 -52 -12t-42 -34t-28 -53.5t-10 -71.5v-253h-88v488zM120 596q2 45 26 76.5t70 31.5q22 0 42 -7.5t37 -16.5t32 -16.5t29 -7.5q21 0 31 15.5
t13 32.5h48q-2 -45 -26 -76.5t-70 -31.5q-23 0 -42.5 7.5t-36.5 16.5t-32.5 16.5t-28.5 7.5q-21 0 -31 -15.5t-13 -32.5h-48z" />
    <glyph glyph-name="ograve" unicode="&#xf2;" horiz-adv-x="560" 
d="M40 244q0 58 18 105.5t49.5 81t75.5 51.5t97 18q55 0 99.5 -18t76 -51.5t48 -81t16.5 -105.5q0 -59 -18 -106t-49.5 -80.5t-76 -51.5t-96.5 -18q-56 0 -100 18t-75.5 51.5t-48 80.5t-16.5 106zM132 244q0 -41 10.5 -74t30 -56.5t47 -36.5t60.5 -13t60 13t46.5 36.5
t30.5 56.5t11 74q0 85 -41 132.5t-107 47.5q-33 0 -60.5 -13t-47 -36.5t-30 -57t-10.5 -73.5zM104 732h104l104 -164h-64z" />
    <glyph glyph-name="oacute" unicode="&#xf3;" horiz-adv-x="560" 
d="M40 244q0 58 18 105.5t49.5 81t75.5 51.5t97 18q55 0 99.5 -18t76 -51.5t48 -81t16.5 -105.5q0 -59 -18 -106t-49.5 -80.5t-76 -51.5t-96.5 -18q-56 0 -100 18t-75.5 51.5t-48 80.5t-16.5 106zM132 244q0 -41 10.5 -74t30 -56.5t47 -36.5t60.5 -13t60 13t46.5 36.5
t30.5 56.5t11 74q0 85 -41 132.5t-107 47.5q-33 0 -60.5 -13t-47 -36.5t-30 -57t-10.5 -73.5zM352 732h104l-144 -164h-64z" />
    <glyph glyph-name="ocircumflex" unicode="&#xf4;" horiz-adv-x="560" 
d="M40 244q0 58 18 105.5t49.5 81t75.5 51.5t97 18q55 0 99.5 -18t76 -51.5t48 -81t16.5 -105.5q0 -59 -18 -106t-49.5 -80.5t-76 -51.5t-96.5 -18q-56 0 -100 18t-75.5 51.5t-48 80.5t-16.5 106zM132 244q0 -41 10.5 -74t30 -56.5t47 -36.5t60.5 -13t60 13t46.5 36.5
t30.5 56.5t11 74q0 85 -41 132.5t-107 47.5q-33 0 -60.5 -13t-47 -36.5t-30 -57t-10.5 -73.5zM240 732h80l128 -164h-84l-84 112l-84 -112h-84z" />
    <glyph glyph-name="otilde" unicode="&#xf5;" horiz-adv-x="560" 
d="M40 244q0 58 18 105.5t49.5 81t75.5 51.5t97 18q55 0 99.5 -18t76 -51.5t48 -81t16.5 -105.5q0 -59 -18 -106t-49.5 -80.5t-76 -51.5t-96.5 -18q-56 0 -100 18t-75.5 51.5t-48 80.5t-16.5 106zM132 244q0 -41 10.5 -74t30 -56.5t47 -36.5t60.5 -13t60 13t46.5 36.5
t30.5 56.5t11 74q0 85 -41 132.5t-107 47.5q-33 0 -60.5 -13t-47 -36.5t-30 -57t-10.5 -73.5zM116 596q2 45 26 76.5t70 31.5q22 0 42 -7.5t37 -16.5t32 -16.5t29 -7.5q21 0 31 15.5t13 32.5h48q-2 -45 -26 -76.5t-70 -31.5q-23 0 -42.5 7.5t-36.5 16.5t-32.5 16.5
t-28.5 7.5q-21 0 -31 -15.5t-13 -32.5h-48z" />
    <glyph glyph-name="odieresis" unicode="&#xf6;" horiz-adv-x="560" 
d="M40 244q0 58 18 105.5t49.5 81t75.5 51.5t97 18q55 0 99.5 -18t76 -51.5t48 -81t16.5 -105.5q0 -59 -18 -106t-49.5 -80.5t-76 -51.5t-96.5 -18q-56 0 -100 18t-75.5 51.5t-48 80.5t-16.5 106zM132 244q0 -41 10.5 -74t30 -56.5t47 -36.5t60.5 -13t60 13t46.5 36.5
t30.5 56.5t11 74q0 85 -41 132.5t-107 47.5q-33 0 -60.5 -13t-47 -36.5t-30 -57t-10.5 -73.5zM336 696h88v-92h-88v92zM136 696h88v-92h-88v92z" />
    <glyph glyph-name="divide" unicode="&#xf7;" 
d="M236 480h96v-100h-96v100zM56 292h456v-76h-456v76zM236 126h96v-100h-96v100z" />
    <glyph glyph-name="oslash" unicode="&#xf8;" horiz-adv-x="560" 
d="M100 62q-60 69 -60 182q0 58 18 105.5t49.5 81t75.5 51.5t97 18q83 0 142 -41l34 41h64l-61 -75q29 -33 45 -78.5t16 -102.5q0 -59 -18 -106t-49.5 -80.5t-76 -51.5t-96.5 -18q-84 0 -143 41l-33 -41h-64zM132 244q0 -66 26 -110l211 259q-37 31 -89 31q-33 0 -60.5 -13
t-47 -36.5t-30 -57t-10.5 -73.5zM428 244q0 66 -26 110l-211 -259q37 -31 89 -31q33 0 60 13t46.5 36.5t30.5 56.5t11 74z" />
    <glyph glyph-name="ugrave" unicode="&#xf9;" horiz-adv-x="560" 
d="M68 488h88v-284q0 -78 30.5 -109t81.5 -31q57 0 92.5 47t35.5 125v252h88v-488h-84v72h-4q-42 -84 -148 -84q-36 0 -68.5 10.5t-57.5 34.5t-39.5 63t-14.5 96v296zM106 732h104l104 -164h-64z" />
    <glyph glyph-name="uacute" unicode="&#xfa;" horiz-adv-x="560" 
d="M68 488h88v-284q0 -78 30.5 -109t81.5 -31q57 0 92.5 47t35.5 125v252h88v-488h-84v72h-4q-42 -84 -148 -84q-36 0 -68.5 10.5t-57.5 34.5t-39.5 63t-14.5 96v296zM354 732h104l-144 -164h-64z" />
    <glyph glyph-name="ucircumflex" unicode="&#xfb;" horiz-adv-x="560" 
d="M68 488h88v-284q0 -78 30.5 -109t81.5 -31q57 0 92.5 47t35.5 125v252h88v-488h-84v72h-4q-42 -84 -148 -84q-36 0 -68.5 10.5t-57.5 34.5t-39.5 63t-14.5 96v296zM242 732h80l128 -164h-84l-84 112l-84 -112h-84z" />
    <glyph glyph-name="udieresis" unicode="&#xfc;" horiz-adv-x="560" 
d="M68 488h88v-284q0 -78 30.5 -109t81.5 -31q57 0 92.5 47t35.5 125v252h88v-488h-84v72h-4q-42 -84 -148 -84q-36 0 -68.5 10.5t-57.5 34.5t-39.5 63t-14.5 96v296zM338 696h88v-92h-88v92zM138 696h88v-92h-88v92z" />
    <glyph glyph-name="yacute" unicode="&#xfd;" horiz-adv-x="468" 
d="M65 -152q84 0 120 100l11 31l-192 509h96l136 -392h4l136 392h88l-207 -564q-10 -27 -25 -54t-36 -49t-49.5 -35.5t-65.5 -13.5h-48v76h32zM305 732h104l-144 -164h-64z" />
    <glyph glyph-name="thorn" unicode="&#xfe;" horiz-adv-x="584" 
d="M544 248q0 -60 -17.5 -108t-48 -82t-71.5 -52t-87 -18q-51 0 -91.5 20t-64.5 68h-4q3 -48 3.5 -93.5t0.5 -70.5v-132h-88v952h88v-156q0 -25 -0.5 -70.5t-3.5 -93.5h4q24 48 68.5 68t95.5 20q46 0 86 -17t68.5 -49t45 -79t16.5 -107zM452 248q0 43 -11.5 76t-31 55.5
t-45.5 33.5t-56 11q-29 0 -55 -11.5t-45.5 -33t-31 -53.5t-12.5 -74v-8q0 -44 11 -77.5t30.5 -56t46 -34.5t56.5 -12t56 12.5t45.5 36t31 57.5t11.5 78z" />
    <glyph glyph-name="ydieresis" unicode="&#xff;" horiz-adv-x="468" 
d="M65 -152q84 0 120 100l11 31l-192 509h96l136 -392h4l136 392h88l-207 -564q-10 -27 -25 -54t-36 -49t-49.5 -35.5t-65.5 -13.5h-48v76h32zM289 696h88v-92h-88v92zM89 696h88v-92h-88v92z" />
    <glyph glyph-name="Amacron" unicode="&#x100;" horiz-adv-x="644" 
d="M268 688h108l256 -688h-96l-65 180h-302l-65 -180h-92zM442 260l-120 332h-4l-120 -332h244zM180 844h276v-68h-276v68z" />
    <glyph glyph-name="amacron" unicode="&#x101;" horiz-adv-x="524" 
d="M48 130q0 64 36 99t120 49l100 16q19 3 31.5 5.5t20 7t10 11.5t2.5 18q0 38 -26 65t-78 27q-54 0 -81.5 -25t-30.5 -67h-84q1 34 14.5 64t38.5 52.5t61 35t82 12.5q97 0 144.5 -47.5t47.5 -132.5v-320h-84v78h-4q-18 -38 -59 -62t-101 -24q-72 0 -116 36t-44 102z
M368 255q-14 -17 -52 -23l-92 -16q-45 -8 -66.5 -25.5t-21.5 -52.5q0 -32 21 -53t63 -21q28 0 55 9t47.5 27t33 45t12.5 63v47zM121 684h276v-68h-276v68z" />
    <glyph glyph-name="Abreve" unicode="&#x102;" horiz-adv-x="644" 
d="M268 688h108l256 -688h-96l-65 180h-302l-65 -180h-92zM442 260l-120 332h-4l-120 -332h244zM320 768q-23 0 -47 7t-44 23.5t-34.5 43t-18.5 66.5h56q6 -39 27.5 -61.5t60.5 -22.5t60.5 22.5t27.5 61.5h56q-4 -40 -18.5 -66.5t-35 -43t-44 -23.5t-46.5 -7z" />
    <glyph glyph-name="abreve" unicode="&#x103;" horiz-adv-x="524" 
d="M48 130q0 64 36 99t120 49l100 16q19 3 31.5 5.5t20 7t10 11.5t2.5 18q0 38 -26 65t-78 27q-54 0 -81.5 -25t-30.5 -67h-84q1 34 14.5 64t38.5 52.5t61 35t82 12.5q97 0 144.5 -47.5t47.5 -132.5v-320h-84v78h-4q-18 -38 -59 -62t-101 -24q-72 0 -116 36t-44 102z
M368 255q-14 -17 -52 -23l-92 -16q-45 -8 -66.5 -25.5t-21.5 -52.5q0 -32 21 -53t63 -21q28 0 55 9t47.5 27t33 45t12.5 63v47zM261 580q-23 0 -47 7t-44 23.5t-34.5 43t-18.5 66.5h56q6 -39 27.5 -61.5t60.5 -22.5t60.5 22.5t27.5 61.5h56q-4 -40 -18.5 -66.5t-35 -43
t-44 -23.5t-46.5 -7z" />
    <glyph glyph-name="Aogonek" unicode="&#x104;" horiz-adv-x="644" 
d="M596 -220q-46 0 -73 20.5t-27 63.5q0 37 21 67.5t59 68.5h-40l-65 180h-302l-65 -180h-92l256 688h108l256 -688q-32 -37 -51 -66.5t-19 -53.5q0 -40 50 -40h20v-60h-36zM442 260l-120 332h-4l-120 -332h244z" />
    <glyph glyph-name="aogonek" unicode="&#x105;" horiz-adv-x="524" 
d="M320 -136q0 37 21 67.5t59 68.5h-28v78h-4q-18 -38 -59 -62t-101 -24q-72 0 -116 36t-44 102q0 64 36 99t120 49l100 16q19 3 31.5 5.5t20 7t10 11.5t2.5 18q0 38 -26 65t-78 27q-54 0 -81.5 -25t-30.5 -67h-84q1 34 14.5 64t38.5 52.5t61 35t82 12.5q97 0 144.5 -47.5
t47.5 -132.5v-320q-32 -37 -51 -66.5t-19 -53.5q0 -40 50 -40h20v-60h-36q-46 0 -73 20.5t-27 63.5zM368 255q-14 -17 -52 -23l-92 -16q-45 -8 -66.5 -25.5t-21.5 -52.5q0 -32 21 -53t63 -21q28 0 55 9t47.5 27t33 45t12.5 63v47z" />
    <glyph glyph-name="Cacute" unicode="&#x106;" horiz-adv-x="712" 
d="M44 344q0 76 24 141.5t68 113t105 74.5t135 27q61 0 110 -16.5t86 -46.5t61 -72t35 -93h-95q-20 70 -68 107t-129 37q-53 0 -96.5 -20t-74.5 -56t-48 -86t-17 -110q0 -59 17 -108.5t47.5 -86t73.5 -57t94 -20.5q86 0 133.5 37t67.5 107h95q-11 -51 -36 -93t-62.5 -72
t-87 -46.5t-110.5 -16.5q-72 0 -132.5 26t-104 73.5t-67.5 113t-24 143.5zM448 932h104l-144 -164h-64z" />
    <glyph glyph-name="cacute" unicode="&#x107;" horiz-adv-x="516" 
d="M40 244q0 58 17.5 105.5t49 81t73.5 51.5t92 18q96 0 149 -51t63 -133h-88q-8 48 -37.5 78t-86.5 30q-30 0 -55.5 -13t-44.5 -36.5t-29.5 -57t-10.5 -73.5q0 -41 10.5 -74t29.5 -56.5t44.5 -36.5t55.5 -13q57 0 86.5 30t37.5 78h88q-10 -82 -63 -133t-149 -51
q-54 0 -97 18t-73 51.5t-46 80.5t-16 106zM345 732h104l-144 -164h-64z" />
    <glyph glyph-name="Ccircumflex" unicode="&#x108;" horiz-adv-x="712" 
d="M44 344q0 76 24 141.5t68 113t105 74.5t135 27q61 0 110 -16.5t86 -46.5t61 -72t35 -93h-95q-20 70 -68 107t-129 37q-53 0 -96.5 -20t-74.5 -56t-48 -86t-17 -110q0 -59 17 -108.5t47.5 -86t73.5 -57t94 -20.5q86 0 133.5 37t67.5 107h95q-11 -51 -36 -93t-62.5 -72
t-87 -46.5t-110.5 -16.5q-72 0 -132.5 26t-104 73.5t-67.5 113t-24 143.5zM336 932h80l128 -164h-84l-84 112l-84 -112h-84z" />
    <glyph glyph-name="ccircumflex" unicode="&#x109;" horiz-adv-x="516" 
d="M40 244q0 58 17.5 105.5t49 81t73.5 51.5t92 18q96 0 149 -51t63 -133h-88q-8 48 -37.5 78t-86.5 30q-30 0 -55.5 -13t-44.5 -36.5t-29.5 -57t-10.5 -73.5q0 -41 10.5 -74t29.5 -56.5t44.5 -36.5t55.5 -13q57 0 86.5 30t37.5 78h88q-10 -82 -63 -133t-149 -51
q-54 0 -97 18t-73 51.5t-46 80.5t-16 106zM233 732h80l128 -164h-84l-84 112l-84 -112h-84z" />
    <glyph glyph-name="Cdotaccent" unicode="&#x10a;" horiz-adv-x="712" 
d="M44 344q0 76 24 141.5t68 113t105 74.5t135 27q61 0 110 -16.5t86 -46.5t61 -72t35 -93h-95q-20 70 -68 107t-129 37q-53 0 -96.5 -20t-74.5 -56t-48 -86t-17 -110q0 -59 17 -108.5t47.5 -86t73.5 -57t94 -20.5q86 0 133.5 37t67.5 107h95q-11 -51 -36 -93t-62.5 -72
t-87 -46.5t-110.5 -16.5q-72 0 -132.5 26t-104 73.5t-67.5 113t-24 143.5zM332 860h88v-92h-88v92z" />
    <glyph glyph-name="cdotaccent" unicode="&#x10b;" horiz-adv-x="516" 
d="M40 244q0 58 17.5 105.5t49 81t73.5 51.5t92 18q96 0 149 -51t63 -133h-88q-8 48 -37.5 78t-86.5 30q-30 0 -55.5 -13t-44.5 -36.5t-29.5 -57t-10.5 -73.5q0 -41 10.5 -74t29.5 -56.5t44.5 -36.5t55.5 -13q57 0 86.5 30t37.5 78h88q-10 -82 -63 -133t-149 -51
q-54 0 -97 18t-73 51.5t-46 80.5t-16 106zM229 696h88v-92h-88v92z" />
    <glyph glyph-name="Ccaron" unicode="&#x10c;" horiz-adv-x="712" 
d="M44 344q0 76 24 141.5t68 113t105 74.5t135 27q61 0 110 -16.5t86 -46.5t61 -72t35 -93h-95q-20 70 -68 107t-129 37q-53 0 -96.5 -20t-74.5 -56t-48 -86t-17 -110q0 -59 17 -108.5t47.5 -86t73.5 -57t94 -20.5q86 0 133.5 37t67.5 107h95q-11 -51 -36 -93t-62.5 -72
t-87 -46.5t-110.5 -16.5q-72 0 -132.5 26t-104 73.5t-67.5 113t-24 143.5zM208 932h84l84 -112l84 112h84l-128 -164h-80z" />
    <glyph glyph-name="ccaron" unicode="&#x10d;" horiz-adv-x="516" 
d="M40 244q0 58 17.5 105.5t49 81t73.5 51.5t92 18q96 0 149 -51t63 -133h-88q-8 48 -37.5 78t-86.5 30q-30 0 -55.5 -13t-44.5 -36.5t-29.5 -57t-10.5 -73.5q0 -41 10.5 -74t29.5 -56.5t44.5 -36.5t55.5 -13q57 0 86.5 30t37.5 78h88q-10 -82 -63 -133t-149 -51
q-54 0 -97 18t-73 51.5t-46 80.5t-16 106zM105 732h84l84 -112l84 112h84l-128 -164h-80z" />
    <glyph glyph-name="Dcaron" unicode="&#x10e;" horiz-adv-x="704" 
d="M88 688h212q89 0 156.5 -25.5t112.5 -71t68 -109t23 -138.5t-23 -138.5t-68 -109t-112.5 -71t-156.5 -25.5h-212v688zM180 608v-528h120q72 0 122.5 21.5t82 58t45.5 84t14 100.5q0 52 -14 100t-45.5 84.5t-82 58t-122.5 21.5h-120zM156 932h84l84 -112l84 112h84
l-128 -164h-80z" />
    <glyph glyph-name="dcaron" unicode="&#x10f;" horiz-adv-x="584" 
d="M40 240q0 60 17.5 108t48 82t71 52t87.5 18q51 0 91.5 -20t64.5 -68h4q-3 48 -3.5 93.5t-0.5 70.5v156h88v-732h-84v76h-4q-24 -48 -68.5 -68t-95.5 -20q-47 0 -86.5 17t-68 49t-45 79t-16.5 107zM132 240q0 -44 11 -76.5t30.5 -55t46 -33.5t56.5 -11t56 12t45.5 34.5
t31 56t11.5 77.5q0 43 -11.5 77t-31 56.5t-45.5 34.5t-56 12t-56.5 -12.5t-46 -36t-30.5 -58t-11 -77.5zM621 645h-37v88h88v-78l-37 -102h-40z" />
    <glyph glyph-name="Dcroat" unicode="&#x110;" horiz-adv-x="704" 
d="M4 384h84v304h212q89 0 156.5 -25.5t112.5 -71t68 -109t23 -138.5t-23 -138.5t-68 -109t-112.5 -71t-156.5 -25.5h-212v308h-84v76zM180 608v-224h160v-76h-160v-228h120q72 0 122.5 21.5t82 58t45.5 84t14 100.5q0 52 -14 100t-45.5 84.5t-82 58t-122.5 21.5h-120z" />
    <glyph glyph-name="dcroat" unicode="&#x111;" horiz-adv-x="584" 
d="M276 652h144v80h88v-80h76v-60h-76v-592h-84v76h-4q-24 -48 -68.5 -68t-95.5 -20q-47 0 -86.5 17t-68 49t-45 79t-16.5 107t17.5 108t48 82t71 52t87.5 18q51 0 91.5 -20t64.5 -68h4q-3 48 -3.5 93.5t-0.5 70.5v16h-144v60zM132 240q0 -44 11 -76.5t30.5 -55t46 -33.5
t56.5 -11q29 0 55 11t45.5 33t31 54t12.5 73v9q0 43 -11.5 77t-31 56.5t-45.5 34.5t-56 12t-56.5 -12.5t-46 -36t-30.5 -58t-11 -77.5z" />
    <glyph glyph-name="Emacron" unicode="&#x112;" horiz-adv-x="612" 
d="M88 688h464v-80h-372v-218h296v-80h-296v-230h380v-80h-472v688zM180 844h276v-68h-276v68z" />
    <glyph glyph-name="emacron" unicode="&#x113;" horiz-adv-x="524" 
d="M40 244q0 57 17.5 104t49 81t73.5 52.5t92 18.5q48 0 87.5 -15.5t68 -45.5t44.5 -73t16 -98v-36h-356q3 -78 41.5 -123t102.5 -45q54 0 83 25.5t37 58.5h88q-5 -33 -22 -62t-44 -50.5t-63 -34.5t-79 -13q-57 0 -101 18t-74 51.5t-45.5 80.5t-15.5 106zM272 424
q-51 0 -87 -33t-48 -93h261q-6 66 -38.5 96t-87.5 30zM133 684h276v-68h-276v68z" />
    <glyph glyph-name="Ebreve" unicode="&#x114;" horiz-adv-x="612" 
d="M88 688h464v-80h-372v-218h296v-80h-296v-230h380v-80h-472v688zM320 768q-23 0 -47 7t-44 23.5t-34.5 43t-18.5 66.5h56q6 -39 27.5 -61.5t60.5 -22.5t60.5 22.5t27.5 61.5h56q-4 -40 -18.5 -66.5t-35 -43t-44 -23.5t-46.5 -7z" />
    <glyph glyph-name="ebreve" unicode="&#x115;" horiz-adv-x="524" 
d="M40 244q0 57 17.5 104t49 81t73.5 52.5t92 18.5q48 0 87.5 -15.5t68 -45.5t44.5 -73t16 -98v-36h-356q3 -78 41.5 -123t102.5 -45q54 0 83 25.5t37 58.5h88q-5 -33 -22 -62t-44 -50.5t-63 -34.5t-79 -13q-57 0 -101 18t-74 51.5t-45.5 80.5t-15.5 106zM272 424
q-51 0 -87 -33t-48 -93h261q-6 66 -38.5 96t-87.5 30zM273 580q-23 0 -47 7t-44 23.5t-34.5 43t-18.5 66.5h56q6 -39 27.5 -61.5t60.5 -22.5t60.5 22.5t27.5 61.5h56q-4 -40 -18.5 -66.5t-35 -43t-44 -23.5t-46.5 -7z" />
    <glyph glyph-name="Edotaccent" unicode="&#x116;" horiz-adv-x="612" 
d="M88 688h464v-80h-372v-218h296v-80h-296v-230h380v-80h-472v688zM276 860h88v-92h-88v92z" />
    <glyph glyph-name="edotaccent" unicode="&#x117;" horiz-adv-x="524" 
d="M40 244q0 57 17.5 104t49 81t73.5 52.5t92 18.5q48 0 87.5 -15.5t68 -45.5t44.5 -73t16 -98v-36h-356q3 -78 41.5 -123t102.5 -45q54 0 83 25.5t37 58.5h88q-5 -33 -22 -62t-44 -50.5t-63 -34.5t-79 -13q-57 0 -101 18t-74 51.5t-45.5 80.5t-15.5 106zM272 424
q-51 0 -87 -33t-48 -93h261q-6 66 -38.5 96t-87.5 30zM229 696h88v-92h-88v92z" />
    <glyph glyph-name="Eogonek" unicode="&#x118;" horiz-adv-x="612" 
d="M524 -220q-46 0 -73 20.5t-27 63.5q0 37 21 67.5t59 68.5h-416v688h464v-80h-372v-218h296v-80h-296v-230h380v-80q-32 -37 -51 -66.5t-19 -53.5q0 -40 50 -40h20v-60h-36z" />
    <glyph glyph-name="eogonek" unicode="&#x119;" horiz-adv-x="524" 
d="M357 -220q-46 0 -73 20.5t-27 63.5q0 35 18 64.5t51 64.5q-12 -2 -24.5 -3.5t-25.5 -1.5q-57 0 -101 18t-74 51.5t-45.5 80.5t-15.5 106q0 57 17.5 104t49 81t73.5 52.5t92 18.5q48 0 87.5 -15.5t68 -45.5t44.5 -73t16 -98v-36h-356q3 -78 41.5 -123t102.5 -45
q54 0 83 25.5t37 58.5h88q-4 -26 -16 -50t-30 -44l-45 -54q-32 -37 -51 -66.5t-19 -53.5q0 -40 50 -40h20v-60h-36zM272 424q-51 0 -87 -33t-48 -93h261q-6 66 -38.5 96t-87.5 30z" />
    <glyph glyph-name="Ecaron" unicode="&#x11a;" horiz-adv-x="612" 
d="M88 688h464v-80h-372v-218h296v-80h-296v-230h380v-80h-472v688zM152 932h84l84 -112l84 112h84l-128 -164h-80z" />
    <glyph glyph-name="ecaron" unicode="&#x11b;" horiz-adv-x="524" 
d="M40 244q0 57 17.5 104t49 81t73.5 52.5t92 18.5q48 0 87.5 -15.5t68 -45.5t44.5 -73t16 -98v-36h-356q3 -78 41.5 -123t102.5 -45q54 0 83 25.5t37 58.5h88q-5 -33 -22 -62t-44 -50.5t-63 -34.5t-79 -13q-57 0 -101 18t-74 51.5t-45.5 80.5t-15.5 106zM272 424
q-51 0 -87 -33t-48 -93h261q-6 66 -38.5 96t-87.5 30zM105 732h84l84 -112l84 112h84l-128 -164h-80z" />
    <glyph glyph-name="Gcircumflex" unicode="&#x11c;" horiz-adv-x="760" 
d="M608 100h-3q-37 -58 -92 -85t-133 -27q-74 0 -135.5 27t-106 74.5t-69.5 112.5t-25 142q0 76 25 141.5t70 113t107.5 74.5t137.5 27q61 0 111.5 -16.5t89 -45.5t63.5 -68.5t36 -85.5h-96q-8 27 -24.5 51t-42 42t-60 28.5t-77.5 10.5q-56 0 -101 -20.5t-77 -57t-49 -86.5
t-17 -108q0 -59 17.5 -108.5t49.5 -86t76 -57t97 -20.5q43 0 83 12.5t70.5 37t48.5 60t18 82.5v20h-216v80h300v-364h-60zM344 932h80l128 -164h-84l-84 112l-84 -112h-84z" />
    <glyph glyph-name="gcircumflex" unicode="&#x11d;" horiz-adv-x="584" 
d="M136 -60q0 -45 37.5 -70.5t94.5 -25.5q32 0 60.5 9t49.5 30t33.5 55.5t12.5 85.5v52h-4q-24 -48 -68.5 -68t-95.5 -20q-47 0 -86.5 17t-68 49t-45 79t-16.5 107t17.5 108t48 82t71 52t87.5 18q51 0 91.5 -20t64.5 -68h4v76h84v-464q0 -69 -19 -117t-52 -78t-76.5 -43.5
t-92.5 -13.5q-46 0 -85.5 11t-68.5 32t-45.5 52.5t-16.5 72.5h84zM132 240q0 -44 11 -76.5t30.5 -55t46 -33.5t56.5 -11t56 12t45.5 34.5t31 56t11.5 77.5q0 43 -11.5 77t-31 56.5t-45.5 34.5t-56 12t-56.5 -12.5t-46 -36t-30.5 -58t-11 -77.5zM237 732h80l128 -164h-84
l-84 112l-84 -112h-84z" />
    <glyph glyph-name="Gbreve" unicode="&#x11e;" horiz-adv-x="760" 
d="M608 100h-3q-37 -58 -92 -85t-133 -27q-74 0 -135.5 27t-106 74.5t-69.5 112.5t-25 142q0 76 25 141.5t70 113t107.5 74.5t137.5 27q61 0 111.5 -16.5t89 -45.5t63.5 -68.5t36 -85.5h-96q-8 27 -24.5 51t-42 42t-60 28.5t-77.5 10.5q-56 0 -101 -20.5t-77 -57t-49 -86.5
t-17 -108q0 -59 17.5 -108.5t49.5 -86t76 -57t97 -20.5q43 0 83 12.5t70.5 37t48.5 60t18 82.5v20h-216v80h300v-364h-60zM384 768q-23 0 -47 7t-44 23.5t-34.5 43t-18.5 66.5h56q6 -39 27.5 -61.5t60.5 -22.5t60.5 22.5t27.5 61.5h56q-4 -40 -18.5 -66.5t-35 -43t-44 -23.5
t-46.5 -7z" />
    <glyph glyph-name="gbreve" unicode="&#x11f;" horiz-adv-x="584" 
d="M136 -60q0 -45 37.5 -70.5t94.5 -25.5q32 0 60.5 9t49.5 30t33.5 55.5t12.5 85.5v52h-4q-24 -48 -68.5 -68t-95.5 -20q-47 0 -86.5 17t-68 49t-45 79t-16.5 107t17.5 108t48 82t71 52t87.5 18q51 0 91.5 -20t64.5 -68h4v76h84v-464q0 -69 -19 -117t-52 -78t-76.5 -43.5
t-92.5 -13.5q-46 0 -85.5 11t-68.5 32t-45.5 52.5t-16.5 72.5h84zM132 240q0 -44 11 -76.5t30.5 -55t46 -33.5t56.5 -11t56 12t45.5 34.5t31 56t11.5 77.5q0 43 -11.5 77t-31 56.5t-45.5 34.5t-56 12t-56.5 -12.5t-46 -36t-30.5 -58t-11 -77.5zM277 580q-23 0 -47 7
t-44 23.5t-34.5 43t-18.5 66.5h56q6 -39 27.5 -61.5t60.5 -22.5t60.5 22.5t27.5 61.5h56q-4 -40 -18.5 -66.5t-35 -43t-44 -23.5t-46.5 -7z" />
    <glyph glyph-name="Gdotaccent" unicode="&#x120;" horiz-adv-x="760" 
d="M608 100h-3q-37 -58 -92 -85t-133 -27q-74 0 -135.5 27t-106 74.5t-69.5 112.5t-25 142q0 76 25 141.5t70 113t107.5 74.5t137.5 27q61 0 111.5 -16.5t89 -45.5t63.5 -68.5t36 -85.5h-96q-8 27 -24.5 51t-42 42t-60 28.5t-77.5 10.5q-56 0 -101 -20.5t-77 -57t-49 -86.5
t-17 -108q0 -59 17.5 -108.5t49.5 -86t76 -57t97 -20.5q43 0 83 12.5t70.5 37t48.5 60t18 82.5v20h-216v80h300v-364h-60zM340 860h88v-92h-88v92z" />
    <glyph glyph-name="gdotaccent" unicode="&#x121;" horiz-adv-x="584" 
d="M136 -60q0 -45 37.5 -70.5t94.5 -25.5q32 0 60.5 9t49.5 30t33.5 55.5t12.5 85.5v52h-4q-24 -48 -68.5 -68t-95.5 -20q-47 0 -86.5 17t-68 49t-45 79t-16.5 107t17.5 108t48 82t71 52t87.5 18q51 0 91.5 -20t64.5 -68h4v76h84v-464q0 -69 -19 -117t-52 -78t-76.5 -43.5
t-92.5 -13.5q-46 0 -85.5 11t-68.5 32t-45.5 52.5t-16.5 72.5h84zM132 240q0 -44 11 -76.5t30.5 -55t46 -33.5t56.5 -11t56 12t45.5 34.5t31 56t11.5 77.5q0 43 -11.5 77t-31 56.5t-45.5 34.5t-56 12t-56.5 -12.5t-46 -36t-30.5 -58t-11 -77.5zM233 696h88v-92h-88v92z" />
    <glyph glyph-name="uni0122" unicode="&#x122;" horiz-adv-x="760" 
d="M608 100h-3q-37 -58 -92 -85t-133 -27q-74 0 -135.5 27t-106 74.5t-69.5 112.5t-25 142q0 76 25 141.5t70 113t107.5 74.5t137.5 27q61 0 111.5 -16.5t89 -45.5t63.5 -68.5t36 -85.5h-96q-8 27 -24.5 51t-42 42t-60 28.5t-77.5 10.5q-56 0 -101 -20.5t-77 -57t-49 -86.5
t-17 -108q0 -59 17.5 -108.5t49.5 -86t76 -57t97 -20.5q43 0 83 12.5t70.5 37t48.5 60t18 82.5v20h-216v80h300v-364h-60zM424 -68v-78l-37 -102h-40l26 92h-37v88h88z" />
    <glyph glyph-name="uni0123" unicode="&#x123;" horiz-adv-x="584" 
d="M136 -60q0 -45 37.5 -70.5t94.5 -25.5q32 0 60.5 9t49.5 30t33.5 55.5t12.5 85.5v52h-4q-24 -48 -68.5 -68t-95.5 -20q-47 0 -86.5 17t-68 49t-45 79t-16.5 107t17.5 108t48 82t71 52t87.5 18q51 0 91.5 -20t64.5 -68h4v76h84v-464q0 -69 -19 -117t-52 -78t-76.5 -43.5
t-92.5 -13.5q-46 0 -85.5 11t-68.5 32t-45.5 52.5t-16.5 72.5h84zM132 240q0 -44 11 -76.5t30.5 -55t46 -33.5t56.5 -11t56 12t45.5 34.5t31 56t11.5 77.5q0 43 -11.5 77t-31 56.5t-45.5 34.5t-56 12t-56.5 -12.5t-46 -36t-30.5 -58t-11 -77.5zM233 646l37 102h40l-26 -92
h37v-88h-88v78z" />
    <glyph glyph-name="Hcircumflex" unicode="&#x124;" horiz-adv-x="728" 
d="M88 688h92v-300h368v300h92v-688h-92v308h-368v-308h-92v688zM324 932h80l128 -164h-84l-84 112l-84 -112h-84z" />
    <glyph glyph-name="hcircumflex" unicode="&#x125;" horiz-adv-x="564" 
d="M76 732h88v-152q0 -25 -0.5 -70.5t-3.5 -93.5h4q42 84 152 84q36 0 68.5 -10.5t57.5 -34.5t39.5 -63t14.5 -96v-296h-88v284q0 78 -30.5 109t-81.5 31q-28 0 -52 -12t-42 -33.5t-28 -53t-10 -70.5v-255h-88v732zM81 976h80l128 -164h-84l-84 112l-84 -112h-84z" />
    <glyph glyph-name="Hbar" unicode="&#x126;" horiz-adv-x="728" 
d="M0 580h88v108h92v-108h368v108h92v-108h88v-76h-88v-504h-92v308h-368v-308h-92v504h-88v76zM180 388h368v116h-368v-116z" />
    <glyph glyph-name="hbar" unicode="&#x127;" horiz-adv-x="564" 
d="M0 652h76v80h88v-80h144v-60h-144v-12q0 -25 -0.5 -70.5t-3.5 -93.5h4q42 84 152 84q36 0 68.5 -10.5t57.5 -34.5t39.5 -63t14.5 -96v-296h-88v284q0 78 -30.5 109t-81.5 31q-28 0 -52 -12t-42 -34t-28 -53.5t-10 -70.5v-254h-88v592h-76v60z" />
    <glyph glyph-name="Itilde" unicode="&#x128;" horiz-adv-x="268" 
d="M88 688h92v-688h-92v688zM-29 768q2 45 26 76.5t70 31.5q22 0 42 -7.5t37 -16.5t32 -16.5t29 -7.5q21 0 31 15.5t13 32.5h48q-2 -45 -26 -76.5t-70 -31.5q-23 0 -42.5 7.5t-36.5 16.5t-32.5 16.5t-28.5 7.5q-21 0 -31 -15.5t-13 -32.5h-48z" />
    <glyph glyph-name="itilde" unicode="&#x129;" horiz-adv-x="240" 
d="M76 488h88v-488h-88v488zM-43 596q2 45 26 76.5t70 31.5q22 0 42 -7.5t37 -16.5t32 -16.5t29 -7.5q21 0 31 15.5t13 32.5h48q-2 -45 -26 -76.5t-70 -31.5q-23 0 -42.5 7.5t-36.5 16.5t-32.5 16.5t-28.5 7.5q-21 0 -31 -15.5t-13 -32.5h-48z" />
    <glyph glyph-name="Imacron" unicode="&#x12a;" horiz-adv-x="268" 
d="M88 688h92v-688h-92v688zM-5 844h276v-68h-276v68z" />
    <glyph glyph-name="imacron" unicode="&#x12b;" horiz-adv-x="240" 
d="M76 488h88v-488h-88v488zM-19 684h276v-68h-276v68z" />
    <glyph glyph-name="Ibreve" unicode="&#x12c;" horiz-adv-x="268" 
d="M88 688h92v-688h-92v688zM135 768q-23 0 -47 7t-44 23.5t-34.5 43t-18.5 66.5h56q6 -39 27.5 -61.5t60.5 -22.5t60.5 22.5t27.5 61.5h56q-4 -40 -18.5 -66.5t-35 -43t-44 -23.5t-46.5 -7z" />
    <glyph glyph-name="ibreve" unicode="&#x12d;" horiz-adv-x="240" 
d="M76 488h88v-488h-88v488zM121 580q-23 0 -47 7t-44 23.5t-34.5 43t-18.5 66.5h56q6 -39 27.5 -61.5t60.5 -22.5t60.5 22.5t27.5 61.5h56q-4 -40 -18.5 -66.5t-35 -43t-44 -23.5t-46.5 -7z" />
    <glyph glyph-name="Iogonek" unicode="&#x12e;" horiz-adv-x="268" 
d="M144 -220q-46 0 -73 20.5t-27 63.5q0 37 21 67.5t59 68.5h-36v688h92v-688q-32 -37 -51 -66.5t-19 -53.5q0 -40 50 -40h20v-60h-36z" />
    <glyph glyph-name="iogonek" unicode="&#x12f;" horiz-adv-x="240" 
d="M128 -220q-46 0 -73 20.5t-27 63.5q0 37 21 67.5t59 68.5h-32v488h88v-488q-32 -37 -51 -66.5t-19 -53.5q0 -40 50 -40h20v-60h-36zM72 732h96v-100h-96v100z" />
    <glyph glyph-name="Idotaccent" unicode="&#x130;" horiz-adv-x="268" 
d="M88 688h92v-688h-92v688zM91 860h88v-92h-88v92z" />
    <glyph glyph-name="dotlessi" unicode="&#x131;" horiz-adv-x="240" 
d="M76 488h88v-488h-88v488z" />
    <glyph glyph-name="IJ" unicode="&#x132;" horiz-adv-x="780" 
d="M88 688h92v-688h-92v688zM304 228h92v-32q0 -37 8 -61.5t22.5 -39.5t34.5 -21t43 -6t43 6t34.5 21t22.5 39.5t8 61.5v492h92v-496q0 -56 -15 -95t-41.5 -63t-63.5 -35t-80 -11q-44 0 -80.5 11t-63 35t-41.5 63t-15 95v36z" />
    <glyph glyph-name="ij" unicode="&#x133;" horiz-adv-x="480" 
d="M72 732h96v-100h-96v100zM76 488h88v-488h-88v488zM312 732h96v-100h-96v100zM316 488h88v-576q0 -29 -7 -53t-23.5 -41.5t-42.5 -27.5t-63 -10h-32v76h24q32 0 44 18t12 54v560z" />
    <glyph glyph-name="Jcircumflex" unicode="&#x134;" horiz-adv-x="512" 
d="M36 228h92v-32q0 -37 8 -61.5t22.5 -39.5t34.5 -21t43 -6t43 6t34.5 21t22.5 39.5t8 61.5v492h92v-496q0 -56 -15 -95t-41.5 -63t-63.5 -35t-80 -11q-44 0 -80.5 11t-63 35t-41.5 63t-15 95v36zM354 932h80l128 -164h-84l-84 112l-84 -112h-84z" />
    <glyph glyph-name="jcircumflex" unicode="&#x135;" horiz-adv-x="240" 
d="M76 488h88v-576q0 -29 -7 -53t-23.5 -41.5t-42.5 -27.5t-63 -10h-32v76h24q32 0 44 18t12 54v560zM81 732h80l128 -164h-84l-84 112l-84 -112h-84z" />
    <glyph glyph-name="uni0136" unicode="&#x136;" horiz-adv-x="652" 
d="M88 688h92v-370l344 370h108l-283 -299l295 -389h-104l-252 325l-108 -115v-210h-92v688zM384 -68v-78l-37 -102h-40l26 92h-37v88h88z" />
    <glyph glyph-name="uni0137" unicode="&#x137;" horiz-adv-x="504" 
d="M76 732h88v-479l216 235h100l-181 -195l201 -293h-104l-157 229l-75 -82v-147h-88v732zM313 -68v-78l-37 -102h-40l26 92h-37v88h88z" />
    <glyph glyph-name="Lacute" unicode="&#x139;" horiz-adv-x="544" 
d="M88 688h92v-608h336v-80h-428v688zM205 932h104l-144 -164h-64z" />
    <glyph glyph-name="lacute" unicode="&#x13a;" horiz-adv-x="240" 
d="M76 732h88v-732h-88v732zM193 976h104l-144 -164h-64z" />
    <glyph glyph-name="uni013B" unicode="&#x13b;" horiz-adv-x="544" 
d="M88 688h92v-608h336v-80h-428v688zM340 -68v-78l-37 -102h-40l26 92h-37v88h88z" />
    <glyph glyph-name="uni013C" unicode="&#x13c;" horiz-adv-x="240" 
d="M76 732h88v-732h-88v732zM165 -68v-78l-37 -102h-40l26 92h-37v88h88z" />
    <glyph glyph-name="Lcaron" unicode="&#x13d;" horiz-adv-x="544" 
d="M88 688h92v-608h336v-80h-428v688zM357 601h-37v88h88v-78l-37 -102h-40z" />
    <glyph glyph-name="lcaron" unicode="&#x13e;" horiz-adv-x="240" 
d="M76 732h88v-732h-88v732zM277 645h-37v88h88v-78l-37 -102h-40z" />
    <glyph glyph-name="Ldot" unicode="&#x13f;" horiz-adv-x="544" 
d="M88 688h92v-608h336v-80h-428v688zM308 401h88v-92h-88v92z" />
    <glyph glyph-name="ldot" unicode="&#x140;" horiz-adv-x="332" 
d="M76 732h88v-732h-88v732zM240 385h88v-92h-88v92z" />
    <glyph glyph-name="Lslash" unicode="&#x141;" horiz-adv-x="544" 
d="M4 252l84 62v374h92v-308l158 116v-84l-158 -115v-217h336v-80h-428v231l-84 -63v84z" />
    <glyph glyph-name="lslash" unicode="&#x142;" horiz-adv-x="240" 
d="M76 347v385h88v-301l72 65v-80l-72 -67v-349h-88v265l-72 -65v80z" />
    <glyph glyph-name="Nacute" unicode="&#x143;" horiz-adv-x="736" 
d="M88 688h88l380 -532h4l-4 532h92v-688h-88l-380 528h-4l4 -528h-92v688zM440 932h104l-144 -164h-64z" />
    <glyph glyph-name="nacute" unicode="&#x144;" horiz-adv-x="564" 
d="M76 488h84v-72h4q42 84 152 84q36 0 68.5 -10.5t57.5 -34.5t39.5 -63t14.5 -96v-296h-88v284q0 78 -30.5 109t-81.5 31q-28 0 -52 -12t-42 -34t-28 -53.5t-10 -71.5v-253h-88v488zM356 732h104l-144 -164h-64z" />
    <glyph glyph-name="uni0145" unicode="&#x145;" horiz-adv-x="736" 
d="M88 688h88l380 -532h4l-4 532h92v-688h-88l-380 528h-4l4 -528h-92v688zM412 -68v-78l-37 -102h-40l26 92h-37v88h88z" />
    <glyph glyph-name="uni0146" unicode="&#x146;" horiz-adv-x="564" 
d="M76 488h84v-72h4q42 84 152 84q36 0 68.5 -10.5t57.5 -34.5t39.5 -63t14.5 -96v-296h-88v284q0 78 -30.5 109t-81.5 31q-28 0 -52 -12t-42 -34t-28 -53.5t-10 -71.5v-253h-88v488zM324 -68v-78l-37 -102h-40l26 92h-37v88h88z" />
    <glyph glyph-name="Ncaron" unicode="&#x147;" horiz-adv-x="736" 
d="M88 688h88l380 -532h4l-4 532h92v-688h-88l-380 528h-4l4 -528h-92v688zM200 932h84l84 -112l84 112h84l-128 -164h-80z" />
    <glyph glyph-name="ncaron" unicode="&#x148;" horiz-adv-x="564" 
d="M76 488h84v-72h4q42 84 152 84q36 0 68.5 -10.5t57.5 -34.5t39.5 -63t14.5 -96v-296h-88v284q0 78 -30.5 109t-81.5 31q-28 0 -52 -12t-42 -34t-28 -53.5t-10 -71.5v-253h-88v488zM116 732h84l84 -112l84 112h84l-128 -164h-80z" />
    <glyph glyph-name="napostrophe" unicode="&#x149;" horiz-adv-x="564" 
d="M76 488h84v-72h4q42 84 152 84q36 0 68.5 -10.5t57.5 -34.5t39.5 -63t14.5 -96v-296h-88v284q0 78 -30.5 109t-81.5 31q-28 0 -52 -12t-42 -34t-28 -53.5t-10 -71.5v-253h-88v488zM110 645h-37v88h88v-78l-37 -102h-40z" />
    <glyph glyph-name="Eng" unicode="&#x14a;" horiz-adv-x="736" 
d="M88 688h88l380 -532h4l-4 532h92v-720q0 -55 -12 -91t-35.5 -57.5t-57 -30.5t-75.5 -9h-48v84h44q48 0 70 24.5t22 87.5v29l-376 523h-4l4 -528h-92v688z" />
    <glyph glyph-name="eng" unicode="&#x14b;" horiz-adv-x="564" 
d="M408 284q0 78 -30.5 109t-81.5 31q-28 0 -52 -12t-42 -33.5t-28 -53t-10 -70.5v-255h-88v488h84v-72h4q42 84 152 84q36 0 68.5 -10.5t57.5 -34.5t39.5 -63t14.5 -96v-384q0 -29 -7 -53t-23.5 -41.5t-42.5 -27.5t-63 -10h-32v76h24q32 0 44 18t12 54v356z" />
    <glyph glyph-name="Omacron" unicode="&#x14c;" horiz-adv-x="760" 
d="M44 344q0 76 24 141.5t68.5 113t106.5 74.5t137 27q73 0 135 -27t106.5 -74.5t69.5 -113t25 -141.5q0 -77 -25 -142t-69.5 -112.5t-106.5 -74.5t-135 -27q-75 0 -137 27t-106.5 74.5t-68.5 112.5t-24 142zM140 344q0 -59 17 -108.5t48.5 -86t76 -57t98.5 -20.5t98.5 20.5
t76 57t48.5 86t17 108.5q0 58 -17 108t-48.5 86.5t-76 57t-98.5 20.5t-98.5 -20.5t-76 -57t-48.5 -86.5t-17 -108zM240 844h276v-68h-276v68z" />
    <glyph glyph-name="omacron" unicode="&#x14d;" horiz-adv-x="560" 
d="M40 244q0 58 18 105.5t49.5 81t75.5 51.5t97 18q55 0 99.5 -18t76 -51.5t48 -81t16.5 -105.5q0 -59 -18 -106t-49.5 -80.5t-76 -51.5t-96.5 -18q-56 0 -100 18t-75.5 51.5t-48 80.5t-16.5 106zM132 244q0 -41 10.5 -74t30 -56.5t47 -36.5t60.5 -13t60 13t46.5 36.5
t30.5 56.5t11 74q0 85 -41 132.5t-107 47.5q-33 0 -60.5 -13t-47 -36.5t-30 -57t-10.5 -73.5zM140 684h276v-68h-276v68z" />
    <glyph glyph-name="Obreve" unicode="&#x14e;" horiz-adv-x="760" 
d="M44 344q0 76 24 141.5t68.5 113t106.5 74.5t137 27q73 0 135 -27t106.5 -74.5t69.5 -113t25 -141.5q0 -77 -25 -142t-69.5 -112.5t-106.5 -74.5t-135 -27q-75 0 -137 27t-106.5 74.5t-68.5 112.5t-24 142zM140 344q0 -59 17 -108.5t48.5 -86t76 -57t98.5 -20.5t98.5 20.5
t76 57t48.5 86t17 108.5q0 58 -17 108t-48.5 86.5t-76 57t-98.5 20.5t-98.5 -20.5t-76 -57t-48.5 -86.5t-17 -108zM380 768q-23 0 -47 7t-44 23.5t-34.5 43t-18.5 66.5h56q6 -39 27.5 -61.5t60.5 -22.5t60.5 22.5t27.5 61.5h56q-4 -40 -18.5 -66.5t-35 -43t-44 -23.5
t-46.5 -7z" />
    <glyph glyph-name="obreve" unicode="&#x14f;" horiz-adv-x="560" 
d="M40 244q0 58 18 105.5t49.5 81t75.5 51.5t97 18q55 0 99.5 -18t76 -51.5t48 -81t16.5 -105.5q0 -59 -18 -106t-49.5 -80.5t-76 -51.5t-96.5 -18q-56 0 -100 18t-75.5 51.5t-48 80.5t-16.5 106zM132 244q0 -41 10.5 -74t30 -56.5t47 -36.5t60.5 -13t60 13t46.5 36.5
t30.5 56.5t11 74q0 85 -41 132.5t-107 47.5q-33 0 -60.5 -13t-47 -36.5t-30 -57t-10.5 -73.5zM280 580q-23 0 -47 7t-44 23.5t-34.5 43t-18.5 66.5h56q6 -39 27.5 -61.5t60.5 -22.5t60.5 22.5t27.5 61.5h56q-4 -40 -18.5 -66.5t-35 -43t-44 -23.5t-46.5 -7z" />
    <glyph glyph-name="Ohungarumlaut" unicode="&#x150;" horiz-adv-x="760" 
d="M44 344q0 76 24 141.5t68.5 113t106.5 74.5t137 27q73 0 135 -27t106.5 -74.5t69.5 -113t25 -141.5q0 -77 -25 -142t-69.5 -112.5t-106.5 -74.5t-135 -27q-75 0 -137 27t-106.5 74.5t-68.5 112.5t-24 142zM140 344q0 -59 17 -108.5t48.5 -86t76 -57t98.5 -20.5t98.5 20.5
t76 57t48.5 86t17 108.5q0 58 -17 108t-48.5 86.5t-76 57t-98.5 20.5t-98.5 -20.5t-76 -57t-48.5 -86.5t-17 -108zM540 932h104l-144 -164h-64zM360 932h104l-144 -164h-64z" />
    <glyph glyph-name="ohungarumlaut" unicode="&#x151;" horiz-adv-x="560" 
d="M40 244q0 58 18 105.5t49.5 81t75.5 51.5t97 18q55 0 99.5 -18t76 -51.5t48 -81t16.5 -105.5q0 -59 -18 -106t-49.5 -80.5t-76 -51.5t-96.5 -18q-56 0 -100 18t-75.5 51.5t-48 80.5t-16.5 106zM132 244q0 -41 10.5 -74t30 -56.5t47 -36.5t60.5 -13t60 13t46.5 36.5
t30.5 56.5t11 74q0 85 -41 132.5t-107 47.5q-33 0 -60.5 -13t-47 -36.5t-30 -57t-10.5 -73.5zM440 732h104l-144 -164h-64zM260 732h104l-144 -164h-64z" />
    <glyph glyph-name="OE" unicode="&#x152;" horiz-adv-x="1032" 
d="M44 344q0 75 23 138.5t68 109t112.5 71t156.5 25.5h568v-80h-372v-218h296v-80h-296v-230h380v-80h-576q-89 0 -156.5 25.5t-112.5 71t-68 109t-23 138.5zM140 344q0 -53 14 -100.5t45.5 -84t82 -58t122.5 -21.5h104v528h-104q-72 0 -122.5 -21.5t-82 -58t-45.5 -84.5
t-14 -100z" />
    <glyph glyph-name="oe" unicode="&#x153;" horiz-adv-x="908" 
d="M40 244q0 58 18 105.5t49.5 81t75.5 51.5t97 18q66 0 115 -26t78 -74q30 48 76.5 74t106.5 26q48 0 87.5 -15.5t68 -45.5t44.5 -73t16 -98v-36h-356q3 -78 41.5 -123t102.5 -45q54 0 83 25.5t37 58.5h88q-5 -33 -22 -62t-44 -50.5t-63 -34.5t-79 -13q-67 0 -115 25
t-76 73q-30 -48 -79 -73t-110 -25q-56 0 -100 18t-75.5 51.5t-48 80.5t-16.5 106zM132 244q0 -41 10.5 -74t30 -56.5t47 -36.5t60.5 -13t60 13t46.5 36.5t30.5 56.5t11 74q0 85 -41 132.5t-107 47.5q-33 0 -60.5 -13t-47 -36.5t-30 -57t-10.5 -73.5zM656 424
q-51 0 -86.5 -34t-48.5 -92h261q-6 66 -38.5 96t-87.5 30z" />
    <glyph glyph-name="Racute" unicode="&#x154;" horiz-adv-x="652" 
d="M88 688h260q118 0 179 -53.5t61 -150.5q0 -78 -38 -131.5t-113 -73.5l175 -279h-100l-171 268h-161v-268h-92v688zM180 608v-260h172q72 0 108 39.5t36 96.5t-37.5 90.5t-106.5 33.5h-172zM384 932h104l-144 -164h-64z" />
    <glyph glyph-name="racute" unicode="&#x155;" horiz-adv-x="360" 
d="M76 488h84v-71h3q18 39 49.5 61t79.5 22q15 0 32 -3.5t36 -16.5l-28 -80q-31 16 -60 16q-27 0 -47.5 -13t-34 -35.5t-20 -51.5t-6.5 -61v-255h-88v488zM293 732h104l-144 -164h-64z" />
    <glyph glyph-name="uni0156" unicode="&#x156;" horiz-adv-x="652" 
d="M88 688h260q118 0 179 -53.5t61 -150.5q0 -78 -38 -131.5t-113 -73.5l175 -279h-100l-171 268h-161v-268h-92v688zM180 608v-260h172q72 0 108 39.5t36 96.5t-37.5 90.5t-106.5 33.5h-172zM370 -68v-78l-37 -102h-40l26 92h-37v88h88z" />
    <glyph glyph-name="uni0157" unicode="&#x157;" horiz-adv-x="360" 
d="M76 488h84v-71h3q18 39 49.5 61t79.5 22q15 0 32 -3.5t36 -16.5l-28 -80q-31 16 -60 16q-27 0 -47.5 -13t-34 -35.5t-20 -51.5t-6.5 -61v-255h-88v488zM165 -68v-78l-37 -102h-40l26 92h-37v88h88z" />
    <glyph glyph-name="Rcaron" unicode="&#x158;" horiz-adv-x="652" 
d="M88 688h260q118 0 179 -53.5t61 -150.5q0 -78 -38 -131.5t-113 -73.5l175 -279h-100l-171 268h-161v-268h-92v688zM180 608v-260h172q72 0 108 39.5t36 96.5t-37.5 90.5t-106.5 33.5h-172zM144 932h84l84 -112l84 112h84l-128 -164h-80z" />
    <glyph glyph-name="rcaron" unicode="&#x159;" horiz-adv-x="360" 
d="M76 488h84v-71h3q18 39 49.5 61t79.5 22q15 0 32 -3.5t36 -16.5l-28 -80q-31 16 -60 16q-27 0 -47.5 -13t-34 -35.5t-20 -51.5t-6.5 -61v-255h-88v488zM53 732h84l84 -112l84 112h84l-128 -164h-80z" />
    <glyph glyph-name="Sacute" unicode="&#x15a;" horiz-adv-x="648" 
d="M148 204q0 -63 45.5 -101.5t126.5 -38.5q85 0 130.5 33.5t45.5 94.5q0 28 -12.5 47t-34 31.5t-50 20t-59.5 13.5l-44 8q-42 7 -83 18t-73 31.5t-52 53.5t-20 85q0 43 18 80t51 63.5t79.5 41.5t103.5 15q55 0 101.5 -13.5t80 -39.5t52 -64t18.5 -87h-92q0 63 -45.5 95.5
t-114.5 32.5q-33 0 -62.5 -7.5t-51 -22t-34 -36.5t-12.5 -50q0 -29 13.5 -48t36.5 -31t53.5 -19.5t64.5 -13.5l44 -8q41 -8 80.5 -19t70.5 -32t50 -54.5t19 -86.5q0 -47 -18.5 -85t-53 -65.5t-85.5 -42.5t-115 -15q-128 0 -196 58t-68 158h92zM392 932h104l-144 -164h-64z
" />
    <glyph glyph-name="sacute" unicode="&#x15b;" horiz-adv-x="484" 
d="M124 144q0 -23 9.5 -40t25.5 -27.5t36.5 -15.5t42.5 -5q60 0 87 19t27 61q0 29 -17 43.5t-55 21.5l-92 16q-23 4 -47.5 12t-44.5 23t-33 38t-13 58q0 36 14.5 64t40 47.5t60 30t75.5 10.5q39 0 73 -9t59.5 -28t40.5 -47.5t15 -67.5h-84q0 39 -28 61.5t-76 22.5
q-45 0 -74.5 -19t-29.5 -57q0 -27 17.5 -42t62.5 -23l92 -16q26 -5 50 -13.5t42 -24t29 -39t11 -58.5q0 -77 -55 -114.5t-145 -37.5q-94 0 -147 40.5t-53 115.5h84zM317 732h104l-144 -164h-64z" />
    <glyph glyph-name="Scircumflex" unicode="&#x15c;" horiz-adv-x="648" 
d="M148 204q0 -63 45.5 -101.5t126.5 -38.5q85 0 130.5 33.5t45.5 94.5q0 28 -12.5 47t-34 31.5t-50 20t-59.5 13.5l-44 8q-42 7 -83 18t-73 31.5t-52 53.5t-20 85q0 43 18 80t51 63.5t79.5 41.5t103.5 15q55 0 101.5 -13.5t80 -39.5t52 -64t18.5 -87h-92q0 63 -45.5 95.5
t-114.5 32.5q-33 0 -62.5 -7.5t-51 -22t-34 -36.5t-12.5 -50q0 -29 13.5 -48t36.5 -31t53.5 -19.5t64.5 -13.5l44 -8q41 -8 80.5 -19t70.5 -32t50 -54.5t19 -86.5q0 -47 -18.5 -85t-53 -65.5t-85.5 -42.5t-115 -15q-128 0 -196 58t-68 158h92zM280 932h80l128 -164h-84
l-84 112l-84 -112h-84z" />
    <glyph glyph-name="scircumflex" unicode="&#x15d;" horiz-adv-x="484" 
d="M124 144q0 -23 9.5 -40t25.5 -27.5t36.5 -15.5t42.5 -5q60 0 87 19t27 61q0 29 -17 43.5t-55 21.5l-92 16q-23 4 -47.5 12t-44.5 23t-33 38t-13 58q0 36 14.5 64t40 47.5t60 30t75.5 10.5q39 0 73 -9t59.5 -28t40.5 -47.5t15 -67.5h-84q0 39 -28 61.5t-76 22.5
q-45 0 -74.5 -19t-29.5 -57q0 -27 17.5 -42t62.5 -23l92 -16q26 -5 50 -13.5t42 -24t29 -39t11 -58.5q0 -77 -55 -114.5t-145 -37.5q-94 0 -147 40.5t-53 115.5h84zM205 732h80l128 -164h-84l-84 112l-84 -112h-84z" />
    <glyph glyph-name="uni015E" unicode="&#x15e;" horiz-adv-x="648" 
d="M148 204q0 -63 45.5 -101.5t126.5 -38.5q85 0 130.5 33.5t45.5 94.5q0 28 -12.5 47t-34 31.5t-50 20t-59.5 13.5l-44 8q-42 7 -83 18t-73 31.5t-52 53.5t-20 85q0 43 18 80t51 63.5t79.5 41.5t103.5 15q55 0 101.5 -13.5t80 -39.5t52 -64t18.5 -87h-92q0 63 -45.5 95.5
t-114.5 32.5q-33 0 -62.5 -7.5t-51 -22t-34 -36.5t-12.5 -50q0 -29 13.5 -48t36.5 -31t53.5 -19.5t64.5 -13.5l44 -8q41 -8 80.5 -19t70.5 -32t50 -54.5t19 -86.5q0 -47 -18.5 -85t-53 -65.5t-85.5 -42.5t-115 -15q-128 0 -196 58t-68 158h92zM304 0h32v-36q45 -3 68.5 -28
t23.5 -60q0 -42 -29 -69t-87 -27h-56v56h52q24 0 38 8t14 32q0 21 -14 30.5t-38 9.5h-32z" />
    <glyph glyph-name="uni015F" unicode="&#x15f;" horiz-adv-x="484" 
d="M124 144q0 -23 9.5 -40t25.5 -27.5t36.5 -15.5t42.5 -5q60 0 87 19t27 61q0 29 -17 43.5t-55 21.5l-92 16q-23 4 -47.5 12t-44.5 23t-33 38t-13 58q0 36 14.5 64t40 47.5t60 30t75.5 10.5q39 0 73 -9t59.5 -28t40.5 -47.5t15 -67.5h-84q0 39 -28 61.5t-76 22.5
q-45 0 -74.5 -19t-29.5 -57q0 -27 17.5 -42t62.5 -23l92 -16q26 -5 50 -13.5t42 -24t29 -39t11 -58.5q0 -77 -55 -114.5t-145 -37.5q-94 0 -147 40.5t-53 115.5h84zM221 0h32v-36q45 -3 68.5 -28t23.5 -60q0 -42 -29 -69t-87 -27h-56v56h52q24 0 38 8t14 32q0 21 -14 30.5
t-38 9.5h-32z" />
    <glyph glyph-name="Scaron" unicode="&#x160;" horiz-adv-x="648" 
d="M148 204q0 -63 45.5 -101.5t126.5 -38.5q85 0 130.5 33.5t45.5 94.5q0 28 -12.5 47t-34 31.5t-50 20t-59.5 13.5l-44 8q-42 7 -83 18t-73 31.5t-52 53.5t-20 85q0 43 18 80t51 63.5t79.5 41.5t103.5 15q55 0 101.5 -13.5t80 -39.5t52 -64t18.5 -87h-92q0 63 -45.5 95.5
t-114.5 32.5q-33 0 -62.5 -7.5t-51 -22t-34 -36.5t-12.5 -50q0 -29 13.5 -48t36.5 -31t53.5 -19.5t64.5 -13.5l44 -8q41 -8 80.5 -19t70.5 -32t50 -54.5t19 -86.5q0 -47 -18.5 -85t-53 -65.5t-85.5 -42.5t-115 -15q-128 0 -196 58t-68 158h92zM152 932h84l84 -112l84 112h84
l-128 -164h-80z" />
    <glyph glyph-name="scaron" unicode="&#x161;" horiz-adv-x="484" 
d="M124 144q0 -23 9.5 -40t25.5 -27.5t36.5 -15.5t42.5 -5q60 0 87 19t27 61q0 29 -17 43.5t-55 21.5l-92 16q-23 4 -47.5 12t-44.5 23t-33 38t-13 58q0 36 14.5 64t40 47.5t60 30t75.5 10.5q39 0 73 -9t59.5 -28t40.5 -47.5t15 -67.5h-84q0 39 -28 61.5t-76 22.5
q-45 0 -74.5 -19t-29.5 -57q0 -27 17.5 -42t62.5 -23l92 -16q26 -5 50 -13.5t42 -24t29 -39t11 -58.5q0 -77 -55 -114.5t-145 -37.5q-94 0 -147 40.5t-53 115.5h84zM77 732h84l84 -112l84 112h84l-128 -164h-80z" />
    <glyph glyph-name="uni0162" unicode="&#x162;" horiz-adv-x="588" 
d="M8 688h572v-78h-240v-610h-92v610h-240v78zM280 0h32v-36q45 -3 68.5 -28t23.5 -60q0 -42 -29 -69t-87 -27h-56v56h52q24 0 38 8t14 32q0 21 -14 30.5t-38 9.5h-32z" />
    <glyph glyph-name="uni0163" unicode="&#x163;" horiz-adv-x="328" 
d="M172 7q-84 24 -84 133v276h-92v72h92v148h88v-148h128v-72h-128v-268q0 -39 16 -55.5t52 -16.5h60v-76h-72h-14.5t-13.5 1v-37q45 -3 68.5 -28t23.5 -60q0 -42 -29 -69t-87 -27h-56v56h52q24 0 38 8t14 32q0 21 -14 30.5t-38 9.5h-32z" />
    <glyph glyph-name="Tcaron" unicode="&#x164;" horiz-adv-x="588" 
d="M8 688h572v-78h-240v-610h-92v610h-240v78zM124 932h84l84 -112l84 112h84l-128 -164h-80z" />
    <glyph glyph-name="tcaron" unicode="&#x165;" horiz-adv-x="328" 
d="M88 416h-92v72h92v148h88v-148h128v-72h-128v-268q0 -39 16 -55.5t52 -16.5h60v-76h-72q-72 0 -108 34t-36 106v276zM270 645h-37v88h88v-78l-37 -102h-40z" />
    <glyph glyph-name="Tbar" unicode="&#x166;" horiz-adv-x="588" 
d="M8 688h572v-78h-240v-254h184v-72h-184v-284h-92v284h-184v72h184v254h-240v78z" />
    <glyph glyph-name="tbar" unicode="&#x167;" horiz-adv-x="328" 
d="M-4 284h92v132h-92v72h92v148h88v-148h128v-72h-128v-132h128v-60h-128v-76q0 -39 16 -55.5t52 -16.5h60v-76h-72q-72 0 -108 38t-36 110v76h-92v60z" />
    <glyph glyph-name="Utilde" unicode="&#x168;" horiz-adv-x="696" 
d="M72 688h92v-416q0 -96 45 -148t139 -52t139 52t45 148v416h92v-416q0 -77 -20 -130.5t-56.5 -88t-87.5 -50t-112 -15.5q-62 0 -112.5 15.5t-87 50t-56.5 88t-20 130.5v416zM184 768q2 45 26 76.5t70 31.5q22 0 42 -7.5t37 -16.5t32 -16.5t29 -7.5q21 0 31 15.5t13 32.5
h48q-2 -45 -26 -76.5t-70 -31.5q-23 0 -42.5 7.5t-36.5 16.5t-32.5 16.5t-28.5 7.5q-21 0 -31 -15.5t-13 -32.5h-48z" />
    <glyph glyph-name="utilde" unicode="&#x169;" horiz-adv-x="560" 
d="M68 488h88v-284q0 -78 30.5 -109t81.5 -31q57 0 92.5 47t35.5 125v252h88v-488h-84v72h-4q-42 -84 -148 -84q-36 0 -68.5 10.5t-57.5 34.5t-39.5 63t-14.5 96v296zM118 596q2 45 26 76.5t70 31.5q22 0 42 -7.5t37 -16.5t32 -16.5t29 -7.5q21 0 31 15.5t13 32.5h48
q-2 -45 -26 -76.5t-70 -31.5q-23 0 -42.5 7.5t-36.5 16.5t-32.5 16.5t-28.5 7.5q-21 0 -31 -15.5t-13 -32.5h-48z" />
    <glyph glyph-name="Umacron" unicode="&#x16a;" horiz-adv-x="696" 
d="M72 688h92v-416q0 -96 45 -148t139 -52t139 52t45 148v416h92v-416q0 -77 -20 -130.5t-56.5 -88t-87.5 -50t-112 -15.5q-62 0 -112.5 15.5t-87 50t-56.5 88t-20 130.5v416zM208 844h276v-68h-276v68z" />
    <glyph glyph-name="umacron" unicode="&#x16b;" horiz-adv-x="560" 
d="M68 488h88v-284q0 -78 30.5 -109t81.5 -31q57 0 92.5 47t35.5 125v252h88v-488h-84v72h-4q-42 -84 -148 -84q-36 0 -68.5 10.5t-57.5 34.5t-39.5 63t-14.5 96v296zM142 684h276v-68h-276v68z" />
    <glyph glyph-name="Ubreve" unicode="&#x16c;" horiz-adv-x="696" 
d="M72 688h92v-416q0 -96 45 -148t139 -52t139 52t45 148v416h92v-416q0 -77 -20 -130.5t-56.5 -88t-87.5 -50t-112 -15.5q-62 0 -112.5 15.5t-87 50t-56.5 88t-20 130.5v416zM348 768q-23 0 -47 7t-44 23.5t-34.5 43t-18.5 66.5h56q6 -39 27.5 -61.5t60.5 -22.5t60.5 22.5
t27.5 61.5h56q-4 -40 -18.5 -66.5t-35 -43t-44 -23.5t-46.5 -7z" />
    <glyph glyph-name="ubreve" unicode="&#x16d;" horiz-adv-x="560" 
d="M68 488h88v-284q0 -78 30.5 -109t81.5 -31q57 0 92.5 47t35.5 125v252h88v-488h-84v72h-4q-42 -84 -148 -84q-36 0 -68.5 10.5t-57.5 34.5t-39.5 63t-14.5 96v296zM282 580q-23 0 -47 7t-44 23.5t-34.5 43t-18.5 66.5h56q6 -39 27.5 -61.5t60.5 -22.5t60.5 22.5
t27.5 61.5h56q-4 -40 -18.5 -66.5t-35 -43t-44 -23.5t-46.5 -7z" />
    <glyph glyph-name="Uring" unicode="&#x16e;" horiz-adv-x="696" 
d="M72 688h92v-416q0 -96 45 -148t139 -52t139 52t45 148v416h92v-416q0 -77 -20 -130.5t-56.5 -88t-87.5 -50t-112 -15.5q-62 0 -112.5 15.5t-87 50t-56.5 88t-20 130.5v416zM348 764q-20 0 -38 7t-32 19.5t-22 30.5t-8 39t8 39t22 30.5t32 19.5t38 7t38 -7t32 -19.5
t22 -30.5t8 -39t-8 -39t-22 -30.5t-32 -19.5t-38 -7zM348 808q22 0 37 15t15 37t-15 37t-37 15t-37 -15t-15 -37t15 -37t37 -15z" />
    <glyph glyph-name="uring" unicode="&#x16f;" horiz-adv-x="560" 
d="M68 488h88v-284q0 -78 30.5 -109t81.5 -31q57 0 92.5 47t35.5 125v252h88v-488h-84v72h-4q-42 -84 -148 -84q-36 0 -68.5 10.5t-57.5 34.5t-39.5 63t-14.5 96v296zM282 564q-20 0 -38 7t-32 19.5t-22 30.5t-8 39t8 39t22 30.5t32 19.5t38 7t38 -7t32 -19.5t22 -30.5
t8 -39t-8 -39t-22 -30.5t-32 -19.5t-38 -7zM282 608q22 0 37 15t15 37t-15 37t-37 15t-37 -15t-15 -37t15 -37t37 -15z" />
    <glyph glyph-name="Uhungarumlaut" unicode="&#x170;" horiz-adv-x="696" 
d="M72 688h92v-416q0 -96 45 -148t139 -52t139 52t45 148v416h92v-416q0 -77 -20 -130.5t-56.5 -88t-87.5 -50t-112 -15.5q-62 0 -112.5 15.5t-87 50t-56.5 88t-20 130.5v416zM508 932h104l-144 -164h-64zM328 932h104l-144 -164h-64z" />
    <glyph glyph-name="uhungarumlaut" unicode="&#x171;" horiz-adv-x="560" 
d="M68 488h88v-284q0 -78 30.5 -109t81.5 -31q57 0 92.5 47t35.5 125v252h88v-488h-84v72h-4q-42 -84 -148 -84q-36 0 -68.5 10.5t-57.5 34.5t-39.5 63t-14.5 96v296zM442 732h104l-144 -164h-64zM262 732h104l-144 -164h-64z" />
    <glyph glyph-name="Uogonek" unicode="&#x172;" horiz-adv-x="696" 
d="M468 -220q-46 0 -73 20.5t-27 63.5q0 36 20 67.5t55 67.5q-23 -5 -46.5 -8t-48.5 -3q-62 0 -112.5 15.5t-87 50t-56.5 88t-20 130.5v416h92v-416q0 -96 45 -148t139 -52t139 52t45 148v416h92v-416q0 -75 -18.5 -126.5t-51.5 -85.5l-50 -60q-32 -37 -51 -66.5t-19 -53.5
q0 -40 50 -40h20v-60h-36z" />
    <glyph glyph-name="uogonek" unicode="&#x173;" horiz-adv-x="560" 
d="M448 -220q-46 0 -73 20.5t-27 63.5q0 37 21 67.5t59 68.5h-28v72h-4q-42 -84 -148 -84q-36 0 -68.5 10.5t-57.5 34.5t-39.5 63t-14.5 96v296h88v-284q0 -78 30.5 -109t81.5 -31q57 0 92.5 47t35.5 125v252h88v-488q-32 -37 -51 -66.5t-19 -53.5q0 -40 50 -40h20v-60h-36z
" />
    <glyph glyph-name="Wcircumflex" unicode="&#x174;" horiz-adv-x="936" 
d="M12 688h96l146 -592h4l158 592h112l158 -592h4l142 592h92l-180 -688h-116l-156 584h-4l-156 -584h-116zM430 932h80l128 -164h-84l-84 112l-84 -112h-84z" />
    <glyph glyph-name="wcircumflex" unicode="&#x175;" horiz-adv-x="724" 
d="M4 488h92l100 -396h4l112 396h104l112 -396h4l100 396h88l-140 -488h-108l-108 400h-4l-108 -400h-108zM322 732h80l128 -164h-84l-84 112l-84 -112h-84z" />
    <glyph glyph-name="Ycircumflex" unicode="&#x176;" horiz-adv-x="608" 
d="M256 270l-244 418h104l186 -324h4l194 324h96l-248 -411v-277h-92v270zM264 932h80l128 -164h-84l-84 112l-84 -112h-84z" />
    <glyph glyph-name="ycircumflex" unicode="&#x177;" horiz-adv-x="468" 
d="M65 -152q84 0 120 100l11 31l-192 509h96l136 -392h4l136 392h88l-207 -564q-10 -27 -25 -54t-36 -49t-49.5 -35.5t-65.5 -13.5h-48v76h32zM193 732h80l128 -164h-84l-84 112l-84 -112h-84z" />
    <glyph glyph-name="Ydieresis" unicode="&#x178;" horiz-adv-x="608" 
d="M256 270l-244 418h104l186 -324h4l194 324h96l-248 -411v-277h-92v270zM360 860h88v-92h-88v92zM160 860h88v-92h-88v92z" />
    <glyph glyph-name="Zacute" unicode="&#x179;" horiz-adv-x="584" 
d="M56 688h492v-60l-397 -550h393v-78h-508v60l397 550h-377v78zM364 932h104l-144 -164h-64z" />
    <glyph glyph-name="zacute" unicode="&#x17a;" horiz-adv-x="444" 
d="M32 488h376v-60l-259 -356h263v-72h-376v52l264 364h-268v72zM293 732h104l-144 -164h-64z" />
    <glyph glyph-name="Zdotaccent" unicode="&#x17b;" horiz-adv-x="584" 
d="M56 688h492v-60l-397 -550h393v-78h-508v60l397 550h-377v78zM248 860h88v-92h-88v92z" />
    <glyph glyph-name="zdotaccent" unicode="&#x17c;" horiz-adv-x="444" 
d="M32 488h376v-60l-259 -356h263v-72h-376v52l264 364h-268v72zM177 696h88v-92h-88v92z" />
    <glyph glyph-name="Zcaron" unicode="&#x17d;" horiz-adv-x="584" 
d="M56 688h492v-60l-397 -550h393v-78h-508v60l397 550h-377v78zM124 932h84l84 -112l84 112h84l-128 -164h-80z" />
    <glyph glyph-name="zcaron" unicode="&#x17e;" horiz-adv-x="444" 
d="M32 488h376v-60l-259 -356h263v-72h-376v52l264 364h-268v72zM53 732h84l84 -112l84 112h84l-128 -164h-80z" />
    <glyph glyph-name="longs" unicode="&#x17f;" horiz-adv-x="308" 
d="M96 416h-92v72h92v80q0 164 164 164h60v-76h-52q-48 0 -66 -23.5t-18 -68.5v-564h-88v416z" />
    <glyph glyph-name="florin" unicode="&#x192;" 
d="M96 356h126l19 180q9 86 53 125t108 39t100 -34t31 -114l-3 -44h-80l3 44q2 35 -10.5 55.5t-44.5 20.5t-48 -23.5t-21 -68.5l-19 -180h154v-64h-161l-33 -320q-9 -86 -53 -125t-108 -39t-100 34t-31 114l3 44h80l-3 -44q-2 -35 10.5 -55.5t44.5 -20.5t48 23.5t21 68.5
l33 320h-119v64z" />
    <glyph glyph-name="uni01E6" unicode="&#x1e6;" horiz-adv-x="760" 
d="M608 100h-3q-37 -58 -92 -85t-133 -27q-74 0 -135.5 27t-106 74.5t-69.5 112.5t-25 142q0 76 25 141.5t70 113t107.5 74.5t137.5 27q61 0 111.5 -16.5t89 -45.5t63.5 -68.5t36 -85.5h-96q-8 27 -24.5 51t-42 42t-60 28.5t-77.5 10.5q-56 0 -101 -20.5t-77 -57t-49 -86.5
t-17 -108q0 -59 17.5 -108.5t49.5 -86t76 -57t97 -20.5q43 0 83 12.5t70.5 37t48.5 60t18 82.5v20h-216v80h300v-364h-60zM216 932h84l84 -112l84 112h84l-128 -164h-80z" />
    <glyph glyph-name="uni01E7" unicode="&#x1e7;" horiz-adv-x="584" 
d="M136 -60q0 -45 37.5 -70.5t94.5 -25.5q32 0 60.5 9t49.5 30t33.5 55.5t12.5 85.5v52h-4q-24 -48 -68.5 -68t-95.5 -20q-47 0 -86.5 17t-68 49t-45 79t-16.5 107t17.5 108t48 82t71 52t87.5 18q51 0 91.5 -20t64.5 -68h4v76h84v-464q0 -69 -19 -117t-52 -78t-76.5 -43.5
t-92.5 -13.5q-46 0 -85.5 11t-68.5 32t-45.5 52.5t-16.5 72.5h84zM132 240q0 -44 11 -76.5t30.5 -55t46 -33.5t56.5 -11t56 12t45.5 34.5t31 56t11.5 77.5q0 43 -11.5 77t-31 56.5t-45.5 34.5t-56 12t-56.5 -12.5t-46 -36t-30.5 -58t-11 -77.5zM109 732h84l84 -112l84 112
h84l-128 -164h-80z" />
    <glyph glyph-name="AEacute" unicode="&#x1fc;" horiz-adv-x="1064" 
d="M512 688h492v-80h-372v-218h296v-80h-296v-230h380v-80h-472v160h-305l-115 -160h-104zM292 240h248v340h-4zM660 932h104l-144 -164h-64z" />
    <glyph glyph-name="aeacute" unicode="&#x1fd;" horiz-adv-x="844" 
d="M68 336q3 43 20 74.5t44 51t61 29t71 9.5q57 0 99 -18.5t65 -55.5q29 35 70 54.5t98 19.5q46 0 85 -15.5t67.5 -45.5t44 -73t15.5 -98v-36h-348q3 -79 41 -123.5t99 -44.5q28 0 48.5 7t34 18.5t21.5 26.5t12 32h88q-5 -33 -22 -62t-43.5 -50.5t-62 -34.5t-76.5 -13
q-69 0 -117 26.5t-76 75.5q-17 -30 -39.5 -49.5t-48 -31.5t-53 -16.5t-54.5 -4.5q-78 0 -121 38.5t-43 101.5t36.5 99.5t123.5 50.5l96 16q39 7 51.5 13t12.5 23q0 42 -25 70t-79 28q-45 0 -77 -22t-35 -70h-84zM228 60q28 0 53.5 8.5t45 26t30.5 44.5t11 65v51
q-14 -17 -52 -23l-92 -16q-48 -8 -68 -28t-20 -52q0 -35 23.5 -55.5t68.5 -20.5zM596 424q-52 0 -86.5 -34t-45.5 -92h251q-5 63 -36.5 94.5t-82.5 31.5zM488 732h104l-144 -164h-64z" />
    <glyph glyph-name="Oslashacute" unicode="&#x1fe;" horiz-adv-x="760" 
d="M137 89q-45 48 -69 112.5t-24 142.5q0 76 25 141.5t69.5 113t106 74.5t135.5 27q57 0 106 -17t91 -47l51 64h76l-82 -103q45 -48 69.5 -112.5t24.5 -140.5q0 -77 -25.5 -142t-70.5 -112.5t-106.5 -74.5t-133.5 -27q-58 0 -107 16.5t-91 45.5l-50 -62h-76zM620 344
q0 54 -14.5 100t-41.5 82l-327 -407q59 -47 143 -47q54 0 98.5 20.5t76 57t48.5 86t17 108.5zM140 344q0 -54 14.5 -100.5t40.5 -81.5l327 406q-60 48 -142 48q-54 0 -98.5 -20.5t-76 -57t-48.5 -86.5t-17 -108zM452 932h104l-144 -164h-64z" />
    <glyph glyph-name="oslashacute" unicode="&#x1ff;" horiz-adv-x="560" 
d="M100 62q-60 69 -60 182q0 58 18 105.5t49.5 81t75.5 51.5t97 18q83 0 142 -41l34 41h64l-61 -75q29 -33 45 -78.5t16 -102.5q0 -59 -18 -106t-49.5 -80.5t-76 -51.5t-96.5 -18q-84 0 -143 41l-33 -41h-64zM132 244q0 -66 26 -110l211 259q-37 31 -89 31q-33 0 -60.5 -13
t-47 -36.5t-30 -57t-10.5 -73.5zM428 244q0 66 -26 110l-211 -259q37 -31 89 -31q33 0 60 13t46.5 36.5t30.5 56.5t11 74zM352 732h104l-144 -164h-64z" />
    <glyph glyph-name="uni0218" unicode="&#x218;" horiz-adv-x="648" 
d="M148 204q0 -63 45.5 -101.5t126.5 -38.5q85 0 130.5 33.5t45.5 94.5q0 28 -12.5 47t-34 31.5t-50 20t-59.5 13.5l-44 8q-42 7 -83 18t-73 31.5t-52 53.5t-20 85q0 43 18 80t51 63.5t79.5 41.5t103.5 15q55 0 101.5 -13.5t80 -39.5t52 -64t18.5 -87h-92q0 63 -45.5 95.5
t-114.5 32.5q-33 0 -62.5 -7.5t-51 -22t-34 -36.5t-12.5 -50q0 -29 13.5 -48t36.5 -31t53.5 -19.5t64.5 -13.5l44 -8q41 -8 80.5 -19t70.5 -32t50 -54.5t19 -86.5q0 -47 -18.5 -85t-53 -65.5t-85.5 -42.5t-115 -15q-128 0 -196 58t-68 158h92zM364 -68v-78l-37 -102h-40
l26 92h-37v88h88z" />
    <glyph glyph-name="uni0219" unicode="&#x219;" horiz-adv-x="484" 
d="M124 144q0 -23 9.5 -40t25.5 -27.5t36.5 -15.5t42.5 -5q60 0 87 19t27 61q0 29 -17 43.5t-55 21.5l-92 16q-23 4 -47.5 12t-44.5 23t-33 38t-13 58q0 36 14.5 64t40 47.5t60 30t75.5 10.5q39 0 73 -9t59.5 -28t40.5 -47.5t15 -67.5h-84q0 39 -28 61.5t-76 22.5
q-45 0 -74.5 -19t-29.5 -57q0 -27 17.5 -42t62.5 -23l92 -16q26 -5 50 -13.5t42 -24t29 -39t11 -58.5q0 -77 -55 -114.5t-145 -37.5q-94 0 -147 40.5t-53 115.5h84zM285 -68v-78l-37 -102h-40l26 92h-37v88h88z" />
    <glyph glyph-name="uni021A" unicode="&#x21a;" horiz-adv-x="588" 
d="M8 688h572v-78h-240v-610h-92v610h-240v78zM340 -68v-78l-37 -102h-40l26 92h-37v88h88z" />
    <glyph glyph-name="uni021B" unicode="&#x21b;" horiz-adv-x="328" 
d="M88 416h-92v72h92v148h88v-148h128v-72h-128v-268q0 -39 16 -55.5t52 -16.5h60v-76h-72q-72 0 -108 34t-36 106v276zM233 -68v-78l-37 -102h-40l26 92h-37v88h88z" />
    <glyph glyph-name="uni0237" unicode="&#x237;" horiz-adv-x="240" 
d="M76 488h88v-576q0 -29 -7 -53t-23.5 -41.5t-42.5 -27.5t-63 -10h-32v76h24q32 0 44 18t12 54v560z" />
    <glyph glyph-name="uni02BE" unicode="&#x2be;" horiz-adv-x="164" 
d="M40 536q22 0 37 15t15 37t-15 37t-37 15v48q43 0 73.5 -27t30.5 -73t-30.5 -73t-73.5 -27v48z" />
    <glyph glyph-name="uni02BF" unicode="&#x2bf;" horiz-adv-x="164" 
d="M124 488q-43 0 -73.5 27t-30.5 73t30.5 73t73.5 27v-48q-22 0 -37 -15t-15 -37t15 -37t37 -15v-48z" />
    <glyph glyph-name="circumflex" unicode="&#x2c6;" horiz-adv-x="560" 
d="M240 732h80l128 -164h-84l-84 112l-84 -112h-84z" />
    <glyph glyph-name="caron" unicode="&#x2c7;" horiz-adv-x="560" 
d="M112 732h84l84 -112l84 112h84l-128 -164h-80z" />
    <glyph glyph-name="uni02C9" unicode="&#x2c9;" horiz-adv-x="560" 
d="M140 684h276v-68h-276v68z" />
    <glyph glyph-name="breve" unicode="&#x2d8;" horiz-adv-x="560" 
d="M280 580q-23 0 -47 7t-44 23.5t-34.5 43t-18.5 66.5h56q6 -39 27.5 -61.5t60.5 -22.5t60.5 22.5t27.5 61.5h56q-4 -40 -18.5 -66.5t-35 -43t-44 -23.5t-46.5 -7z" />
    <glyph glyph-name="dotaccent" unicode="&#x2d9;" horiz-adv-x="560" 
d="M236 696h88v-92h-88v92z" />
    <glyph glyph-name="ring" unicode="&#x2da;" horiz-adv-x="560" 
d="M280 564q-20 0 -38 7t-32 19.5t-22 30.5t-8 39t8 39t22 30.5t32 19.5t38 7t38 -7t32 -19.5t22 -30.5t8 -39t-8 -39t-22 -30.5t-32 -19.5t-38 -7zM280 608q22 0 37 15t15 37t-15 37t-37 15t-37 -15t-15 -37t15 -37t37 -15z" />
    <glyph glyph-name="ogonek" unicode="&#x2db;" horiz-adv-x="560" 
d="M288 -220q-46 0 -73 20.5t-27 63.5q0 37 21 67.5t59 68.5h56q-32 -37 -51 -66.5t-19 -53.5q0 -40 50 -40h20v-60h-36z" />
    <glyph glyph-name="tilde" unicode="&#x2dc;" horiz-adv-x="560" 
d="M116 596q2 45 26 76.5t70 31.5q22 0 42 -7.5t37 -16.5t32 -16.5t29 -7.5q21 0 31 15.5t13 32.5h48q-2 -45 -26 -76.5t-70 -31.5q-23 0 -42.5 7.5t-36.5 16.5t-32.5 16.5t-28.5 7.5q-21 0 -31 -15.5t-13 -32.5h-48z" />
    <glyph glyph-name="hungarumlaut" unicode="&#x2dd;" horiz-adv-x="560" 
d="M440 732h104l-144 -164h-64zM260 732h104l-144 -164h-64z" />
    <glyph glyph-name="uni0312" unicode="&#x312;" horiz-adv-x="560" 
d="M236 646l37 102h40l-26 -92h37v-88h-88v78z" />
    <glyph glyph-name="uni0313" unicode="&#x313;" horiz-adv-x="560" 
d="M273 660h-37v88h88v-78l-37 -102h-40z" />
    <glyph glyph-name="uni0326" unicode="&#x326;" horiz-adv-x="560" 
d="M324 -68v-78l-37 -102h-40l26 92h-37v88h88z" />
    <glyph glyph-name="uni0394" unicode="&#x394;" horiz-adv-x="644" 
d="M268 688h108l256 -688h-620zM507 80l-185 512h-4l-185 -512h374z" />
    <glyph glyph-name="uni03A9" unicode="&#x3a9;" horiz-adv-x="776" 
d="M64 78h40h39.5t40.5 -2q-60 46 -96 115.5t-36 160.5q0 75 24 139t68 110.5t106 72.5t138 26t138 -26t106 -72.5t68 -110.5t24 -139q0 -91 -36 -160.5t-96 -115.5q19 2 40 2h40h40v-78h-260v68q32 17 63.5 43t56.5 61t40.5 80t15.5 100t-17 103.5t-48.5 84t-76 56
t-98.5 20.5t-98.5 -20.5t-76 -56t-48.5 -84t-17 -103.5t15.5 -100t40.5 -80t56.5 -61t63.5 -43v-68h-260v78z" />
    <glyph glyph-name="uni03BC" unicode="&#x3bc;" horiz-adv-x="572" 
d="M76 488h88v-284q0 -78 29 -109t83 -31q57 0 92.5 47t35.5 125v252h88v-364q0 -27 10.5 -37.5t33.5 -10.5h16v-76h-36q-49 0 -75 18.5t-34 53.5h-3q-42 -84 -148 -84q-65 0 -100 38h-4q8 -48 10 -87t2 -85v-74h-88v708z" />
    <glyph glyph-name="pi" unicode="&#x3c0;" 
d="M64 0q13 53 23.5 102.5t18 99.5t13 101.5t7.5 108.5h-106v76h528v-76h-104v-276q0 -32 14 -46t38 -14h32v-76h-44q-66 0 -97 31.5t-31 88.5v292h-141q-2 -51 -6.5 -101t-11.5 -100t-17.5 -102t-23.5 -109h-92z" />
    <glyph glyph-name="uni1E0C" unicode="&#x1e0c;" horiz-adv-x="704" 
d="M88 688h212q89 0 156.5 -25.5t112.5 -71t68 -109t23 -138.5t-23 -138.5t-68 -109t-112.5 -71t-156.5 -25.5h-212v688zM180 608v-528h120q72 0 122.5 21.5t82 58t45.5 84t14 100.5q0 52 -14 100t-45.5 84.5t-82 58t-122.5 21.5h-120zM280 -68h88v-92h-88v92z" />
    <glyph glyph-name="uni1E0D" unicode="&#x1e0d;" horiz-adv-x="584" 
d="M40 240q0 60 17.5 108t48 82t71 52t87.5 18q51 0 91.5 -20t64.5 -68h4q-3 48 -3.5 93.5t-0.5 70.5v156h88v-732h-84v76h-4q-24 -48 -68.5 -68t-95.5 -20q-47 0 -86.5 17t-68 49t-45 79t-16.5 107zM132 240q0 -44 11 -76.5t30.5 -55t46 -33.5t56.5 -11t56 12t45.5 34.5
t31 56t11.5 77.5q0 43 -11.5 77t-31 56.5t-45.5 34.5t-56 12t-56.5 -12.5t-46 -36t-30.5 -58t-11 -77.5zM233 -68h88v-92h-88v92z" />
    <glyph glyph-name="uni1E0E" unicode="&#x1e0e;" horiz-adv-x="704" 
d="M88 688h212q89 0 156.5 -25.5t112.5 -71t68 -109t23 -138.5t-23 -138.5t-68 -109t-112.5 -71t-156.5 -25.5h-212v688zM180 608v-528h120q72 0 122.5 21.5t82 58t45.5 84t14 100.5q0 52 -14 100t-45.5 84.5t-82 58t-122.5 21.5h-120zM186 -80h276v-68h-276v68z" />
    <glyph glyph-name="uni1E0F" unicode="&#x1e0f;" horiz-adv-x="584" 
d="M40 240q0 60 17.5 108t48 82t71 52t87.5 18q51 0 91.5 -20t64.5 -68h4q-3 48 -3.5 93.5t-0.5 70.5v156h88v-732h-84v76h-4q-24 -48 -68.5 -68t-95.5 -20q-47 0 -86.5 17t-68 49t-45 79t-16.5 107zM132 240q0 -44 11 -76.5t30.5 -55t46 -33.5t56.5 -11t56 12t45.5 34.5
t31 56t11.5 77.5q0 43 -11.5 77t-31 56.5t-45.5 34.5t-56 12t-56.5 -12.5t-46 -36t-30.5 -58t-11 -77.5zM139 -80h276v-68h-276v68z" />
    <glyph glyph-name="uni1E24" unicode="&#x1e24;" horiz-adv-x="728" 
d="M88 688h92v-300h368v300h92v-688h-92v308h-368v-308h-92v688zM320 -68h88v-92h-88v92z" />
    <glyph glyph-name="uni1E25" unicode="&#x1e25;" horiz-adv-x="564" 
d="M76 732h88v-152q0 -25 -0.5 -70.5t-3.5 -93.5h4q42 84 152 84q36 0 68.5 -10.5t57.5 -34.5t39.5 -63t14.5 -96v-296h-88v284q0 78 -30.5 109t-81.5 31q-28 0 -52 -12t-42 -33.5t-28 -53t-10 -70.5v-255h-88v732zM242 -68h88v-92h-88v92z" />
    <glyph glyph-name="uni1E2A" unicode="&#x1e2a;" horiz-adv-x="728" 
d="M88 688h92v-300h368v300h92v-688h-92v308h-368v-308h-92v688zM364 -208q-23 0 -47 7t-44 23.5t-34.5 43t-18.5 66.5h56q6 -39 27.5 -61.5t60.5 -22.5t60.5 22.5t27.5 61.5h56q-4 -40 -18.5 -66.5t-34.5 -43t-44 -23.5t-47 -7z" />
    <glyph glyph-name="uni1E2B" unicode="&#x1e2b;" horiz-adv-x="564" 
d="M76 732h88v-152q0 -25 -0.5 -70.5t-3.5 -93.5h4q42 84 152 84q36 0 68.5 -10.5t57.5 -34.5t39.5 -63t14.5 -96v-296h-88v284q0 78 -30.5 109t-81.5 31q-28 0 -52 -12t-42 -33.5t-28 -53t-10 -70.5v-255h-88v732zM286 -208q-23 0 -47 7t-44 23.5t-34.5 43t-18.5 66.5h56
q6 -39 27.5 -61.5t60.5 -22.5t60.5 22.5t27.5 61.5h56q-4 -40 -18.5 -66.5t-34.5 -43t-44 -23.5t-47 -7z" />
    <glyph glyph-name="uni1E62" unicode="&#x1e62;" horiz-adv-x="648" 
d="M148 204q0 -63 45.5 -101.5t126.5 -38.5q85 0 130.5 33.5t45.5 94.5q0 28 -12.5 47t-34 31.5t-50 20t-59.5 13.5l-44 8q-42 7 -83 18t-73 31.5t-52 53.5t-20 85q0 43 18 80t51 63.5t79.5 41.5t103.5 15q55 0 101.5 -13.5t80 -39.5t52 -64t18.5 -87h-92q0 63 -45.5 95.5
t-114.5 32.5q-33 0 -62.5 -7.5t-51 -22t-34 -36.5t-12.5 -50q0 -29 13.5 -48t36.5 -31t53.5 -19.5t64.5 -13.5l44 -8q41 -8 80.5 -19t70.5 -32t50 -54.5t19 -86.5q0 -47 -18.5 -85t-53 -65.5t-85.5 -42.5t-115 -15q-128 0 -196 58t-68 158h92zM276 -68h88v-92h-88v92z" />
    <glyph glyph-name="uni1E63" unicode="&#x1e63;" horiz-adv-x="484" 
d="M124 144q0 -23 9.5 -40t25.5 -27.5t36.5 -15.5t42.5 -5q60 0 87 19t27 61q0 29 -17 43.5t-55 21.5l-92 16q-23 4 -47.5 12t-44.5 23t-33 38t-13 58q0 36 14.5 64t40 47.5t60 30t75.5 10.5q39 0 73 -9t59.5 -28t40.5 -47.5t15 -67.5h-84q0 39 -28 61.5t-76 22.5
q-45 0 -74.5 -19t-29.5 -57q0 -27 17.5 -42t62.5 -23l92 -16q26 -5 50 -13.5t42 -24t29 -39t11 -58.5q0 -77 -55 -114.5t-145 -37.5q-94 0 -147 40.5t-53 115.5h84zM193 -68h88v-92h-88v92z" />
    <glyph glyph-name="uni1E6C" unicode="&#x1e6c;" horiz-adv-x="588" 
d="M8 688h572v-78h-240v-610h-92v610h-240v78zM252 -68h88v-92h-88v92z" />
    <glyph glyph-name="uni1E6D" unicode="&#x1e6d;" horiz-adv-x="328" 
d="M88 416h-92v72h92v148h88v-148h128v-72h-128v-268q0 -39 16 -55.5t52 -16.5h60v-76h-72q-72 0 -108 34t-36 106v276zM145 -68h88v-92h-88v92z" />
    <glyph glyph-name="uni1E6E" unicode="&#x1e6e;" horiz-adv-x="588" 
d="M8 688h572v-78h-240v-610h-92v610h-240v78zM158 -80h276v-68h-276v68z" />
    <glyph glyph-name="uni1E6F" unicode="&#x1e6f;" horiz-adv-x="328" 
d="M88 416h-92v72h92v148h88v-148h128v-72h-128v-268q0 -39 16 -55.5t52 -16.5h60v-76h-72q-72 0 -108 34t-36 106v276zM51 -80h276v-68h-276v68z" />
    <glyph glyph-name="Wgrave" unicode="&#x1e80;" horiz-adv-x="936" 
d="M12 688h96l146 -592h4l158 592h112l158 -592h4l142 592h92l-180 -688h-116l-156 584h-4l-156 -584h-116zM294 932h104l104 -164h-64z" />
    <glyph glyph-name="wgrave" unicode="&#x1e81;" horiz-adv-x="724" 
d="M4 488h92l100 -396h4l112 396h104l112 -396h4l100 396h88l-140 -488h-108l-108 400h-4l-108 -400h-108zM186 732h104l104 -164h-64z" />
    <glyph glyph-name="Wacute" unicode="&#x1e82;" horiz-adv-x="936" 
d="M12 688h96l146 -592h4l158 592h112l158 -592h4l142 592h92l-180 -688h-116l-156 584h-4l-156 -584h-116zM542 932h104l-144 -164h-64z" />
    <glyph glyph-name="wacute" unicode="&#x1e83;" horiz-adv-x="724" 
d="M4 488h92l100 -396h4l112 396h104l112 -396h4l100 396h88l-140 -488h-108l-108 400h-4l-108 -400h-108zM434 732h104l-144 -164h-64z" />
    <glyph glyph-name="Wdieresis" unicode="&#x1e84;" horiz-adv-x="936" 
d="M12 688h96l146 -592h4l158 592h112l158 -592h4l142 592h92l-180 -688h-116l-156 584h-4l-156 -584h-116zM526 860h88v-92h-88v92zM326 860h88v-92h-88v92z" />
    <glyph glyph-name="wdieresis" unicode="&#x1e85;" horiz-adv-x="724" 
d="M4 488h92l100 -396h4l112 396h104l112 -396h4l100 396h88l-140 -488h-108l-108 400h-4l-108 -400h-108zM418 696h88v-92h-88v92zM218 696h88v-92h-88v92z" />
    <glyph glyph-name="uni1E92" unicode="&#x1e92;" horiz-adv-x="584" 
d="M56 688h492v-60l-397 -550h393v-78h-508v60l397 550h-377v78zM248 -68h88v-92h-88v92z" />
    <glyph glyph-name="uni1E93" unicode="&#x1e93;" horiz-adv-x="444" 
d="M32 488h376v-60l-259 -356h263v-72h-376v52l264 364h-268v72zM179 -68h88v-92h-88v92z" />
    <glyph glyph-name="uni1E9E" unicode="&#x1e9e;" horiz-adv-x="740" 
d="M332 80h118q30 0 57 7.5t48 23.5t33 42t12 63t-12 62t-33 40.5t-48 22.5t-57 7h-60v60l118 200h-136q-91 0 -141.5 -50t-50.5 -138v-420h-92v420q0 62 19.5 112t56 84.5t89.5 53t119 18.5h244v-60l-123 -207q40 -5 76.5 -18.5t63.5 -38.5t43 -61.5t16 -86.5
q0 -56 -20 -97t-53.5 -67.5t-77 -39t-90.5 -12.5h-119v80z" />
    <glyph glyph-name="Ygrave" unicode="&#x1ef2;" horiz-adv-x="608" 
d="M256 270l-244 418h104l186 -324h4l194 324h96l-248 -411v-277h-92v270zM128 932h104l104 -164h-64z" />
    <glyph glyph-name="ygrave" unicode="&#x1ef3;" horiz-adv-x="468" 
d="M65 -152q84 0 120 100l11 31l-192 509h96l136 -392h4l136 392h88l-207 -564q-10 -27 -25 -54t-36 -49t-49.5 -35.5t-65.5 -13.5h-48v76h32zM57 732h104l104 -164h-64z" />
    <glyph glyph-name="uni2007" unicode="&#x2007;" 
 />
    <glyph glyph-name="uni2008" unicode="&#x2008;" horiz-adv-x="256" 
 />
    <glyph glyph-name="uni200B" unicode="&#x200b;" horiz-adv-x="0" 
 />
    <glyph glyph-name="endash" unicode="&#x2013;" horiz-adv-x="556" 
d="M60 292h436v-80h-436v80z" />
    <glyph glyph-name="emdash" unicode="&#x2014;" horiz-adv-x="840" 
d="M60 292h720v-80h-720v80z" />
    <glyph glyph-name="quoteleft" unicode="&#x2018;" horiz-adv-x="248" 
d="M72 536l40 152h48l-28 -144h44v-108h-104v100z" />
    <glyph glyph-name="quoteright" unicode="&#x2019;" horiz-adv-x="248" 
d="M116 580h-44v108h104v-100l-40 -152h-48z" />
    <glyph glyph-name="quotesinglbase" unicode="&#x201a;" horiz-adv-x="248" 
d="M72 0v108h104v-100l-40 -152h-48l28 144h-44z" />
    <glyph glyph-name="quotedblleft" unicode="&#x201c;" horiz-adv-x="428" 
d="M72 536l40 152h48l-28 -144h44v-108h-104v100zM252 536l40 152h48l-28 -144h44v-108h-104v100z" />
    <glyph glyph-name="quotedblright" unicode="&#x201d;" horiz-adv-x="428" 
d="M116 580h-44v108h104v-100l-40 -152h-48zM296 580h-44v108h104v-100l-40 -152h-48z" />
    <glyph glyph-name="quotedblbase" unicode="&#x201e;" horiz-adv-x="428" 
d="M72 0v108h104v-100l-40 -152h-48l28 144h-44zM252 0v108h104v-100l-40 -152h-48l28 144h-44z" />
    <glyph glyph-name="dagger" unicode="&#x2020;" horiz-adv-x="440" 
d="M44 520h136v168h80v-168h136v-72h-136v-448h-80v448h-136v72z" />
    <glyph glyph-name="daggerdbl" unicode="&#x2021;" horiz-adv-x="440" 
d="M44 520h136v168h80v-168h136v-72h-136v-212h136v-72h-136v-164h-80v164h-136v72h136v212h-136v72z" />
    <glyph glyph-name="bullet" unicode="&#x2022;" horiz-adv-x="488" 
d="M244 80q-36 0 -67.5 13t-55 36.5t-36.5 55t-13 67.5t13 67.5t36.5 55t55 36.5t67.5 13t67.5 -13t55 -36.5t36.5 -55t13 -67.5t-13 -67.5t-36.5 -55t-55 -36.5t-67.5 -13z" />
    <glyph glyph-name="ellipsis" unicode="&#x2026;" horiz-adv-x="784" 
d="M604 108h104v-108h-104v108zM340 108h104v-108h-104v108zM76 108h104v-108h-104v108z" />
    <glyph glyph-name="perthousand" unicode="&#x2030;" horiz-adv-x="1128" 
d="M176 336q-39 0 -67 14t-46 38.5t-26.5 57t-8.5 70.5q0 37 8.5 70t26.5 57.5t46 38.5t67 14t67 -14t46 -38.5t26.5 -57.5t8.5 -70q0 -38 -8.5 -70.5t-26.5 -57t-46 -38.5t-67 -14zM176 396q72 0 72 120t-72 120t-72 -120t72 -120zM528 700h68l-348 -712h-68zM600 -8
q-39 0 -67 14t-46 38.5t-26.5 57t-8.5 70.5q0 37 8.5 70t26.5 57.5t46 38.5t67 14t67 -14t46 -38.5t26.5 -57.5t8.5 -70q0 -38 -8.5 -70.5t-26.5 -57t-46 -38.5t-67 -14zM600 52q72 0 72 120t-72 120t-72 -120t72 -120zM952 -8q-39 0 -67 14t-46 38.5t-26.5 57t-8.5 70.5
q0 37 8.5 70t26.5 57.5t46 38.5t67 14t67 -14t46 -38.5t26.5 -57.5t8.5 -70q0 -38 -8.5 -70.5t-26.5 -57t-46 -38.5t-67 -14zM952 52q72 0 72 120t-72 120t-72 -120t72 -120z" />
    <glyph glyph-name="uni2032" unicode="&#x2032;" horiz-adv-x="216" 
d="M90 688h88l-69 -252h-56z" />
    <glyph glyph-name="uni2033" unicode="&#x2033;" horiz-adv-x="392" 
d="M90 688h88l-69 -252h-56zM266 688h88l-69 -252h-56z" />
    <glyph glyph-name="guilsinglleft" unicode="&#x2039;" horiz-adv-x="320" 
d="M52 252l144 204h72l-116 -204l116 -204h-72z" />
    <glyph glyph-name="guilsinglright" unicode="&#x203a;" horiz-adv-x="320" 
d="M168 252l-116 204h72l144 -204l-144 -204h-72z" />
    <glyph glyph-name="fraction" unicode="&#x2044;" horiz-adv-x="72" 
d="M176 700h68l-348 -712h-68z" />
    <glyph glyph-name="uni2070" unicode="&#x2070;" horiz-adv-x="352" 
d="M176 488q-39 0 -67 14t-46 38.5t-26.5 57t-8.5 70.5q0 37 8.5 70t26.5 57.5t46 38.5t67 14t67 -14t46 -38.5t26.5 -57.5t8.5 -70q0 -38 -8.5 -70.5t-26.5 -57t-46 -38.5t-67 -14zM176 548q72 0 72 120t-72 120t-72 -120t72 -120z" />
    <glyph glyph-name="uni2071" unicode="&#x2071;" horiz-adv-x="176" 
d="M45 1012h86v-81h-86v81zM48 840h80v-344h-80v344z" />
    <glyph glyph-name="uni2074" unicode="&#x2074;" horiz-adv-x="352" 
d="M24 608l188 232h64v-220h48v-60h-48v-64h-76v64h-176v48zM200 620v117l-93 -117h93z" />
    <glyph glyph-name="uni2075" unicode="&#x2075;" horiz-adv-x="352" 
d="M122 588q3 -17 18 -30.5t42 -13.5q24 0 43 15t19 47t-19 45t-43 13q-19 0 -34 -7.5t-23 -24.5l-73 4l12 204h236v-64h-168l-8 -84h4q9 14 28.5 21t39.5 7q54 0 89 -26t35 -88q0 -29 -11 -51t-30 -37t-43.5 -22.5t-51.5 -7.5q-69 0 -100.5 29t-35.5 71h74z" />
    <glyph glyph-name="uni2076" unicode="&#x2076;" horiz-adv-x="352" 
d="M232 748q-2 18 -15 31t-35 13q-14 0 -26 -4.5t-21.5 -16.5t-15.5 -33t-7 -53v-1q10 15 33.5 25.5t50.5 10.5q51 0 85.5 -26.5t34.5 -87.5q0 -29 -11 -51t-30 -37t-43.5 -22.5t-51.5 -7.5q-32 0 -58 9t-45.5 29t-30 53t-10.5 81q0 52 11 88t30.5 58.5t46 32t58.5 9.5
q63 0 91 -29t31 -71h-72zM178 664q-24 0 -43 -13.5t-19 -44.5v-1q0 -31 19 -46t43 -15t43 15t19 47t-19 45t-43 13z" />
    <glyph glyph-name="uni2077" unicode="&#x2077;" horiz-adv-x="352" 
d="M228 772h-196v68h288v-48l-160 -296h-84z" />
    <glyph glyph-name="uni2078" unicode="&#x2078;" horiz-adv-x="352" 
d="M28 588q0 33 19 55.5t49 28.5v4q-27 6 -41.5 27.5t-14.5 48.5q0 42 36.5 69t99.5 27t99.5 -27t36.5 -69q0 -27 -14.5 -48.5t-41.5 -27.5v-4q30 -6 49 -28.5t19 -55.5q0 -48 -39.5 -74t-108.5 -26t-108.5 26t-39.5 74zM106 596q0 -27 20 -39.5t50 -12.5t50 12.5t20 39.5
t-20 39.5t-50 12.5t-50 -12.5t-20 -39.5zM114 746q0 -23 16.5 -34.5t45.5 -11.5t45.5 11.5t16.5 34.5t-16.5 34.5t-45.5 11.5t-45.5 -11.5t-16.5 -34.5z" />
    <glyph glyph-name="uni2079" unicode="&#x2079;" horiz-adv-x="352" 
d="M116 588q0 -18 14 -31t42 -13q13 0 24.5 4.5t20 16.5t13.5 32.5t6 52.5v1q-7 -15 -30 -25t-49 -10q-55 0 -90 26.5t-35 83.5q0 29 11 52t29.5 38.5t43 23.5t52.5 8q31 0 57.5 -9t46 -29t30 -53t10.5 -81q0 -53 -10 -88.5t-28.5 -58t-44.5 -32t-57 -9.5q-66 0 -95.5 29
t-32.5 71h72zM170 672q23 0 42.5 13t19.5 45v1q-1 31 -19.5 46t-42.5 15t-43 -15t-19 -47t19 -45t43 -13z" />
    <glyph glyph-name="uni207A" unicode="&#x207a;" horiz-adv-x="352" 
d="M44 700h100v100h64v-100h100v-60h-100v-100h-64v100h-100v60z" />
    <glyph glyph-name="uni207B" unicode="&#x207b;" horiz-adv-x="352" 
d="M44 700h264v-60h-264v60z" />
    <glyph glyph-name="uni207C" unicode="&#x207c;" horiz-adv-x="352" 
d="M44 760h264v-60h-264v60zM44 640h264v-60h-264v60z" />
    <glyph glyph-name="uni207D" unicode="&#x207d;" horiz-adv-x="220" 
d="M140 424q-14 17 -28.5 43t-26 57.5t-18.5 68t-7 75.5t7 75.5t18.5 68t26 57.5t28.5 43h72q-13 -16 -27 -41.5t-26 -57.5t-19.5 -69t-7.5 -76t7.5 -76t19.5 -69t26 -57.5t27 -41.5h-72z" />
    <glyph glyph-name="uni207E" unicode="&#x207e;" horiz-adv-x="220" 
d="M8 424q13 16 27 41.5t26 57.5t19.5 69t7.5 76t-7.5 76t-19.5 69t-26 57.5t-27 41.5h72q14 -17 28.5 -43t26 -57.5t18.5 -68t7 -75.5t-7 -75.5t-18.5 -68t-26 -57.5t-28.5 -43h-72z" />
    <glyph glyph-name="uni207F" unicode="&#x207f;" horiz-adv-x="412" 
d="M52 840h76v-52h3q15 32 42.5 46.5t65.5 14.5q25 0 48 -7.5t40 -23.5t27 -42t10 -63v-217h-80v198q0 51 -19.5 70t-51.5 19q-35 0 -58 -27.5t-23 -79.5v-180h-80v344z" />
    <glyph glyph-name="uni2080" unicode="&#x2080;" horiz-adv-x="352" 
d="M176 -159q-39 0 -67 14t-46 38.5t-26.5 57t-8.5 70.5q0 37 8.5 70t26.5 57.5t46 38.5t67 14t67 -14t46 -38.5t26.5 -57.5t8.5 -70q0 -38 -8.5 -70.5t-26.5 -57t-46 -38.5t-67 -14zM176 -99q72 0 72 120t-72 120t-72 -120t72 -120z" />
    <glyph glyph-name="uni2081" unicode="&#x2081;" horiz-adv-x="352" 
d="M40 109l140 84h48v-280h92v-64h-268v64h100v188l-80 -46z" />
    <glyph glyph-name="uni2082" unicode="&#x2082;" horiz-adv-x="352" 
d="M32 -151q0 39 10 66.5t26 47t36 32.5t40 23l24 12q29 14 48.5 29.5t19.5 33.5q0 22 -14.5 35t-45.5 13q-30 0 -48 -16.5t-20 -47.5h-72q1 34 13 57.5t31.5 38.5t44 21.5t51.5 6.5q60 0 98 -27t38 -79q0 -24 -10 -42t-26 -31.5t-36 -24.5t-40 -21l-24 -12
q-22 -11 -39 -25.5t-17 -25.5h192v-64h-280z" />
    <glyph glyph-name="uni2083" unicode="&#x2083;" horiz-adv-x="352" 
d="M106 -47q0 -27 19.5 -40.5t50.5 -13.5q30 0 50 11.5t20 38.5t-20 39.5t-50 12.5h-28v52h28q29 0 45.5 11.5t16.5 34.5t-16.5 33.5t-45.5 10.5t-45.5 -13.5t-16.5 -36.5h-72q0 54 37.5 81t100.5 27q60 0 96 -27t36 -69q0 -27 -14.5 -49t-41.5 -28q30 -7 49 -30.5t19 -56.5
q0 -48 -39.5 -74t-108.5 -26q-63 0 -102.5 25.5t-39.5 86.5h72z" />
    <glyph glyph-name="uni2084" unicode="&#x2084;" horiz-adv-x="352" 
d="M24 -39l188 232h64v-220h48v-60h-48v-64h-76v64h-176v48zM200 -27v117l-93 -117h93z" />
    <glyph glyph-name="uni2085" unicode="&#x2085;" horiz-adv-x="352" 
d="M122 -59q3 -17 18 -30.5t42 -13.5q24 0 43 15t19 47t-19 45t-43 13q-19 0 -34 -7.5t-23 -24.5l-73 4l12 204h236v-64h-168l-8 -84h4q9 14 28.5 21t39.5 7q54 0 89 -26t35 -88q0 -29 -11 -51t-30 -37t-43.5 -22.5t-51.5 -7.5q-69 0 -100.5 29t-35.5 71h74z" />
    <glyph glyph-name="uni2086" unicode="&#x2086;" horiz-adv-x="352" 
d="M232 101q-2 18 -15 31t-35 13q-14 0 -26 -4.5t-21.5 -16.5t-15.5 -33t-7 -53v-1q10 15 33.5 25.5t50.5 10.5q51 0 85.5 -26.5t34.5 -87.5q0 -29 -11 -51t-30 -37t-43.5 -22.5t-51.5 -7.5q-32 0 -58 9t-45.5 29t-30 53t-10.5 81q0 52 11 88t30.5 58.5t46 32t58.5 9.5
q63 0 91 -29t31 -71h-72zM178 17q-24 0 -43 -13.5t-19 -44.5v-1q0 -31 19 -46t43 -15t43 15t19 47t-19 45t-43 13z" />
    <glyph glyph-name="uni2087" unicode="&#x2087;" horiz-adv-x="352" 
d="M228 125h-196v68h288v-48l-160 -296h-84z" />
    <glyph glyph-name="uni2088" unicode="&#x2088;" horiz-adv-x="352" 
d="M28 -59q0 33 19 55.5t49 28.5v4q-27 6 -41.5 27.5t-14.5 48.5q0 42 36.5 69t99.5 27t99.5 -27t36.5 -69q0 -27 -14.5 -48.5t-41.5 -27.5v-4q30 -6 49 -28.5t19 -55.5q0 -48 -39.5 -74t-108.5 -26t-108.5 26t-39.5 74zM106 -51q0 -27 20 -39.5t50 -12.5t50 12.5t20 39.5
t-20 39.5t-50 12.5t-50 -12.5t-20 -39.5zM114 99q0 -23 16.5 -34.5t45.5 -11.5t45.5 11.5t16.5 34.5t-16.5 34.5t-45.5 11.5t-45.5 -11.5t-16.5 -34.5z" />
    <glyph glyph-name="uni2089" unicode="&#x2089;" horiz-adv-x="352" 
d="M116 -59q0 -18 14 -31t42 -13q13 0 24.5 4.5t20 16.5t13.5 32.5t6 52.5v1q-7 -15 -30 -25t-49 -10q-55 0 -90 26.5t-35 83.5q0 29 11 52t29.5 38.5t43 23.5t52.5 8q31 0 57.5 -9t46 -29t30 -53t10.5 -81q0 -53 -10 -88.5t-28.5 -58t-44.5 -32t-57 -9.5q-66 0 -95.5 29
t-32.5 71h72zM170 25q23 0 42.5 13t19.5 45v1q-1 31 -19.5 46t-42.5 15t-43 -15t-19 -47t19 -45t43 -13z" />
    <glyph glyph-name="uni208A" unicode="&#x208a;" horiz-adv-x="352" 
d="M44 53h100v100h64v-100h100v-60h-100v-100h-64v100h-100v60z" />
    <glyph glyph-name="uni208B" unicode="&#x208b;" horiz-adv-x="352" 
d="M44 53h264v-60h-264v60z" />
    <glyph glyph-name="uni208C" unicode="&#x208c;" horiz-adv-x="352" 
d="M44 113h264v-60h-264v60zM44 -7h264v-60h-264v60z" />
    <glyph glyph-name="uni208D" unicode="&#x208d;" horiz-adv-x="220" 
d="M140 -223q-14 17 -28.5 43t-26 57.5t-18.5 68t-7 75.5t7 75.5t18.5 68t26 57.5t28.5 43h72q-13 -16 -27 -41.5t-26 -57.5t-19.5 -69t-7.5 -76t7.5 -76t19.5 -69t26 -57.5t27 -41.5h-72z" />
    <glyph glyph-name="uni208E" unicode="&#x208e;" horiz-adv-x="220" 
d="M8 -223q13 16 27 41.5t26 57.5t19.5 69t7.5 76t-7.5 76t-19.5 69t-26 57.5t-27 41.5h72q14 -17 28.5 -43t26 -57.5t18.5 -68t7 -75.5t-7 -75.5t-18.5 -68t-26 -57.5t-28.5 -43h-72z" />
    <glyph glyph-name="uni2090" unicode="&#x2090;" horiz-adv-x="388" 
d="M36 -61q0 48 27.5 73.5t87.5 33.5l65 8q28 4 36 8.5t8 18.5q0 25 -15 43t-49 18q-29 0 -48 -14t-21 -45h-75q2 32 14.5 54.5t32 36.5t44.5 20.5t53 6.5q69 0 106.5 -30t37.5 -93v-229h-77v41h-3q-28 -49 -109 -49q-57 0 -86 26.5t-29 71.5zM260 18q-9 -13 -34 -16l-56 -7
q-29 -4 -41.5 -17.5t-12.5 -32.5q0 -23 15 -33.5t42 -10.5q35 0 61 21.5t26 69.5v26z" />
    <glyph glyph-name="uni2091" unicode="&#x2091;" horiz-adv-x="398" 
d="M32 21q0 40 13 73.5t35.5 57t54 36.5t69.5 13q73 0 117.5 -44t44.5 -125v-24h-252q3 -54 28 -78.5t65 -24.5q35 0 53.5 14t23.5 34h74q-8 -48 -47 -79.5t-105 -31.5q-81 0 -127.5 46t-46.5 133zM204 138q-71 0 -86 -77h164q-9 77 -78 77z" />
    <glyph glyph-name="uni2092" unicode="&#x2092;" horiz-adv-x="417" 
d="M32 21q0 41 13 74.5t36 57t55.5 36.5t71.5 13q82 0 129.5 -48.5t47.5 -132.5q0 -41 -13 -74.5t-36 -57t-56 -36t-72 -12.5q-81 0 -128.5 48t-47.5 132zM115 21q0 -52 25.5 -84t67.5 -32q43 0 68.5 32t25.5 84q0 54 -25.5 85t-68.5 31q-42 0 -67.5 -31t-25.5 -85z" />
    <glyph glyph-name="uni2093" unicode="&#x2093;" horiz-adv-x="337" 
d="M126 21l-120 172h92l72 -108l73 108h88l-121 -169l123 -175h-91l-75 112l-76 -112h-87z" />
    <glyph glyph-name="uni2095" unicode="&#x2095;" horiz-adv-x="412" 
d="M52 365h80v-108q0 -17 -0.5 -48t-3.5 -68h3q15 32 42.5 46.5t65.5 14.5q25 0 48 -7.5t40 -23.5t27 -42t10 -63v-217h-80v198q0 51 -19.5 70t-51.5 19q-35 0 -58 -27.5t-23 -79.5v-180h-80v516z" />
    <glyph glyph-name="uni2096" unicode="&#x2096;" horiz-adv-x="376" 
d="M52 365h80v-320l135 148h92l-128 -137l141 -207h-93l-101 150l-46 -50v-100h-80v516z" />
    <glyph glyph-name="uni2097" unicode="&#x2097;" horiz-adv-x="184" 
d="M52 365h80v-516h-80v516z" />
    <glyph glyph-name="uni2098" unicode="&#x2098;" horiz-adv-x="625" 
d="M52 193h76v-52h3q15 32 41 46.5t64 14.5q34 0 63.5 -16t43.5 -54q17 39 45.5 54.5t70.5 15.5q22 0 43.5 -6.5t38 -22t26.5 -40.5t10 -61v-223h-80v205q0 45 -16 63.5t-48 18.5q-33 0 -56 -26.5t-23 -78.5v-182h-79v203q0 45 -16.5 64.5t-48.5 19.5t-55 -26.5t-23 -77.5
v-183h-80v344z" />
    <glyph glyph-name="uni2099" unicode="&#x2099;" horiz-adv-x="412" 
d="M52 193h76v-52h3q15 32 42.5 46.5t65.5 14.5q25 0 48 -7.5t40 -23.5t27 -42t10 -63v-217h-80v198q0 51 -19.5 70t-51.5 19q-35 0 -58 -27.5t-23 -79.5v-180h-80v344z" />
    <glyph glyph-name="uni209A" unicode="&#x209a;" horiz-adv-x="429" 
d="M132 -306h-80v499h76v-54h3q16 33 46.5 48t70.5 15q31 0 58 -11.5t47 -34t32 -56t12 -76.5t-12.5 -77t-34 -57.5t-50 -36t-59.5 -12.5q-39 0 -66.5 14.5t-43.5 47.5h-3q3 -37 3.5 -65t0.5 -46v-98zM314 24q0 54 -25.5 83.5t-64.5 29.5t-64.5 -29.5t-27.5 -81.5v-5
q0 -54 26 -85t66 -31q39 0 64.5 32.5t25.5 86.5z" />
    <glyph glyph-name="uni209B" unicode="&#x209b;" horiz-adv-x="371" 
d="M108 -46q3 -30 25 -43.5t54 -13.5q33 0 52.5 11.5t19.5 32.5t-15.5 29.5t-40.5 13.5l-68 14q-20 4 -37.5 11t-30.5 18.5t-20 28.5t-7 40q0 51 41.5 78.5t105.5 27.5q60 0 101 -25t45 -82h-76q-2 28 -22 39t-46 11q-32 0 -51 -10.5t-19 -30.5q0 -19 13.5 -27.5t41.5 -14.5
l68 -14q18 -4 35.5 -10.5t31 -17.5t22 -27.5t8.5 -41.5q0 -55 -43.5 -82.5t-109.5 -27.5t-107.5 26.5t-46.5 86.5h76z" />
    <glyph glyph-name="uni209C" unicode="&#x209c;" horiz-adv-x="249" 
d="M70 129h-62v64h62v104h80v-104h83v-64h-83v-161q0 -26 9 -38.5t35 -12.5h39v-68h-48q-64 0 -89.5 26.5t-25.5 87.5v166z" />
    <glyph glyph-name="uni20A9" unicode="&#x20a9;" horiz-adv-x="773" 
d="M20 438h69l-49 250h89l45 -250h120l49 250h93l49 -250h118l44 250h86l-48 -250h68v-56h-79l-15 -76h94v-56h-105l-48 -250h-108l-47 250h-114l-47 -250h-108l-50 250h-106v56h95l-15 76h-80v56zM198 306h70l15 76h-99zM511 306h69l13 76h-97zM342 306h92l-14 76h-64z
M231 120l26 130h-49zM547 120l23 130h-48zM367 438h43l-22 114z" />
    <glyph glyph-name="Euro" unicode="&#x20ac;" 
d="M32 452h56q9 54 29 99.5t50.5 78.5t72.5 51.5t96 18.5q95 0 147 -54.5t69 -145.5h-85q-17 61 -45 92.5t-82 31.5q-64 0 -104 -45.5t-55 -126.5h203l-16 -56h-195q-1 -13 -1 -25.5v-26.5v-20.5t1 -19.5h191l-16 -56h-169q14 -88 52.5 -136t104.5 -48q49 0 78 26t46 78h86
q-20 -87 -71.5 -133.5t-142.5 -46.5q-55 0 -97 19t-72.5 53.5t-49 82.5t-26.5 105h-91l16 56h69q-1 10 -1 19.5v20.5v22v15t2 15h-66z" />
    <glyph glyph-name="uni20AE" unicode="&#x20ae;" 
d="M70 384l170 39v191h-208v74h504v-74h-208v-170l170 40v-68l-170 -40v-64l170 40v-68l-170 -40v-244h-88v223l-170 -39v68l170 39v64l-170 -39v68z" />
    <glyph glyph-name="uni20B4" unicode="&#x20b4;" 
d="M71 170q0 17 5.5 38t13.5 38h-63v68h517v-68h-364q-11 -16 -16 -35.5t-5 -35.5q0 -55 34.5 -85t89.5 -30q60 0 94.5 27t41.5 85h88q-11 -95 -70 -139.5t-154 -44.5q-50 0 -89 13t-66.5 37t-42 57.5t-14.5 74.5zM27 446h351q13 15 19.5 36t6.5 39q0 55 -33.5 81t-82.5 26
q-51 0 -86 -25t-42 -83h-88q6 47 24 81t46.5 56t65.5 32.5t80 10.5q46 0 84 -12.5t64.5 -35.5t41 -56t14.5 -74q0 -19 -5.5 -39t-13.5 -37h71v-68h-517v68z" />
    <glyph glyph-name="uni20B8" unicode="&#x20b8;" 
d="M32 688h504v-68h-504v68zM240 482h-208v74h504v-74h-208v-482h-88v482z" />
    <glyph glyph-name="uni20BA" unicode="&#x20ba;" horiz-adv-x="576" 
d="M12 400l80 23v265h88v-240l180 52v-56l-180 -52v-76l180 52v-56l-180 -52v-180h64q55 0 93 16t62 43.5t34.5 64t10.5 76.5v40h84v-40q0 -139 -73 -209.5t-211 -70.5h-152v235l-80 -23v56l80 23v76l-80 -23v56z" />
    <glyph glyph-name="uni20BD" unicode="&#x20bd;" 
d="M20 330h80v358h196q118 0 179 -57.5t61 -154.5q0 -48 -15.5 -88.5t-45.5 -69t-75 -44.5t-104 -16h-108v-68h164v-72h-164v-118h-88v118h-80v72h80v68h-80v72zM448 476q0 63 -36.5 99.5t-111.5 36.5h-112v-282h112q75 0 111.5 41.5t36.5 104.5z" />
    <glyph glyph-name="uni2113" unicode="&#x2113;" horiz-adv-x="412" 
d="M129 26q-21 23 -29.5 57t-8.5 82v74l-2 1l-59 -41l-12 24q19 16 37.5 31t35.5 30v136q0 54 5 93.5t14.5 68t23 48.5t30.5 36q20 18 41 25.5t44 7.5q48 0 74.5 -34t26.5 -94q0 -49 -19 -91.5t-47 -77.5t-59 -62t-56 -46v-109q0 -41 7.5 -67.5t20 -42t29 -22t34.5 -6.5
q35 0 63.5 21t54.5 59l22 -16q-24 -57 -66.5 -90t-102.5 -33q-35 0 -60 10t-42 28zM171 342q23 20 45 45t39 54t27 62t10 69q0 91 -55 91q-32 0 -50 -40.5t-18 -138.5v-141z" />
    <glyph glyph-name="uni2116" unicode="&#x2116;" horiz-adv-x="1212" 
d="M88 688h92l376 -536h4l-4 536h92v-688h-92l-376 532h-4l4 -532h-92v688zM790 516q0 41 13 74.5t36 57t55.5 36.5t71.5 13q82 0 129.5 -48.5t47.5 -132.5q0 -41 -13 -74.5t-36 -57t-56 -36t-72 -12.5q-81 0 -128.5 48t-47.5 132zM873 516q0 -52 25.5 -84t67.5 -32
q43 0 68.5 32t25.5 84q0 54 -25.5 85t-68.5 31q-42 0 -67.5 -31t-25.5 -85zM789 64h355v-64h-355v64zM789 240h355v-64h-355v64z" />
    <glyph glyph-name="trademark" unicode="&#x2122;" horiz-adv-x="804" 
d="M360 688h100l100 -248h4l100 248h100v-344h-72l4 248h-4l-100 -248h-60l-100 248h-4l4 -248h-72v344zM4 688h308v-60h-116v-284h-72v284h-120v60z" />
    <glyph glyph-name="Omega" unicode="&#x2126;" horiz-adv-x="696" 
d="M408 212q25 7 51.5 23.5t48 42t35 60t13.5 78.5q0 46 -15 84.5t-42.5 66t-66 42.5t-84.5 15q-47 0 -85 -15t-65.5 -42.5t-42.5 -66t-15 -84.5q0 -44 13.5 -78.5t35 -60t47.5 -42t52 -23.5v-212h-228v76h144v90q-33 16 -61.5 40t-49.5 55.5t-33 70.5t-12 84q0 60 21.5 112
t61 90t94.5 60t123 22q67 0 122.5 -22t95 -60t61 -90t21.5 -112q0 -45 -12.5 -84t-33.5 -70.5t-49.5 -55.5t-60.5 -40v-90h144v-76h-228v212z" />
    <glyph glyph-name="estimated" unicode="&#x212e;" horiz-adv-x="850" 
d="M184 113q45 -48 107.5 -75.5t135.5 -27.5q78 0 142.5 31t112.5 86h58q-54 -63 -135.5 -101t-178.5 -38q-83 0 -155 28t-126 76t-85 113t-31 139t31 139t85 113t126 76t155 28q82 0 154 -28t126 -76t85 -113t31 -139v-10h-641q-7 0 -7 -4v-194q0 -12 10 -23zM673 355
q4 0 4 6v193q0 14 -10 24q-46 48 -108 74t-132 26q-72 0 -134.5 -27.5t-107.5 -75.5q-11 -11 -11 -26v-188q0 -6 7 -6h492z" />
    <glyph glyph-name="onethird" unicode="&#x2153;" horiz-adv-x="776" 
d="M40 604l140 84h48v-280h92v-64h-268v64h100v188l-80 -46zM548 700h68l-348 -712h-68zM530 104q0 -27 19.5 -40.5t50.5 -13.5q30 0 50 11.5t20 38.5t-20 39.5t-50 12.5h-28v52h28q29 0 45.5 11.5t16.5 34.5t-16.5 33.5t-45.5 10.5t-45.5 -13.5t-16.5 -36.5h-72
q0 54 37.5 81t100.5 27q60 0 96 -27t36 -69q0 -27 -14.5 -49t-41.5 -28q30 -7 49 -30.5t19 -56.5q0 -48 -39.5 -74t-108.5 -26q-63 0 -102.5 25.5t-39.5 86.5h72z" />
    <glyph glyph-name="twothirds" unicode="&#x2154;" horiz-adv-x="776" 
d="M32 344q0 39 10 66.5t26 47t36 32.5t40 23l24 12q29 14 48.5 29.5t19.5 33.5q0 22 -14.5 35t-45.5 13q-30 0 -48 -16.5t-20 -47.5h-72q1 34 13 57.5t31.5 38.5t44 21.5t51.5 6.5q60 0 98 -27t38 -79q0 -24 -10 -42t-26 -31.5t-36 -24.5t-40 -21l-24 -12
q-22 -11 -39 -25.5t-17 -25.5h192v-64h-280zM544 700h68l-348 -712h-68zM530 104q0 -27 19.5 -40.5t50.5 -13.5q30 0 50 11.5t20 38.5t-20 39.5t-50 12.5h-28v52h28q29 0 45.5 11.5t16.5 34.5t-16.5 33.5t-45.5 10.5t-45.5 -13.5t-16.5 -36.5h-72q0 54 37.5 81t100.5 27
q60 0 96 -27t36 -69q0 -27 -14.5 -49t-41.5 -28q30 -7 49 -30.5t19 -56.5q0 -48 -39.5 -74t-108.5 -26q-63 0 -102.5 25.5t-39.5 86.5h72z" />
    <glyph glyph-name="uni2155" unicode="&#x2155;" horiz-adv-x="776" 
d="M40 604l140 84h48v-280h92v-64h-268v64h100v188l-80 -46zM544 700h68l-348 -712h-68zM546 92q3 -17 18 -30.5t42 -13.5q24 0 43 15t19 47t-19 45t-43 13q-19 0 -34 -7.5t-23 -24.5l-73 4l12 204h236v-64h-168l-8 -84h4q9 14 28.5 21t39.5 7q54 0 89 -26t35 -88
q0 -29 -11 -51t-30 -37t-43.5 -22.5t-51.5 -7.5q-69 0 -100.5 29t-35.5 71h74z" />
    <glyph glyph-name="uni2156" unicode="&#x2156;" horiz-adv-x="776" 
d="M32 344q0 39 10 66.5t26 47t36 32.5t40 23l24 12q29 14 48.5 29.5t19.5 33.5q0 22 -14.5 35t-45.5 13q-30 0 -48 -16.5t-20 -47.5h-72q1 34 13 57.5t31.5 38.5t44 21.5t51.5 6.5q60 0 98 -27t38 -79q0 -24 -10 -42t-26 -31.5t-36 -24.5t-40 -21l-24 -12
q-22 -11 -39 -25.5t-17 -25.5h192v-64h-280zM540 700h68l-348 -712h-68zM546 92q3 -17 18 -30.5t42 -13.5q24 0 43 15t19 47t-19 45t-43 13q-19 0 -34 -7.5t-23 -24.5l-73 4l12 204h236v-64h-168l-8 -84h4q9 14 28.5 21t39.5 7q54 0 89 -26t35 -88q0 -29 -11 -51t-30 -37
t-43.5 -22.5t-51.5 -7.5q-69 0 -100.5 29t-35.5 71h74z" />
    <glyph glyph-name="uni2157" unicode="&#x2157;" horiz-adv-x="776" 
d="M106 448q0 -27 19.5 -40.5t50.5 -13.5q30 0 50 11.5t20 38.5t-20 39.5t-50 12.5h-28v52h28q29 0 45.5 11.5t16.5 34.5t-16.5 33.5t-45.5 10.5t-45.5 -13.5t-16.5 -36.5h-72q0 54 37.5 81t100.5 27q60 0 96 -27t36 -69q0 -27 -14.5 -49t-41.5 -28q30 -7 49 -30.5t19 -56.5
q0 -48 -39.5 -74t-108.5 -26q-63 0 -102.5 25.5t-39.5 86.5h72zM528 700h68l-348 -712h-68zM546 92q3 -17 18 -30.5t42 -13.5q24 0 43 15t19 47t-19 45t-43 13q-19 0 -34 -7.5t-23 -24.5l-73 4l12 204h236v-64h-168l-8 -84h4q9 14 28.5 21t39.5 7q54 0 89 -26t35 -88
q0 -29 -11 -51t-30 -37t-43.5 -22.5t-51.5 -7.5q-69 0 -100.5 29t-35.5 71h74z" />
    <glyph glyph-name="uni2158" unicode="&#x2158;" horiz-adv-x="776" 
d="M24 456l188 232h64v-220h48v-60h-48v-64h-76v64h-176v48zM200 468v117l-93 -117h93zM528 700h68l-348 -712h-68zM546 92q3 -17 18 -30.5t42 -13.5q24 0 43 15t19 47t-19 45t-43 13q-19 0 -34 -7.5t-23 -24.5l-73 4l12 204h236v-64h-168l-8 -84h4q9 14 28.5 21t39.5 7
q54 0 89 -26t35 -88q0 -29 -11 -51t-30 -37t-43.5 -22.5t-51.5 -7.5q-69 0 -100.5 29t-35.5 71h74z" />
    <glyph glyph-name="uni2159" unicode="&#x2159;" horiz-adv-x="776" 
d="M40 604l140 84h48v-280h92v-64h-268v64h100v188l-80 -46zM544 700h68l-348 -712h-68zM656 252q-2 18 -15 31t-35 13q-14 0 -26 -4.5t-21.5 -16.5t-15.5 -33t-7 -53v-1q10 15 33.5 25.5t50.5 10.5q51 0 85.5 -26.5t34.5 -87.5q0 -29 -11 -51t-30 -37t-43.5 -22.5
t-51.5 -7.5q-32 0 -58 9t-45.5 29t-30 53t-10.5 81q0 52 11 88t30.5 58.5t46 32t58.5 9.5q63 0 91 -29t31 -71h-72zM602 168q-24 0 -43 -13.5t-19 -44.5v-1q0 -31 19 -46t43 -15t43 15t19 47t-19 45t-43 13z" />
    <glyph glyph-name="uni215A" unicode="&#x215a;" horiz-adv-x="776" 
d="M122 436q3 -17 18 -30.5t42 -13.5q24 0 43 15t19 47t-19 45t-43 13q-19 0 -34 -7.5t-23 -24.5l-73 4l12 204h236v-64h-168l-8 -84h4q9 14 28.5 21t39.5 7q54 0 89 -26t35 -88q0 -29 -11 -51t-30 -37t-43.5 -22.5t-51.5 -7.5q-69 0 -100.5 29t-35.5 71h74zM528 700h68
l-348 -712h-68zM656 252q-2 18 -15 31t-35 13q-14 0 -26 -4.5t-21.5 -16.5t-15.5 -33t-7 -53v-1q10 15 33.5 25.5t50.5 10.5q51 0 85.5 -26.5t34.5 -87.5q0 -29 -11 -51t-30 -37t-43.5 -22.5t-51.5 -7.5q-32 0 -58 9t-45.5 29t-30 53t-10.5 81q0 52 11 88t30.5 58.5t46 32
t58.5 9.5q63 0 91 -29t31 -71h-72zM602 168q-24 0 -43 -13.5t-19 -44.5v-1q0 -31 19 -46t43 -15t43 15t19 47t-19 45t-43 13z" />
    <glyph glyph-name="oneeighth" unicode="&#x215b;" horiz-adv-x="776" 
d="M40 604l140 84h48v-280h92v-64h-268v64h100v188l-80 -46zM544 700h68l-348 -712h-68zM452 92q0 33 19 55.5t49 28.5v4q-27 6 -41.5 27.5t-14.5 48.5q0 42 36.5 69t99.5 27t99.5 -27t36.5 -69q0 -27 -14.5 -48.5t-41.5 -27.5v-4q30 -6 49 -28.5t19 -55.5q0 -48 -39.5 -74
t-108.5 -26t-108.5 26t-39.5 74zM530 100q0 -27 20 -39.5t50 -12.5t50 12.5t20 39.5t-20 39.5t-50 12.5t-50 -12.5t-20 -39.5zM538 250q0 -23 16.5 -34.5t45.5 -11.5t45.5 11.5t16.5 34.5t-16.5 34.5t-45.5 11.5t-45.5 -11.5t-16.5 -34.5z" />
    <glyph glyph-name="threeeighths" unicode="&#x215c;" horiz-adv-x="776" 
d="M106 448q0 -27 19.5 -40.5t50.5 -13.5q30 0 50 11.5t20 38.5t-20 39.5t-50 12.5h-28v52h28q29 0 45.5 11.5t16.5 34.5t-16.5 33.5t-45.5 10.5t-45.5 -13.5t-16.5 -36.5h-72q0 54 37.5 81t100.5 27q60 0 96 -27t36 -69q0 -27 -14.5 -49t-41.5 -28q30 -7 49 -30.5t19 -56.5
q0 -48 -39.5 -74t-108.5 -26q-63 0 -102.5 25.5t-39.5 86.5h72zM528 700h68l-348 -712h-68zM452 92q0 33 19 55.5t49 28.5v4q-27 6 -41.5 27.5t-14.5 48.5q0 42 36.5 69t99.5 27t99.5 -27t36.5 -69q0 -27 -14.5 -48.5t-41.5 -27.5v-4q30 -6 49 -28.5t19 -55.5
q0 -48 -39.5 -74t-108.5 -26t-108.5 26t-39.5 74zM530 100q0 -27 20 -39.5t50 -12.5t50 12.5t20 39.5t-20 39.5t-50 12.5t-50 -12.5t-20 -39.5zM538 250q0 -23 16.5 -34.5t45.5 -11.5t45.5 11.5t16.5 34.5t-16.5 34.5t-45.5 11.5t-45.5 -11.5t-16.5 -34.5z" />
    <glyph glyph-name="fiveeighths" unicode="&#x215d;" horiz-adv-x="776" 
d="M122 436q3 -17 18 -30.5t42 -13.5q24 0 43 15t19 47t-19 45t-43 13q-19 0 -34 -7.5t-23 -24.5l-73 4l12 204h236v-64h-168l-8 -84h4q9 14 28.5 21t39.5 7q54 0 89 -26t35 -88q0 -29 -11 -51t-30 -37t-43.5 -22.5t-51.5 -7.5q-69 0 -100.5 29t-35.5 71h74zM528 700h68
l-348 -712h-68zM452 92q0 33 19 55.5t49 28.5v4q-27 6 -41.5 27.5t-14.5 48.5q0 42 36.5 69t99.5 27t99.5 -27t36.5 -69q0 -27 -14.5 -48.5t-41.5 -27.5v-4q30 -6 49 -28.5t19 -55.5q0 -48 -39.5 -74t-108.5 -26t-108.5 26t-39.5 74zM530 100q0 -27 20 -39.5t50 -12.5
t50 12.5t20 39.5t-20 39.5t-50 12.5t-50 -12.5t-20 -39.5zM538 250q0 -23 16.5 -34.5t45.5 -11.5t45.5 11.5t16.5 34.5t-16.5 34.5t-45.5 11.5t-45.5 -11.5t-16.5 -34.5z" />
    <glyph glyph-name="seveneighths" unicode="&#x215e;" horiz-adv-x="776" 
d="M228 620h-196v68h288v-48l-160 -296h-84zM504 700h68l-348 -712h-68zM452 92q0 33 19 55.5t49 28.5v4q-27 6 -41.5 27.5t-14.5 48.5q0 42 36.5 69t99.5 27t99.5 -27t36.5 -69q0 -27 -14.5 -48.5t-41.5 -27.5v-4q30 -6 49 -28.5t19 -55.5q0 -48 -39.5 -74t-108.5 -26
t-108.5 26t-39.5 74zM530 100q0 -27 20 -39.5t50 -12.5t50 12.5t20 39.5t-20 39.5t-50 12.5t-50 -12.5t-20 -39.5zM538 250q0 -23 16.5 -34.5t45.5 -11.5t45.5 11.5t16.5 34.5t-16.5 34.5t-45.5 11.5t-45.5 -11.5t-16.5 -34.5z" />
    <glyph glyph-name="arrowleft" unicode="&#x2190;" horiz-adv-x="660" 
d="M272 8l-244 244l244 244l46 -42l-177 -174q48 3 95 3.5t72 0.5h324v-64h-324q-25 0 -72 0.5t-95 3.5l177 -174z" />
    <glyph glyph-name="arrowup" unicode="&#x2191;" horiz-adv-x="660" 
d="M86 310l244 244l244 -244l-42 -46l-174 177q3 -48 3.5 -95t0.5 -72v-324h-64v324q0 25 0.5 72t3.5 95l-174 -177z" />
    <glyph glyph-name="arrowright" unicode="&#x2192;" horiz-adv-x="660" 
d="M342 50l176 174q-48 -3 -94.5 -3.5t-71.5 -0.5h-324v64h324q25 0 71.5 -0.5t94.5 -3.5l-176 174l46 42l244 -244l-244 -244z" />
    <glyph glyph-name="arrowdown" unicode="&#x2193;" horiz-adv-x="660" 
d="M574 194l-244 -244l-244 244l42 46l174 -177q-3 48 -3.5 95t-0.5 72v324h64v-324q0 -25 -0.5 -72t-3.5 -95l174 177z" />
    <glyph glyph-name="uni2196" unicode="&#x2196;" horiz-adv-x="660" 
d="M460 488v-60h-244q37 -32 69.5 -65t50.5 -51l228 -228l-44 -48l-228 232l-51 51t-65 69v-244h-60v344h344z" />
    <glyph glyph-name="uni2197" unicode="&#x2197;" horiz-adv-x="660" 
d="M220 488h344v-344h-60v244q-32 -36 -65 -69l-51 -51l-228 -232l-44 48l228 228q18 18 50.5 51t69.5 65h-244v60z" />
    <glyph glyph-name="uni2198" unicode="&#x2198;" horiz-adv-x="660" 
d="M220 96h244q-37 32 -69.5 65t-50.5 51l-228 228l44 48l228 -232l51 -51t65 -69v244h60v-344h-344v60z" />
    <glyph glyph-name="uni2199" unicode="&#x2199;" horiz-adv-x="660" 
d="M460 96v-60h-344v344h60v-244q32 36 65 69l51 51l228 232l44 -48l-228 -228q-18 -18 -50.5 -51t-69.5 -65h244z" />
    <glyph glyph-name="partialdiff" unicode="&#x2202;" 
d="M20 192q0 57 19 103t52 78t77.5 49.5t95.5 17.5q27 0 52 -6t46.5 -17t38 -27t25.5 -36q1 12 1.5 23.5t0.5 22.5q0 61 -11.5 104t-31 69.5t-44.5 38.5t-53 12q-60 0 -91 -31.5t-41 -76.5h-88q9 40 27 74t46 58.5t66.5 38t88.5 13.5q44 0 84.5 -16.5t71.5 -52.5t49.5 -93
t18.5 -138q0 -118 -25.5 -197t-66.5 -127t-93.5 -68t-106.5 -20q-42 0 -79.5 13.5t-66 40t-45.5 64.5t-17 86zM240 64q31 0 60 12.5t51 34.5t35.5 52t13.5 65q0 63 -35.5 99.5t-96.5 36.5q-32 0 -60.5 -12t-49.5 -33.5t-33.5 -52.5t-12.5 -70q0 -63 36.5 -97.5t91.5 -34.5z
" />
    <glyph glyph-name="Delta" unicode="&#x2206;" horiz-adv-x="644" 
d="M268 688h108l256 -688h-620zM507 80l-185 512h-4l-185 -512h374z" />
    <glyph glyph-name="product" unicode="&#x220f;" horiz-adv-x="724" 
d="M92 688h540v-688h-88v612h-364v-612h-88v688z" />
    <glyph glyph-name="summation" unicode="&#x2211;" horiz-adv-x="528" 
d="M24 53l220 287l-212 288v60h460v-76h-348l200 -268l-212 -268h376v-76h-484v53z" />
    <glyph glyph-name="minus" unicode="&#x2212;" 
d="M56 292h456v-76h-456v76z" />
    <glyph glyph-name="uni2215" unicode="&#x2215;" horiz-adv-x="72" 
d="M176 700h68l-348 -712h-68z" />
    <glyph glyph-name="uni2219" unicode="&#x2219;" horiz-adv-x="264" 
d="M76 308h112v-112h-112v112z" />
    <glyph glyph-name="radical" unicode="&#x221a;" horiz-adv-x="588" 
d="M28 380l140 44l130 -328h4l210 592h88l-248 -688h-100l-137 331l-87 -27v76z" />
    <glyph glyph-name="infinity" unicode="&#x221e;" horiz-adv-x="708" 
d="M188 88q-36 0 -66.5 12t-52 34t-33.5 52t-12 66t12 66t33.5 52t52 34t66.5 12q52 0 95 -30t73 -75q32 45 72.5 75t91.5 30q36 0 66.5 -12t52 -34t33.5 -52t12 -66t-12 -66t-33.5 -52t-52 -34t-66.5 -12q-54 0 -96.5 29.5t-71.5 74.5q-32 -45 -72.5 -74.5t-91.5 -29.5z
M184 160q21 0 39.5 8.5t34.5 22t29.5 30t24.5 31.5q-11 15 -24.5 31t-29.5 29.5t-34.5 22.5t-39.5 9q-39 0 -61.5 -28t-22.5 -64t22.5 -64t61.5 -28zM396 252q11 -15 24.5 -31.5t29.5 -30t34.5 -22t39.5 -8.5q39 0 61.5 28t22.5 64t-22.5 64t-61.5 28q-21 0 -39.5 -9
t-34.5 -22.5t-29.5 -29.5t-24.5 -31z" />
    <glyph glyph-name="integral" unicode="&#x222b;" horiz-adv-x="364" 
d="M56 -108q31 0 50.5 9t30 25t14.5 38t4 48q0 15 -1 31t-2 33l-28 496q-1 12 -1 23.5v22.5q0 43 7.5 80.5t27 65.5t54 44t88.5 16h32v-76h-24q-31 0 -50.5 -9t-30 -25.5t-14.5 -39t-4 -48.5q0 -15 1 -30t2 -32l28 -496q1 -11 1 -21.5v-21.5q0 -42 -7.5 -80t-27 -66.5
t-54 -45.5t-88.5 -17h-32v76h24z" />
    <glyph glyph-name="approxequal" unicode="&#x2248;" 
d="M56 284q0 39 10.5 67.5t28 47.5t40.5 28t49 9q34 0 61 -12t50.5 -26t44.5 -26t44 -12q24 0 38 17t14 59h76q0 -39 -10 -67.5t-27.5 -47.5t-40 -28t-46.5 -9q-34 0 -62 12.5t-52 27.5t-46 27.5t-44 12.5q-24 0 -38 -19t-14 -61h-76zM56 76q0 39 10.5 67.5t28 47.5t40.5 28
t49 9q34 0 61 -12t50.5 -26t44.5 -26t44 -12q24 0 38 17t14 59h76q0 -39 -10 -67.5t-27.5 -47.5t-40 -28t-46.5 -9q-34 0 -62 12.5t-52 27.5t-46 27.5t-44 12.5q-24 0 -38 -19t-14 -61h-76z" />
    <glyph glyph-name="notequal" unicode="&#x2260;" 
d="M56 396h262l78 140l64 -36l-58 -104h110v-76h-152l-73 -132h225v-76h-267l-77 -140l-64 36l57 104h-105v76h147l73 132h-220v76z" />
    <glyph glyph-name="lessequal" unicode="&#x2264;" 
d="M72 396l424 180v-80l-335 -136l335 -136v-84l-424 180v76zM72 76h424v-76h-424v76z" />
    <glyph glyph-name="greaterequal" unicode="&#x2265;" 
d="M496 320l-424 -180v80l335 136l-335 136v84l424 -180v-76zM72 76h424v-76h-424v76z" />
    <glyph glyph-name="uni2300" unicode="&#x2300;" 
d="M284 32q-74 0 -129 37l-55 -59l-48 44l55 58q-23 28 -35 63t-12 77q0 48 17 88.5t47 70t71 45.5t89 16q36 0 68.5 -10t59.5 -27l56 59l48 -44l-55 -59q22 -28 34.5 -63t12.5 -76q0 -48 -17 -88.5t-47 -70t-71 -45.5t-89 -16zM284 104q33 0 59.5 11.5t45 31t29 46.5
t10.5 59q0 44 -22 82l-199 -210q34 -20 77 -20zM140 252q0 -48 21 -82l199 210q-17 9 -35.5 14.5t-40.5 5.5q-33 0 -59.5 -11.5t-45 -31t-29 -47t-10.5 -58.5z" />
    <glyph glyph-name="uni25A0" unicode="&#x25a0;" horiz-adv-x="688" 
d="M0 688h688v-688h-688v688z" />
    <glyph glyph-name="uni25A1" unicode="&#x25a1;" horiz-adv-x="688" 
d="M0 688h688v-688h-688v688zM608 76v536h-528v-536h528z" />
    <glyph glyph-name="uni25B6" unicode="&#x25b6;" horiz-adv-x="502" 
d="M44 500l446 -256l-446 -256v512z" />
    <glyph glyph-name="uni25B7" unicode="&#x25b7;" horiz-adv-x="502" 
d="M44 500l446 -256l-446 -256v512zM348 244l-224 124v-248z" />
    <glyph glyph-name="uni25C0" unicode="&#x25c0;" horiz-adv-x="502" 
d="M458 500v-512l-446 256z" />
    <glyph glyph-name="uni25C1" unicode="&#x25c1;" horiz-adv-x="502" 
d="M458 500v-512l-446 256zM378 120v248l-224 -124z" />
    <glyph glyph-name="lozenge" unicode="&#x25ca;" horiz-adv-x="644" 
d="M36 344l244 344h84l244 -344l-244 -344h-84zM318 616l-188 -269l192 -275h4l188 269l-192 275h-4z" />
    <glyph glyph-name="uni25CB" unicode="&#x25cb;" horiz-adv-x="552" 
d="M24 244q0 54 19.5 100.5t54 81t80 54.5t98.5 20q52 0 98 -19t80.5 -53.5t54 -81.5t19.5 -102q0 -54 -19.5 -101t-54 -81.5t-80.5 -54t-98 -19.5q-53 0 -98.5 19t-80 53.5t-54 81t-19.5 102.5zM104 244q0 -40 13 -73.5t36 -58t54.5 -38.5t68.5 -14q38 0 70 14t54.5 38.5
t35 58t12.5 73.5t-13 73.5t-36 58t-54.5 38.5t-68.5 14q-38 0 -70 -14t-54.5 -38.5t-35 -58t-12.5 -73.5z" />
    <glyph glyph-name="uni25CF" unicode="&#x25cf;" horiz-adv-x="552" 
d="M24 244q0 54 19.5 100.5t54 81t80 54.5t98.5 20q52 0 98 -19t80.5 -53.5t54 -81.5t19.5 -102q0 -54 -19.5 -101t-54 -81.5t-80.5 -54t-98 -19.5q-53 0 -98.5 19t-80 53.5t-54 81t-19.5 102.5z" />
    <glyph glyph-name="uni25FB" unicode="&#x25fb;" horiz-adv-x="488" 
d="M0 488h488v-488h-488v488zM408 72v344h-328v-344h328z" />
    <glyph glyph-name="uni25FC" unicode="&#x25fc;" horiz-adv-x="488" 
d="M0 488h488v-488h-488v488z" />
    <glyph glyph-name="uni2605" unicode="&#x2605;" horiz-adv-x="546" 
d="M174 196l-162 108l5 16l195 -9l53 189h16l52 -189l196 9l5 -16l-163 -108l69 -183l-14 -10l-153 121l-153 -121l-14 10z" />
    <glyph glyph-name="uniFB00" unicode="&#xfb00;" horiz-adv-x="608" 
d="M96 416h-92v72h92v80q0 164 164 164h56v-76h-48q-48 0 -66 -23.5t-18 -68.5v-76h212v80q0 164 164 164h60v-76h-52q-48 0 -66 -23.5t-18 -68.5v-76h120v-72h-120v-416h-88v416h-212v-416h-88v416z" />
    <glyph glyph-name="fi" unicode="&#xfb01;" horiz-adv-x="560" 
d="M396 416h-212v-416h-88v416h-92v72h92v80q0 164 164 164h56v-76h-48q-48 0 -66 -23.5t-18 -68.5v-76h300v-488h-88v416zM392 732h96v-100h-96v100z" />
    <glyph glyph-name="fl" unicode="&#xfb02;" horiz-adv-x="560" 
d="M96 416h-92v72h92v80q0 164 164 164h224v-732h-88v656h-128q-48 0 -66 -23.5t-18 -68.5v-76h108v-72h-108v-416h-88v416z" />
    <glyph glyph-name="uniFB03" unicode="&#xfb03;" horiz-adv-x="860" 
d="M396 416h-212v-416h-88v416h-92v72h92v80q0 164 164 164h64v-76h-56q-48 0 -66 -23.5t-18 -68.5v-76h212v80q0 164 164 164h56v-76h-48q-48 0 -66 -23.5t-18 -68.5v-76h300v-488h-88v416h-212v-416h-88v416zM692 732h96v-100h-96v100z" />
    <glyph glyph-name="uniFB04" unicode="&#xfb04;" horiz-adv-x="860" 
d="M396 416h-212v-416h-88v416h-92v72h92v80q0 164 164 164h56v-76h-48q-48 0 -66 -23.5t-18 -68.5v-76h212v80q0 164 164 164h224v-732h-88v656h-128q-48 0 -66 -23.5t-18 -68.5v-76h132v-72h-132v-416h-88v416z" />
    <glyph glyph-name="uniFEFF" unicode="&#xfeff;" horiz-adv-x="0" 
 />
    <glyph glyph-name="i.latn_TRK" horiz-adv-x="240" 
d="M72 732h96v-100h-96v100zM76 488h88v-488h-88v488z" />
    <glyph glyph-name="Ldot.latn_CAT" horiz-adv-x="544" 
d="M88 688h92v-608h336v-80h-428v688zM308 401h88v-92h-88v92z" />
    <glyph glyph-name="ldot.latn_CAT" horiz-adv-x="332" 
d="M76 732h88v-732h-88v732zM240 385h88v-92h-88v92z" />
    <glyph glyph-name="dollar.subs" horiz-adv-x="352" 
d="M100 -51q2 -23 23 -37.5t53 -14.5q68 0 68 46q0 23 -20 32t-48 14l-20 4q-21 4 -42.5 10t-38 16.5t-27 28t-10.5 45.5q0 43 27.5 70.5t78.5 34.5v55h64v-55q45 -7 73 -32.5t31 -68.5h-76q-4 26 -21 37t-39 11q-26 0 -45 -10.5t-19 -33.5t22.5 -32.5t53.5 -15.5l20 -4
q20 -4 40 -10.5t36 -18t26 -28.5t10 -43q0 -45 -29 -72.5t-83 -33.5v-62h-64v62q-54 7 -84.5 34t-31.5 72h72z" />
    <glyph glyph-name="comma.subs" horiz-adv-x="184" 
d="M48 -59h88v-88l-28 -116h-44l22 112h-38v92z" />
    <glyph glyph-name="hyphen.subs" horiz-adv-x="276" 
d="M36 57h204v-68h-204v68z" />
    <glyph glyph-name="period.subs" horiz-adv-x="184" 
d="M48 -59h88v-92h-88v92z" />
    <glyph glyph-name="b.subs" horiz-adv-x="429" 
d="M52 365h80v-110q0 -17 -0.5 -48t-3.5 -68h3q16 33 46.5 48t70.5 15q31 0 58 -11.5t47 -34t32 -56t12 -76.5t-12.5 -77t-34 -57.5t-50 -36t-59.5 -12.5q-39 0 -66.5 14.5t-43.5 47.5h-3v-54h-76v516zM132 21q0 -54 26 -85t66 -31q39 0 64.5 32.5t25.5 86.5t-25.5 83.5
t-64.5 29.5t-64.5 -29.5t-27.5 -81.5v-5z" />
    <glyph glyph-name="c.subs" horiz-adv-x="390" 
d="M32 21q0 38 12 71t35 57.5t55 38.5t73 14q36 0 64 -10t47.5 -27t30.5 -40t13 -50h-79q-4 24 -22.5 43t-53.5 19q-22 0 -39 -9.5t-29 -25t-18 -36.5t-6 -45q0 -49 23 -82.5t65 -33.5q38 0 56.5 19.5t23.5 42.5h79q-4 -54 -46.5 -90t-112.5 -36q-41 0 -73 13.5t-53.5 37.5
t-33 57t-11.5 72z" />
    <glyph glyph-name="d.subs" horiz-adv-x="428" 
d="M32 18q0 43 13 77t34.5 58t49.5 36.5t59 12.5q42 0 68 -15t42 -48h3q-3 37 -3.5 65t-0.5 46v115h80v-516h-76v54h-3q-16 -33 -46.5 -47.5t-69.5 -14.5q-31 0 -58 11.5t-47.5 34t-32.5 55.5t-12 76zM115 18q0 -54 25.5 -83.5t65.5 -29.5q38 0 63.5 29t27.5 81v6
q0 54 -26 85t-65 31q-40 0 -65.5 -32t-25.5 -87z" />
    <glyph glyph-name="f.subs" horiz-adv-x="244" 
d="M75 129h-67v64h67v48q0 66 28.5 95t94.5 29h50v-66h-38q-32 0 -43.5 -14t-11.5 -46v-46h81v-64h-81v-280h-80v280z" />
    <glyph glyph-name="g.subs" horiz-adv-x="429" 
d="M117 -193q1 -29 24 -43.5t60 -14.5q46 0 73 27t27 91v36h-3q-16 -33 -46.5 -47.5t-69.5 -14.5q-31 0 -58 11.5t-47.5 34t-32.5 55.5t-12 76t13 77t34.5 58t49.5 36.5t59 12.5q39 0 66.5 -15t43.5 -48h3v54h76v-328q0 -50 -13 -83.5t-36.5 -54.5t-56 -30t-70.5 -9
q-69 0 -113.5 29.5t-46.5 89.5h76zM115 18q0 -54 25.5 -83.5t65.5 -29.5q39 0 65 31t26 85v5q-2 52 -27.5 81.5t-63.5 29.5q-40 0 -65.5 -32t-25.5 -87z" />
    <glyph glyph-name="i.subs" horiz-adv-x="176" 
d="M45 365h86v-81h-86v81zM48 193h80v-344h-80v344z" />
    <glyph glyph-name="j.subs" horiz-adv-x="176" 
d="M45 365h86v-81h-86v81zM48 193h80v-389q0 -51 -23.5 -80.5t-87.5 -29.5h-29v66h20q23 0 31.5 12.5t8.5 38.5v382z" />
    <glyph glyph-name="q.subs" horiz-adv-x="429" 
d="M297 -208q0 18 0.5 46t3.5 65h-3q-15 -33 -46 -47.5t-70 -14.5q-31 0 -58 11.5t-47.5 34t-32.5 55.5t-12 76t13 77t34.5 58t49.5 36.5t59 12.5q39 0 67 -15t43 -48h3v54h76v-499h-80v98zM115 18q0 -54 25.5 -83.5t65.5 -29.5q38 0 63.5 29t27.5 81v6q0 54 -25.5 85
t-65.5 31t-65.5 -32t-25.5 -87z" />
    <glyph glyph-name="r.subs" horiz-adv-x="273" 
d="M52 193h76v-65h3q12 31 33.5 52.5t56.5 21.5q11 0 23 -3t25 -12l-19 -72q-22 11 -42 11q-39 0 -57.5 -34.5t-18.5 -82.5v-160h-80v344z" />
    <glyph glyph-name="u.subs" horiz-adv-x="412" 
d="M48 193h80v-198q0 -51 19.5 -70t51.5 -19q34 0 57.5 27.5t23.5 81.5v178h80v-344h-76v52h-3q-15 -33 -42.5 -46.5t-65.5 -13.5q-26 0 -48.5 7t-39.5 23t-27 41.5t-10 63.5v217z" />
    <glyph glyph-name="v.subs" horiz-adv-x="357" 
d="M4 193h90l88 -263l89 263h82l-125 -344h-94z" />
    <glyph glyph-name="w.subs" horiz-adv-x="537" 
d="M4 193h81l72 -264l70 264h85l70 -265l73 265h78l-105 -344h-90l-70 258l-71 -258h-90z" />
    <glyph glyph-name="y.subs" horiz-adv-x="357" 
d="M61 -239q29 0 50.5 13.5t32.5 45.5l-140 373h90l88 -262l89 262h82l-140 -390q-8 -20 -19.5 -39.5t-27.5 -35t-38 -25t-50 -9.5h-39v67h22z" />
    <glyph glyph-name="z.subs" horiz-adv-x="332" 
d="M24 193h281v-50l-177 -230h180v-64h-283v46l179 234h-180v64z" />
    <glyph glyph-name="cent.subs" horiz-adv-x="352" 
d="M36 21q0 51 29.5 86.5t86.5 43.5v50h64v-51q48 -8 72.5 -36t27.5 -65h-76q-3 18 -16 32t-40 14q-33 0 -50.5 -20.5t-17.5 -53.5t17.5 -53.5t50.5 -20.5q27 0 40 14t16 32h76q-3 -38 -27.5 -66t-72.5 -36v-50h-64v50q-57 8 -86.5 43.5t-29.5 86.5z" />
    <glyph glyph-name="Euro.subs" horiz-adv-x="352" 
d="M20 5h32v32h-28l8 32h24q10 57 46 94.5t102 37.5q61 0 92 -33t40 -87h-76q-5 29 -18.5 44.5t-37.5 15.5q-57 0 -69 -72h93l-8 -32h-88v-32h76l-8 -32h-65q12 -72 69 -72q42 0 56 56h76q-11 -54 -41.5 -85t-90.5 -31q-68 0 -103.5 37t-45.5 95h-43z" />
    <glyph glyph-name="dollar.sups" horiz-adv-x="352" 
d="M100 596q2 -23 23 -37.5t53 -14.5q68 0 68 46q0 23 -20 32t-48 14l-20 4q-21 4 -42.5 10t-38 16.5t-27 28t-10.5 45.5q0 43 27.5 70.5t78.5 34.5v55h64v-55q45 -7 73 -32.5t31 -68.5h-76q-4 26 -21 37t-39 11q-26 0 -45 -10.5t-19 -33.5t22.5 -32.5t53.5 -15.5l20 -4
q20 -4 40 -10.5t36 -18t26 -28.5t10 -43q0 -45 -29 -72.5t-83 -33.5v-62h-64v62q-54 7 -84.5 34t-31.5 72h72z" />
    <glyph glyph-name="comma.sups" horiz-adv-x="184" 
d="M48 588h88v-88l-28 -116h-44l22 112h-38v92z" />
    <glyph glyph-name="hyphen.sups" horiz-adv-x="276" 
d="M36 704h204v-68h-204v68z" />
    <glyph glyph-name="period.sups" horiz-adv-x="184" 
d="M48 588h88v-92h-88v92z" />
    <glyph glyph-name="a.sups" horiz-adv-x="388" 
d="M36 586q0 48 27.5 73.5t87.5 33.5l65 8q28 4 36 8.5t8 18.5q0 25 -15 43t-49 18q-29 0 -48 -14t-21 -45h-75q2 32 14.5 54.5t32 36.5t44.5 20.5t53 6.5q69 0 106.5 -30t37.5 -93v-229h-77v41h-3q-28 -49 -109 -49q-57 0 -86 26.5t-29 71.5zM260 665q-9 -13 -34 -16
l-56 -7q-29 -4 -41.5 -17.5t-12.5 -32.5q0 -23 15 -33.5t42 -10.5q35 0 61 21.5t26 69.5v26z" />
    <glyph glyph-name="b.sups" horiz-adv-x="429" 
d="M52 1012h80v-110q0 -17 -0.5 -48t-3.5 -68h3q16 33 46.5 48t70.5 15q31 0 58 -11.5t47 -34t32 -56t12 -76.5t-12.5 -77t-34 -57.5t-50 -36t-59.5 -12.5q-39 0 -66.5 14.5t-43.5 47.5h-3v-54h-76v516zM132 668q0 -54 26 -85t66 -31q39 0 64.5 32.5t25.5 86.5t-25.5 83.5
t-64.5 29.5t-64.5 -29.5t-27.5 -81.5v-5z" />
    <glyph glyph-name="c.sups" horiz-adv-x="390" 
d="M32 668q0 38 12 71t35 57.5t55 38.5t73 14q36 0 64 -10t47.5 -27t30.5 -40t13 -50h-79q-4 24 -22.5 43t-53.5 19q-22 0 -39 -9.5t-29 -25t-18 -36.5t-6 -45q0 -49 23 -82.5t65 -33.5q38 0 56.5 19.5t23.5 42.5h79q-4 -54 -46.5 -90t-112.5 -36q-41 0 -73 13.5t-53.5 37.5
t-33 57t-11.5 72z" />
    <glyph glyph-name="d.sups" horiz-adv-x="428" 
d="M32 665q0 43 13 77t34.5 58t49.5 36.5t59 12.5q42 0 68 -15t42 -48h3q-3 37 -3.5 65t-0.5 46v115h80v-516h-76v54h-3q-16 -33 -46.5 -47.5t-69.5 -14.5q-31 0 -58 11.5t-47.5 34t-32.5 55.5t-12 76zM115 665q0 -54 25.5 -83.5t65.5 -29.5q38 0 63.5 29t27.5 81v6
q0 54 -26 85t-65 31q-40 0 -65.5 -32t-25.5 -87z" />
    <glyph glyph-name="e.sups" horiz-adv-x="398" 
d="M32 668q0 40 13 73.5t35.5 57t54 36.5t69.5 13q73 0 117.5 -44t44.5 -125v-24h-252q3 -54 28 -78.5t65 -24.5q35 0 53.5 14t23.5 34h74q-8 -48 -47 -79.5t-105 -31.5q-81 0 -127.5 46t-46.5 133zM204 785q-71 0 -86 -77h164q-9 77 -78 77z" />
    <glyph glyph-name="f.sups" horiz-adv-x="244" 
d="M75 776h-67v64h67v48q0 66 28.5 95t94.5 29h50v-66h-38q-32 0 -43.5 -14t-11.5 -46v-46h81v-64h-81v-280h-80v280z" />
    <glyph glyph-name="g.sups" horiz-adv-x="429" 
d="M117 454q1 -29 24 -43.5t60 -14.5q46 0 73 27t27 91v36h-3q-16 -33 -46.5 -47.5t-69.5 -14.5q-31 0 -58 11.5t-47.5 34t-32.5 55.5t-12 76t13 77t34.5 58t49.5 36.5t59 12.5q39 0 66.5 -15t43.5 -48h3v54h76v-328q0 -50 -13 -83.5t-36.5 -54.5t-56 -30t-70.5 -9
q-69 0 -113.5 29.5t-46.5 89.5h76zM115 665q0 -54 25.5 -83.5t65.5 -29.5q39 0 65 31t26 85v5q-2 52 -27.5 81.5t-63.5 29.5q-40 0 -65.5 -32t-25.5 -87z" />
    <glyph glyph-name="h.sups" horiz-adv-x="412" 
d="M52 1012h80v-108q0 -17 -0.5 -48t-3.5 -68h3q15 32 42.5 46.5t65.5 14.5q25 0 48 -7.5t40 -23.5t27 -42t10 -63v-217h-80v198q0 51 -19.5 70t-51.5 19q-35 0 -58 -27.5t-23 -79.5v-180h-80v516z" />
    <glyph glyph-name="j.sups" horiz-adv-x="176" 
d="M45 1012h86v-81h-86v81zM48 840h80v-389q0 -51 -23.5 -80.5t-87.5 -29.5h-29v66h20q23 0 31.5 12.5t8.5 38.5v382z" />
    <glyph glyph-name="k.sups" horiz-adv-x="376" 
d="M52 1012h80v-320l135 148h92l-128 -137l141 -207h-93l-101 150l-46 -50v-100h-80v516z" />
    <glyph glyph-name="l.sups" horiz-adv-x="184" 
d="M52 1012h80v-516h-80v516z" />
    <glyph glyph-name="m.sups" horiz-adv-x="625" 
d="M52 840h76v-52h3q15 32 41 46.5t64 14.5q34 0 63.5 -16t43.5 -54q17 39 45.5 54.5t70.5 15.5q22 0 43.5 -6.5t38 -22t26.5 -40.5t10 -61v-223h-80v205q0 45 -16 63.5t-48 18.5q-33 0 -56 -26.5t-23 -78.5v-182h-79v203q0 45 -16.5 64.5t-48.5 19.5t-55 -26.5t-23 -77.5
v-183h-80v344z" />
    <glyph glyph-name="o.sups" horiz-adv-x="417" 
d="M32 668q0 41 13 74.5t36 57t55.5 36.5t71.5 13q82 0 129.5 -48.5t47.5 -132.5q0 -41 -13 -74.5t-36 -57t-56 -36t-72 -12.5q-81 0 -128.5 48t-47.5 132zM115 668q0 -52 25.5 -84t67.5 -32q43 0 68.5 32t25.5 84q0 54 -25.5 85t-68.5 31q-42 0 -67.5 -31t-25.5 -85z" />
    <glyph glyph-name="p.sups" horiz-adv-x="429" 
d="M132 341h-80v499h76v-54h3q16 33 46.5 48t70.5 15q31 0 58 -11.5t47 -34t32 -56t12 -76.5t-12.5 -77t-34 -57.5t-50 -36t-59.5 -12.5q-39 0 -66.5 14.5t-43.5 47.5h-3q3 -37 3.5 -65t0.5 -46v-98zM314 671q0 54 -25.5 83.5t-64.5 29.5t-64.5 -29.5t-27.5 -81.5v-5
q0 -54 26 -85t66 -31q39 0 64.5 32.5t25.5 86.5z" />
    <glyph glyph-name="q.sups" horiz-adv-x="429" 
d="M297 439q0 18 0.5 46t3.5 65h-3q-15 -33 -46 -47.5t-70 -14.5q-31 0 -58 11.5t-47.5 34t-32.5 55.5t-12 76t13 77t34.5 58t49.5 36.5t59 12.5q39 0 67 -15t43 -48h3v54h76v-499h-80v98zM115 665q0 -54 25.5 -83.5t65.5 -29.5q38 0 63.5 29t27.5 81v6q0 54 -25.5 85
t-65.5 31t-65.5 -32t-25.5 -87z" />
    <glyph glyph-name="r.sups" horiz-adv-x="273" 
d="M52 840h76v-65h3q12 31 33.5 52.5t56.5 21.5q11 0 23 -3t25 -12l-19 -72q-22 11 -42 11q-39 0 -57.5 -34.5t-18.5 -82.5v-160h-80v344z" />
    <glyph glyph-name="s.sups" horiz-adv-x="371" 
d="M108 601q3 -30 25 -43.5t54 -13.5q33 0 52.5 11.5t19.5 32.5t-15.5 29.5t-40.5 13.5l-68 14q-20 4 -37.5 11t-30.5 18.5t-20 28.5t-7 40q0 51 41.5 78.5t105.5 27.5q60 0 101 -25t45 -82h-76q-2 28 -22 39t-46 11q-32 0 -51 -10.5t-19 -30.5q0 -19 13.5 -27.5t41.5 -14.5
l68 -14q18 -4 35.5 -10.5t31 -17.5t22 -27.5t8.5 -41.5q0 -55 -43.5 -82.5t-109.5 -27.5t-107.5 26.5t-46.5 86.5h76z" />
    <glyph glyph-name="t.sups" horiz-adv-x="249" 
d="M70 776h-62v64h62v104h80v-104h83v-64h-83v-161q0 -26 9 -38.5t35 -12.5h39v-68h-48q-64 0 -89.5 26.5t-25.5 87.5v166z" />
    <glyph glyph-name="u.sups" horiz-adv-x="412" 
d="M48 840h80v-198q0 -51 19.5 -70t51.5 -19q34 0 57.5 27.5t23.5 81.5v178h80v-344h-76v52h-3q-15 -33 -42.5 -46.5t-65.5 -13.5q-26 0 -48.5 7t-39.5 23t-27 41.5t-10 63.5v217z" />
    <glyph glyph-name="v.sups" horiz-adv-x="357" 
d="M4 840h90l88 -263l89 263h82l-125 -344h-94z" />
    <glyph glyph-name="w.sups" horiz-adv-x="537" 
d="M4 840h81l72 -264l70 264h85l70 -265l73 265h78l-105 -344h-90l-70 258l-71 -258h-90z" />
    <glyph glyph-name="x.sups" horiz-adv-x="337" 
d="M126 668l-120 172h92l72 -108l73 108h88l-121 -169l123 -175h-91l-75 112l-76 -112h-87z" />
    <glyph glyph-name="y.sups" horiz-adv-x="357" 
d="M61 408q29 0 50.5 13.5t32.5 45.5l-140 373h90l88 -262l89 262h82l-140 -390q-8 -20 -19.5 -39.5t-27.5 -35t-38 -25t-50 -9.5h-39v67h22z" />
    <glyph glyph-name="z.sups" horiz-adv-x="332" 
d="M24 840h281v-50l-177 -230h180v-64h-283v46l179 234h-180v64z" />
    <glyph glyph-name="cent.sups" horiz-adv-x="352" 
d="M36 668q0 51 29.5 86.5t86.5 43.5v50h64v-51q48 -8 72.5 -36t27.5 -65h-76q-3 18 -16 32t-40 14q-33 0 -50.5 -20.5t-17.5 -53.5t17.5 -53.5t50.5 -20.5q27 0 40 14t16 32h76q-3 -38 -27.5 -66t-72.5 -36v-50h-64v50q-57 8 -86.5 43.5t-29.5 86.5z" />
    <glyph glyph-name="Euro.sups" horiz-adv-x="352" 
d="M20 652h32v32h-28l8 32h24q10 57 46 94.5t102 37.5q61 0 92 -33t40 -87h-76q-5 29 -18.5 44.5t-37.5 15.5q-57 0 -69 -72h93l-8 -32h-88v-32h76l-8 -32h-65q12 -72 69 -72q42 0 56 56h76q-11 -54 -41.5 -85t-90.5 -31q-68 0 -103.5 37t-45.5 95h-43z" />
    <glyph glyph-name="dollar.numr" horiz-adv-x="352" 
d="M100 444q2 -23 23 -37.5t53 -14.5q68 0 68 46q0 23 -20 32t-48 14l-20 4q-21 4 -42.5 10t-38 16.5t-27 28t-10.5 45.5q0 43 27.5 70.5t78.5 34.5v55h64v-55q45 -7 73 -32.5t31 -68.5h-76q-4 26 -21 37t-39 11q-26 0 -45 -10.5t-19 -33.5t22.5 -32.5t53.5 -15.5l20 -4
q20 -4 40 -10.5t36 -18t26 -28.5t10 -43q0 -45 -29 -72.5t-83 -33.5v-62h-64v62q-54 7 -84.5 34t-31.5 72h72z" />
    <glyph glyph-name="parenleft.numr" horiz-adv-x="220" 
d="M140 272q-14 17 -28.5 43t-26 57.5t-18.5 68t-7 75.5t7 75.5t18.5 68t26 57.5t28.5 43h72q-13 -16 -27 -41.5t-26 -57.5t-19.5 -69t-7.5 -76t7.5 -76t19.5 -69t26 -57.5t27 -41.5h-72z" />
    <glyph glyph-name="parenright.numr" horiz-adv-x="220" 
d="M8 272q13 16 27 41.5t26 57.5t19.5 69t7.5 76t-7.5 76t-19.5 69t-26 57.5t-27 41.5h72q14 -17 28.5 -43t26 -57.5t18.5 -68t7 -75.5t-7 -75.5t-18.5 -68t-26 -57.5t-28.5 -43h-72z" />
    <glyph glyph-name="plus.numr" horiz-adv-x="352" 
d="M44 548h100v100h64v-100h100v-60h-100v-100h-64v100h-100v60z" />
    <glyph glyph-name="comma.numr" horiz-adv-x="184" 
d="M48 436h88v-88l-28 -116h-44l22 112h-38v92z" />
    <glyph glyph-name="hyphen.numr" horiz-adv-x="276" 
d="M36 552h204v-68h-204v68z" />
    <glyph glyph-name="period.numr" horiz-adv-x="184" 
d="M48 436h88v-92h-88v92z" />
    <glyph glyph-name="zero.numr" horiz-adv-x="352" 
d="M176 336q-39 0 -67 14t-46 38.5t-26.5 57t-8.5 70.5q0 37 8.5 70t26.5 57.5t46 38.5t67 14t67 -14t46 -38.5t26.5 -57.5t8.5 -70q0 -38 -8.5 -70.5t-26.5 -57t-46 -38.5t-67 -14zM176 396q72 0 72 120t-72 120t-72 -120t72 -120z" />
    <glyph glyph-name="one.numr" horiz-adv-x="352" 
d="M40 604l140 84h48v-280h92v-64h-268v64h100v188l-80 -46z" />
    <glyph glyph-name="two.numr" horiz-adv-x="352" 
d="M32 344q0 39 10 66.5t26 47t36 32.5t40 23l24 12q29 14 48.5 29.5t19.5 33.5q0 22 -14.5 35t-45.5 13q-30 0 -48 -16.5t-20 -47.5h-72q1 34 13 57.5t31.5 38.5t44 21.5t51.5 6.5q60 0 98 -27t38 -79q0 -24 -10 -42t-26 -31.5t-36 -24.5t-40 -21l-24 -12
q-22 -11 -39 -25.5t-17 -25.5h192v-64h-280z" />
    <glyph glyph-name="three.numr" horiz-adv-x="352" 
d="M106 448q0 -27 19.5 -40.5t50.5 -13.5q30 0 50 11.5t20 38.5t-20 39.5t-50 12.5h-28v52h28q29 0 45.5 11.5t16.5 34.5t-16.5 33.5t-45.5 10.5t-45.5 -13.5t-16.5 -36.5h-72q0 54 37.5 81t100.5 27q60 0 96 -27t36 -69q0 -27 -14.5 -49t-41.5 -28q30 -7 49 -30.5t19 -56.5
q0 -48 -39.5 -74t-108.5 -26q-63 0 -102.5 25.5t-39.5 86.5h72z" />
    <glyph glyph-name="four.numr" horiz-adv-x="352" 
d="M24 456l188 232h64v-220h48v-60h-48v-64h-76v64h-176v48zM200 468v117l-93 -117h93z" />
    <glyph glyph-name="five.numr" horiz-adv-x="352" 
d="M122 436q3 -17 18 -30.5t42 -13.5q24 0 43 15t19 47t-19 45t-43 13q-19 0 -34 -7.5t-23 -24.5l-73 4l12 204h236v-64h-168l-8 -84h4q9 14 28.5 21t39.5 7q54 0 89 -26t35 -88q0 -29 -11 -51t-30 -37t-43.5 -22.5t-51.5 -7.5q-69 0 -100.5 29t-35.5 71h74z" />
    <glyph glyph-name="six.numr" horiz-adv-x="352" 
d="M232 596q-2 18 -15 31t-35 13q-14 0 -26 -4.5t-21.5 -16.5t-15.5 -33t-7 -53v-1q10 15 33.5 25.5t50.5 10.5q51 0 85.5 -26.5t34.5 -87.5q0 -29 -11 -51t-30 -37t-43.5 -22.5t-51.5 -7.5q-32 0 -58 9t-45.5 29t-30 53t-10.5 81q0 52 11 88t30.5 58.5t46 32t58.5 9.5
q63 0 91 -29t31 -71h-72zM178 512q-24 0 -43 -13.5t-19 -44.5v-1q0 -31 19 -46t43 -15t43 15t19 47t-19 45t-43 13z" />
    <glyph glyph-name="seven.numr" horiz-adv-x="352" 
d="M228 620h-196v68h288v-48l-160 -296h-84z" />
    <glyph glyph-name="eight.numr" horiz-adv-x="352" 
d="M28 436q0 33 19 55.5t49 28.5v4q-27 6 -41.5 27.5t-14.5 48.5q0 42 36.5 69t99.5 27t99.5 -27t36.5 -69q0 -27 -14.5 -48.5t-41.5 -27.5v-4q30 -6 49 -28.5t19 -55.5q0 -48 -39.5 -74t-108.5 -26t-108.5 26t-39.5 74zM106 444q0 -27 20 -39.5t50 -12.5t50 12.5t20 39.5
t-20 39.5t-50 12.5t-50 -12.5t-20 -39.5zM114 594q0 -23 16.5 -34.5t45.5 -11.5t45.5 11.5t16.5 34.5t-16.5 34.5t-45.5 11.5t-45.5 -11.5t-16.5 -34.5z" />
    <glyph glyph-name="nine.numr" horiz-adv-x="352" 
d="M116 436q0 -18 14 -31t42 -13q13 0 24.5 4.5t20 16.5t13.5 32.5t6 52.5v1q-7 -15 -30 -25t-49 -10q-55 0 -90 26.5t-35 83.5q0 29 11 52t29.5 38.5t43 23.5t52.5 8q31 0 57.5 -9t46 -29t30 -53t10.5 -81q0 -53 -10 -88.5t-28.5 -58t-44.5 -32t-57 -9.5q-66 0 -95.5 29
t-32.5 71h72zM170 520q23 0 42.5 13t19.5 45v1q-1 31 -19.5 46t-42.5 15t-43 -15t-19 -47t19 -45t43 -13z" />
    <glyph glyph-name="equal.numr" horiz-adv-x="352" 
d="M44 608h264v-60h-264v60zM44 488h264v-60h-264v60z" />
    <glyph glyph-name="a.numr" horiz-adv-x="388" 
d="M36 434q0 48 27.5 73.5t87.5 33.5l65 8q28 4 36 8.5t8 18.5q0 25 -15 43t-49 18q-29 0 -48 -14t-21 -45h-75q2 32 14.5 54.5t32 36.5t44.5 20.5t53 6.5q69 0 106.5 -30t37.5 -93v-229h-77v41h-3q-28 -49 -109 -49q-57 0 -86 26.5t-29 71.5zM260 513q-9 -13 -34 -16
l-56 -7q-29 -4 -41.5 -17.5t-12.5 -32.5q0 -23 15 -33.5t42 -10.5q35 0 61 21.5t26 69.5v26z" />
    <glyph glyph-name="b.numr" horiz-adv-x="429" 
d="M52 860h80v-110q0 -17 -0.5 -48t-3.5 -68h3q16 33 46.5 48t70.5 15q31 0 58 -11.5t47 -34t32 -56t12 -76.5t-12.5 -77t-34 -57.5t-50 -36t-59.5 -12.5q-39 0 -66.5 14.5t-43.5 47.5h-3v-54h-76v516zM132 516q0 -54 26 -85t66 -31q39 0 64.5 32.5t25.5 86.5t-25.5 83.5
t-64.5 29.5t-64.5 -29.5t-27.5 -81.5v-5z" />
    <glyph glyph-name="c.numr" horiz-adv-x="390" 
d="M32 516q0 38 12 71t35 57.5t55 38.5t73 14q36 0 64 -10t47.5 -27t30.5 -40t13 -50h-79q-4 24 -22.5 43t-53.5 19q-22 0 -39 -9.5t-29 -25t-18 -36.5t-6 -45q0 -49 23 -82.5t65 -33.5q38 0 56.5 19.5t23.5 42.5h79q-4 -54 -46.5 -90t-112.5 -36q-41 0 -73 13.5t-53.5 37.5
t-33 57t-11.5 72z" />
    <glyph glyph-name="d.numr" horiz-adv-x="428" 
d="M32 513q0 43 13 77t34.5 58t49.5 36.5t59 12.5q42 0 68 -15t42 -48h3q-3 37 -3.5 65t-0.5 46v115h80v-516h-76v54h-3q-16 -33 -46.5 -47.5t-69.5 -14.5q-31 0 -58 11.5t-47.5 34t-32.5 55.5t-12 76zM115 513q0 -54 25.5 -83.5t65.5 -29.5q38 0 63.5 29t27.5 81v6
q0 54 -26 85t-65 31q-40 0 -65.5 -32t-25.5 -87z" />
    <glyph glyph-name="e.numr" horiz-adv-x="398" 
d="M32 516q0 40 13 73.5t35.5 57t54 36.5t69.5 13q73 0 117.5 -44t44.5 -125v-24h-252q3 -54 28 -78.5t65 -24.5q35 0 53.5 14t23.5 34h74q-8 -48 -47 -79.5t-105 -31.5q-81 0 -127.5 46t-46.5 133zM204 633q-71 0 -86 -77h164q-9 77 -78 77z" />
    <glyph glyph-name="f.numr" horiz-adv-x="244" 
d="M75 624h-67v64h67v48q0 66 28.5 95t94.5 29h50v-66h-38q-32 0 -43.5 -14t-11.5 -46v-46h81v-64h-81v-280h-80v280z" />
    <glyph glyph-name="g.numr" horiz-adv-x="429" 
d="M117 302q1 -29 24 -43.5t60 -14.5q46 0 73 27t27 91v36h-3q-16 -33 -46.5 -47.5t-69.5 -14.5q-31 0 -58 11.5t-47.5 34t-32.5 55.5t-12 76t13 77t34.5 58t49.5 36.5t59 12.5q39 0 66.5 -15t43.5 -48h3v54h76v-328q0 -50 -13 -83.5t-36.5 -54.5t-56 -30t-70.5 -9
q-69 0 -113.5 29.5t-46.5 89.5h76zM115 513q0 -54 25.5 -83.5t65.5 -29.5q39 0 65 31t26 85v5q-2 52 -27.5 81.5t-63.5 29.5q-40 0 -65.5 -32t-25.5 -87z" />
    <glyph glyph-name="h.numr" horiz-adv-x="412" 
d="M52 860h80v-108q0 -17 -0.5 -48t-3.5 -68h3q15 32 42.5 46.5t65.5 14.5q25 0 48 -7.5t40 -23.5t27 -42t10 -63v-217h-80v198q0 51 -19.5 70t-51.5 19q-35 0 -58 -27.5t-23 -79.5v-180h-80v516z" />
    <glyph glyph-name="i.numr" horiz-adv-x="176" 
d="M45 860h86v-81h-86v81zM48 688h80v-344h-80v344z" />
    <glyph glyph-name="j.numr" horiz-adv-x="176" 
d="M45 860h86v-81h-86v81zM48 688h80v-389q0 -51 -23.5 -80.5t-87.5 -29.5h-29v66h20q23 0 31.5 12.5t8.5 38.5v382z" />
    <glyph glyph-name="k.numr" horiz-adv-x="376" 
d="M52 860h80v-320l135 148h92l-128 -137l141 -207h-93l-101 150l-46 -50v-100h-80v516z" />
    <glyph glyph-name="l.numr" horiz-adv-x="184" 
d="M52 860h80v-516h-80v516z" />
    <glyph glyph-name="m.numr" horiz-adv-x="625" 
d="M52 688h76v-52h3q15 32 41 46.5t64 14.5q34 0 63.5 -16t43.5 -54q17 39 45.5 54.5t70.5 15.5q22 0 43.5 -6.5t38 -22t26.5 -40.5t10 -61v-223h-80v205q0 45 -16 63.5t-48 18.5q-33 0 -56 -26.5t-23 -78.5v-182h-79v203q0 45 -16.5 64.5t-48.5 19.5t-55 -26.5t-23 -77.5
v-183h-80v344z" />
    <glyph glyph-name="n.numr" horiz-adv-x="412" 
d="M52 688h76v-52h3q15 32 42.5 46.5t65.5 14.5q25 0 48 -7.5t40 -23.5t27 -42t10 -63v-217h-80v198q0 51 -19.5 70t-51.5 19q-35 0 -58 -27.5t-23 -79.5v-180h-80v344z" />
    <glyph glyph-name="o.numr" horiz-adv-x="417" 
d="M32 516q0 41 13 74.5t36 57t55.5 36.5t71.5 13q82 0 129.5 -48.5t47.5 -132.5q0 -41 -13 -74.5t-36 -57t-56 -36t-72 -12.5q-81 0 -128.5 48t-47.5 132zM115 516q0 -52 25.5 -84t67.5 -32q43 0 68.5 32t25.5 84q0 54 -25.5 85t-68.5 31q-42 0 -67.5 -31t-25.5 -85z" />
    <glyph glyph-name="p.numr" horiz-adv-x="429" 
d="M132 189h-80v499h76v-54h3q16 33 46.5 48t70.5 15q31 0 58 -11.5t47 -34t32 -56t12 -76.5t-12.5 -77t-34 -57.5t-50 -36t-59.5 -12.5q-39 0 -66.5 14.5t-43.5 47.5h-3q3 -37 3.5 -65t0.5 -46v-98zM314 519q0 54 -25.5 83.5t-64.5 29.5t-64.5 -29.5t-27.5 -81.5v-5
q0 -54 26 -85t66 -31q39 0 64.5 32.5t25.5 86.5z" />
    <glyph glyph-name="q.numr" horiz-adv-x="429" 
d="M297 287q0 18 0.5 46t3.5 65h-3q-15 -33 -46 -47.5t-70 -14.5q-31 0 -58 11.5t-47.5 34t-32.5 55.5t-12 76t13 77t34.5 58t49.5 36.5t59 12.5q39 0 67 -15t43 -48h3v54h76v-499h-80v98zM115 513q0 -54 25.5 -83.5t65.5 -29.5q38 0 63.5 29t27.5 81v6q0 54 -25.5 85
t-65.5 31t-65.5 -32t-25.5 -87z" />
    <glyph glyph-name="r.numr" horiz-adv-x="273" 
d="M52 688h76v-65h3q12 31 33.5 52.5t56.5 21.5q11 0 23 -3t25 -12l-19 -72q-22 11 -42 11q-39 0 -57.5 -34.5t-18.5 -82.5v-160h-80v344z" />
    <glyph glyph-name="s.numr" horiz-adv-x="371" 
d="M108 449q3 -30 25 -43.5t54 -13.5q33 0 52.5 11.5t19.5 32.5t-15.5 29.5t-40.5 13.5l-68 14q-20 4 -37.5 11t-30.5 18.5t-20 28.5t-7 40q0 51 41.5 78.5t105.5 27.5q60 0 101 -25t45 -82h-76q-2 28 -22 39t-46 11q-32 0 -51 -10.5t-19 -30.5q0 -19 13.5 -27.5t41.5 -14.5
l68 -14q18 -4 35.5 -10.5t31 -17.5t22 -27.5t8.5 -41.5q0 -55 -43.5 -82.5t-109.5 -27.5t-107.5 26.5t-46.5 86.5h76z" />
    <glyph glyph-name="t.numr" horiz-adv-x="249" 
d="M70 624h-62v64h62v104h80v-104h83v-64h-83v-161q0 -26 9 -38.5t35 -12.5h39v-68h-48q-64 0 -89.5 26.5t-25.5 87.5v166z" />
    <glyph glyph-name="u.numr" horiz-adv-x="412" 
d="M48 688h80v-198q0 -51 19.5 -70t51.5 -19q34 0 57.5 27.5t23.5 81.5v178h80v-344h-76v52h-3q-15 -33 -42.5 -46.5t-65.5 -13.5q-26 0 -48.5 7t-39.5 23t-27 41.5t-10 63.5v217z" />
    <glyph glyph-name="v.numr" horiz-adv-x="357" 
d="M4 688h90l88 -263l89 263h82l-125 -344h-94z" />
    <glyph glyph-name="w.numr" horiz-adv-x="537" 
d="M4 688h81l72 -264l70 264h85l70 -265l73 265h78l-105 -344h-90l-70 258l-71 -258h-90z" />
    <glyph glyph-name="x.numr" horiz-adv-x="337" 
d="M126 516l-120 172h92l72 -108l73 108h88l-121 -169l123 -175h-91l-75 112l-76 -112h-87z" />
    <glyph glyph-name="y.numr" horiz-adv-x="357" 
d="M61 256q29 0 50.5 13.5t32.5 45.5l-140 373h90l88 -262l89 262h82l-140 -390q-8 -20 -19.5 -39.5t-27.5 -35t-38 -25t-50 -9.5h-39v67h22z" />
    <glyph glyph-name="z.numr" horiz-adv-x="332" 
d="M24 688h281v-50l-177 -230h180v-64h-283v46l179 234h-180v64z" />
    <glyph glyph-name="cent.numr" horiz-adv-x="352" 
d="M36 516q0 51 29.5 86.5t86.5 43.5v50h64v-51q48 -8 72.5 -36t27.5 -65h-76q-3 18 -16 32t-40 14q-33 0 -50.5 -20.5t-17.5 -53.5t17.5 -53.5t50.5 -20.5q27 0 40 14t16 32h76q-3 -38 -27.5 -66t-72.5 -36v-50h-64v50q-57 8 -86.5 43.5t-29.5 86.5z" />
    <glyph glyph-name="Euro.numr" horiz-adv-x="352" 
d="M20 500h32v32h-28l8 32h24q10 57 46 94.5t102 37.5q61 0 92 -33t40 -87h-76q-5 29 -18.5 44.5t-37.5 15.5q-57 0 -69 -72h93l-8 -32h-88v-32h76l-8 -32h-65q12 -72 69 -72q42 0 56 56h76q-11 -54 -41.5 -85t-90.5 -31q-68 0 -103.5 37t-45.5 95h-43z" />
    <glyph glyph-name="minus.numr" horiz-adv-x="352" 
d="M44 548h264v-60h-264v60z" />
    <glyph glyph-name="dollar.dnom" horiz-adv-x="352" 
d="M100 100q2 -23 23 -37.5t53 -14.5q68 0 68 46q0 23 -20 32t-48 14l-20 4q-21 4 -42.5 10t-38 16.5t-27 28t-10.5 45.5q0 43 27.5 70.5t78.5 34.5v55h64v-55q45 -7 73 -32.5t31 -68.5h-76q-4 26 -21 37t-39 11q-26 0 -45 -10.5t-19 -33.5t22.5 -32.5t53.5 -15.5l20 -4
q20 -4 40 -10.5t36 -18t26 -28.5t10 -43q0 -45 -29 -72.5t-83 -33.5v-62h-64v62q-54 7 -84.5 34t-31.5 72h72z" />
    <glyph glyph-name="parenleft.dnom" horiz-adv-x="220" 
d="M140 -72q-14 17 -28.5 43t-26 57.5t-18.5 68t-7 75.5t7 75.5t18.5 68t26 57.5t28.5 43h72q-13 -16 -27 -41.5t-26 -57.5t-19.5 -69t-7.5 -76t7.5 -76t19.5 -69t26 -57.5t27 -41.5h-72z" />
    <glyph glyph-name="parenright.dnom" horiz-adv-x="220" 
d="M8 -72q13 16 27 41.5t26 57.5t19.5 69t7.5 76t-7.5 76t-19.5 69t-26 57.5t-27 41.5h72q14 -17 28.5 -43t26 -57.5t18.5 -68t7 -75.5t-7 -75.5t-18.5 -68t-26 -57.5t-28.5 -43h-72z" />
    <glyph glyph-name="plus.dnom" horiz-adv-x="352" 
d="M44 204h100v100h64v-100h100v-60h-100v-100h-64v100h-100v60z" />
    <glyph glyph-name="comma.dnom" horiz-adv-x="184" 
d="M48 92h88v-88l-28 -116h-44l22 112h-38v92z" />
    <glyph glyph-name="hyphen.dnom" horiz-adv-x="276" 
d="M36 208h204v-68h-204v68z" />
    <glyph glyph-name="period.dnom" horiz-adv-x="184" 
d="M48 92h88v-92h-88v92z" />
    <glyph glyph-name="zero.dnom" horiz-adv-x="352" 
d="M176 -8q-39 0 -67 14t-46 38.5t-26.5 57t-8.5 70.5q0 37 8.5 70t26.5 57.5t46 38.5t67 14t67 -14t46 -38.5t26.5 -57.5t8.5 -70q0 -38 -8.5 -70.5t-26.5 -57t-46 -38.5t-67 -14zM176 52q72 0 72 120t-72 120t-72 -120t72 -120z" />
    <glyph glyph-name="one.dnom" horiz-adv-x="352" 
d="M40 260l140 84h48v-280h92v-64h-268v64h100v188l-80 -46z" />
    <glyph glyph-name="two.dnom" horiz-adv-x="352" 
d="M32 0q0 39 10 66.5t26 47t36 32.5t40 23l24 12q29 14 48.5 29.5t19.5 33.5q0 22 -14.5 35t-45.5 13q-30 0 -48 -16.5t-20 -47.5h-72q1 34 13 57.5t31.5 38.5t44 21.5t51.5 6.5q60 0 98 -27t38 -79q0 -24 -10 -42t-26 -31.5t-36 -24.5t-40 -21l-24 -12q-22 -11 -39 -25.5
t-17 -25.5h192v-64h-280z" />
    <glyph glyph-name="three.dnom" horiz-adv-x="352" 
d="M106 104q0 -27 19.5 -40.5t50.5 -13.5q30 0 50 11.5t20 38.5t-20 39.5t-50 12.5h-28v52h28q29 0 45.5 11.5t16.5 34.5t-16.5 33.5t-45.5 10.5t-45.5 -13.5t-16.5 -36.5h-72q0 54 37.5 81t100.5 27q60 0 96 -27t36 -69q0 -27 -14.5 -49t-41.5 -28q30 -7 49 -30.5t19 -56.5
q0 -48 -39.5 -74t-108.5 -26q-63 0 -102.5 25.5t-39.5 86.5h72z" />
    <glyph glyph-name="four.dnom" horiz-adv-x="352" 
d="M24 112l188 232h64v-220h48v-60h-48v-64h-76v64h-176v48zM200 124v117l-93 -117h93z" />
    <glyph glyph-name="five.dnom" horiz-adv-x="352" 
d="M122 92q3 -17 18 -30.5t42 -13.5q24 0 43 15t19 47t-19 45t-43 13q-19 0 -34 -7.5t-23 -24.5l-73 4l12 204h236v-64h-168l-8 -84h4q9 14 28.5 21t39.5 7q54 0 89 -26t35 -88q0 -29 -11 -51t-30 -37t-43.5 -22.5t-51.5 -7.5q-69 0 -100.5 29t-35.5 71h74z" />
    <glyph glyph-name="six.dnom" horiz-adv-x="352" 
d="M232 252q-2 18 -15 31t-35 13q-14 0 -26 -4.5t-21.5 -16.5t-15.5 -33t-7 -53v-1q10 15 33.5 25.5t50.5 10.5q51 0 85.5 -26.5t34.5 -87.5q0 -29 -11 -51t-30 -37t-43.5 -22.5t-51.5 -7.5q-32 0 -58 9t-45.5 29t-30 53t-10.5 81q0 52 11 88t30.5 58.5t46 32t58.5 9.5
q63 0 91 -29t31 -71h-72zM178 168q-24 0 -43 -13.5t-19 -44.5v-1q0 -31 19 -46t43 -15t43 15t19 47t-19 45t-43 13z" />
    <glyph glyph-name="seven.dnom" horiz-adv-x="352" 
d="M228 276h-196v68h288v-48l-160 -296h-84z" />
    <glyph glyph-name="eight.dnom" horiz-adv-x="352" 
d="M28 92q0 33 19 55.5t49 28.5v4q-27 6 -41.5 27.5t-14.5 48.5q0 42 36.5 69t99.5 27t99.5 -27t36.5 -69q0 -27 -14.5 -48.5t-41.5 -27.5v-4q30 -6 49 -28.5t19 -55.5q0 -48 -39.5 -74t-108.5 -26t-108.5 26t-39.5 74zM106 100q0 -27 20 -39.5t50 -12.5t50 12.5t20 39.5
t-20 39.5t-50 12.5t-50 -12.5t-20 -39.5zM114 250q0 -23 16.5 -34.5t45.5 -11.5t45.5 11.5t16.5 34.5t-16.5 34.5t-45.5 11.5t-45.5 -11.5t-16.5 -34.5z" />
    <glyph glyph-name="nine.dnom" horiz-adv-x="352" 
d="M116 92q0 -18 14 -31t42 -13q13 0 24.5 4.5t20 16.5t13.5 32.5t6 52.5v1q-7 -15 -30 -25t-49 -10q-55 0 -90 26.5t-35 83.5q0 29 11 52t29.5 38.5t43 23.5t52.5 8q31 0 57.5 -9t46 -29t30 -53t10.5 -81q0 -53 -10 -88.5t-28.5 -58t-44.5 -32t-57 -9.5q-66 0 -95.5 29
t-32.5 71h72zM170 176q23 0 42.5 13t19.5 45v1q-1 31 -19.5 46t-42.5 15t-43 -15t-19 -47t19 -45t43 -13z" />
    <glyph glyph-name="equal.dnom" horiz-adv-x="352" 
d="M44 264h264v-60h-264v60zM44 144h264v-60h-264v60z" />
    <glyph glyph-name="a.dnom" horiz-adv-x="388" 
d="M36 90q0 48 27.5 73.5t87.5 33.5l65 8q28 4 36 8.5t8 18.5q0 25 -15 43t-49 18q-29 0 -48 -14t-21 -45h-75q2 32 14.5 54.5t32 36.5t44.5 20.5t53 6.5q69 0 106.5 -30t37.5 -93v-229h-77v41h-3q-28 -49 -109 -49q-57 0 -86 26.5t-29 71.5zM260 169q-9 -13 -34 -16l-56 -7
q-29 -4 -41.5 -17.5t-12.5 -32.5q0 -23 15 -33.5t42 -10.5q35 0 61 21.5t26 69.5v26z" />
    <glyph glyph-name="b.dnom" horiz-adv-x="429" 
d="M52 516h80v-110q0 -17 -0.5 -48t-3.5 -68h3q16 33 46.5 48t70.5 15q31 0 58 -11.5t47 -34t32 -56t12 -76.5t-12.5 -77t-34 -57.5t-50 -36t-59.5 -12.5q-39 0 -66.5 14.5t-43.5 47.5h-3v-54h-76v516zM132 172q0 -54 26 -85t66 -31q39 0 64.5 32.5t25.5 86.5t-25.5 83.5
t-64.5 29.5t-64.5 -29.5t-27.5 -81.5v-5z" />
    <glyph glyph-name="c.dnom" horiz-adv-x="390" 
d="M32 172q0 38 12 71t35 57.5t55 38.5t73 14q36 0 64 -10t47.5 -27t30.5 -40t13 -50h-79q-4 24 -22.5 43t-53.5 19q-22 0 -39 -9.5t-29 -25t-18 -36.5t-6 -45q0 -49 23 -82.5t65 -33.5q38 0 56.5 19.5t23.5 42.5h79q-4 -54 -46.5 -90t-112.5 -36q-41 0 -73 13.5t-53.5 37.5
t-33 57t-11.5 72z" />
    <glyph glyph-name="d.dnom" horiz-adv-x="428" 
d="M32 169q0 43 13 77t34.5 58t49.5 36.5t59 12.5q42 0 68 -15t42 -48h3q-3 37 -3.5 65t-0.5 46v115h80v-516h-76v54h-3q-16 -33 -46.5 -47.5t-69.5 -14.5q-31 0 -58 11.5t-47.5 34t-32.5 55.5t-12 76zM115 169q0 -54 25.5 -83.5t65.5 -29.5q38 0 63.5 29t27.5 81v6
q0 54 -26 85t-65 31q-40 0 -65.5 -32t-25.5 -87z" />
    <glyph glyph-name="e.dnom" horiz-adv-x="398" 
d="M32 172q0 40 13 73.5t35.5 57t54 36.5t69.5 13q73 0 117.5 -44t44.5 -125v-24h-252q3 -54 28 -78.5t65 -24.5q35 0 53.5 14t23.5 34h74q-8 -48 -47 -79.5t-105 -31.5q-81 0 -127.5 46t-46.5 133zM204 289q-71 0 -86 -77h164q-9 77 -78 77z" />
    <glyph glyph-name="f.dnom" horiz-adv-x="244" 
d="M75 280h-67v64h67v48q0 66 28.5 95t94.5 29h50v-66h-38q-32 0 -43.5 -14t-11.5 -46v-46h81v-64h-81v-280h-80v280z" />
    <glyph glyph-name="g.dnom" horiz-adv-x="429" 
d="M117 -42q1 -29 24 -43.5t60 -14.5q46 0 73 27t27 91v36h-3q-16 -33 -46.5 -47.5t-69.5 -14.5q-31 0 -58 11.5t-47.5 34t-32.5 55.5t-12 76t13 77t34.5 58t49.5 36.5t59 12.5q39 0 66.5 -15t43.5 -48h3v54h76v-328q0 -50 -13 -83.5t-36.5 -54.5t-56 -30t-70.5 -9
q-69 0 -113.5 29.5t-46.5 89.5h76zM115 169q0 -54 25.5 -83.5t65.5 -29.5q39 0 65 31t26 85v5q-2 52 -27.5 81.5t-63.5 29.5q-40 0 -65.5 -32t-25.5 -87z" />
    <glyph glyph-name="h.dnom" horiz-adv-x="412" 
d="M52 516h80v-108q0 -17 -0.5 -48t-3.5 -68h3q15 32 42.5 46.5t65.5 14.5q25 0 48 -7.5t40 -23.5t27 -42t10 -63v-217h-80v198q0 51 -19.5 70t-51.5 19q-35 0 -58 -27.5t-23 -79.5v-180h-80v516z" />
    <glyph glyph-name="i.dnom" horiz-adv-x="176" 
d="M45 516h86v-81h-86v81zM48 344h80v-344h-80v344z" />
    <glyph glyph-name="j.dnom" horiz-adv-x="176" 
d="M45 516h86v-81h-86v81zM48 344h80v-389q0 -51 -23.5 -80.5t-87.5 -29.5h-29v66h20q23 0 31.5 12.5t8.5 38.5v382z" />
    <glyph glyph-name="k.dnom" horiz-adv-x="376" 
d="M52 516h80v-320l135 148h92l-128 -137l141 -207h-93l-101 150l-46 -50v-100h-80v516z" />
    <glyph glyph-name="l.dnom" horiz-adv-x="184" 
d="M52 516h80v-516h-80v516z" />
    <glyph glyph-name="m.dnom" horiz-adv-x="625" 
d="M52 344h76v-52h3q15 32 41 46.5t64 14.5q34 0 63.5 -16t43.5 -54q17 39 45.5 54.5t70.5 15.5q22 0 43.5 -6.5t38 -22t26.5 -40.5t10 -61v-223h-80v205q0 45 -16 63.5t-48 18.5q-33 0 -56 -26.5t-23 -78.5v-182h-79v203q0 45 -16.5 64.5t-48.5 19.5t-55 -26.5t-23 -77.5
v-183h-80v344z" />
    <glyph glyph-name="n.dnom" horiz-adv-x="412" 
d="M52 344h76v-52h3q15 32 42.5 46.5t65.5 14.5q25 0 48 -7.5t40 -23.5t27 -42t10 -63v-217h-80v198q0 51 -19.5 70t-51.5 19q-35 0 -58 -27.5t-23 -79.5v-180h-80v344z" />
    <glyph glyph-name="o.dnom" horiz-adv-x="417" 
d="M32 172q0 41 13 74.5t36 57t55.5 36.5t71.5 13q82 0 129.5 -48.5t47.5 -132.5q0 -41 -13 -74.5t-36 -57t-56 -36t-72 -12.5q-81 0 -128.5 48t-47.5 132zM115 172q0 -52 25.5 -84t67.5 -32q43 0 68.5 32t25.5 84q0 54 -25.5 85t-68.5 31q-42 0 -67.5 -31t-25.5 -85z" />
    <glyph glyph-name="p.dnom" horiz-adv-x="429" 
d="M132 -155h-80v499h76v-54h3q16 33 46.5 48t70.5 15q31 0 58 -11.5t47 -34t32 -56t12 -76.5t-12.5 -77t-34 -57.5t-50 -36t-59.5 -12.5q-39 0 -66.5 14.5t-43.5 47.5h-3q3 -37 3.5 -65t0.5 -46v-98zM314 175q0 54 -25.5 83.5t-64.5 29.5t-64.5 -29.5t-27.5 -81.5v-5
q0 -54 26 -85t66 -31q39 0 64.5 32.5t25.5 86.5z" />
    <glyph glyph-name="q.dnom" horiz-adv-x="429" 
d="M297 -57q0 18 0.5 46t3.5 65h-3q-15 -33 -46 -47.5t-70 -14.5q-31 0 -58 11.5t-47.5 34t-32.5 55.5t-12 76t13 77t34.5 58t49.5 36.5t59 12.5q39 0 67 -15t43 -48h3v54h76v-499h-80v98zM115 169q0 -54 25.5 -83.5t65.5 -29.5q38 0 63.5 29t27.5 81v6q0 54 -25.5 85
t-65.5 31t-65.5 -32t-25.5 -87z" />
    <glyph glyph-name="r.dnom" horiz-adv-x="273" 
d="M52 344h76v-65h3q12 31 33.5 52.5t56.5 21.5q11 0 23 -3t25 -12l-19 -72q-22 11 -42 11q-39 0 -57.5 -34.5t-18.5 -82.5v-160h-80v344z" />
    <glyph glyph-name="s.dnom" horiz-adv-x="371" 
d="M108 105q3 -30 25 -43.5t54 -13.5q33 0 52.5 11.5t19.5 32.5t-15.5 29.5t-40.5 13.5l-68 14q-20 4 -37.5 11t-30.5 18.5t-20 28.5t-7 40q0 51 41.5 78.5t105.5 27.5q60 0 101 -25t45 -82h-76q-2 28 -22 39t-46 11q-32 0 -51 -10.5t-19 -30.5q0 -19 13.5 -27.5t41.5 -14.5
l68 -14q18 -4 35.5 -10.5t31 -17.5t22 -27.5t8.5 -41.5q0 -55 -43.5 -82.5t-109.5 -27.5t-107.5 26.5t-46.5 86.5h76z" />
    <glyph glyph-name="t.dnom" horiz-adv-x="249" 
d="M70 280h-62v64h62v104h80v-104h83v-64h-83v-161q0 -26 9 -38.5t35 -12.5h39v-68h-48q-64 0 -89.5 26.5t-25.5 87.5v166z" />
    <glyph glyph-name="u.dnom" horiz-adv-x="412" 
d="M48 344h80v-198q0 -51 19.5 -70t51.5 -19q34 0 57.5 27.5t23.5 81.5v178h80v-344h-76v52h-3q-15 -33 -42.5 -46.5t-65.5 -13.5q-26 0 -48.5 7t-39.5 23t-27 41.5t-10 63.5v217z" />
    <glyph glyph-name="v.dnom" horiz-adv-x="357" 
d="M4 344h90l88 -263l89 263h82l-125 -344h-94z" />
    <glyph glyph-name="w.dnom" horiz-adv-x="537" 
d="M4 344h81l72 -264l70 264h85l70 -265l73 265h78l-105 -344h-90l-70 258l-71 -258h-90z" />
    <glyph glyph-name="x.dnom" horiz-adv-x="337" 
d="M126 172l-120 172h92l72 -108l73 108h88l-121 -169l123 -175h-91l-75 112l-76 -112h-87z" />
    <glyph glyph-name="y.dnom" horiz-adv-x="357" 
d="M61 -88q29 0 50.5 13.5t32.5 45.5l-140 373h90l88 -262l89 262h82l-140 -390q-8 -20 -19.5 -39.5t-27.5 -35t-38 -25t-50 -9.5h-39v67h22z" />
    <glyph glyph-name="z.dnom" horiz-adv-x="332" 
d="M24 344h281v-50l-177 -230h180v-64h-283v46l179 234h-180v64z" />
    <glyph glyph-name="cent.dnom" horiz-adv-x="352" 
d="M36 172q0 51 29.5 86.5t86.5 43.5v50h64v-51q48 -8 72.5 -36t27.5 -65h-76q-3 18 -16 32t-40 14q-33 0 -50.5 -20.5t-17.5 -53.5t17.5 -53.5t50.5 -20.5q27 0 40 14t16 32h76q-3 -38 -27.5 -66t-72.5 -36v-50h-64v50q-57 8 -86.5 43.5t-29.5 86.5z" />
    <glyph glyph-name="Euro.dnom" horiz-adv-x="352" 
d="M20 156h32v32h-28l8 32h24q10 57 46 94.5t102 37.5q61 0 92 -33t40 -87h-76q-5 29 -18.5 44.5t-37.5 15.5q-57 0 -69 -72h93l-8 -32h-88v-32h76l-8 -32h-65q12 -72 69 -72q42 0 56 56h76q-11 -54 -41.5 -85t-90.5 -31q-68 0 -103.5 37t-45.5 95h-43z" />
    <glyph glyph-name="minus.dnom" horiz-adv-x="352" 
d="M44 204h264v-60h-264v60z" />
    <glyph glyph-name="space.frac" horiz-adv-x="72" 
 />
    <glyph glyph-name="zero.osf" horiz-adv-x="584" 
d="M40 244q0 57 19 104t53 81t80 52.5t100 18.5q57 0 103.5 -18.5t79.5 -52.5t51 -81t18 -104t-19 -104t-53 -81t-80 -52.5t-100 -18.5q-57 0 -103.5 18.5t-79.5 52.5t-51 81t-18 104zM132 244q0 -41 12 -74t33.5 -56.5t50.5 -36.5t64 -13q34 0 63.5 13t51 36.5t33.5 56.5
t12 74q0 42 -12 75.5t-33.5 56.5t-51 35.5t-63.5 12.5q-35 0 -64 -13t-50.5 -36.5t-33.5 -57t-12 -73.5z" />
    <glyph glyph-name="one.osf" horiz-adv-x="344" 
d="M12 364l180 124h68v-488h-88v379l-120 -83z" />
    <glyph glyph-name="two.osf" horiz-adv-x="492" 
d="M40 0q0 53 12.5 90.5t34.5 64.5t52 45t65 32l60 24q21 9 39 17t30.5 18t19.5 23.5t7 33.5q0 12 -4.5 26t-16.5 26t-33 20t-54 8q-117 0 -128 -116h-80q1 53 20.5 89t49.5 58t66.5 31.5t71.5 9.5q91 0 143.5 -41.5t52.5 -110.5q0 -37 -12.5 -61.5t-33 -41.5t-47.5 -29
t-55 -24l-60 -24q-42 -17 -69 -40t-27 -52h304v-76h-408z" />
    <glyph glyph-name="three.osf" horiz-adv-x="524" 
d="M104 8q0 -74 42 -109t106 -35q66 0 107 33t41 94q0 29 -11.5 52.5t-32 40t-47.5 25.5t-57 9h-52v76h52q25 0 48 8.5t39.5 24.5t26.5 37.5t10 48.5t-10 47.5t-26.5 34.5t-39.5 21.5t-48 7.5q-26 0 -48.5 -7.5t-39 -22.5t-26.5 -38.5t-10 -55.5h-80q0 46 14.5 83t41.5 63
t64.5 40t83.5 14q47 0 85.5 -14t65.5 -38.5t42 -59t15 -74.5q0 -25 -8.5 -49.5t-22 -45.5t-32 -36.5t-37.5 -22.5v-4q27 -8 50.5 -23.5t40.5 -37.5t27 -49t10 -58q0 -48 -18.5 -85t-50.5 -62.5t-75 -39t-92 -13.5q-105 0 -168.5 54.5t-63.5 165.5h84z" />
    <glyph glyph-name="four.osf" horiz-adv-x="536" 
d="M24 64l332 424h72v-412h96v-76h-96v-200h-88v200h-316v64zM340 76v279l-223 -279h223z" />
    <glyph glyph-name="five.osf" horiz-adv-x="504" 
d="M120 -16q3 -23 12.5 -44.5t26.5 -38t42 -27t59 -10.5q27 0 52 9.5t44.5 28t31.5 46.5t12 64q0 37 -11 65.5t-30 47.5t-43.5 29t-51.5 10q-42 0 -72 -18t-56 -50l-80 4l20 388h372v-80h-292l-12 -216h4q21 21 52 34.5t76 13.5q43 0 81.5 -14.5t67.5 -42.5t46 -69t17 -94
q0 -59 -19.5 -102.5t-51 -72t-73 -43t-84.5 -14.5q-103 0 -161.5 53t-66.5 143h88z" />
    <glyph glyph-name="six.osf" horiz-adv-x="556" 
d="M44 324q0 103 18.5 175t52 116.5t79.5 64.5t102 20q51 0 87.5 -13.5t61 -38t37.5 -58.5t18 -74h-88q-3 22 -9.5 42t-20 34.5t-34.5 23t-52 8.5q-36 0 -65 -14t-49.5 -46t-32.5 -84t-13 -128v-3q20 42 64.5 66.5t99.5 24.5q48 0 87.5 -16t68 -45t44.5 -70.5t16 -92.5
q0 -55 -19 -97.5t-50.5 -71.5t-72.5 -44t-86 -15q-51 0 -95.5 17t-77.5 56t-52 103.5t-19 159.5zM290 364q-32 0 -58.5 -11t-45 -30.5t-28.5 -47t-10 -60.5v-3q0 -32 10 -59t28.5 -47t44 -31t55.5 -11q63 0 102.5 38.5t39.5 113.5q0 33 -11 60t-29.5 46.5t-44 30.5t-53.5 11
z" />
    <glyph glyph-name="seven.osf" horiz-adv-x="460" 
d="M348 408h-332v80h428v-64l-292 -624h-92z" />
    <glyph glyph-name="eight.osf" horiz-adv-x="552" 
d="M36 184q0 32 10 60t27 50.5t40.5 38t50.5 23.5v4q-21 7 -39.5 22.5t-32 36.5t-21 45t-7.5 50q0 40 15 74.5t42.5 59t66.5 38.5t88 14t88 -14t66.5 -38.5t42.5 -59t15 -74.5q0 -26 -8 -50t-21.5 -45t-31.5 -36.5t-39 -22.5v-4q27 -8 50.5 -23.5t40.5 -38t27 -50.5t10 -60
q0 -46 -17.5 -82.5t-49 -61.5t-75.5 -38.5t-98 -13.5t-98 13.5t-75.5 38.5t-49 61.5t-17.5 82.5zM124 191q0 -61 42.5 -94t109.5 -33t109.5 33t42.5 94q0 29 -12 52.5t-32.5 40t-48 25.5t-59.5 9t-59.5 -9t-48 -25.5t-32.5 -40t-12 -52.5zM276 394q27 0 50.5 8.5t40.5 24.5
t27 37.5t10 48.5t-10 48t-27 36t-40.5 23t-50.5 8t-50.5 -8t-40.5 -23t-27 -36t-10 -48t10 -48.5t27 -37.5t40.5 -24.5t50.5 -8.5z" />
    <glyph glyph-name="nine.osf" horiz-adv-x="548" 
d="M500 168q0 -107 -17.5 -179.5t-49.5 -117t-77 -64t-100 -19.5q-105 0 -157 51.5t-55 132.5h88q2 -23 9.5 -42.5t22 -34t37 -23t55.5 -8.5q37 0 64.5 14t46.5 46t29 84t12 127v3q-20 -42 -64.5 -66t-99.5 -24q-48 0 -88 16t-68.5 45t-44 70.5t-15.5 92.5q0 55 19 97.5
t50.5 71.5t72.5 44t86 15q51 0 95.5 -16.5t77.5 -55t52 -102.5t19 -158zM254 124q66 0 104 41t38 108v3q0 31 -10.5 58.5t-28.5 47t-43.5 31t-55.5 11.5q-63 0 -102.5 -38.5t-39.5 -113.5q0 -33 11 -60.5t29.5 -47t43.5 -30t54 -10.5z" />
    <glyph glyph-name="parenleft.tf" 
d="M314 -56q-26 34 -51 76.5t-45 93.5t-32 108.5t-12 121.5t12 121.5t32 108.5t45 93.5t51 76.5h80q-24 -34 -48 -77.5t-43.5 -94.5t-32 -108.5t-12.5 -119.5t12.5 -120t32 -109t43.5 -94.5t48 -76.5h-80z" />
    <glyph glyph-name="parenright.tf" 
d="M174 -56q24 33 48 76.5t43.5 94.5t32 109t12.5 120t-12.5 119.5t-32 108.5t-43.5 94.5t-48 77.5h80q26 -34 51 -76.5t45 -93.5t32 -108.5t12 -121.5t-12 -121.5t-32 -108.5t-45 -93.5t-51 -76.5h-80z" />
    <glyph glyph-name="comma.tf" 
d="M232 0v108h104v-100l-40 -152h-52l32 144h-44z" />
    <glyph glyph-name="hyphen.tf" 
d="M146 384h276v-80h-276v80z" />
    <glyph glyph-name="period.tf" 
d="M232 108h104v-108h-104v108z" />
    <glyph glyph-name="slash.tf" 
d="M400 700h76l-308 -712h-76z" />
    <glyph glyph-name="colon.tf" 
d="M232 548h104v-108h-104v108zM232 256h104v-108h-104v108z" />
    <glyph glyph-name="bracketleft.tf" 
d="M170 744h228v-72h-148v-656h148v-72h-228v800z" />
    <glyph glyph-name="backslash.tf" 
d="M92 700h76l308 -712h-76z" />
    <glyph glyph-name="bracketright.tf" 
d="M318 16v656h-148v72h228v-800h-228v72h148z" />
    <glyph glyph-name="braceleft.tf" 
d="M236 184q0 37 -4.5 62t-17 40.5t-34.5 22.5t-56 7v60q34 0 56 7t34.5 22.5t17 40.5t4.5 62v84q0 36 7.5 64t25.5 47.5t48 30t75 10.5h52v-68h-48q-47 0 -63.5 -19t-16.5 -61v-112q0 -54 -21.5 -87.5t-78.5 -48.5v-4q57 -15 78.5 -48.5t21.5 -87.5v-116q0 -42 16.5 -61
t63.5 -19h48v-68h-52q-45 0 -75 10t-48 29.5t-25.5 48t-7.5 64.5v88z" />
    <glyph glyph-name="braceright.tf" 
d="M172 12q47 0 63.5 19t16.5 61v116q0 54 21.5 87.5t78.5 48.5v4q-57 15 -78.5 48.5t-21.5 87.5v112q0 42 -16.5 61t-63.5 19h-48v68h52q45 0 75 -10.5t48 -30t25.5 -47.5t7.5 -64v-84q0 -37 4.5 -62t17 -40.5t34 -22.5t56.5 -7v-60q-35 0 -56.5 -7t-34 -22.5t-17 -40.5
t-4.5 -62v-88q0 -36 -7.5 -64.5t-25.5 -48t-48 -29.5t-75 -10h-52v68h48z" />
    <glyph glyph-name="periodcentered.tf" 
d="M228 400h112v-112h-112v112z" />
    <glyph glyph-name="bullet.tf" 
d="M284 172q-36 0 -67.5 13t-55 36.5t-36.5 55t-13 67.5t13 67.5t36.5 55t55 36.5t67.5 13t67.5 -13t55 -36.5t36.5 -55t13 -67.5t-13 -67.5t-36.5 -55t-55 -36.5t-67.5 -13z" />
    <glyph glyph-name="dollar.lf" horiz-adv-x="524" 
d="M116 192q4 -63 42 -95.5t98 -32.5q63 0 99.5 31t36.5 89q0 25 -9 43.5t-24.5 32t-37 23t-45.5 17.5l-88 28q-27 9 -53.5 23t-47.5 35.5t-34 52.5t-13 73q0 37 13 68t36 55t54.5 39.5t68.5 21.5v108h88v-108q33 -6 62.5 -21t52 -38t36.5 -53.5t17 -67.5h-88
q-4 29 -15.5 49.5t-28 33.5t-37.5 19t-43 6q-24 0 -46.5 -6t-40 -18.5t-27.5 -32.5t-10 -47q0 -50 28 -74.5t84 -41.5l88 -28q78 -25 115 -70.5t37 -117.5q0 -83 -51 -134t-133 -63v-111h-88v111q-82 11 -131.5 63.5t-52.5 137.5h88z" />
    <glyph glyph-name="zero.lf" horiz-adv-x="576" 
d="M288 -12q-65 0 -111 27.5t-75.5 75.5t-43.5 113t-14 140t14 140t43.5 113t75.5 75.5t111 27.5q64 0 110.5 -27.5t76 -75.5t43.5 -113t14 -140t-14 -140t-43.5 -113t-76 -75.5t-110.5 -27.5zM288 68q75 0 113.5 71t38.5 205t-38.5 205t-113.5 71q-78 0 -115 -71t-37 -205
t38.5 -205t113.5 -71z" />
    <glyph glyph-name="one.lf" horiz-adv-x="344" 
d="M16 564l180 124h68v-688h-88v579l-120 -83z" />
    <glyph glyph-name="two.lf" horiz-adv-x="528" 
d="M40 0q2 58 12.5 101t30.5 77.5t49 62.5t68 55l68 48q28 19 50 35t37.5 34t24 39.5t8.5 51.5q0 21 -6 42.5t-20 38.5t-37 28t-57 11q-128 0 -140 -140h-80q3 61 22.5 102.5t50 67t68.5 36t79 10.5q96 0 152 -49t56 -143q0 -45 -14 -78t-35.5 -58.5t-48.5 -45t-54 -38.5
l-68 -48q-38 -27 -60.5 -50t-34.5 -43t-16 -37.5t-5 -33.5h344v-76h-444z" />
    <glyph glyph-name="three.lf" horiz-adv-x="544" 
d="M120 208q0 -74 42 -109t106 -35q66 0 107 33t41 94q0 29 -11.5 52.5t-32 40t-47.5 25.5t-57 9h-52v76h52q25 0 48 8.5t39.5 24.5t26.5 37.5t10 48.5t-10 47.5t-26.5 34.5t-39.5 21.5t-48 7.5q-26 0 -48.5 -7.5t-39 -22.5t-26.5 -38.5t-10 -55.5h-80q0 46 14.5 83t41.5 63
t64.5 40t83.5 14q47 0 85.5 -14t65.5 -38.5t42 -59t15 -74.5q0 -25 -8.5 -49.5t-22 -45.5t-32 -36.5t-37.5 -22.5v-4q27 -8 50.5 -23.5t40.5 -37.5t27 -49t10 -58q0 -48 -18.5 -85t-50.5 -62.5t-75 -39t-92 -13.5q-105 0 -168.5 54.5t-63.5 165.5h84z" />
    <glyph glyph-name="four.lf" horiz-adv-x="548" 
d="M20 236l332 452h72v-440h96v-76h-96v-172h-88v172h-316v64zM336 248v301l-225 -301h225z" />
    <glyph glyph-name="five.lf" horiz-adv-x="524" 
d="M120 184q3 -23 12.5 -44.5t26.5 -38t42 -27t59 -10.5q27 0 52 9.5t44.5 28t31.5 46.5t12 64q0 37 -11 65.5t-30 47.5t-43.5 29t-51.5 10q-42 0 -72 -18t-56 -50l-80 4l20 388h372v-80h-292l-12 -216h4q21 21 52 34.5t76 13.5q43 0 81.5 -14.5t67.5 -42.5t46 -69t17 -94
q0 -59 -19.5 -102.5t-51 -72t-73 -43t-84.5 -14.5q-103 0 -161.5 53t-66.5 143h88z" />
    <glyph glyph-name="six.lf" horiz-adv-x="556" 
d="M44 324q0 103 18.5 175t52 116.5t79.5 64.5t102 20q51 0 87.5 -13.5t61 -38t37.5 -58.5t18 -74h-88q-3 22 -9.5 42t-20 34.5t-34.5 23t-52 8.5q-36 0 -65 -14t-49.5 -46t-32.5 -84t-13 -128v-3q20 42 64.5 66.5t99.5 24.5q48 0 87.5 -16t68 -45t44.5 -70.5t16 -92.5
q0 -55 -19 -97.5t-50.5 -71.5t-72.5 -44t-86 -15q-51 0 -95.5 17t-77.5 56t-52 103.5t-19 159.5zM290 364q-32 0 -58.5 -11t-45 -30.5t-28.5 -47t-10 -60.5v-3q0 -32 10 -59t28.5 -47t44 -31t55.5 -11q63 0 102.5 38.5t39.5 113.5q0 33 -11 60t-29.5 46.5t-44 30.5t-53.5 11
z" />
    <glyph glyph-name="seven.lf" horiz-adv-x="460" 
d="M352 608h-332v80h428v-64l-292 -624h-92z" />
    <glyph glyph-name="eight.lf" horiz-adv-x="560" 
d="M40 184q0 32 10 60t27 50.5t40.5 38t50.5 23.5v4q-21 7 -39.5 22.5t-32 36.5t-21 45t-7.5 50q0 40 15 74.5t42.5 59t66.5 38.5t88 14t88 -14t66.5 -38.5t42.5 -59t15 -74.5q0 -26 -8 -50t-21.5 -45t-31.5 -36.5t-39 -22.5v-4q27 -8 50.5 -23.5t40.5 -38t27 -50.5t10 -60
q0 -46 -17.5 -82.5t-49 -61.5t-75.5 -38.5t-98 -13.5t-98 13.5t-75.5 38.5t-49 61.5t-17.5 82.5zM128 191q0 -61 42.5 -94t109.5 -33t109.5 33t42.5 94q0 29 -12 52.5t-32.5 40t-48 25.5t-59.5 9t-59.5 -9t-48 -25.5t-32.5 -40t-12 -52.5zM280 394q27 0 50.5 8.5t40.5 24.5
t27 37.5t10 48.5t-10 48t-27 36t-40.5 23t-50.5 8t-50.5 -8t-40.5 -23t-27 -36t-10 -48t10 -48.5t27 -37.5t40.5 -24.5t50.5 -8.5z" />
    <glyph glyph-name="nine.lf" horiz-adv-x="556" 
d="M504 368q0 -107 -17.5 -179.5t-49.5 -117t-77 -64t-100 -19.5q-105 0 -157 51.5t-55 132.5h88q2 -23 9.5 -42.5t22 -34t37 -23t55.5 -8.5q37 0 64.5 14t46.5 46t29 84t12 127v3q-20 -42 -64.5 -66t-99.5 -24q-48 0 -88 16t-68.5 45t-44 70.5t-15.5 92.5q0 55 19 97.5
t50.5 71.5t72.5 44t86 15q51 0 95.5 -16.5t77.5 -55t52 -102.5t19 -158zM258 324q66 0 104 41t38 108v3q0 31 -10.5 58.5t-28.5 47t-43.5 31t-55.5 11.5q-63 0 -102.5 -38.5t-39.5 -113.5q0 -33 11 -60.5t29.5 -47t43.5 -30t54 -10.5z" />
    <glyph glyph-name="cent.lf" horiz-adv-x="516" 
d="M228 95q-90 14 -139 80.5t-49 172.5q0 53 14 96.5t39.5 76t61 53t77.5 27.5v99h88v-100q72 -13 113.5 -60.5t50.5 -119.5h-88q-8 48 -37.5 78t-86.5 30q-30 0 -55.5 -13t-44.5 -36.5t-29.5 -57t-10.5 -73.5q0 -41 10.5 -74t29.5 -56.5t44.5 -36.5t55.5 -13q57 0 86.5 30
t37.5 78h88q-9 -73 -51 -121t-117 -60v-107h-88v107z" />
    <glyph glyph-name="sterling.lf" horiz-adv-x="548" 
d="M48 388h87q-11 33 -19 67t-8 69q0 81 50 128.5t134 47.5q81 0 125.5 -46.5t50.5 -133.5h-84q-5 54 -28 81t-68 27q-38 0 -65 -25t-27 -71q0 -37 10 -72.5t23 -71.5h159v-62h-138q6 -23 10 -45t4 -45q0 -52 -14 -105q37 -25 71.5 -46t70.5 -21q31 0 48.5 22.5t19.5 77.5
h76q-2 -32 -9.5 -63t-24.5 -56.5t-44.5 -41t-69.5 -15.5q-23 0 -44 7t-41.5 18t-40 25.5t-38.5 28.5q-20 -35 -51.5 -57t-76.5 -22q-49 0 -76.5 26.5t-27.5 65.5q0 54 32.5 81t83.5 27q19 0 36 -4.5t34 -11.5q1 8 1.5 16t0.5 16q0 31 -7 61.5t-17 60.5h-108v62zM98 40
q26 0 42.5 20t25.5 48q-17 11 -33.5 17.5t-32.5 6.5q-20 0 -34 -13t-14 -33t11.5 -33t34.5 -13z" />
    <glyph glyph-name="currency.lf" horiz-adv-x="480" 
d="M44 192l58 59q-13 20 -21.5 43t-8.5 50t9 51t23 44l-60 61l44 44l60 -62q40 26 92 26q51 0 91 -26l61 62l44 -44l-60 -61q14 -20 23 -44t9 -51t-9 -50t-22 -43l59 -59l-44 -44l-58 59q-39 -27 -94 -27t-94 27l-58 -59zM240 244q41 0 68.5 27t27.5 73t-27.5 73t-68.5 27
t-68.5 -27t-27.5 -73t27.5 -73t68.5 -27z" />
    <glyph glyph-name="yen.lf" horiz-adv-x="536" 
d="M270 392h4l170 296h92l-221 -376h149v-56h-152v-76h152v-56h-152v-124h-88v124h-152v56h152v76h-152v56h151l-223 376h100z" />
    <glyph glyph-name="florin.lf" horiz-adv-x="484" 
d="M48 356h126l19 180q9 86 53 125t108 39t100 -34t31 -114l-4 -44h-79l3 44q2 35 -10.5 55.5t-44.5 20.5t-48 -24t-21 -68l-19 -180h154v-64h-161l-33 -320q-9 -86 -53 -125t-108 -39t-100 34t-31 114l4 44h79l-3 -44q-2 -35 10.5 -55.5t44.5 -20.5t48 24t21 68l33 320
h-119v64z" />
    <glyph glyph-name="uni20A9.lf" horiz-adv-x="773" 
d="M20 438h69l-49 250h89l45 -250h120l49 250h93l49 -250h118l44 250h86l-48 -250h68v-56h-79l-15 -76h94v-56h-105l-48 -250h-108l-47 250h-114l-47 -250h-108l-50 250h-106v56h95l-15 76h-80v56zM198 306h70l15 76h-99zM511 306h69l13 76h-97zM342 306h92l-14 76h-64z
M231 120l26 130h-49zM547 120l23 130h-48zM367 438h43l-22 114z" />
    <glyph glyph-name="Euro.lf" horiz-adv-x="600" 
d="M48 452h58q10 54 31.5 99.5t53.5 78.5t74.5 51.5t94.5 18.5q195 0 224 -200h-85q-14 67 -46 97.5t-89 30.5q-63 0 -106 -46t-60 -130h202l-16 -56h-194q-2 -8 -2 -15v-15v-22v-20.5t1 -19.5h191l-16 -56h-169q15 -90 58 -139t107 -49q52 0 85 25t47 83h86
q-17 -93 -72.5 -136.5t-149.5 -43.5q-56 0 -99.5 19t-75 53.5t-51 82.5t-27.5 105h-91l16 56h69q-1 10 -1 19.5v20.5v22v15t2 15h-66z" />
    <glyph glyph-name="uni20AE.lf" horiz-adv-x="552" 
d="M62 384l170 39v191h-208v74h504v-74h-208v-170l170 40v-68l-170 -40v-64l170 40v-68l-170 -40v-244h-88v223l-170 -39v68l170 39v64l-170 -39v68z" />
    <glyph glyph-name="uni20B4.lf" horiz-adv-x="589" 
d="M80 170q0 17 5.5 38t13.5 38h-63v68h517v-68h-364q-11 -16 -16 -35.5t-5 -35.5q0 -55 34.5 -85t89.5 -30q60 0 94.5 27t41.5 85h88q-11 -95 -70 -139.5t-154 -44.5q-50 0 -89 13t-66.5 37t-42 57.5t-14.5 74.5zM36 446h351q13 15 19.5 36t6.5 39q0 55 -33.5 81t-82.5 26
q-51 0 -86 -25t-42 -83h-88q6 47 24 81t46.5 56t65.5 32.5t80 10.5q46 0 84 -12.5t64.5 -35.5t41 -56t14.5 -74q0 -19 -5.5 -39t-13.5 -37h71v-68h-517v68z" />
    <glyph glyph-name="uni20B8.lf" horiz-adv-x="552" 
d="M24 688h504v-68h-504v68zM232 482h-208v74h504v-74h-208v-482h-88v482z" />
    <glyph glyph-name="uni20BA.lf" horiz-adv-x="576" 
d="M20 400l80 23v265h88v-240l180 52v-56l-180 -52v-76l180 52v-56l-180 -52v-180h64q55 0 93 16t62 43.5t34.5 64t10.5 76.5v40h84v-40q0 -139 -73 -209.5t-211 -70.5h-152v235l-80 -23v56l80 23v76l-80 -23v56z" />
    <glyph glyph-name="uni20BD.lf" horiz-adv-x="560" 
d="M32 330h80v358h180q118 0 179 -57.5t61 -154.5q0 -48 -15.5 -88.5t-45.5 -69t-75 -44.5t-104 -16h-92v-68h164v-72h-164v-118h-88v118h-80v72h80v68h-80v72zM444 476q0 63 -36.5 99.5t-111.5 36.5h-96v-282h96q75 0 111.5 41.5t36.5 104.5z" />
    <glyph glyph-name="zero.tosf" 
d="M44 244q0 57 18 104t49.5 81t75.5 52.5t97 18.5q55 0 99.5 -18.5t76 -52.5t48 -81t16.5 -104t-18 -104t-49.5 -81t-76 -52.5t-96.5 -18.5q-56 0 -100 18.5t-75.5 52.5t-48 81t-16.5 104zM136 244q0 -41 10.5 -74t30 -56.5t47 -36.5t60.5 -13t60 13t46.5 36.5t30.5 56.5
t11 74q0 85 -41 132.5t-107 47.5q-33 0 -60.5 -13t-47 -36.5t-30 -57t-10.5 -73.5z" />
    </font>
</defs>
</svg>
