<?xml version="1.0" standalone="no"?>
<!DOCTYPE svg PUBLIC "-//W3C//DTD SVG 1.1//EN" "http://www.w3.org/Graphics/SVG/1.1/DTD/svg11.dtd" >
<svg xmlns="http://www.w3.org/2000/svg" xmlns:xlink="http://www.w3.org/1999/xlink" version="1.1">
<metadata>
Created by FontForge 20170731 at Wed Feb 23 14:46:53 2022
 By Aleksey,,,
Copyright (c) 2018 Swiss Typefaces Sarl. All rights reserved.
</metadata>
<defs>
<font id="EuclidSquare-Light" horiz-adv-x="0" >
  <font-face 
    font-family="Euclid Square Light"
    font-weight="300"
    font-stretch="normal"
    units-per-em="2048"
    panose-1="2 11 3 4 0 0 0 0 0 0"
    ascent="1651"
    descent="-397"
    x-height="1024"
    cap-height="1454"
    bbox="-397 -528 2836 2034"
    underline-thickness="129"
    underline-position="-402"
    unicode-range="U+0020-FEFF"
  />
<missing-glyph horiz-adv-x="1421" 
d="M199 0v1454h1024v-1454h-1024zM1153 1415h-885l443 -657zM688 727l-450 670v-1340zM731 727l453 -670v1340zM711 694l-443 -655h885z" />
    <glyph glyph-name="uni0407_uni0407" unicode="&#x407;&#x407;" horiz-adv-x="1122" 
d="M49 1616q-46 0 -78 32t-32 76t32.5 76.5t77.5 32.5q44 0 75.5 -32.5t31.5 -76.5t-31.5 -76t-75.5 -32zM563 1616q-46 0 -78 32t-32 76t32.5 76.5t77.5 32.5q44 0 75.5 -32.5t31.5 -76.5t-31.5 -76t-75.5 -32zM1075 1616q-46 0 -78 32t-32 76t32.5 76.5t77.5 32.5
q44 0 75.5 -32.5t31.5 -76.5t-31.5 -76t-75.5 -32zM203 0v1454h155v-1454h-155zM764 0v1454h156v-1454h-156z" />
    <glyph glyph-name="uni0457_uni0457" unicode="&#x457;&#x457;" horiz-adv-x="991" 
d="M84 1233q-47 0 -81 34t-34 81t33.5 79.5t81.5 32.5t81.5 -32.5t33.5 -79.5t-34 -81t-81 -34zM494 1233q-47 0 -81 34t-34 81t33.5 79.5t81.5 32.5q47 0 80.5 -32.5t33.5 -79.5t-33.5 -81t-80.5 -34zM903 1233q-47 0 -81 34t-34 81t33.5 79.5t81.5 32.5t81.5 -32.5
t33.5 -79.5t-34 -81t-81 -34zM319 0h-143v1024h143v-1024zM815 0h-143v1024h143v-1024z" />
    <glyph glyph-name="uni0457_uni0458" unicode="&#x457;&#x458;" horiz-adv-x="991" 
d="M84 1233q-47 0 -81 34t-34 81t33.5 79.5t81.5 32.5t81.5 -32.5t33.5 -79.5t-34 -81t-81 -34zM494 1233q-47 0 -81 34t-34 81t33.5 79.5t81.5 32.5q47 0 80.5 -32.5t33.5 -79.5t-33.5 -81t-80.5 -34zM903 1233q-47 0 -81 34t-34 81t33.5 79.5t81.5 32.5t81.5 -32.5
t33.5 -79.5t-34 -81t-81 -34zM319 0h-143v1024h143v-1024zM547 -408q-34 0 -74.5 7.5t-56.5 15.5l30 125q56 -14 93 -14q59 0 96 41t37 133v1124h143v-1137q0 -144 -76 -219.5t-192 -75.5z" />
    <glyph glyph-name="f_f" unicode="ff" horiz-adv-x="1576" 
d="M272 0v889h-239v135h239v172q0 144 85.5 227.5t224.5 83.5q114 0 198 -49l-55 -121q-77 37 -143 37q-79 0 -122.5 -51.5t-43.5 -138.5v-160h305v-135h-305v-889h-144zM1061 0v889h-221v135h221v172q0 144 85 227.5t224 83.5q115 0 199 -49l-56 -121q-77 37 -143 37
q-79 0 -122.5 -51.5t-43.5 -138.5v-160h350v-135h-350v-889h-143z" />
    <glyph glyph-name="f_i" unicode="fi" horiz-adv-x="1284" 
d="M272 0v889h-239v135h239v172q0 144 85.5 227.5t224.5 83.5q114 0 198 -49l-55 -121q-77 37 -143 37q-79 0 -122.5 -51.5t-43.5 -138.5v-160h350v-135h-350v-889h-144zM1038 1290q-46 0 -78 32t-32 77q0 44 32 76t78 32q44 0 75.5 -32t31.5 -76t-31.5 -76.5t-75.5 -32.5z
M965 0v1024h143v-1024h-143z" />
    <glyph glyph-name="f_f_i" unicode="ffi" horiz-adv-x="2072" 
d="M1827 1290q-46 0 -78.5 32.5t-32.5 76.5t32.5 76t78.5 32q44 0 75 -32t31 -76q0 -45 -31 -77t-75 -32zM272 0v889h-239v135h239v172q0 144 85.5 227.5t224.5 83.5q114 0 198 -49l-55 -121q-77 37 -143 37q-79 0 -122.5 -51.5t-43.5 -138.5v-160h305v-135h-305v-889h-144z
M1061 0v889h-221v135h221v172q0 144 85 227.5t224 83.5q115 0 199 -49l-56 -121q-77 37 -143 37q-79 0 -122.5 -51.5t-43.5 -138.5v-160h350v-135h-350v-889h-143zM1753 0v1024h143v-1024h-143z" />
    <glyph glyph-name="f_l" unicode="fl" horiz-adv-x="1284" 
d="M272 0v889h-239v135h239v172q0 144 85.5 227.5t224.5 83.5q114 0 198 -49l-55 -121q-77 37 -143 37q-79 0 -122.5 -51.5t-43.5 -138.5v-160h350v-135h-350v-889h-144zM965 0v1495h143v-1495h-143z" />
    <glyph glyph-name="f_f_l" unicode="ffl" horiz-adv-x="2072" 
d="M272 0v889h-239v135h239v172q0 144 85.5 227.5t224.5 83.5q114 0 198 -49l-55 -121q-77 37 -143 37q-79 0 -122.5 -51.5t-43.5 -138.5v-160h305v-135h-305v-889h-144zM1061 0v889h-221v135h221v172q0 144 85 227.5t224 83.5q115 0 199 -49l-56 -121q-77 37 -143 37
q-79 0 -122.5 -51.5t-43.5 -138.5v-160h350v-135h-350v-889h-143zM1753 0v1495h143v-1495h-143z" />
    <glyph glyph-name="f_t" unicode="ft" horiz-adv-x="1605" 
d="M272 0v889h-239v135h239v172q0 144 85.5 227.5t224.5 83.5q114 0 198 -49l-55 -121q-77 37 -143 37q-79 0 -122.5 -51.5t-43.5 -138.5v-160h301v-135h-301v-889h-144zM1372 -10q-126 0 -211.5 76t-85.5 219v604h-239v135h239v285h144v-285h319v-135h-319v-592
q0 -92 46 -135t119 -43q80 0 152 39l43 -123q-97 -45 -207 -45z" />
    <glyph glyph-name="t_t" unicode="tt" horiz-adv-x="1634" 
d="M584 -10q-126 0 -211.5 76t-85.5 219v604h-260v135h260v285h143v-285h305v-135h-305v-592q0 -92 46.5 -135t119.5 -43q80 0 152 39l43 -123q-97 -45 -207 -45zM1401 -10q-126 0 -211.5 76t-85.5 219v604h-250v135h250v285h143v-285h320v-135h-320v-592q0 -92 46.5 -135
t119.5 -43q81 0 152 39l43 -123q-97 -45 -207 -45z" />
    <glyph glyph-name=".notdef" horiz-adv-x="1421" 
d="M199 0v1454h1024v-1454h-1024zM1153 1415h-885l443 -657zM688 727l-450 670v-1340zM731 727l453 -670v1340zM711 694l-443 -655h885z" />
    <glyph glyph-name=".null" 
 />
    <glyph glyph-name="nonmarkingreturn" horiz-adv-x="682" 
 />
    <glyph glyph-name="space" unicode=" " horiz-adv-x="501" 
 />
    <glyph glyph-name="exclam" unicode="!" horiz-adv-x="544" 
d="M227 434l-26 426v594h143v-594l-27 -426h-90zM371 0h-226v225h226v-225z" />
    <glyph glyph-name="quotedbl" unicode="&#x22;" horiz-adv-x="831" 
d="M141 973v481h135v-481h-135zM555 973v481h135v-481h-135z" />
    <glyph glyph-name="numbersign" unicode="#" horiz-adv-x="1517" 
d="M725 0l131 420h-395l-129 -420h-139l131 420h-254v129h292l119 375h-262v129h303l125 401h137l-125 -401h394l127 401h135l-125 -401h256v-129h-295l-119 -375h266v-129h-307l-129 -420h-137zM621 924l-119 -375h393l119 375h-393z" />
    <glyph glyph-name="dollar" unicode="$" horiz-adv-x="1019" 
d="M461 -180v162q-117 10 -210.5 54.5t-152.5 106.5l95 115q99 -115 268 -135v561l-68 27q-163 65 -235 166.5t-72 242.5q0 102 54 182t137.5 123t183.5 52v157h110v-159q182 -19 310 -144l-93 -112q-96 96 -217 116v-530l45 -19q164 -66 246 -168t82 -249q0 -118 -51 -204
t-133 -130t-189 -53v-162h-110zM459 850h2v487q-102 -14 -167 -74t-65 -145q0 -92 53.5 -154.5t176.5 -113.5zM801 354q0 107 -56.5 171.5t-173.5 113.5v-516q101 14 165.5 76.5t64.5 154.5z" />
    <glyph glyph-name="percent" unicode="%" horiz-adv-x="2035" 
d="M471 664q-167 0 -285 118.5t-118 284.5q0 167 118 285t285 118q166 0 284.5 -118t118.5 -285q0 -166 -118.5 -284.5t-284.5 -118.5zM477 0l922 1454h160l-922 -1454h-160zM471 799q110 0 188 79.5t78 188.5t-78 188.5t-188 79.5t-188 -79.5t-78 -188.5t78 -188.5
t188 -79.5zM1565 -16q-167 0 -285.5 118.5t-118.5 284.5q0 167 118.5 285.5t285.5 118.5q166 0 284.5 -118.5t118.5 -285.5q0 -166 -118.5 -284.5t-284.5 -118.5zM1565 119q110 0 188 79.5t78 188.5t-78 188.5t-188 79.5t-188.5 -79.5t-78.5 -188.5t78.5 -188.5t188.5 -79.5
z" />
    <glyph glyph-name="ampersand" unicode="&#x26;" horiz-adv-x="1501" 
d="M571 -20q-188 0 -311 116.5t-123 294.5q0 75 25.5 139.5t73.5 115t95 85t113 72.5l33 18q-40 41 -66.5 72t-56.5 75.5t-45.5 92.5t-15.5 98q0 143 103 231.5t255 88.5q151 0 247.5 -95t96.5 -235q0 -65 -25 -121.5t-70 -100.5t-91.5 -75t-106.5 -61l334 -328l213 278
l105 -77l-224 -293l381 -371h-190l-272 266q-122 -150 -230 -218t-248 -68zM434 1155q0 -38 11.5 -72t39 -69.5t51.5 -60.5t72 -70l13 6q54 28 89 49.5t71 52.5t53.5 67t17.5 79q0 94 -55.5 154.5t-149.5 60.5q-90 0 -151.5 -54t-61.5 -143zM285 393q0 -126 87.5 -203
t209.5 -77q104 0 188 57.5t184 185.5l-381 373l-45 -24q-122 -65 -182.5 -134t-60.5 -178z" />
    <glyph glyph-name="quotesingle" unicode="'" horiz-adv-x="417" 
d="M141 973v481h135v-481h-135z" />
    <glyph glyph-name="parenleft" unicode="(" horiz-adv-x="528" 
d="M236 655q0 -482 221 -931l-95 -52q-262 475 -262 983t262 983l95 -51q-221 -449 -221 -932z" />
    <glyph glyph-name="parenright" unicode=")" horiz-adv-x="528" 
d="M293 655q0 483 -221 932l94 51q262 -475 262 -983t-262 -983l-94 52q221 449 221 931z" />
    <glyph glyph-name="asterisk" unicode="*" horiz-adv-x="868" 
d="M279 807l-97 67l154 213l-250 84l33 115l254 -84v252h119v-252l253 82l37 -113l-252 -81l156 -216l-94 -67l-160 213z" />
    <glyph glyph-name="plus" unicode="+" horiz-adv-x="1028" 
d="M80 528v129h366v367h136v-367h366v-129h-366v-366h-136v366h-366z" />
    <glyph glyph-name="comma" unicode="," horiz-adv-x="509" 
d="M150 -307l96 307h-105v225h226v-227l-121 -305h-96z" />
    <glyph glyph-name="hyphen" unicode="-" horiz-adv-x="780" 
d="M139 500v147h502v-147h-502z" />
    <glyph glyph-name="period" unicode="." horiz-adv-x="471" 
d="M348 0h-225v225h225v-225z" />
    <glyph glyph-name="slash" unicode="/" horiz-adv-x="1017" 
d="M45 -225l791 1679h137l-791 -1679h-137z" />
    <glyph glyph-name="zero" unicode="0" horiz-adv-x="1269" 
d="M635 -20q-221 0 -363.5 150t-142.5 388v422q0 238 142.5 388.5t363.5 150.5t363.5 -150.5t142.5 -388.5v-422q0 -238 -142.5 -388t-363.5 -150zM635 119q161 0 261.5 107.5t100.5 291.5v422q0 184 -100.5 291.5t-261.5 107.5t-262 -107.5t-101 -291.5v-422
q0 -184 101 -291.5t262 -107.5z" />
    <glyph glyph-name="one" unicode="1" horiz-adv-x="604" 
d="M258 0v1313h-182v141h325v-1454h-143z" />
    <glyph glyph-name="two" unicode="2" horiz-adv-x="1116" 
d="M78 0v117l561 542q211 203 211 379q0 127 -86.5 214t-212.5 87q-117 0 -204.5 -75.5t-100.5 -190.5l-146 27q22 162 150 270.5t305 108.5q191 0 316.5 -125t125.5 -312q0 -240 -254 -479l-444 -426h719v-137h-940z" />
    <glyph glyph-name="three" unicode="3" horiz-adv-x="1161" 
d="M567 -20q-114 0 -220 42.5t-183.5 124t-102.5 185.5l150 49q27 -116 123 -189t233 -73q139 0 241.5 90t102.5 227q0 148 -94.5 233t-249.5 85h-168v118l396 441h-658v141h852v-123l-391 -436q137 -3 242.5 -64.5t162 -164.5t56.5 -230q0 -194 -138 -325t-354 -131z" />
    <glyph glyph-name="four" unicode="4" horiz-adv-x="1249" 
d="M823 0v414h-788v116l809 924h123v-903h204v-137h-204v-414h-144zM823 551v682l-596 -682h596z" />
    <glyph glyph-name="five" unicode="5" horiz-adv-x="1153" 
d="M600 -20q-114 0 -220 42.5t-183.5 124t-102.5 185.5l150 49q27 -116 123 -189t233 -73q134 0 228 100t94 240q0 143 -93 241.5t-237 98.5q-90 0 -163 -34t-116 -95h-153v784h815v-141h-672v-490q43 48 124 82.5t179 34.5q202 0 332.5 -144t130.5 -360q0 -122 -62 -226.5
t-170.5 -167t-236.5 -62.5z" />
    <glyph glyph-name="six" unicode="6" horiz-adv-x="1138" 
d="M563 -20q-134 0 -246.5 64t-176.5 173t-64 236q0 107 43.5 194.5t116.5 169.5l561 637h186l-471 -536q34 10 84 10q123 0 228.5 -66.5t166 -174.5t60.5 -228q0 -130 -64.5 -240t-176.5 -174.5t-247 -64.5zM563 119q144 0 242 99.5t98 240.5t-98 240.5t-242 99.5
t-242 -99.5t-98 -240.5t98 -240.5t242 -99.5z" />
    <glyph glyph-name="seven" unicode="7" horiz-adv-x="1019" 
d="M295 0h-160l686 1313h-764v141h936v-117z" />
    <glyph glyph-name="eight" unicode="8" horiz-adv-x="1159" 
d="M580 -20q-210 0 -345 128.5t-135 325.5q0 133 65 234.5t183 154.5q-75 47 -118.5 122t-43.5 165q0 160 113.5 264.5t280.5 104.5q172 0 282.5 -104t110.5 -265q0 -91 -42 -166t-116 -121q117 -52 180.5 -153.5t63.5 -235.5q0 -199 -132 -326.5t-347 -127.5zM580 883
q116 0 183.5 67t67.5 162q0 98 -67 162.5t-184 64.5q-112 0 -182 -65t-70 -162q0 -93 70 -161t182 -68zM580 119q154 0 244.5 88.5t90.5 224.5q0 138 -89.5 225.5t-243.5 87.5q-152 0 -245 -88t-93 -225q0 -134 93 -223.5t243 -89.5z" />
    <glyph glyph-name="nine" unicode="9" horiz-adv-x="1138" 
d="M154 0l475 541q-37 -11 -84 -11q-123 0 -228.5 66.5t-166 174.5t-60.5 228q0 130 64.5 240.5t177 175t246.5 64.5t246.5 -64t176.5 -173t64 -236q0 -185 -160 -365l-565 -641h-186zM578 659q144 0 242 99.5t98 240.5t-98 240.5t-242 99.5t-242 -99.5t-98 -240.5
t98 -240.5t242 -99.5z" />
    <glyph glyph-name="colon" unicode=":" horiz-adv-x="503" 
d="M350 786h-225v226h225v-226zM350 0h-225v225h225v-225z" />
    <glyph glyph-name="semicolon" unicode=";" horiz-adv-x="503" 
d="M350 786h-225v226h225v-226zM147 -307l97 307h-105v225h226v-227l-121 -305h-97z" />
    <glyph glyph-name="less" unicode="&#x3c;" horiz-adv-x="897" 
d="M805 -23l-727 482v149l727 479v-163l-592 -392l592 -391v-164z" />
    <glyph glyph-name="equal" unicode="=" horiz-adv-x="1159" 
d="M145 754v129h869v-129h-869zM145 305v129h869v-129h-869z" />
    <glyph glyph-name="greater" unicode="&#x3e;" horiz-adv-x="897" 
d="M92 -23v164l592 391l-592 392v163l727 -479v-149z" />
    <glyph glyph-name="question" unicode="?" horiz-adv-x="1067" 
d="M426 469v41q0 119 190 264q52 39 81.5 65.5t58.5 61.5t41 73.5t12 86.5q0 115 -86.5 196.5t-206.5 81.5q-114 0 -201.5 -53.5t-134.5 -144.5l-119 67q65 123 185 197t270 74q185 0 310.5 -124.5t125.5 -293.5q0 -47 -9.5 -90.5t-30 -80t-39 -63.5t-49.5 -56.5t-48 -44
t-47 -38.5q-85 -65 -112 -94q-48 -54 -48 -105v-20h-143zM596 0h-225v225h225v-225z" />
    <glyph glyph-name="at" unicode="@" horiz-adv-x="1669" 
d="M815 -20q-215 0 -379.5 95.5t-250 256t-85.5 358.5q0 170 66 319.5t176 251t255 160t302 58.5q195 0 352.5 -79.5t249.5 -228.5t92 -340q0 -127 -31 -226.5t-83 -159t-114.5 -89.5t-131.5 -30q-167 0 -215 131q-36 -56 -113 -92.5t-153 -36.5q-130 0 -222 95t-92 259
q0 192 122 319t294 127q53 0 98 -16t74 -40.5t46.5 -45.5t25.5 -39l22 123h142l-103 -498q-8 -46 -7.5 -82t22 -57.5t65.5 -21.5q100 0 158.5 98.5t58.5 286.5q0 152 -71.5 270.5t-198.5 183t-289 64.5q-130 0 -249.5 -48t-210.5 -132.5t-145 -210.5t-54 -273
q0 -171 69.5 -303.5t201 -207.5t306.5 -75q213 0 375 86l53 -120q-94 -42 -209 -66t-219 -24zM770 453q74 0 138.5 40t101.5 107l51 234q-19 71 -73 120.5t-136 49.5q-99 0 -177 -70.5t-97 -175.5q-23 -131 31.5 -218t160.5 -87z" />
    <glyph glyph-name="A" unicode="A" horiz-adv-x="1454" 
d="M16 0l648 1454h124l650 -1454h-164l-201 453h-696l-201 -453h-160zM442 598h566l-283 637z" />
    <glyph glyph-name="B" unicode="B" horiz-adv-x="1286" 
d="M203 0v1454h459q102 0 185 -30.5t137 -82.5t83 -118.5t29 -141.5q0 -212 -166 -309q262 -85 262 -348q0 -186 -136 -305t-362 -119h-491zM358 819h314q126 0 198 68.5t72 177.5q0 104 -73 176t-197 72h-314v-494zM358 141h353q159 0 243 74t84 197q0 122 -83 197t-242 75
h-355v-543z" />
    <glyph glyph-name="C" unicode="C" horiz-adv-x="1548" 
d="M850 -25q-207 0 -379.5 99t-272.5 271.5t-100 381.5t100 381.5t272.5 271.5t379.5 99q198 0 365 -91t268 -249l-129 -82q-80 126 -212 200t-292 74q-166 0 -302.5 -79.5t-214 -218t-77.5 -306.5t77.5 -306.5t214 -218t302.5 -79.5q160 0 292 74t212 200l129 -82
q-101 -158 -268 -249t-365 -91z" />
    <glyph glyph-name="D" unicode="D" horiz-adv-x="1480" 
d="M203 0v1454h397q169 0 314.5 -55t248 -151t161 -231t58.5 -290t-58.5 -290t-161 -231t-248 -151t-314.5 -55h-397zM358 147h242q280 0 452.5 163t172.5 417t-172.5 417t-452.5 163h-242v-1160z" />
    <glyph glyph-name="E" unicode="E" horiz-adv-x="1134" 
d="M203 0v1454h829v-147h-674v-486h551v-147h-551v-527h674v-147h-829z" />
    <glyph glyph-name="F" unicode="F" horiz-adv-x="1081" 
d="M203 0v1454h833v-147h-678v-486h537v-147h-537v-674h-155z" />
    <glyph glyph-name="G" unicode="G" horiz-adv-x="1566" 
d="M881 -25q-170 0 -316.5 58t-248.5 158.5t-160 239.5t-58 296q0 156 58.5 295.5t159.5 239.5t241.5 158.5t298.5 58.5q328 0 533 -193l-101 -115q-177 160 -432 160q-127 0 -239 -47t-191 -127.5t-124.5 -192t-45.5 -237.5q0 -127 45 -238t125 -192t198 -127.5t257 -46.5
q118 0 228 29.5t183 89.5v430h-442v147h596v-641q-98 -99 -249 -151t-316 -52z" />
    <glyph glyph-name="H" unicode="H" horiz-adv-x="1566" 
d="M203 0v1454h155v-633h850v633h156v-1454h-156v674h-850v-674h-155z" />
    <glyph glyph-name="I" unicode="I" horiz-adv-x="561" 
d="M203 0v1454h155v-1454h-155z" />
    <glyph glyph-name="J" unicode="J" horiz-adv-x="960" 
d="M385 -25q-118 0 -213 46t-156 120l111 107q52 -61 111.5 -94t146.5 -33q112 0 171.5 65.5t59.5 214.5v1053h156v-1057q0 -209 -105 -315.5t-282 -106.5z" />
    <glyph glyph-name="K" unicode="K" horiz-adv-x="1359" 
d="M203 0v1454h153v-637l670 637h211l-723 -690l891 -764h-231l-818 702v-702h-153z" />
    <glyph glyph-name="L" unicode="L" horiz-adv-x="1120" 
d="M203 0v1454h155v-1307h727v-147h-882z" />
    <glyph glyph-name="M" unicode="M" horiz-adv-x="1814" 
d="M203 0v1454h143l561 -879l561 879h144v-1454h-156v1147l-489 -766h-117l-492 770v-1151h-155z" />
    <glyph glyph-name="N" unicode="N" horiz-adv-x="1626" 
d="M1423 0h-137l-928 1190v-1190h-155v1454h137l928 -1190v1190h155v-1454z" />
    <glyph glyph-name="O" unicode="O" horiz-adv-x="1699" 
d="M850 -25q-207 0 -379.5 99t-272.5 271.5t-100 381.5t100 381.5t272.5 271.5t379.5 99t379.5 -99t272.5 -271.5t100 -381.5t-100 -381.5t-272.5 -271.5t-379.5 -99zM850 123q166 0 302.5 79.5t214 218t77.5 306.5t-77.5 306.5t-214 218t-302.5 79.5t-302.5 -79.5
t-214 -218t-77.5 -306.5t77.5 -306.5t214 -218t302.5 -79.5z" />
    <glyph glyph-name="P" unicode="P" horiz-adv-x="1196" 
d="M1130 999q0 -196 -135.5 -324t-359.5 -128h-277v-547h-155v1454h432q149 0 262.5 -60t173 -163t59.5 -232zM973 999q0 137 -88.5 223.5t-249.5 86.5h-277v-617h277q161 0 249.5 86t88.5 221z" />
    <glyph glyph-name="Q" unicode="Q" horiz-adv-x="1714" 
d="M850 -25q-207 0 -379.5 99t-272.5 271.5t-100 381.5t100 381.5t272.5 271.5t379.5 99t379.5 -99t272.5 -271.5t100 -381.5q0 -286 -185 -500l144 -137l-101 -106l-149 145q-204 -154 -461 -154zM850 123q199 0 350 110l-235 228l100 106l242 -233q137 166 137 393
q0 168 -77.5 306.5t-214 218t-302.5 79.5t-302.5 -79.5t-214 -218t-77.5 -306.5t77.5 -306.5t214 -218t302.5 -79.5z" />
    <glyph glyph-name="R" unicode="R" horiz-adv-x="1286" 
d="M203 0v1454h475q199 0 314.5 -106t115.5 -285q0 -166 -101.5 -271t-277.5 -118l574 -674h-203l-576 676h-166v-676h-155zM358 819h301q140 0 215.5 62t75.5 182t-76 183t-215 63h-301v-490z" />
    <glyph glyph-name="S" unicode="S" horiz-adv-x="1124" 
d="M582 -25q-176 0 -313.5 75t-188.5 188l129 92q132 -207 375 -207q125 0 209 65t84 174q0 184 -211 265l-215 82q-171 65 -246.5 157t-75.5 240q0 168 126 270.5t318 102.5q132 0 241 -55.5t171 -143.5l-121 -98q-61 73 -132 111t-165 38q-120 0 -201 -62.5t-81 -160.5
q0 -96 50.5 -150.5t166.5 -99.5l192 -74q170 -66 254 -164t84 -253q0 -180 -125 -286t-325 -106z" />
    <glyph glyph-name="T" unicode="T" horiz-adv-x="1161" 
d="M504 0v1307h-471v147h1095v-147h-471v-1307h-153z" />
    <glyph glyph-name="U" unicode="U" horiz-adv-x="1490" 
d="M745 -25q-251 0 -406 159.5t-155 428.5v891h156v-895q0 -207 109.5 -321.5t295.5 -114.5t296 114.5t110 321.5v895h156v-891q0 -269 -155 -428.5t-407 -159.5z" />
    <glyph glyph-name="V" unicode="V" horiz-adv-x="1421" 
d="M647 0l-627 1454h175l516 -1200l516 1200h172l-625 -1454h-127z" />
    <glyph glyph-name="W" unicode="W" horiz-adv-x="2033" 
d="M494 0l-455 1454h164l364 -1167l381 1167h135l381 -1167l365 1167h166l-455 -1454h-135l-387 1188l-389 -1188h-135z" />
    <glyph glyph-name="X" unicode="X" horiz-adv-x="1355" 
d="M1145 0l-467 606l-467 -606h-197l566 735l-545 719h190l453 -592l452 592h191l-545 -719l565 -735h-196z" />
    <glyph glyph-name="Y" unicode="Y" horiz-adv-x="1370" 
d="M608 0v616l-573 838h188l463 -678l463 678h188l-575 -840v-614h-154z" />
    <glyph glyph-name="Z" unicode="Z" horiz-adv-x="1183" 
d="M68 0v102l817 1205h-793v147h1000v-102l-818 -1205h840v-147h-1046z" />
    <glyph glyph-name="bracketleft" unicode="[" horiz-adv-x="610" 
d="M199 -328v1966h360v-129h-225v-1708h225v-129h-360z" />
    <glyph glyph-name="backslash" unicode="\" horiz-adv-x="1017" 
d="M973 -225h-137l-791 1679h137z" />
    <glyph glyph-name="bracketright" unicode="]" horiz-adv-x="610" 
d="M412 -328h-361v129h225v1708h-225v129h361v-1966z" />
    <glyph glyph-name="asciicircum" unicode="^" horiz-adv-x="872" 
d="M113 1024l270 430h106l271 -430h-144l-180 287l-180 -287h-143z" />
    <glyph glyph-name="underscore" unicode="_" horiz-adv-x="1099" 
d="M119 -129v129h862v-129h-862z" />
    <glyph glyph-name="grave" unicode="`" 
d="M186 1184h-127l-247 311h190z" />
    <glyph glyph-name="a" unicode="a" horiz-adv-x="1286" 
d="M610 -20q-149 0 -268.5 72t-184.5 193t-65 267t65 267t184.5 193t268.5 72q224 0 357 -145v125h143v-1024h-143v125q-133 -145 -357 -145zM616 113q119 0 210 51.5t141 134.5v426q-50 83 -141 134.5t-210 51.5q-165 0 -270.5 -115t-105.5 -284t105.5 -284t270.5 -115z
" />
    <glyph glyph-name="b" unicode="b" horiz-adv-x="1284" 
d="M676 -20q-224 0 -357 145v-125h-143v1495h143v-596q133 145 357 145q149 0 268.5 -72t184.5 -193t65 -267t-65 -267t-184.5 -193t-268.5 -72zM670 113q165 0 271 115.5t106 283.5t-106 283.5t-271 115.5q-119 0 -210 -51.5t-141 -134.5v-426q50 -83 141 -134.5t210 -51.5
z" />
    <glyph glyph-name="c" unicode="c" horiz-adv-x="1161" 
d="M625 -20q-114 0 -214.5 42t-170 114t-110 169.5t-40.5 206.5t40.5 206.5t110 169.5t170 114t214.5 42q155 0 277.5 -72.5t191.5 -195.5l-125 -71q-47 95 -137 150.5t-207 55.5q-171 0 -279 -115.5t-108 -283.5t108 -283.5t279 -115.5q117 0 207 55.5t137 150.5l125 -71
q-69 -123 -191.5 -195.5t-277.5 -72.5z" />
    <glyph glyph-name="d" unicode="d" horiz-adv-x="1286" 
d="M610 -20q-149 0 -268.5 72t-184.5 193t-65 267t65 267t184.5 193t268.5 72q224 0 357 -145v596h143v-1495h-143v125q-133 -145 -357 -145zM616 113q119 0 210 51.5t141 134.5v426q-50 83 -141 134.5t-210 51.5q-165 0 -270.5 -115t-105.5 -284t105.5 -284t270.5 -115z
" />
    <glyph glyph-name="e" unicode="e" horiz-adv-x="1191" 
d="M618 -20q-157 0 -278 71.5t-184.5 192t-63.5 268.5q0 147 67 268.5t189.5 192.5t274.5 71q100 0 187 -35.5t152.5 -100t103 -163.5t38.5 -219v-39h-864q2 -160 107.5 -267t270.5 -107q121 0 202 48.5t136 143.5l117 -76q-69 -119 -184 -184t-271 -65zM616 911
q-132 0 -235 -80.5t-129 -216.5h702q-18 136 -112.5 216.5t-225.5 80.5z" />
    <glyph glyph-name="f" unicode="f" horiz-adv-x="788" 
d="M272 0v889h-239v135h239v172q0 144 85.5 227.5t224.5 83.5q114 0 198 -49l-55 -121q-77 37 -143 37q-79 0 -122.5 -51.5t-43.5 -138.5v-160h350v-135h-350v-889h-144z" />
    <glyph glyph-name="g" unicode="g" horiz-adv-x="1286" 
d="M606 -418q-158 0 -280.5 57t-184.5 146l113 96q128 -166 352 -166q68 0 130.5 21.5t115 63t84 112t31.5 160.5v82q-134 -146 -357 -146q-148 0 -267.5 69.5t-185.5 188t-65 260.5q1 143 67 261t185 187.5t266 69.5q224 0 357 -145v125h143v-961q0 -152 -67.5 -262.5
t-180 -164.5t-256.5 -54zM616 141q119 0 210 52t141 135v397q-50 83 -141 134.5t-210 51.5q-163 0 -270.5 -111t-105.5 -274t108 -274t268 -111z" />
    <glyph glyph-name="h" unicode="h" horiz-adv-x="1200" 
d="M176 0v1495h143v-614q53 82 142 122.5t194 40.5q170 0 277.5 -109t107.5 -294v-641h-143v621q0 138 -73.5 214t-200.5 76q-116 0 -194 -62.5t-110 -166.5v-682h-143z" />
    <glyph glyph-name="i" unicode="i" horiz-adv-x="495" 
d="M250 1290q-46 0 -78.5 32.5t-32.5 76.5t32.5 76t78.5 32q44 0 75 -32t31 -76q0 -45 -31 -77t-75 -32zM176 0v1024h143v-1024h-143z" />
    <glyph glyph-name="j" unicode="j" horiz-adv-x="512" 
d="M266 1290q-46 0 -78 32t-32 77q0 44 32 76t78 32q44 0 75.5 -32t31.5 -76t-31.5 -76.5t-75.5 -32.5zM68 -408q-34 0 -74.5 7.5t-56.5 15.5l30 125q56 -14 92 -14q59 0 96.5 41.5t37.5 132.5v1124h143v-1137q0 -144 -76 -219.5t-192 -75.5z" />
    <glyph glyph-name="k" unicode="k" horiz-adv-x="1093" 
d="M176 0v1495h143v-874l482 403h203l-537 -451l653 -573h-205l-596 522v-522h-143z" />
    <glyph glyph-name="l" unicode="l" horiz-adv-x="495" 
d="M176 0v1495h143v-1495h-143z" />
    <glyph glyph-name="m" unicode="m" horiz-adv-x="1806" 
d="M1503 0v618q0 137 -68 215t-182 78q-103 0 -174 -61t-100 -164q4 -28 4 -45v-641h-143v618q0 137 -68 215t-182 78q-97 0 -168 -54t-103 -146v-711h-143v1024h143v-119q53 71 134 105t172 34q97 0 177.5 -47t125.5 -133q60 93 153 136.5t193 43.5q171 0 272 -108.5
t101 -294.5v-641h-144z" />
    <glyph glyph-name="n" unicode="n" horiz-adv-x="1200" 
d="M176 0v1024h143v-143q53 82 142 122.5t194 40.5q170 0 277.5 -109t107.5 -294v-641h-143v621q0 138 -73.5 214t-200.5 76q-116 0 -194 -62.5t-110 -166.5v-682h-143z" />
    <glyph glyph-name="o" unicode="o" horiz-adv-x="1249" 
d="M625 -20q-114 0 -214.5 42t-170 114t-110 169.5t-40.5 206.5t40.5 206.5t110 169.5t170 114t214.5 42q152 0 275 -71.5t191 -193t68 -267.5t-68 -267.5t-191 -193t-275 -71.5zM625 113q171 0 279 115.5t108 283.5t-108 283.5t-279 115.5t-279 -115.5t-108 -283.5
t108 -283.5t279 -115.5z" />
    <glyph glyph-name="p" unicode="p" horiz-adv-x="1284" 
d="M176 -397v1421h143v-125q133 145 357 145q149 0 268.5 -72t184.5 -193t65 -267t-65 -267t-184.5 -193t-268.5 -72q-224 0 -357 145v-522h-143zM670 113q165 0 271 115.5t106 283.5t-106 283.5t-271 115.5q-119 0 -210 -51.5t-141 -134.5v-426q50 -83 141 -134.5
t210 -51.5z" />
    <glyph glyph-name="q" unicode="q" horiz-adv-x="1286" 
d="M967 -397v522q-133 -145 -357 -145q-149 0 -268.5 72t-184.5 193t-65 267t65 267t184.5 193t268.5 72q224 0 357 -145v125h143v-1421h-143zM616 113q119 0 210 51.5t141 134.5v426q-50 83 -141 134.5t-210 51.5q-165 0 -270.5 -115t-105.5 -284t105.5 -284t270.5 -115z
" />
    <glyph glyph-name="r" unicode="r" horiz-adv-x="718" 
d="M176 0v1024h143v-160q34 68 115 119t172 51q45 0 84 -8l-18 -147q-40 12 -88 12q-87 0 -162.5 -60.5t-102.5 -162.5v-668h-143z" />
    <glyph glyph-name="s" unicode="s" horiz-adv-x="915" 
d="M475 -20q-143 0 -251 64.5t-146 186.5l129 54q25 -82 101.5 -129t168.5 -47q86 0 142.5 42t56.5 115q0 62 -44.5 104.5t-148.5 75.5l-110 35q-121 38 -183.5 112t-62.5 179q0 125 97.5 198.5t244.5 73.5q112 0 198.5 -47t133.5 -133l-115 -71q-81 125 -225 125
q-75 0 -133 -39.5t-58 -100.5q0 -57 36.5 -97.5t123.5 -68.5l117 -37q134 -42 203 -114t69 -182q0 -142 -95 -220.5t-249 -78.5z" />
    <glyph glyph-name="t" unicode="t" horiz-adv-x="817" 
d="M584 -10q-126 0 -211.5 76t-85.5 219v604h-260v135h260v285h143v-285h320v-135h-320v-592q0 -92 46.5 -135t119.5 -43q80 0 152 39l43 -123q-97 -45 -207 -45z" />
    <glyph glyph-name="u" unicode="u" horiz-adv-x="1179" 
d="M1004 1024v-1024h-144v143q-53 -81 -140 -122t-185 -41q-163 0 -269 109.5t-106 293.5v641h143v-621q0 -137 71.5 -213.5t192.5 -76.5q109 0 185 62.5t108 166.5v682h144z" />
    <glyph glyph-name="v" unicode="v" horiz-adv-x="1103" 
d="M496 0l-480 1024h160l375 -813l375 813h161l-479 -1024h-112z" />
    <glyph glyph-name="w" unicode="w" horiz-adv-x="1538" 
d="M1040 0l-270 780l-272 -780h-119l-350 1024h147l266 -778l271 778h110l271 -778l266 778h149l-350 -1024h-119z" />
    <glyph glyph-name="x" unicode="x" horiz-adv-x="1060" 
d="M14 0l426 524l-383 500h174l299 -387l297 387h177l-386 -500l426 -524h-180l-334 412l-333 -412h-183z" />
    <glyph glyph-name="y" unicode="y" horiz-adv-x="1105" 
d="M426 -397h-162l211 448l-455 973h160l375 -813l375 813h162z" />
    <glyph glyph-name="z" unicode="z" horiz-adv-x="980" 
d="M82 0v115l618 776h-610v133h795v-117l-617 -774h635v-133h-821z" />
    <glyph glyph-name="braceleft" unicode="{" horiz-adv-x="630" 
d="M471 -328q-143 0 -197.5 70t-54.5 223v471q0 83 -23.5 118.5t-97.5 35.5h-35v129h35q74 0 97.5 35t23.5 118v474q0 152 54 222t196 70h111v-129h-99q-78 0 -102.5 -35t-24.5 -122v-465q0 -101 -22 -151.5t-84 -80.5q63 -33 84.5 -83t21.5 -150v-463q0 -89 24.5 -123.5
t102.5 -34.5h99v-129h-109z" />
    <glyph glyph-name="bar" unicode="|" horiz-adv-x="534" 
d="M199 -225v1679h137v-1679h-137z" />
    <glyph glyph-name="braceright" unicode="}" horiz-adv-x="630" 
d="M160 -328h-109v129h99q78 0 102 34.5t24 123.5v463q0 100 22 150t85 83q-63 30 -85 81t-22 151v465q0 88 -24 122.5t-102 34.5h-99v129h111q142 0 196 -70t54 -222v-474q0 -83 23 -118t97 -35h35v-129h-35q-73 0 -96.5 -35.5t-23.5 -118.5v-471q0 -153 -54.5 -223
t-197.5 -70z" />
    <glyph glyph-name="asciitilde" unicode="~" horiz-adv-x="884" 
d="M147 471l113 244h94l197 -123l55 123h135l-112 -244h-94l-197 123l-55 -123h-136z" />
    <glyph glyph-name="uni00A0" unicode="&#xa0;" horiz-adv-x="501" 
 />
    <glyph glyph-name="exclamdown" unicode="&#xa1;" horiz-adv-x="503" 
d="M350 799h-225v225h225v-225zM297 592l27 -393v-596h-144v596l27 393h90z" />
    <glyph glyph-name="cent" unicode="&#xa2;" horiz-adv-x="1171" 
d="M567 -180v162q-209 22 -342 172.5t-133 357.5t133 357.5t342 172.5v162h111v-162q137 -12 246 -83t172 -183l-125 -71q-42 84 -118 138t-175 66v-794q99 12 175 66t118 138l125 -71q-63 -112 -172 -183t-246 -83v-162h-111zM240 512q0 -153 89 -263.5t238 -131.5v790
q-149 -21 -238 -131.5t-89 -263.5z" />
    <glyph glyph-name="sterling" unicode="&#xa3;" horiz-adv-x="1130" 
d="M109 0v139h100q119 98 119 262q0 82 -66 291h-153v111h122q-45 162 -45 260q0 178 120 297t319 119q155 0 267 -93.5t152 -238.5l-122 -53q-22 54 -46 93t-59 76t-84.5 56.5t-111.5 19.5q-132 0 -211.5 -77t-79.5 -199q0 -105 51 -260h401v-111h-366q53 -168 53 -280
q0 -174 -84 -273h655v-139h-931z" />
    <glyph glyph-name="yen" unicode="&#xa5;" horiz-adv-x="1347" 
d="M182 352v111h420v151h-420v111h350l-469 729h173l438 -696l436 696h174l-467 -729h348v-111h-420v-151h420v-111h-420v-352h-143v352h-420z" />
    <glyph glyph-name="brokenbar" unicode="&#xa6;" horiz-adv-x="534" 
d="M199 702v752h137v-752h-137zM199 -225v751h137v-751h-137z" />
    <glyph glyph-name="section" unicode="&#xa7;" horiz-adv-x="940" 
d="M492 -449q-84 0 -154.5 25.5t-123.5 87.5t-64 154h139q18 -73 74 -107.5t129 -34.5q85 0 140 51.5t52 137.5q-5 169 -209 260l-133 59q-112 49 -171.5 135.5t-59.5 200.5q0 112 57 199.5t176 136.5q-107 56 -165 132.5t-58 199.5q0 128 85 209.5t226 81.5q83 0 149 -25.5
t114 -87t59 -154.5h-140q-34 142 -182 142q-81 0 -126.5 -47t-45.5 -121q0 -41 13.5 -75.5t32.5 -58t50.5 -45.5t54.5 -33.5t58 -27.5l133 -59q113 -50 172.5 -136t59.5 -200q0 -112 -58.5 -199.5t-177.5 -136.5q104 -58 163 -142t62 -210q3 -139 -91.5 -225.5t-239.5 -86.5
zM420 299l20 -8q126 41 190 99t64 161q0 145 -170 221l-20 8q-126 -41 -190 -99t-64 -161q0 -145 170 -221z" />
    <glyph glyph-name="dieresis" unicode="&#xa8;" 
d="M-225 1233q-46 0 -78.5 32t-32.5 76t32.5 76.5t78.5 32.5q44 0 75 -32t31 -77q0 -44 -31 -76t-75 -32zM229 1233q-46 0 -78 32t-32 76q0 45 32.5 77t77.5 32q44 0 75.5 -32.5t31.5 -76.5t-31.5 -76t-75.5 -32z" />
    <glyph glyph-name="copyright" unicode="&#xa9;" horiz-adv-x="1697" 
d="M848 -25q-203 0 -376 101t-274.5 274.5t-101.5 376.5t101.5 376.5t274.5 274.5t376 101q204 0 377.5 -101t275 -274.5t101.5 -376.5t-101.5 -376.5t-275 -274.5t-377.5 -101zM848 113q166 0 308 82.5t225 224t83 307.5t-83 307.5t-225 224t-308 82.5q-165 0 -307 -82.5
t-225 -224t-83 -307.5t83 -307.5t225 -224t307 -82.5zM854 334q-164 0 -279.5 114.5t-115.5 278.5t115.5 279.5t279.5 115.5q113 0 204.5 -53t141.5 -143l-117 -68q-36 63 -95 98t-134 35q-108 0 -183 -77.5t-75 -186.5q0 -108 75 -185t183 -77q75 0 134 35t95 96l117 -66
q-50 -90 -141.5 -143t-204.5 -53z" />
    <glyph glyph-name="ordfeminine" unicode="&#xaa;" horiz-adv-x="864" 
d="M401 827q-134 0 -220.5 93.5t-86.5 226.5t86.5 226t220.5 93q119 0 189 -73v61h125v-614h-125v61q-71 -74 -189 -74zM416 942q112 0 174 90v230q-62 90 -174 90q-85 0 -139 -59.5t-54 -145.5t54 -145.5t139 -59.5z" />
    <glyph glyph-name="guillemotleft" unicode="&#xab;" horiz-adv-x="952" 
d="M596 512l244 -414l-101 -65l-311 479l311 479l101 -65zM260 512l244 -414l-101 -65l-311 479l311 479l101 -65z" />
    <glyph glyph-name="uni00AD" unicode="&#xad;" horiz-adv-x="780" 
d="M139 500v147h502v-147h-502z" />
    <glyph glyph-name="registered" unicode="&#xae;" horiz-adv-x="1697" 
d="M848 -25q-203 0 -376 101t-274.5 274.5t-101.5 376.5t101.5 376.5t274.5 274.5t376 101q204 0 377.5 -101t275 -274.5t101.5 -376.5t-101.5 -376.5t-275 -274.5t-377.5 -101zM848 113q166 0 308 82.5t225 224t83 307.5t-83 307.5t-225 224t-308 82.5q-165 0 -307 -82.5
t-225 -224t-83 -307.5t83 -307.5t225 -224t307 -82.5zM608 346v764h281q106 0 169.5 -62t63.5 -159q0 -77 -44 -129t-124 -72l281 -342h-166l-272 330h-52v-330h-137zM745 795h129q52 0 82.5 25t30.5 69q0 45 -30.5 69.5t-82.5 24.5h-129v-188z" />
    <glyph glyph-name="macron" unicode="&#xaf;" 
d="M-324 1329v125h648v-125h-648z" />
    <glyph glyph-name="degree" unicode="&#xb0;" horiz-adv-x="692" 
d="M346 963q-103 0 -176.5 73t-73.5 176t73.5 176.5t176.5 73.5t176.5 -73.5t73.5 -176.5t-73.5 -176t-176.5 -73zM346 1071q58 0 99.5 41.5t41.5 99.5q0 59 -41.5 100.5t-99.5 41.5t-99.5 -41.5t-41.5 -100.5q0 -58 41.5 -99.5t99.5 -41.5z" />
    <glyph glyph-name="twosuperior" unicode="&#xb2;" horiz-adv-x="716" 
d="M63 840v106l343 332q104 100 104 188q0 64 -43 107t-109 43q-62 0 -108 -41t-57 -105l-123 27q19 108 99.5 175t192.5 67q119 0 197 -73t78 -193q0 -81 -38.5 -148.5t-113.5 -138.5l-231 -225h393v-121h-584z" />
    <glyph glyph-name="threesuperior" unicode="&#xb3;" horiz-adv-x="727" 
d="M358 825q-107 0 -198 61t-115 158l123 46q18 -63 69 -102.5t123 -39.5q75 0 126 46t51 116q0 75 -51 119.5t-132 44.5h-106v102l207 226h-357v122h523v-102l-218 -233q119 -9 190 -87.5t71 -191.5q0 -125 -85.5 -205t-220.5 -80z" />
    <glyph glyph-name="acute" unicode="&#xb4;" 
d="M-188 1184l184 311h190l-247 -311h-127z" />
    <glyph glyph-name="paragraph" unicode="&#xb6;" horiz-adv-x="1253" 
d="M524 -377v909q-125 0 -231 62t-168 168t-62 231t62 231t168 168t231 62h506v-1831h-137v1696h-231v-1696h-138z" />
    <glyph glyph-name="periodcentered" unicode="&#xb7;" horiz-adv-x="499" 
d="M348 430h-225v225h225v-225z" />
    <glyph glyph-name="cedilla" unicode="&#xb8;" 
d="M-180 -287q67 -28 141 -28q49 0 85 18t36 53q0 28 -23.5 43t-60.5 15q-41 0 -96 -19l-60 47l99 164h106l-67 -108q36 12 73 12q67 0 110.5 -39.5t43.5 -106.5q0 -87 -67 -134.5t-177 -47.5q-101 0 -170 35z" />
    <glyph glyph-name="onesuperior" unicode="&#xb9;" horiz-adv-x="419" 
d="M168 840v768h-127v116h246v-884h-119z" />
    <glyph glyph-name="ordmasculine" unicode="&#xba;" horiz-adv-x="827" 
d="M414 827q-137 0 -229.5 93t-92.5 227t92.5 226.5t229.5 92.5q136 0 228.5 -92.5t92.5 -226.5t-92.5 -227t-228.5 -93zM414 944q85 0 139.5 58t54.5 145t-54.5 145t-139.5 58q-87 0 -141 -58t-54 -145t54 -145t141 -58z" />
    <glyph glyph-name="guillemotright" unicode="&#xbb;" horiz-adv-x="952" 
d="M692 512l-243 414l100 65l311 -479l-311 -479l-100 65zM356 512l-243 414l100 65l311 -479l-311 -479l-100 65z" />
    <glyph glyph-name="onequarter" unicode="&#xbc;" horiz-adv-x="1548" 
d="M166 569v768h-127v117h246v-885h-119zM39 0l1024 1454h141l-1024 -1454h-141zM1253 0v229h-460v101l475 555h110v-539h121v-117h-121v-229h-125zM1253 346v350l-301 -350h301z" />
    <glyph glyph-name="onehalf" unicode="&#xbd;" horiz-adv-x="1521" 
d="M166 569v768h-127v117h246v-885h-119zM39 0l1024 1454h141l-1024 -1454h-141zM868 0v106l342 332q105 101 105 189q0 63 -43 106t-109 43q-63 0 -109 -41t-57 -104l-123 26q19 108 100 175t193 67q119 0 197 -73t78 -193q0 -81 -38.5 -148.5t-113.5 -138.5l-231 -225h393
v-121h-584z" />
    <glyph glyph-name="threequarters" unicode="&#xbe;" horiz-adv-x="1839" 
d="M358 555q-107 0 -198 61t-115 158l123 45q18 -63 69 -102t123 -39q75 0 126 46t51 116q0 75 -51 119.5t-132 44.5h-106v102l207 225h-357v123h523v-102l-218 -234q119 -9 190 -87t71 -191q0 -125 -85.5 -205t-220.5 -80zM330 0l1024 1454h141l-1024 -1454h-141zM1544 0
v229h-461v101l476 555h110v-539h121v-117h-121v-229h-125zM1544 346v350l-301 -350h301z" />
    <glyph glyph-name="questiondown" unicode="&#xbf;" horiz-adv-x="1046" 
d="M653 799h-225v225h225v-225zM537 -418q-185 0 -311 124.5t-126 293.5q0 56 16.5 108.5t36.5 87.5t56.5 74t57 56.5t57.5 46.5q85 64 111 93q48 53 48 105v21h144v-41q0 -118 -191 -264q-69 -52 -105 -86.5t-61.5 -86t-25.5 -114.5q0 -115 86.5 -197t206.5 -82
q113 0 200.5 54t134.5 145l119 -67q-65 -123 -184.5 -197t-269.5 -74z" />
    <glyph glyph-name="Agrave" unicode="&#xc0;" horiz-adv-x="1454" 
d="M782 1573h-129l-229 280h194zM16 0l648 1454h124l650 -1454h-164l-201 453h-696l-201 -453h-160zM442 598h566l-283 637z" />
    <glyph glyph-name="Aacute" unicode="&#xc1;" horiz-adv-x="1454" 
d="M666 1573l163 280h195l-229 -280h-129zM16 0l648 1454h124l650 -1454h-164l-201 453h-696l-201 -453h-160zM442 598h566l-283 637z" />
    <glyph glyph-name="Acircumflex" unicode="&#xc2;" horiz-adv-x="1454" 
d="M377 1573l266 280h168l266 -280h-170l-182 188l-178 -188h-170zM16 0l648 1454h124l650 -1454h-164l-201 453h-696l-201 -453h-160zM442 598h566l-283 637z" />
    <glyph glyph-name="Atilde" unicode="&#xc3;" horiz-adv-x="1454" 
d="M381 1614l6 33q15 81 72 131.5t137 50.5q44 0 95 -22t95.5 -44t71.5 -22q68 0 88 88h125l-6 -33q-15 -81 -72 -131.5t-137 -50.5q-44 0 -95 22t-95.5 44t-71.5 22q-68 0 -88 -88h-125zM16 0l648 1454h124l650 -1454h-164l-201 453h-696l-201 -453h-160zM442 598h566
l-283 637z" />
    <glyph glyph-name="Adieresis" unicode="&#xc4;" horiz-adv-x="1454" 
d="M500 1616q-46 0 -78.5 32t-32.5 76t32.5 76.5t78.5 32.5q44 0 75 -32t31 -77q0 -44 -31 -76t-75 -32zM954 1616q-46 0 -78 32t-32 76t32 76.5t78 32.5q44 0 75.5 -32.5t31.5 -76.5t-31.5 -76t-75.5 -32zM16 0l648 1454h124l650 -1454h-164l-201 453h-696l-201 -453h-160z
M442 598h566l-283 637z" />
    <glyph glyph-name="Aring" unicode="&#xc5;" horiz-adv-x="1454" 
d="M725 1542q-101 0 -174.5 72.5t-73.5 173.5t73.5 173.5t174.5 72.5q102 0 176 -72.5t74 -173.5t-74 -173.5t-176 -72.5zM725 1638q63 0 107.5 43.5t44.5 106.5q0 62 -44.5 106.5t-107.5 44.5q-61 0 -105.5 -44.5t-44.5 -106.5q0 -63 44 -106.5t106 -43.5zM16 0l648 1454
h124l650 -1454h-164l-201 453h-696l-201 -453h-160zM442 598h566l-283 637z" />
    <glyph glyph-name="AE" unicode="&#xc6;" horiz-adv-x="1855" 
d="M-45 0l887 1454h911v-147h-674v-486h551v-147h-551v-527h674v-147h-829v453h-518l-275 -453h-176zM494 598h430v709h-2z" />
    <glyph glyph-name="Ccedilla" unicode="&#xc7;" horiz-adv-x="1548" 
d="M672 -287q67 -28 141 -28q49 0 85 18t36 53q0 28 -23.5 43t-60.5 15q-41 0 -96 -19l-60 47l82 138q-143 13 -268.5 76t-215.5 161t-142 230.5t-52 279.5q0 209 100 381.5t272.5 271.5t379.5 99q198 0 365 -91t268 -249l-129 -82q-80 126 -212 200t-292 74
q-166 0 -302.5 -79.5t-214 -218t-77.5 -306.5t77.5 -306.5t214 -218t302.5 -79.5q160 0 292 74t212 200l129 -82q-98 -152 -255.5 -242.5t-346.5 -97.5l-50 -77q36 12 74 12q67 0 110.5 -39.5t43.5 -106.5q0 -87 -67 -134.5t-177 -47.5q-101 0 -170 35z" />
    <glyph glyph-name="Egrave" unicode="&#xc8;" horiz-adv-x="1134" 
d="M674 1573h-129l-230 280h195zM203 0v1454h829v-147h-674v-486h551v-147h-551v-527h674v-147h-829z" />
    <glyph glyph-name="Eacute" unicode="&#xc9;" horiz-adv-x="1134" 
d="M557 1573l164 280h194l-229 -280h-129zM203 0v1454h829v-147h-674v-486h551v-147h-551v-527h674v-147h-829z" />
    <glyph glyph-name="Ecircumflex" unicode="&#xca;" horiz-adv-x="1134" 
d="M268 1573l267 280h167l267 -280h-170l-183 188l-178 -188h-170zM203 0v1454h829v-147h-674v-486h551v-147h-551v-527h674v-147h-829z" />
    <glyph glyph-name="Edieresis" unicode="&#xcb;" horiz-adv-x="1134" 
d="M391 1616q-46 0 -78 32t-32 76t32.5 76.5t77.5 32.5q44 0 75.5 -32.5t31.5 -76.5t-31.5 -76t-75.5 -32zM846 1616q-46 0 -78.5 32t-32.5 76t32.5 76.5t78.5 32.5q44 0 75 -32t31 -77q0 -44 -31 -76t-75 -32zM203 0v1454h829v-147h-674v-486h551v-147h-551v-527h674v-147
h-829z" />
    <glyph glyph-name="Igrave" unicode="&#xcc;" horiz-adv-x="561" 
d="M338 1573h-129l-229 280h194zM203 0v1454h155v-1454h-155z" />
    <glyph glyph-name="Iacute" unicode="&#xcd;" horiz-adv-x="561" 
d="M221 1573l164 280h195l-230 -280h-129zM203 0v1454h155v-1454h-155z" />
    <glyph glyph-name="Icircumflex" unicode="&#xce;" horiz-adv-x="561" 
d="M-68 1573l267 280h168l266 -280h-170l-182 188l-179 -188h-170zM203 0v1454h155v-1454h-155z" />
    <glyph glyph-name="Idieresis" unicode="&#xcf;" horiz-adv-x="561" 
d="M55 1616q-46 0 -78 32t-32 76t32.5 76.5t77.5 32.5q44 0 75.5 -32.5t31.5 -76.5t-31.5 -76t-75.5 -32zM510 1616q-46 0 -78.5 32t-32.5 76t32.5 76.5t78.5 32.5q44 0 75 -32t31 -77q0 -44 -31 -76t-75 -32zM203 0v1454h155v-1454h-155z" />
    <glyph glyph-name="Eth" unicode="&#xd0;" horiz-adv-x="1490" 
d="M213 0v668h-152v139h152v647h397q169 0 315 -55t248.5 -151t161 -231t58.5 -290t-58.5 -290t-161 -231t-248.5 -151t-315 -55h-397zM369 147h241q280 0 452.5 163t172.5 417t-172.5 417t-452.5 163h-241v-500h348v-139h-348v-521z" />
    <glyph glyph-name="Ntilde" unicode="&#xd1;" horiz-adv-x="1626" 
d="M459 1614l6 33q15 81 72 131.5t137 50.5q44 0 95 -22t95.5 -44t71.5 -22q68 0 88 88h125l-6 -33q-15 -81 -72 -131.5t-137 -50.5q-44 0 -95 22t-95.5 44t-71.5 22q-68 0 -88 -88h-125zM1423 0h-137l-928 1190v-1190h-155v1454h137l928 -1190v1190h155v-1454z" />
    <glyph glyph-name="Ograve" unicode="&#xd2;" horiz-adv-x="1699" 
d="M907 1573h-129l-229 280h194zM850 -25q-207 0 -379.5 99t-272.5 271.5t-100 381.5t100 381.5t272.5 271.5t379.5 99t379.5 -99t272.5 -271.5t100 -381.5t-100 -381.5t-272.5 -271.5t-379.5 -99zM850 123q166 0 302.5 79.5t214 218t77.5 306.5t-77.5 306.5t-214 218
t-302.5 79.5t-302.5 -79.5t-214 -218t-77.5 -306.5t77.5 -306.5t214 -218t302.5 -79.5z" />
    <glyph glyph-name="Oacute" unicode="&#xd3;" horiz-adv-x="1699" 
d="M791 1573l163 280h195l-229 -280h-129zM850 -25q-207 0 -379.5 99t-272.5 271.5t-100 381.5t100 381.5t272.5 271.5t379.5 99t379.5 -99t272.5 -271.5t100 -381.5t-100 -381.5t-272.5 -271.5t-379.5 -99zM850 123q166 0 302.5 79.5t214 218t77.5 306.5t-77.5 306.5
t-214 218t-302.5 79.5t-302.5 -79.5t-214 -218t-77.5 -306.5t77.5 -306.5t214 -218t302.5 -79.5z" />
    <glyph glyph-name="Ocircumflex" unicode="&#xd4;" horiz-adv-x="1699" 
d="M502 1573l266 280h168l266 -280h-170l-182 188l-178 -188h-170zM850 -25q-207 0 -379.5 99t-272.5 271.5t-100 381.5t100 381.5t272.5 271.5t379.5 99t379.5 -99t272.5 -271.5t100 -381.5t-100 -381.5t-272.5 -271.5t-379.5 -99zM850 123q166 0 302.5 79.5t214 218
t77.5 306.5t-77.5 306.5t-214 218t-302.5 79.5t-302.5 -79.5t-214 -218t-77.5 -306.5t77.5 -306.5t214 -218t302.5 -79.5z" />
    <glyph glyph-name="Otilde" unicode="&#xd5;" horiz-adv-x="1699" 
d="M506 1614l6 33q15 81 72 131.5t137 50.5q55 0 144 -44t118 -44q68 0 88 88h125l-6 -33q-15 -81 -72 -131.5t-137 -50.5q-55 0 -144 44t-118 44q-68 0 -88 -88h-125zM850 -25q-207 0 -379.5 99t-272.5 271.5t-100 381.5t100 381.5t272.5 271.5t379.5 99t379.5 -99
t272.5 -271.5t100 -381.5t-100 -381.5t-272.5 -271.5t-379.5 -99zM850 123q166 0 302.5 79.5t214 218t77.5 306.5t-77.5 306.5t-214 218t-302.5 79.5t-302.5 -79.5t-214 -218t-77.5 -306.5t77.5 -306.5t214 -218t302.5 -79.5z" />
    <glyph glyph-name="Odieresis" unicode="&#xd6;" horiz-adv-x="1699" 
d="M625 1616q-46 0 -78.5 32t-32.5 76t32.5 76.5t78.5 32.5q44 0 75 -32t31 -77q0 -44 -31 -76t-75 -32zM1079 1616q-46 0 -78 32t-32 76t32.5 76.5t77.5 32.5q44 0 75.5 -32.5t31.5 -76.5t-31.5 -76t-75.5 -32zM850 -25q-207 0 -379.5 99t-272.5 271.5t-100 381.5
t100 381.5t272.5 271.5t379.5 99t379.5 -99t272.5 -271.5t100 -381.5t-100 -381.5t-272.5 -271.5t-379.5 -99zM850 123q166 0 302.5 79.5t214 218t77.5 306.5t-77.5 306.5t-214 218t-302.5 79.5t-302.5 -79.5t-214 -218t-77.5 -306.5t77.5 -306.5t214 -218t302.5 -79.5z" />
    <glyph glyph-name="multiply" unicode="&#xd7;" horiz-adv-x="1028" 
d="M213 203l-96 94l301 297l-301 297l96 94l301 -295l301 295l96 -94l-301 -297l301 -297l-96 -94l-301 295z" />
    <glyph glyph-name="Oslash" unicode="&#xd8;" horiz-adv-x="1699" 
d="M850 -25q-247 0 -444 142l-136 -158l-96 86l135 156q-100 101 -155.5 237t-55.5 289q0 209 100 381.5t272.5 271.5t379.5 99q250 0 444 -142l138 158l96 -84l-137 -158q100 -101 155.5 -237t55.5 -289q0 -209 -100 -381.5t-272.5 -271.5t-379.5 -99zM256 727
q0 -118 40.5 -224.5t113.5 -187.5l786 908q-148 108 -346 108q-166 0 -302.5 -79.5t-214 -218t-77.5 -306.5zM850 123q166 0 302.5 79.5t214 218t77.5 306.5q0 237 -154 412l-784 -910q150 -106 344 -106z" />
    <glyph glyph-name="Ugrave" unicode="&#xd9;" horiz-adv-x="1490" 
d="M803 1573h-129l-230 280h195zM745 -25q-251 0 -406 159.5t-155 428.5v891h156v-895q0 -207 109.5 -321.5t295.5 -114.5t296 114.5t110 321.5v895h156v-891q0 -269 -155 -428.5t-407 -159.5z" />
    <glyph glyph-name="Uacute" unicode="&#xda;" horiz-adv-x="1490" 
d="M686 1573l164 280h194l-229 -280h-129zM745 -25q-251 0 -406 159.5t-155 428.5v891h156v-895q0 -207 109.5 -321.5t295.5 -114.5t296 114.5t110 321.5v895h156v-891q0 -269 -155 -428.5t-407 -159.5z" />
    <glyph glyph-name="Ucircumflex" unicode="&#xdb;" horiz-adv-x="1490" 
d="M397 1573l267 280h167l267 -280h-170l-183 188l-178 -188h-170zM745 -25q-251 0 -406 159.5t-155 428.5v891h156v-895q0 -207 109.5 -321.5t295.5 -114.5t296 114.5t110 321.5v895h156v-891q0 -269 -155 -428.5t-407 -159.5z" />
    <glyph glyph-name="Udieresis" unicode="&#xdc;" horiz-adv-x="1490" 
d="M520 1616q-46 0 -78 32t-32 76t32 76.5t78 32.5q44 0 75.5 -32.5t31.5 -76.5t-31.5 -76t-75.5 -32zM975 1616q-46 0 -78.5 32t-32.5 76t32.5 76.5t78.5 32.5q44 0 75 -32t31 -77q0 -44 -31 -76t-75 -32zM745 -25q-251 0 -406 159.5t-155 428.5v891h156v-895
q0 -207 109.5 -321.5t295.5 -114.5t296 114.5t110 321.5v895h156v-891q0 -269 -155 -428.5t-407 -159.5z" />
    <glyph glyph-name="Yacute" unicode="&#xdd;" horiz-adv-x="1370" 
d="M625 1573l163 280h195l-229 -280h-129zM608 0v616l-573 838h188l463 -678l463 678h188l-575 -840v-614h-154z" />
    <glyph glyph-name="Thorn" unicode="&#xde;" horiz-adv-x="1216" 
d="M1130 727q0 -196 -135.5 -324.5t-359.5 -128.5h-277v-274h-155v1454h155v-272h277q149 0 262.5 -60t173 -163t59.5 -232zM973 727q0 137 -88.5 223t-249.5 86h-277v-616h277q161 0 249.5 86t88.5 221z" />
    <glyph glyph-name="germandbls" unicode="&#xdf;" horiz-adv-x="1165" 
d="M176 0v1092q0 183 116 299t288 116q166 0 286.5 -112.5t120.5 -270.5q0 -104 -51 -190.5t-139 -136.5q132 -48 206 -152t74 -225q0 -82 -32 -157.5t-90 -134t-147.5 -93.5t-197.5 -35h-112v137h106q144 0 236 79.5t92 207.5q0 126 -92.5 206.5t-235.5 80.5h-100v137h57
q121 0 201 75.5t80 184.5t-75 185.5t-185 76.5q-113 0 -188 -79.5t-75 -203.5v-1087h-143z" />
    <glyph glyph-name="agrave" unicode="&#xe0;" horiz-adv-x="1286" 
d="M743 1184h-127l-247 311h190zM610 -20q-149 0 -268.5 72t-184.5 193t-65 267t65 267t184.5 193t268.5 72q224 0 357 -145v125h143v-1024h-143v125q-133 -145 -357 -145zM616 113q119 0 210 51.5t141 134.5v426q-50 83 -141 134.5t-210 51.5q-165 0 -270.5 -115
t-105.5 -284t105.5 -284t270.5 -115z" />
    <glyph glyph-name="aacute" unicode="&#xe1;" horiz-adv-x="1286" 
d="M616 1184l185 311h190l-248 -311h-127zM610 -20q-149 0 -268.5 72t-184.5 193t-65 267t65 267t184.5 193t268.5 72q224 0 357 -145v125h143v-1024h-143v125q-133 -145 -357 -145zM616 113q119 0 210 51.5t141 134.5v426q-50 83 -141 134.5t-210 51.5q-165 0 -270.5 -115
t-105.5 -284t105.5 -284t270.5 -115z" />
    <glyph glyph-name="acircumflex" unicode="&#xe2;" horiz-adv-x="1286" 
d="M340 1184l260 311h160l260 -311h-164l-176 211l-176 -211h-164zM610 -20q-149 0 -268.5 72t-184.5 193t-65 267t65 267t184.5 193t268.5 72q224 0 357 -145v125h143v-1024h-143v125q-133 -145 -357 -145zM616 113q119 0 210 51.5t141 134.5v426q-50 83 -141 134.5
t-210 51.5q-165 0 -270.5 -115t-105.5 -284t105.5 -284t270.5 -115z" />
    <glyph glyph-name="atilde" unicode="&#xe3;" horiz-adv-x="1286" 
d="M334 1229l6 33q15 81 72 131.5t137 50.5q55 0 144 -44t118 -44q68 0 88 88h125l-6 -33q-15 -81 -72 -131.5t-137 -50.5q-55 0 -144 44t-118 44q-68 0 -88 -88h-125zM610 -20q-149 0 -268.5 72t-184.5 193t-65 267t65 267t184.5 193t268.5 72q224 0 357 -145v125h143
v-1024h-143v125q-133 -145 -357 -145zM616 113q119 0 210 51.5t141 134.5v426q-50 83 -141 134.5t-210 51.5q-165 0 -270.5 -115t-105.5 -284t105.5 -284t270.5 -115z" />
    <glyph glyph-name="adieresis" unicode="&#xe4;" horiz-adv-x="1286" 
d="M455 1233q-46 0 -78.5 32t-32.5 76t32.5 76.5t78.5 32.5q44 0 75 -32t31 -77q0 -44 -31 -76t-75 -32zM909 1233q-46 0 -78 32t-32 76q0 45 32.5 77t77.5 32q44 0 75.5 -32.5t31.5 -76.5t-31.5 -76t-75.5 -32zM610 -20q-149 0 -268.5 72t-184.5 193t-65 267t65 267
t184.5 193t268.5 72q224 0 357 -145v125h143v-1024h-143v125q-133 -145 -357 -145zM616 113q119 0 210 51.5t141 134.5v426q-50 83 -141 134.5t-210 51.5q-165 0 -270.5 -115t-105.5 -284t105.5 -284t270.5 -115z" />
    <glyph glyph-name="aring" unicode="&#xe5;" horiz-adv-x="1286" 
d="M682 1106q-103 0 -176.5 73.5t-73.5 176.5q0 101 73.5 174.5t176.5 73.5q101 0 174.5 -73.5t73.5 -174.5q0 -103 -73.5 -176.5t-174.5 -73.5zM682 1204q60 0 104.5 45.5t44.5 106.5t-44.5 105t-104.5 44q-62 0 -107 -44t-45 -105q0 -62 45 -107t107 -45zM610 -20
q-149 0 -268.5 72t-184.5 193t-65 267t65 267t184.5 193t268.5 72q224 0 357 -145v125h143v-1024h-143v125q-133 -145 -357 -145zM616 113q119 0 210 51.5t141 134.5v426q-50 83 -141 134.5t-210 51.5q-165 0 -270.5 -115t-105.5 -284t105.5 -284t270.5 -115z" />
    <glyph glyph-name="ae" unicode="&#xe6;" horiz-adv-x="1898" 
d="M475 -20q-176 0 -286.5 97t-110.5 247q0 146 120 242t298 96q95 0 165 -22t142 -62v51q0 143 -78.5 212.5t-198.5 69.5q-177 0 -309 -125l-82 113q65 63 172.5 104t218.5 41q132 0 228 -53.5t145 -159.5q70 100 182 156.5t248 56.5q100 0 187 -35.5t152.5 -100
t103 -163.5t38.5 -219v-39h-864q2 -160 108 -267t271 -107q121 0 202 48.5t136 143.5l117 -76q-69 -119 -184 -184t-271 -65q-135 0 -243 52t-177 144q-82 -99 -196 -147.5t-234 -48.5zM1323 911q-132 0 -235.5 -80.5t-129.5 -216.5h703q-18 136 -112.5 216.5t-225.5 80.5z
M477 113q240 0 326 155v160q-68 52 -138 79.5t-165 27.5q-117 0 -196 -52.5t-79 -158.5q0 -72 37 -121.5t92 -69.5t123 -20z" />
    <glyph glyph-name="ccedilla" unicode="&#xe7;" horiz-adv-x="1161" 
d="M446 -287q67 -28 142 -28q49 0 85 18t36 53q0 28 -23.5 43t-60.5 15q-42 0 -97 -19l-59 47l84 142q-203 25 -333 174.5t-130 353.5q0 109 40.5 206.5t110 169.5t170 114t214.5 42q155 0 277.5 -72.5t191.5 -195.5l-125 -71q-47 95 -137 150.5t-207 55.5
q-171 0 -279 -115.5t-108 -283.5t108 -283.5t279 -115.5q117 0 207 55.5t137 150.5l125 -71q-66 -117 -179 -188t-258 -80l-51 -82q36 12 74 12q67 0 110.5 -39.5t43.5 -106.5q0 -87 -67 -134.5t-177 -47.5q-101 0 -170 35z" />
    <glyph glyph-name="egrave" unicode="&#xe8;" horiz-adv-x="1191" 
d="M686 1184h-127l-248 311h191zM618 -20q-157 0 -278 71.5t-184.5 192t-63.5 268.5q0 147 67 268.5t189.5 192.5t274.5 71q100 0 187 -35.5t152.5 -100t103 -163.5t38.5 -219v-39h-864q2 -160 107.5 -267t270.5 -107q121 0 202 48.5t136 143.5l117 -76q-69 -119 -184 -184
t-271 -65zM616 911q-132 0 -235 -80.5t-129 -216.5h702q-18 136 -112.5 216.5t-225.5 80.5z" />
    <glyph glyph-name="eacute" unicode="&#xe9;" horiz-adv-x="1191" 
d="M559 1184l184 311h191l-248 -311h-127zM618 -20q-157 0 -278 71.5t-184.5 192t-63.5 268.5q0 147 67 268.5t189.5 192.5t274.5 71q100 0 187 -35.5t152.5 -100t103 -163.5t38.5 -219v-39h-864q2 -160 107.5 -267t270.5 -107q121 0 202 48.5t136 143.5l117 -76
q-69 -119 -184 -184t-271 -65zM616 911q-132 0 -235 -80.5t-129 -216.5h702q-18 136 -112.5 216.5t-225.5 80.5z" />
    <glyph glyph-name="ecircumflex" unicode="&#xea;" horiz-adv-x="1191" 
d="M283 1184l260 311h159l261 -311h-164l-176 211l-177 -211h-163zM618 -20q-157 0 -278 71.5t-184.5 192t-63.5 268.5q0 147 67 268.5t189.5 192.5t274.5 71q100 0 187 -35.5t152.5 -100t103 -163.5t38.5 -219v-39h-864q2 -160 107.5 -267t270.5 -107q121 0 202 48.5
t136 143.5l117 -76q-69 -119 -184 -184t-271 -65zM616 911q-132 0 -235 -80.5t-129 -216.5h702q-18 136 -112.5 216.5t-225.5 80.5z" />
    <glyph glyph-name="edieresis" unicode="&#xeb;" horiz-adv-x="1191" 
d="M397 1233q-46 0 -78 32t-32 76q0 45 32.5 77t77.5 32q44 0 75.5 -32.5t31.5 -76.5t-31.5 -76t-75.5 -32zM852 1233q-46 0 -78.5 32t-32.5 76t32.5 76.5t78.5 32.5q44 0 75 -32t31 -77q0 -44 -31 -76t-75 -32zM618 -20q-157 0 -278 71.5t-184.5 192t-63.5 268.5
q0 147 67 268.5t189.5 192.5t274.5 71q100 0 187 -35.5t152.5 -100t103 -163.5t38.5 -219v-39h-864q2 -160 107.5 -267t270.5 -107q121 0 202 48.5t136 143.5l117 -76q-69 -119 -184 -184t-271 -65zM616 911q-132 0 -235 -80.5t-129 -216.5h702q-18 136 -112.5 216.5
t-225.5 80.5z" />
    <glyph glyph-name="igrave" unicode="&#xec;" horiz-adv-x="495" 
d="M311 1184h-127l-247 311h190zM176 0v1024h143v-1024h-143z" />
    <glyph glyph-name="iacute" unicode="&#xed;" horiz-adv-x="495" 
d="M184 1184l185 311h190l-248 -311h-127zM176 0v1024h143v-1024h-143z" />
    <glyph glyph-name="icircumflex" unicode="&#xee;" horiz-adv-x="495" 
d="M-92 1184l260 311h160l260 -311h-164l-176 211l-176 -211h-164zM176 0v1024h143v-1024h-143z" />
    <glyph glyph-name="idieresis" unicode="&#xef;" horiz-adv-x="495" 
d="M45 1233q-47 0 -81 34t-34 81t33.5 79.5t81.5 32.5t81.5 -32.5t33.5 -79.5t-34 -81t-81 -34zM451 1233q-47 0 -81 34t-34 81t33.5 79.5t81.5 32.5q47 0 80.5 -32.5t33.5 -79.5t-33.5 -81t-80.5 -34zM176 0v1024h143v-1024h-143z" />
    <glyph glyph-name="eth" unicode="&#xf0;" horiz-adv-x="1249" 
d="M989 1184h-172l230 -338q112 -163 112 -334q0 -146 -68 -267.5t-191 -193t-275 -71.5q-114 0 -214.5 42t-170 114t-110 169.5t-40.5 206.5t40.5 206.5t110 169.5t170 114t214.5 42q69 0 139 -16l-107 156h-295v125h211l-127 186h158l127 -186h258v-125zM625 113
q171 0 279 115.5t108 283.5t-108 283.5t-279 115.5t-279 -115.5t-108 -283.5t108 -283.5t279 -115.5z" />
    <glyph glyph-name="ntilde" unicode="&#xf1;" horiz-adv-x="1200" 
d="M262 1229l6 33q15 81 72 131.5t137 50.5q55 0 144 -44t118 -44q68 0 88 88h125l-6 -33q-15 -81 -72 -131.5t-137 -50.5q-55 0 -144 44t-118 44q-68 0 -88 -88h-125zM176 0v1024h143v-143q53 82 142 122.5t194 40.5q170 0 277.5 -109t107.5 -294v-641h-143v621
q0 138 -73.5 214t-200.5 76q-116 0 -194 -62.5t-110 -166.5v-682h-143z" />
    <glyph glyph-name="ograve" unicode="&#xf2;" horiz-adv-x="1249" 
d="M688 1184h-127l-248 311h191zM625 -20q-114 0 -214.5 42t-170 114t-110 169.5t-40.5 206.5t40.5 206.5t110 169.5t170 114t214.5 42q152 0 275 -71.5t191 -193t68 -267.5t-68 -267.5t-191 -193t-275 -71.5zM625 113q171 0 279 115.5t108 283.5t-108 283.5t-279 115.5
t-279 -115.5t-108 -283.5t108 -283.5t279 -115.5z" />
    <glyph glyph-name="oacute" unicode="&#xf3;" horiz-adv-x="1249" 
d="M561 1184l184 311h191l-248 -311h-127zM625 -20q-114 0 -214.5 42t-170 114t-110 169.5t-40.5 206.5t40.5 206.5t110 169.5t170 114t214.5 42q152 0 275 -71.5t191 -193t68 -267.5t-68 -267.5t-191 -193t-275 -71.5zM625 113q171 0 279 115.5t108 283.5t-108 283.5
t-279 115.5t-279 -115.5t-108 -283.5t108 -283.5t279 -115.5z" />
    <glyph glyph-name="ocircumflex" unicode="&#xf4;" horiz-adv-x="1249" 
d="M285 1184l260 311h160l260 -311h-164l-176 211l-176 -211h-164zM625 -20q-114 0 -214.5 42t-170 114t-110 169.5t-40.5 206.5t40.5 206.5t110 169.5t170 114t214.5 42q152 0 275 -71.5t191 -193t68 -267.5t-68 -267.5t-191 -193t-275 -71.5zM625 113q171 0 279 115.5
t108 283.5t-108 283.5t-279 115.5t-279 -115.5t-108 -283.5t108 -283.5t279 -115.5z" />
    <glyph glyph-name="otilde" unicode="&#xf5;" horiz-adv-x="1249" 
d="M279 1229l6 33q15 81 72 131.5t137 50.5q44 0 95 -22t95.5 -44t71.5 -22q68 0 88 88h125l-6 -33q-15 -81 -72 -131.5t-137 -50.5q-44 0 -95 22t-95.5 44t-71.5 22q-69 0 -89 -88h-124zM625 -20q-114 0 -214.5 42t-170 114t-110 169.5t-40.5 206.5t40.5 206.5t110 169.5
t170 114t214.5 42q152 0 275 -71.5t191 -193t68 -267.5t-68 -267.5t-191 -193t-275 -71.5zM625 113q171 0 279 115.5t108 283.5t-108 283.5t-279 115.5t-279 -115.5t-108 -283.5t108 -283.5t279 -115.5z" />
    <glyph glyph-name="odieresis" unicode="&#xf6;" horiz-adv-x="1249" 
d="M399 1233q-46 0 -78 32t-32 76q0 45 32.5 77t77.5 32q44 0 75.5 -32.5t31.5 -76.5t-31.5 -76t-75.5 -32zM854 1233q-46 0 -78.5 32t-32.5 76t32.5 76.5t78.5 32.5q44 0 75.5 -32.5t31.5 -76.5t-31.5 -76t-75.5 -32zM625 -20q-114 0 -214.5 42t-170 114t-110 169.5
t-40.5 206.5t40.5 206.5t110 169.5t170 114t214.5 42q152 0 275 -71.5t191 -193t68 -267.5t-68 -267.5t-191 -193t-275 -71.5zM625 113q171 0 279 115.5t108 283.5t-108 283.5t-279 115.5t-279 -115.5t-108 -283.5t108 -283.5t279 -115.5z" />
    <glyph glyph-name="oslash" unicode="&#xf8;" horiz-adv-x="1273" 
d="M637 -20q-194 0 -332 110l-108 -110l-80 77l108 111q-123 145 -123 344q0 109 40.5 206.5t110 169.5t170 114t214.5 42q193 0 334 -110l108 110l78 -75l-108 -111q122 -147 122 -346q0 -146 -68 -267.5t-191 -193t-275 -71.5zM250 512q0 -135 74 -242l550 564
q-99 77 -237 77q-171 0 -279 -115.5t-108 -283.5zM637 113q171 0 279 115.5t108 283.5q0 137 -74 244l-549 -566q96 -77 236 -77z" />
    <glyph glyph-name="ugrave" unicode="&#xf9;" horiz-adv-x="1179" 
d="M643 1184h-127l-248 311h191zM1004 1024v-1024h-144v143q-53 -81 -140 -122t-185 -41q-163 0 -269 109.5t-106 293.5v641h143v-621q0 -137 71.5 -213.5t192.5 -76.5q109 0 185 62.5t108 166.5v682h144z" />
    <glyph glyph-name="uacute" unicode="&#xfa;" horiz-adv-x="1179" 
d="M516 1184l184 311h191l-248 -311h-127zM1004 1024v-1024h-144v143q-53 -81 -140 -122t-185 -41q-163 0 -269 109.5t-106 293.5v641h143v-621q0 -137 71.5 -213.5t192.5 -76.5q109 0 185 62.5t108 166.5v682h144z" />
    <glyph glyph-name="ucircumflex" unicode="&#xfb;" horiz-adv-x="1179" 
d="M240 1184l260 311h159l261 -311h-164l-176 211l-177 -211h-163zM1004 1024v-1024h-144v143q-53 -81 -140 -122t-185 -41q-163 0 -269 109.5t-106 293.5v641h143v-621q0 -137 71.5 -213.5t192.5 -76.5q109 0 185 62.5t108 166.5v682h144z" />
    <glyph glyph-name="udieresis" unicode="&#xfc;" horiz-adv-x="1179" 
d="M354 1233q-46 0 -78 32t-32 76q0 45 32 77t78 32q44 0 75.5 -32.5t31.5 -76.5t-31.5 -76t-75.5 -32zM809 1233q-46 0 -78.5 32t-32.5 76t32.5 76.5t78.5 32.5q44 0 75 -32t31 -77q0 -44 -31 -76t-75 -32zM1004 1024v-1024h-144v143q-53 -81 -140 -122t-185 -41
q-163 0 -269 109.5t-106 293.5v641h143v-621q0 -137 71.5 -213.5t192.5 -76.5q109 0 185 62.5t108 166.5v682h144z" />
    <glyph glyph-name="yacute" unicode="&#xfd;" horiz-adv-x="1105" 
d="M492 1184l184 311h190l-248 -311h-126zM426 -397h-162l211 448l-455 973h160l375 -813l375 813h162z" />
    <glyph glyph-name="thorn" unicode="&#xfe;" horiz-adv-x="1284" 
d="M176 -397v1892h143v-596q133 145 357 145q149 0 268.5 -72t184.5 -193t65 -267t-65 -267t-184.5 -193t-268.5 -72q-224 0 -357 145v-522h-143zM670 113q165 0 271 115.5t106 283.5t-106 283.5t-271 115.5q-119 0 -210 -51.5t-141 -134.5v-426q50 -83 141 -134.5
t210 -51.5z" />
    <glyph glyph-name="ydieresis" unicode="&#xff;" horiz-adv-x="1105" 
d="M330 1233q-46 0 -78.5 32t-32.5 76t32.5 76.5t78.5 32.5q44 0 75 -32t31 -77q0 -44 -31 -76t-75 -32zM784 1233q-46 0 -78 32t-32 76q0 45 32 77t78 32q44 0 75.5 -32.5t31.5 -76.5t-31.5 -76t-75.5 -32zM426 -397h-162l211 448l-455 973h160l375 -813l375 813h162z" />
    <glyph glyph-name="Amacron" unicode="&#x100;" horiz-adv-x="1454" 
d="M401 1657v125h648v-125h-648zM16 0l648 1454h124l650 -1454h-164l-201 453h-696l-201 -453h-160zM442 598h566l-283 637z" />
    <glyph glyph-name="amacron" unicode="&#x101;" horiz-adv-x="1286" 
d="M356 1329v125h648v-125h-648zM610 -20q-149 0 -268.5 72t-184.5 193t-65 267t65 267t184.5 193t268.5 72q224 0 357 -145v125h143v-1024h-143v125q-133 -145 -357 -145zM616 113q119 0 210 51.5t141 134.5v426q-50 83 -141 134.5t-210 51.5q-165 0 -270.5 -115
t-105.5 -284t105.5 -284t270.5 -115z" />
    <glyph glyph-name="Abreve" unicode="&#x102;" horiz-adv-x="1454" 
d="M725 1561q-134 0 -224.5 86t-90.5 227h104q0 -98 60 -154.5t151 -56.5t151 56.5t60 154.5h104q0 -141 -90.5 -227t-224.5 -86zM16 0l648 1454h124l650 -1454h-164l-201 453h-696l-201 -453h-160zM442 598h566l-283 637z" />
    <glyph glyph-name="abreve" unicode="&#x103;" horiz-adv-x="1286" 
d="M680 1157q-134 0 -224.5 86.5t-90.5 229.5v22h104v-22q0 -99 60 -156t151 -57t151 57t60 156v22h104v-22q0 -143 -90.5 -229.5t-224.5 -86.5zM610 -20q-149 0 -268.5 72t-184.5 193t-65 267t65 267t184.5 193t268.5 72q224 0 357 -145v125h143v-1024h-143v125
q-133 -145 -357 -145zM616 113q119 0 210 51.5t141 134.5v426q-50 83 -141 134.5t-210 51.5q-165 0 -270.5 -115t-105.5 -284t105.5 -284t270.5 -115z" />
    <glyph glyph-name="Aogonek" unicode="&#x104;" horiz-adv-x="1454" 
d="M16 0l648 1454h124l650 -1454q-89 -60 -131.5 -112t-42.5 -105q0 -34 21.5 -51t55.5 -17q40 0 74 19l53 -105q-60 -47 -151 -47q-84 0 -139.5 49t-55.5 123q0 132 152 246l-201 453h-696l-201 -453h-160zM442 598h566l-283 637z" />
    <glyph glyph-name="aogonek" unicode="&#x105;" horiz-adv-x="1286" 
d="M610 -20q-149 0 -268.5 72t-184.5 193t-65 267t65 267t184.5 193t268.5 72q224 0 357 -145v125h143v-1024q-174 -118 -174 -221q0 -34 22 -53t56 -19q44 0 78 19l49 -97q-60 -47 -152 -47q-83 0 -132.5 48.5t-49.5 123.5q0 73 43 132t117 114v125q-133 -145 -357 -145z
M616 113q119 0 210 51.5t141 134.5v426q-50 83 -141 134.5t-210 51.5q-165 0 -270.5 -115t-105.5 -284t105.5 -284t270.5 -115z" />
    <glyph glyph-name="Cacute" unicode="&#x106;" horiz-adv-x="1548" 
d="M791 1573l163 280h195l-229 -280h-129zM850 -25q-207 0 -379.5 99t-272.5 271.5t-100 381.5t100 381.5t272.5 271.5t379.5 99q198 0 365 -91t268 -249l-129 -82q-80 126 -212 200t-292 74q-166 0 -302.5 -79.5t-214 -218t-77.5 -306.5t77.5 -306.5t214 -218t302.5 -79.5
q160 0 292 74t212 200l129 -82q-101 -158 -268 -249t-365 -91z" />
    <glyph glyph-name="cacute" unicode="&#x107;" horiz-adv-x="1161" 
d="M561 1184l184 311h191l-248 -311h-127zM625 -20q-114 0 -214.5 42t-170 114t-110 169.5t-40.5 206.5t40.5 206.5t110 169.5t170 114t214.5 42q155 0 277.5 -72.5t191.5 -195.5l-125 -71q-47 95 -137 150.5t-207 55.5q-171 0 -279 -115.5t-108 -283.5t108 -283.5
t279 -115.5q117 0 207 55.5t137 150.5l125 -71q-69 -123 -191.5 -195.5t-277.5 -72.5z" />
    <glyph glyph-name="Ccircumflex" unicode="&#x108;" horiz-adv-x="1548" 
d="M502 1573l266 280h168l266 -280h-170l-182 188l-178 -188h-170zM850 -25q-207 0 -379.5 99t-272.5 271.5t-100 381.5t100 381.5t272.5 271.5t379.5 99q198 0 365 -91t268 -249l-129 -82q-80 126 -212 200t-292 74q-166 0 -302.5 -79.5t-214 -218t-77.5 -306.5
t77.5 -306.5t214 -218t302.5 -79.5q160 0 292 74t212 200l129 -82q-101 -158 -268 -249t-365 -91z" />
    <glyph glyph-name="ccircumflex" unicode="&#x109;" horiz-adv-x="1161" 
d="M285 1184l260 311h160l260 -311h-164l-176 211l-176 -211h-164zM625 -20q-114 0 -214.5 42t-170 114t-110 169.5t-40.5 206.5t40.5 206.5t110 169.5t170 114t214.5 42q155 0 277.5 -72.5t191.5 -195.5l-125 -71q-47 95 -137 150.5t-207 55.5q-171 0 -279 -115.5
t-108 -283.5t108 -283.5t279 -115.5q117 0 207 55.5t137 150.5l125 -71q-69 -123 -191.5 -195.5t-277.5 -72.5z" />
    <glyph glyph-name="Cdotaccent" unicode="&#x10a;" horiz-adv-x="1548" 
d="M850 1616q-46 0 -78.5 32t-32.5 76t32.5 76.5t78.5 32.5q44 0 75 -32t31 -77q0 -44 -31 -76t-75 -32zM850 -25q-207 0 -379.5 99t-272.5 271.5t-100 381.5t100 381.5t272.5 271.5t379.5 99q198 0 365 -91t268 -249l-129 -82q-80 126 -212 200t-292 74
q-166 0 -302.5 -79.5t-214 -218t-77.5 -306.5t77.5 -306.5t214 -218t302.5 -79.5q160 0 292 74t212 200l129 -82q-101 -158 -268 -249t-365 -91z" />
    <glyph glyph-name="cdotaccent" unicode="&#x10b;" horiz-adv-x="1161" 
d="M625 1233q-46 0 -78.5 32t-32.5 76t32.5 76.5t78.5 32.5q44 0 75 -32t31 -77q0 -44 -31 -76t-75 -32zM625 -20q-114 0 -214.5 42t-170 114t-110 169.5t-40.5 206.5t40.5 206.5t110 169.5t170 114t214.5 42q155 0 277.5 -72.5t191.5 -195.5l-125 -71q-47 95 -137 150.5
t-207 55.5q-171 0 -279 -115.5t-108 -283.5t108 -283.5t279 -115.5q117 0 207 55.5t137 150.5l125 -71q-69 -123 -191.5 -195.5t-277.5 -72.5z" />
    <glyph glyph-name="Ccaron" unicode="&#x10c;" horiz-adv-x="1548" 
d="M768 1573l-266 280h170l178 -188l182 188h170l-266 -280h-168zM850 -25q-207 0 -379.5 99t-272.5 271.5t-100 381.5t100 381.5t272.5 271.5t379.5 99q198 0 365 -91t268 -249l-129 -82q-80 126 -212 200t-292 74q-166 0 -302.5 -79.5t-214 -218t-77.5 -306.5t77.5 -306.5
t214 -218t302.5 -79.5q160 0 292 74t212 200l129 -82q-101 -158 -268 -249t-365 -91z" />
    <glyph glyph-name="ccaron" unicode="&#x10d;" horiz-adv-x="1161" 
d="M285 1495h164l176 -211l176 211h164l-260 -311h-160zM625 -20q-114 0 -214.5 42t-170 114t-110 169.5t-40.5 206.5t40.5 206.5t110 169.5t170 114t214.5 42q155 0 277.5 -72.5t191.5 -195.5l-125 -71q-47 95 -137 150.5t-207 55.5q-171 0 -279 -115.5t-108 -283.5
t108 -283.5t279 -115.5q117 0 207 55.5t137 150.5l125 -71q-69 -123 -191.5 -195.5t-277.5 -72.5z" />
    <glyph glyph-name="Dcaron" unicode="&#x10e;" horiz-adv-x="1480" 
d="M618 1573l-266 280h170l178 -188l183 188h170l-267 -280h-168zM203 0v1454h397q169 0 314.5 -55t248 -151t161 -231t58.5 -290t-58.5 -290t-161 -231t-248 -151t-314.5 -55h-397zM358 147h242q280 0 452.5 163t172.5 417t-172.5 417t-452.5 163h-242v-1160z" />
    <glyph glyph-name="dcaron" unicode="&#x10f;" horiz-adv-x="1286" 
d="M610 -20q-149 0 -268.5 72t-184.5 193t-65 267t65 267t184.5 193t268.5 72q224 0 357 -145v596h143v-1495h-143v125q-133 -145 -357 -145zM1192 1155l51 340h143l-92 -340h-102zM616 113q119 0 210 51.5t141 134.5v426q-50 83 -141 134.5t-210 51.5q-165 0 -270.5 -115
t-105.5 -284t105.5 -284t270.5 -115z" />
    <glyph glyph-name="Dcroat" unicode="&#x110;" horiz-adv-x="1490" 
d="M213 0v668h-152v139h152v647h397q169 0 315 -55t248.5 -151t161 -231t58.5 -290t-58.5 -290t-161 -231t-248.5 -151t-315 -55h-397zM369 147h241q280 0 452.5 163t172.5 417t-172.5 417t-452.5 163h-241v-500h348v-139h-348v-521z" />
    <glyph glyph-name="dcroat" unicode="&#x111;" horiz-adv-x="1286" 
d="M610 -20q-149 0 -268.5 72t-184.5 193t-65 267t65 267t184.5 193t268.5 72q224 0 357 -145v289h-342v125h342v182h143v-182h166v-125h-166v-1188h-143v125q-133 -145 -357 -145zM616 113q119 0 210 51.5t141 134.5v426q-50 83 -141 134.5t-210 51.5q-165 0 -270.5 -115
t-105.5 -284t105.5 -284t270.5 -115z" />
    <glyph glyph-name="Emacron" unicode="&#x112;" horiz-adv-x="1134" 
d="M293 1657v125h647v-125h-647zM203 0v1454h829v-147h-674v-486h551v-147h-551v-527h674v-147h-829z" />
    <glyph glyph-name="emacron" unicode="&#x113;" horiz-adv-x="1191" 
d="M299 1329v125h647v-125h-647zM618 -20q-157 0 -278 71.5t-184.5 192t-63.5 268.5q0 147 67 268.5t189.5 192.5t274.5 71q100 0 187 -35.5t152.5 -100t103 -163.5t38.5 -219v-39h-864q2 -160 107.5 -267t270.5 -107q121 0 202 48.5t136 143.5l117 -76q-69 -119 -184 -184
t-271 -65zM616 911q-132 0 -235 -80.5t-129 -216.5h702q-18 136 -112.5 216.5t-225.5 80.5z" />
    <glyph glyph-name="Ebreve" unicode="&#x114;" horiz-adv-x="1134" 
d="M616 1561q-134 0 -224.5 86t-90.5 227h105q0 -98 59.5 -154.5t150.5 -56.5t151 56.5t60 154.5h105q0 -141 -91 -227t-225 -86zM203 0v1454h829v-147h-674v-486h551v-147h-551v-527h674v-147h-829z" />
    <glyph glyph-name="ebreve" unicode="&#x115;" horiz-adv-x="1191" 
d="M623 1157q-134 0 -225 86.5t-91 229.5v22h105v-22q0 -99 60 -156t151 -57t151 57t60 156v22h104v-22q0 -143 -90.5 -229.5t-224.5 -86.5zM618 -20q-157 0 -278 71.5t-184.5 192t-63.5 268.5q0 147 67 268.5t189.5 192.5t274.5 71q100 0 187 -35.5t152.5 -100t103 -163.5
t38.5 -219v-39h-864q2 -160 107.5 -267t270.5 -107q121 0 202 48.5t136 143.5l117 -76q-69 -119 -184 -184t-271 -65zM616 911q-132 0 -235 -80.5t-129 -216.5h702q-18 136 -112.5 216.5t-225.5 80.5z" />
    <glyph glyph-name="Edotaccent" unicode="&#x116;" horiz-adv-x="1134" 
d="M616 1616q-46 0 -78 32t-32 76t32 76.5t78 32.5q44 0 75.5 -32.5t31.5 -76.5t-31.5 -76t-75.5 -32zM203 0v1454h829v-147h-674v-486h551v-147h-551v-527h674v-147h-829z" />
    <glyph glyph-name="edotaccent" unicode="&#x117;" horiz-adv-x="1191" 
d="M623 1233q-46 0 -78.5 32t-32.5 76t32.5 76.5t78.5 32.5q44 0 75 -32t31 -77q0 -44 -31 -76t-75 -32zM618 -20q-157 0 -278 71.5t-184.5 192t-63.5 268.5q0 147 67 268.5t189.5 192.5t274.5 71q100 0 187 -35.5t152.5 -100t103 -163.5t38.5 -219v-39h-864
q2 -160 107.5 -267t270.5 -107q121 0 202 48.5t136 143.5l117 -76q-69 -119 -184 -184t-271 -65zM616 911q-132 0 -235 -80.5t-129 -216.5h702q-18 136 -112.5 216.5t-225.5 80.5z" />
    <glyph glyph-name="Eogonek" unicode="&#x118;" horiz-adv-x="1134" 
d="M203 0v1454h829v-147h-674v-486h551v-147h-551v-527h674v-147q-89 -60 -131.5 -112t-42.5 -105q0 -34 22 -51t56 -17q40 0 74 19l53 -105q-60 -47 -152 -47q-84 0 -139 49t-55 123q0 73 43 132t117 114h-674z" />
    <glyph glyph-name="eogonek" unicode="&#x119;" horiz-adv-x="1191" 
d="M920 -418q-80 0 -135.5 45.5t-55.5 126.5q0 22 3.5 44.5t7.5 39.5t14 40t15 34t19.5 35t18 29t20.5 29.5t17 25.5q-36 -23 -103 -37t-123 -14q-157 0 -278 71.5t-184.5 192t-63.5 268.5q0 147 67 268.5t189.5 192.5t274.5 71q100 0 187 -35.5t152.5 -100t103 -163.5
t38.5 -219v-39h-864q2 -160 107.5 -267t270.5 -107q121 0 202 48.5t136 143.5l117 -76q-211 -314 -211 -426q0 -50 27.5 -73t71.5 -23q39 0 73 19l49 -97q-70 -47 -163 -47zM616 911q-132 0 -235 -80.5t-129 -216.5h702q-18 136 -112.5 216.5t-225.5 80.5z" />
    <glyph glyph-name="Ecaron" unicode="&#x11a;" horiz-adv-x="1134" 
d="M535 1573l-267 280h170l178 -188l183 188h170l-267 -280h-167zM203 0v1454h829v-147h-674v-486h551v-147h-551v-527h674v-147h-829z" />
    <glyph glyph-name="ecaron" unicode="&#x11b;" horiz-adv-x="1191" 
d="M283 1495h163l177 -211l176 211h164l-261 -311h-159zM618 -20q-157 0 -278 71.5t-184.5 192t-63.5 268.5q0 147 67 268.5t189.5 192.5t274.5 71q100 0 187 -35.5t152.5 -100t103 -163.5t38.5 -219v-39h-864q2 -160 107.5 -267t270.5 -107q121 0 202 48.5t136 143.5
l117 -76q-69 -119 -184 -184t-271 -65zM616 911q-132 0 -235 -80.5t-129 -216.5h702q-18 136 -112.5 216.5t-225.5 80.5z" />
    <glyph glyph-name="Gcircumflex" unicode="&#x11c;" horiz-adv-x="1566" 
d="M508 1573l266 280h168l266 -280h-170l-182 188l-178 -188h-170zM881 -25q-170 0 -316.5 58t-248.5 158.5t-160 239.5t-58 296q0 156 58.5 295.5t159.5 239.5t241.5 158.5t298.5 58.5q328 0 533 -193l-101 -115q-177 160 -432 160q-127 0 -239 -47t-191 -127.5
t-124.5 -192t-45.5 -237.5q0 -127 45 -238t125 -192t198 -127.5t257 -46.5q118 0 228 29.5t183 89.5v430h-442v147h596v-641q-98 -99 -249 -151t-316 -52z" />
    <glyph glyph-name="gcircumflex" unicode="&#x11d;" horiz-adv-x="1286" 
d="M330 1184l260 311h160l260 -311h-164l-176 211l-176 -211h-164zM606 -418q-158 0 -280.5 57t-184.5 146l113 96q128 -166 352 -166q68 0 130.5 21.5t115 63t84 112t31.5 160.5v82q-134 -146 -357 -146q-148 0 -267.5 69.5t-185.5 188t-65 260.5q1 143 67 261t185 187.5
t266 69.5q224 0 357 -145v125h143v-961q0 -152 -67.5 -262.5t-180 -164.5t-256.5 -54zM616 141q119 0 210 52t141 135v397q-50 83 -141 134.5t-210 51.5q-163 0 -270.5 -111t-105.5 -274t108 -274t268 -111z" />
    <glyph glyph-name="Gbreve" unicode="&#x11e;" horiz-adv-x="1566" 
d="M856 1561q-134 0 -224.5 86t-90.5 227h104q0 -98 60 -154.5t151 -56.5t151 56.5t60 154.5h104q0 -141 -90.5 -227t-224.5 -86zM881 -25q-170 0 -316.5 58t-248.5 158.5t-160 239.5t-58 296q0 156 58.5 295.5t159.5 239.5t241.5 158.5t298.5 58.5q328 0 533 -193
l-101 -115q-177 160 -432 160q-127 0 -239 -47t-191 -127.5t-124.5 -192t-45.5 -237.5q0 -127 45 -238t125 -192t198 -127.5t257 -46.5q118 0 228 29.5t183 89.5v430h-442v147h596v-641q-98 -99 -249 -151t-316 -52z" />
    <glyph glyph-name="gbreve" unicode="&#x11f;" horiz-adv-x="1286" 
d="M670 1157q-134 0 -225 86.5t-91 229.5v22h105v-22q0 -99 60 -156t151 -57t151 57t60 156v22h104v-22q0 -143 -90.5 -229.5t-224.5 -86.5zM606 -418q-158 0 -280.5 57t-184.5 146l113 96q128 -166 352 -166q68 0 130.5 21.5t115 63t84 112t31.5 160.5v82
q-134 -146 -357 -146q-148 0 -267.5 69.5t-185.5 188t-65 260.5q1 143 67 261t185 187.5t266 69.5q224 0 357 -145v125h143v-961q0 -152 -67.5 -262.5t-180 -164.5t-256.5 -54zM616 141q119 0 210 52t141 135v397q-50 83 -141 134.5t-210 51.5q-163 0 -270.5 -111
t-105.5 -274t108 -274t268 -111z" />
    <glyph glyph-name="Gdotaccent" unicode="&#x120;" horiz-adv-x="1566" 
d="M856 1616q-46 0 -78.5 32t-32.5 76t32.5 76.5t78.5 32.5q44 0 75.5 -32.5t31.5 -76.5t-31.5 -76t-75.5 -32zM881 -25q-170 0 -316.5 58t-248.5 158.5t-160 239.5t-58 296q0 156 58.5 295.5t159.5 239.5t241.5 158.5t298.5 58.5q328 0 533 -193l-101 -115
q-177 160 -432 160q-127 0 -239 -47t-191 -127.5t-124.5 -192t-45.5 -237.5q0 -127 45 -238t125 -192t198 -127.5t257 -46.5q118 0 228 29.5t183 89.5v430h-442v147h596v-641q-98 -99 -249 -151t-316 -52z" />
    <glyph glyph-name="gdotaccent" unicode="&#x121;" horiz-adv-x="1286" 
d="M670 1233q-46 0 -78.5 32t-32.5 76t32.5 76.5t78.5 32.5q44 0 75 -32t31 -77q0 -44 -31 -76t-75 -32zM606 -418q-158 0 -280.5 57t-184.5 146l113 96q128 -166 352 -166q68 0 130.5 21.5t115 63t84 112t31.5 160.5v82q-134 -146 -357 -146q-148 0 -267.5 69.5t-185.5 188
t-65 260.5q1 143 67 261t185 187.5t266 69.5q224 0 357 -145v125h143v-961q0 -152 -67.5 -262.5t-180 -164.5t-256.5 -54zM616 141q119 0 210 52t141 135v397q-50 83 -141 134.5t-210 51.5q-163 0 -270.5 -111t-105.5 -274t108 -274t268 -111z" />
    <glyph glyph-name="Gcommaaccent" unicode="&#x122;" horiz-adv-x="1566" 
d="M881 -25q-170 0 -316.5 58t-248.5 158.5t-160 239.5t-58 296q0 156 58.5 295.5t159.5 239.5t241.5 158.5t298.5 58.5q328 0 533 -193l-101 -115q-177 160 -432 160q-127 0 -239 -47t-191 -127.5t-124.5 -192t-45.5 -237.5q0 -127 45 -238t125 -192t198 -127.5t257 -46.5
q118 0 228 29.5t183 89.5v430h-442v147h596v-641q-98 -99 -249 -151t-316 -52zM877 -528h-86l49 178h-90v196h198v-196z" />
    <glyph glyph-name="gcommaaccent" unicode="&#x123;" horiz-adv-x="1286" 
d="M641 1616h86l-49 -178h90v-197h-199v197zM606 -418q-158 0 -280.5 57t-184.5 146l113 96q128 -166 352 -166q68 0 130.5 21.5t115 63t84 112t31.5 160.5v82q-134 -146 -357 -146q-148 0 -267.5 69.5t-185.5 188t-65 260.5q1 143 67 261t185 187.5t266 69.5
q224 0 357 -145v125h143v-961q0 -152 -67.5 -262.5t-180 -164.5t-256.5 -54zM616 141q119 0 210 52t141 135v397q-50 83 -141 134.5t-210 51.5q-163 0 -270.5 -111t-105.5 -274t108 -274t268 -111z" />
    <glyph glyph-name="Hcircumflex" unicode="&#x124;" horiz-adv-x="1566" 
d="M434 1573l266 280h168l267 -280h-170l-183 188l-178 -188h-170zM203 0v1454h155v-633h850v633h156v-1454h-156v674h-850v-674h-155z" />
    <glyph glyph-name="hcircumflex" unicode="&#x125;" horiz-adv-x="1200" 
d="M252 1573l266 280h168l266 -280h-170l-182 188l-178 -188h-170zM176 0v1495h143v-614q53 82 142 122.5t194 40.5q170 0 277.5 -109t107.5 -294v-641h-143v621q0 138 -73.5 214t-200.5 76q-116 0 -194 -62.5t-110 -166.5v-682h-143z" />
    <glyph glyph-name="Hbar" unicode="&#x126;" horiz-adv-x="1583" 
d="M211 0v1073h-152v129h152v252h156v-252h850v252h155v-252h152v-129h-152v-1073h-155v674h-850v-674h-156zM367 821h850v252h-850v-252z" />
    <glyph glyph-name="hbar" unicode="&#x127;" horiz-adv-x="1200" 
d="M176 0v1188h-151v125h151v182h143v-182h357v-125h-357v-307q53 82 142 122.5t194 40.5q170 0 277.5 -109t107.5 -294v-641h-143v621q0 138 -73.5 214t-200.5 76q-116 0 -194 -62.5t-110 -166.5v-682h-143z" />
    <glyph glyph-name="Itilde" unicode="&#x128;" horiz-adv-x="561" 
d="M-63 1614l6 33q15 81 72 131.5t137 50.5q44 0 95 -22t95.5 -44t71.5 -22q68 0 88 88h125l-6 -33q-15 -81 -72 -131.5t-137 -50.5q-44 0 -95 22t-95.5 44t-71.5 22q-69 0 -89 -88h-124zM203 0v1454h155v-1454h-155z" />
    <glyph glyph-name="itilde" unicode="&#x129;" horiz-adv-x="495" 
d="M-98 1229l6 33q15 81 72 131.5t137 50.5q55 0 144 -44t118 -44q68 0 88 88h125l-6 -33q-15 -81 -72 -131.5t-137 -50.5q-55 0 -144 44t-118 44q-68 0 -88 -88h-125zM176 0v1024h143v-1024h-143z" />
    <glyph glyph-name="Imacron" unicode="&#x12a;" horiz-adv-x="561" 
d="M-43 1657v125h647v-125h-647zM203 0v1454h155v-1454h-155z" />
    <glyph glyph-name="imacron" unicode="&#x12b;" horiz-adv-x="495" 
d="M-76 1329v125h647v-125h-647zM176 0v1024h143v-1024h-143z" />
    <glyph glyph-name="Ibreve" unicode="&#x12c;" horiz-adv-x="561" 
d="M281 1561q-134 0 -225 86t-91 227h105q0 -98 60 -154.5t151 -56.5t151 56.5t60 154.5h104q0 -141 -90.5 -227t-224.5 -86zM203 0v1454h155v-1454h-155z" />
    <glyph glyph-name="ibreve" unicode="&#x12d;" horiz-adv-x="495" 
d="M248 1157q-134 0 -225 86.5t-91 229.5v22h105v-22q0 -99 60 -156t151 -57t151 57t60 156v22h104v-22q0 -143 -90.5 -229.5t-224.5 -86.5zM176 0v1024h143v-1024h-143z" />
    <glyph glyph-name="Iogonek" unicode="&#x12e;" horiz-adv-x="561" 
d="M238 -418q-84 0 -139.5 49t-55.5 123q0 73 43 132t117 114v1454h155v-1454q-89 -60 -131.5 -112t-42.5 -105q0 -34 22 -51t56 -17q40 0 74 19l53 -105q-60 -47 -151 -47z" />
    <glyph glyph-name="iogonek" unicode="&#x12f;" horiz-adv-x="495" 
d="M250 1290q-46 0 -78.5 32.5t-32.5 76.5t32.5 76t78.5 32q44 0 75 -32t31 -76q0 -45 -31 -77t-75 -32zM199 -418q-83 0 -133 48.5t-50 123.5q0 73 43 132t117 114v1024h143v-1024q-174 -118 -174 -221q0 -34 22 -53t56 -19q44 0 78 19l49 -97q-60 -47 -151 -47z" />
    <glyph glyph-name="Idotaccent" unicode="&#x130;" horiz-adv-x="561" 
d="M281 1616q-46 0 -78.5 32t-32.5 76t32.5 76.5t78.5 32.5q44 0 75 -32t31 -77q0 -44 -31 -76t-75 -32zM203 0v1454h155v-1454h-155z" />
    <glyph glyph-name="dotlessi" unicode="&#x131;" horiz-adv-x="495" 
d="M176 0v1024h143v-1024h-143z" />
    <glyph glyph-name="Jcircumflex" unicode="&#x134;" horiz-adv-x="960" 
d="M346 1573l266 280h168l267 -280h-170l-183 188l-178 -188h-170zM385 -25q-118 0 -213 46t-156 120l111 107q52 -61 111.5 -94t146.5 -33q112 0 171.5 65.5t59.5 214.5v1053h156v-1057q0 -209 -105 -315.5t-282 -106.5z" />
    <glyph glyph-name="jcircumflex" unicode="&#x135;" horiz-adv-x="512" 
d="M-78 1184l260 311h160l260 -311h-164l-176 211l-176 -211h-164zM68 -408q-34 0 -74.5 7.5t-56.5 15.5l30 125q56 -14 92 -14q59 0 96.5 41.5t37.5 132.5v1124h143v-1137q0 -144 -76 -219.5t-192 -75.5z" />
    <glyph glyph-name="Kcommaaccent" unicode="&#x136;" horiz-adv-x="1359" 
d="M203 0v1454h153v-637l670 637h211l-723 -690l891 -764h-231l-818 702v-702h-153zM793 -528h-86l49 178h-90v196h198v-196z" />
    <glyph glyph-name="kcommaaccent" unicode="&#x137;" horiz-adv-x="1093" 
d="M176 0v1495h143v-874l482 403h203l-537 -451l653 -573h-205l-596 522v-522h-143zM641 -528h-86l49 178h-90v196h199v-196z" />
    <glyph glyph-name="Lacute" unicode="&#x139;" horiz-adv-x="1120" 
d="M221 1573l164 280h195l-230 -280h-129zM203 0v1454h155v-1307h727v-147h-882z" />
    <glyph glyph-name="lacute" unicode="&#x13a;" horiz-adv-x="495" 
d="M184 1655l185 311h190l-248 -311h-127zM176 0v1495h143v-1495h-143z" />
    <glyph glyph-name="Lcommaaccent" unicode="&#x13b;" horiz-adv-x="1120" 
d="M203 0v1454h155v-1307h727v-147h-882zM655 -528h-86l49 178h-90v196h199v-196z" />
    <glyph glyph-name="lcommaaccent" unicode="&#x13c;" horiz-adv-x="495" 
d="M176 0v1495h143v-1495h-143zM274 -528h-86l50 178h-91v196h199v-196z" />
    <glyph glyph-name="Lcaron" unicode="&#x13d;" horiz-adv-x="1120" 
d="M584 1155l51 340h143l-92 -340h-102zM203 0v1454h155v-1307h727v-147h-882z" />
    <glyph glyph-name="lcaron" unicode="&#x13e;" horiz-adv-x="495" 
d="M176 0v1495h143v-1495h-143zM403 1155l52 340h143l-92 -340h-103z" />
    <glyph glyph-name="Ldot" unicode="&#x13f;" horiz-adv-x="1128" 
d="M203 0v1454h155v-1307h727v-147h-882zM850 692q-46 0 -78.5 32.5t-32.5 76.5t32.5 76t78.5 32q44 0 75 -32t31 -76q0 -45 -31 -77t-75 -32z" />
    <glyph glyph-name="ldot" unicode="&#x140;" horiz-adv-x="770" 
d="M176 0v1495h143v-1495h-143zM635 659q-46 0 -78.5 32.5t-32.5 76.5t32.5 76.5t78.5 32.5q44 0 75 -32t31 -77t-31 -77t-75 -32z" />
    <glyph glyph-name="Lslash" unicode="&#x141;" horiz-adv-x="1153" 
d="M236 0v537l-152 -101v152l152 100v766h155v-661l342 227v-152l-342 -227v-494h727v-147h-882z" />
    <glyph glyph-name="lslash" unicode="&#x142;" horiz-adv-x="634" 
d="M250 0v649l-164 -108v139l164 108v707h143v-610l164 108v-139l-164 -109v-745h-143z" />
    <glyph glyph-name="Nacute" unicode="&#x143;" horiz-adv-x="1626" 
d="M743 1573l164 280h195l-230 -280h-129zM1423 0h-137l-928 1190v-1190h-155v1454h137l928 -1190v1190h155v-1454z" />
    <glyph glyph-name="nacute" unicode="&#x144;" horiz-adv-x="1200" 
d="M545 1184l184 311h191l-248 -311h-127zM176 0v1024h143v-143q53 82 142 122.5t194 40.5q170 0 277.5 -109t107.5 -294v-641h-143v621q0 138 -73.5 214t-200.5 76q-116 0 -194 -62.5t-110 -166.5v-682h-143z" />
    <glyph glyph-name="Ncommaaccent" unicode="&#x145;" horiz-adv-x="1626" 
d="M1423 0h-137l-928 1190v-1190h-155v1454h137l928 -1190v1190h155v-1454zM848 -528h-86l49 178h-90v196h199v-196z" />
    <glyph glyph-name="ncommaaccent" unicode="&#x146;" horiz-adv-x="1200" 
d="M176 0v1024h143v-143q53 82 142 122.5t194 40.5q170 0 277.5 -109t107.5 -294v-641h-143v621q0 138 -73.5 214t-200.5 76q-116 0 -194 -62.5t-110 -166.5v-682h-143zM635 -528h-86l49 178h-90v196h199v-196z" />
    <glyph glyph-name="Ncaron" unicode="&#x147;" horiz-adv-x="1626" 
d="M721 1573l-266 280h170l178 -188l182 188h170l-266 -280h-168zM1423 0h-137l-928 1190v-1190h-155v1454h137l928 -1190v1190h155v-1454z" />
    <glyph glyph-name="ncaron" unicode="&#x148;" horiz-adv-x="1200" 
d="M268 1495h164l176 -211l176 211h164l-260 -311h-160zM176 0v1024h143v-143q53 82 142 122.5t194 40.5q170 0 277.5 -109t107.5 -294v-641h-143v621q0 138 -73.5 214t-200.5 76q-116 0 -194 -62.5t-110 -166.5v-682h-143z" />
    <glyph glyph-name="Eng" unicode="&#x14a;" horiz-adv-x="1626" 
d="M1055 -397v133h55q158 0 158 160v129l-910 1165v-1190h-155v1454h137l928 -1190v1190h155v-1550q0 -152 -74.5 -226.5t-226.5 -74.5h-67z" />
    <glyph glyph-name="eng" unicode="&#x14b;" horiz-adv-x="1200" 
d="M176 0v1024h143v-143q53 82 142 122.5t194 40.5q170 0 277.5 -109t107.5 -294v-756q0 -143 -87 -223t-212 -80q-74 0 -141 23l33 123q43 -17 96 -17q73 0 120.5 43t47.5 135v732q0 138 -73.5 214t-200.5 76q-116 0 -194 -62.5t-110 -166.5v-682h-143z" />
    <glyph glyph-name="Omacron" unicode="&#x14c;" horiz-adv-x="1699" 
d="M526 1657v125h648v-125h-648zM850 -25q-207 0 -379.5 99t-272.5 271.5t-100 381.5t100 381.5t272.5 271.5t379.5 99t379.5 -99t272.5 -271.5t100 -381.5t-100 -381.5t-272.5 -271.5t-379.5 -99zM850 123q166 0 302.5 79.5t214 218t77.5 306.5t-77.5 306.5t-214 218
t-302.5 79.5t-302.5 -79.5t-214 -218t-77.5 -306.5t77.5 -306.5t214 -218t302.5 -79.5z" />
    <glyph glyph-name="omacron" unicode="&#x14d;" horiz-adv-x="1249" 
d="M301 1329v125h647v-125h-647zM625 -20q-114 0 -214.5 42t-170 114t-110 169.5t-40.5 206.5t40.5 206.5t110 169.5t170 114t214.5 42q152 0 275 -71.5t191 -193t68 -267.5t-68 -267.5t-191 -193t-275 -71.5zM625 113q171 0 279 115.5t108 283.5t-108 283.5t-279 115.5
t-279 -115.5t-108 -283.5t108 -283.5t279 -115.5z" />
    <glyph glyph-name="Obreve" unicode="&#x14e;" horiz-adv-x="1699" 
d="M850 1561q-134 0 -224.5 86t-90.5 227h104q0 -98 60 -154.5t151 -56.5t151 56.5t60 154.5h104q0 -141 -90.5 -227t-224.5 -86zM850 -25q-207 0 -379.5 99t-272.5 271.5t-100 381.5t100 381.5t272.5 271.5t379.5 99t379.5 -99t272.5 -271.5t100 -381.5t-100 -381.5
t-272.5 -271.5t-379.5 -99zM850 123q166 0 302.5 79.5t214 218t77.5 306.5t-77.5 306.5t-214 218t-302.5 79.5t-302.5 -79.5t-214 -218t-77.5 -306.5t77.5 -306.5t214 -218t302.5 -79.5z" />
    <glyph glyph-name="obreve" unicode="&#x14f;" horiz-adv-x="1249" 
d="M625 1157q-134 0 -225 86.5t-91 229.5v22h105v-22q0 -99 60 -156t151 -57t151 57t60 156v22h104v-22q0 -143 -90.5 -229.5t-224.5 -86.5zM625 -20q-114 0 -214.5 42t-170 114t-110 169.5t-40.5 206.5t40.5 206.5t110 169.5t170 114t214.5 42q152 0 275 -71.5t191 -193
t68 -267.5t-68 -267.5t-191 -193t-275 -71.5zM625 113q171 0 279 115.5t108 283.5t-108 283.5t-279 115.5t-279 -115.5t-108 -283.5t108 -283.5t279 -115.5z" />
    <glyph glyph-name="Ohungarumlaut" unicode="&#x150;" horiz-adv-x="1699" 
d="M643 1573l113 280h174l-176 -280h-111zM975 1573l112 280h175l-177 -280h-110zM850 -25q-207 0 -379.5 99t-272.5 271.5t-100 381.5t100 381.5t272.5 271.5t379.5 99t379.5 -99t272.5 -271.5t100 -381.5t-100 -381.5t-272.5 -271.5t-379.5 -99zM850 123q166 0 302.5 79.5
t214 218t77.5 306.5t-77.5 306.5t-214 218t-302.5 79.5t-302.5 -79.5t-214 -218t-77.5 -306.5t77.5 -306.5t214 -218t302.5 -79.5z" />
    <glyph glyph-name="ohungarumlaut" unicode="&#x151;" horiz-adv-x="1249" 
d="M418 1184l112 311h175l-177 -311h-110zM750 1184l112 311h174l-176 -311h-110zM625 -20q-114 0 -214.5 42t-170 114t-110 169.5t-40.5 206.5t40.5 206.5t110 169.5t170 114t214.5 42q152 0 275 -71.5t191 -193t68 -267.5t-68 -267.5t-191 -193t-275 -71.5zM625 113
q171 0 279 115.5t108 283.5t-108 283.5t-279 115.5t-279 -115.5t-108 -283.5t108 -283.5t279 -115.5z" />
    <glyph glyph-name="OE" unicode="&#x152;" horiz-adv-x="2375" 
d="M1444 272q-104 -141 -255 -219t-339 -78q-207 0 -379.5 99t-272.5 271.5t-100 381.5t100 381.5t272.5 271.5t379.5 99q188 0 339 -78t255 -219v272h829v-147h-674v-486h551v-147h-551v-527h674v-147h-829v272zM850 123q166 0 302.5 79.5t214 218t77.5 306.5t-77.5 306.5
t-214 218t-302.5 79.5t-302.5 -79.5t-214 -218t-77.5 -306.5t77.5 -306.5t214 -218t302.5 -79.5z" />
    <glyph glyph-name="oe" unicode="&#x153;" horiz-adv-x="2111" 
d="M625 -20q-114 0 -214.5 42t-170 114t-110 169.5t-40.5 206.5t40.5 206.5t110 169.5t170 114t214.5 42q149 0 269 -68t189 -185q69 118 188.5 185.5t270.5 67.5q100 0 187 -35.5t152.5 -100t103 -163.5t38.5 -219v-39h-864q2 -160 108 -267t271 -107q121 0 202 48.5
t136 143.5l117 -76q-69 -119 -184 -184t-271 -65q-153 0 -271 67t-184 184q-71 -117 -190 -184t-268 -67zM625 113q171 0 279 115.5t108 283.5t-108 283.5t-279 115.5t-279 -115.5t-108 -283.5t108 -283.5t279 -115.5zM1536 911q-132 0 -235.5 -80.5t-129.5 -216.5h703
q-18 136 -112.5 216.5t-225.5 80.5z" />
    <glyph glyph-name="Racute" unicode="&#x154;" horiz-adv-x="1286" 
d="M553 1573l164 280h194l-229 -280h-129zM203 0v1454h475q199 0 314.5 -106t115.5 -285q0 -166 -101.5 -271t-277.5 -118l574 -674h-203l-576 676h-166v-676h-155zM358 819h301q140 0 215.5 62t75.5 182t-76 183t-215 63h-301v-490z" />
    <glyph glyph-name="racute" unicode="&#x155;" horiz-adv-x="718" 
d="M369 1184l184 311h190l-247 -311h-127zM176 0v1024h143v-160q34 68 115 119t172 51q45 0 84 -8l-18 -147q-40 12 -88 12q-87 0 -162.5 -60.5t-102.5 -162.5v-668h-143z" />
    <glyph glyph-name="Rcommaaccent" unicode="&#x156;" horiz-adv-x="1286" 
d="M203 0v1454h475q199 0 314.5 -106t115.5 -285q0 -166 -101.5 -271t-277.5 -118l574 -674h-203l-576 676h-166v-676h-155zM358 819h301q140 0 215.5 62t75.5 182t-76 183t-215 63h-301v-490zM756 -528h-86l49 178h-90v196h198v-196z" />
    <glyph glyph-name="rcommaaccent" unicode="&#x157;" horiz-adv-x="718" 
d="M176 0v1024h143v-160q34 68 115 119t172 51q45 0 84 -8l-18 -147q-40 12 -88 12q-87 0 -162.5 -60.5t-102.5 -162.5v-668h-143zM276 -528h-86l50 178h-90v196h198v-196z" />
    <glyph glyph-name="Rcaron" unicode="&#x158;" horiz-adv-x="1286" 
d="M530 1573l-266 280h170l178 -188l183 188h170l-267 -280h-168zM203 0v1454h475q199 0 314.5 -106t115.5 -285q0 -166 -101.5 -271t-277.5 -118l574 -674h-203l-576 676h-166v-676h-155zM358 819h301q140 0 215.5 62t75.5 182t-76 183t-215 63h-301v-490z" />
    <glyph glyph-name="rcaron" unicode="&#x159;" horiz-adv-x="718" 
d="M92 1495h164l176 -211l176 211h164l-260 -311h-160zM176 0v1024h143v-160q34 68 115 119t172 51q45 0 84 -8l-18 -147q-40 12 -88 12q-87 0 -162.5 -60.5t-102.5 -162.5v-668h-143z" />
    <glyph glyph-name="Sacute" unicode="&#x15a;" horiz-adv-x="1124" 
d="M514 1573l164 280h194l-229 -280h-129zM582 -25q-176 0 -313.5 75t-188.5 188l129 92q132 -207 375 -207q125 0 209 65t84 174q0 184 -211 265l-215 82q-171 65 -246.5 157t-75.5 240q0 168 126 270.5t318 102.5q132 0 241 -55.5t171 -143.5l-121 -98q-61 73 -132 111
t-165 38q-120 0 -201 -62.5t-81 -160.5q0 -96 50.5 -150.5t166.5 -99.5l192 -74q170 -66 254 -164t84 -253q0 -180 -125 -286t-325 -106z" />
    <glyph glyph-name="sacute" unicode="&#x15b;" horiz-adv-x="915" 
d="M412 1184l184 311h190l-247 -311h-127zM475 -20q-143 0 -251 64.5t-146 186.5l129 54q25 -82 101.5 -129t168.5 -47q86 0 142.5 42t56.5 115q0 62 -44.5 104.5t-148.5 75.5l-110 35q-121 38 -183.5 112t-62.5 179q0 125 97.5 198.5t244.5 73.5q112 0 198.5 -47
t133.5 -133l-115 -71q-81 125 -225 125q-75 0 -133 -39.5t-58 -100.5q0 -57 36.5 -97.5t123.5 -68.5l117 -37q134 -42 203 -114t69 -182q0 -142 -95 -220.5t-249 -78.5z" />
    <glyph glyph-name="Scircumflex" unicode="&#x15c;" horiz-adv-x="1124" 
d="M225 1573l267 280h167l267 -280h-170l-183 188l-178 -188h-170zM582 -25q-176 0 -313.5 75t-188.5 188l129 92q132 -207 375 -207q125 0 209 65t84 174q0 184 -211 265l-215 82q-171 65 -246.5 157t-75.5 240q0 168 126 270.5t318 102.5q132 0 241 -55.5t171 -143.5
l-121 -98q-61 73 -132 111t-165 38q-120 0 -201 -62.5t-81 -160.5q0 -96 50.5 -150.5t166.5 -99.5l192 -74q170 -66 254 -164t84 -253q0 -180 -125 -286t-325 -106z" />
    <glyph glyph-name="scircumflex" unicode="&#x15d;" horiz-adv-x="915" 
d="M135 1184l260 311h160l260 -311h-164l-176 211l-176 -211h-164zM475 -20q-143 0 -251 64.5t-146 186.5l129 54q25 -82 101.5 -129t168.5 -47q86 0 142.5 42t56.5 115q0 62 -44.5 104.5t-148.5 75.5l-110 35q-121 38 -183.5 112t-62.5 179q0 125 97.5 198.5t244.5 73.5
q112 0 198.5 -47t133.5 -133l-115 -71q-81 125 -225 125q-75 0 -133 -39.5t-58 -100.5q0 -57 36.5 -97.5t123.5 -68.5l117 -37q134 -42 203 -114t69 -182q0 -142 -95 -220.5t-249 -78.5z" />
    <glyph glyph-name="Scedilla" unicode="&#x15e;" horiz-adv-x="1124" 
d="M403 -287q67 -28 142 -28q49 0 85 18t36 53q0 28 -23.5 43t-60.5 15q-42 0 -97 -19l-59 47l82 138q-152 15 -267.5 86t-160.5 172l129 92q132 -207 375 -207q125 0 209 65t84 174q0 184 -211 265l-215 82q-171 65 -246.5 157t-75.5 240q0 168 126 270.5t318 102.5
q132 0 241 -55.5t171 -143.5l-121 -98q-61 73 -132 111t-165 38q-120 0 -201 -62.5t-81 -160.5q0 -96 50.5 -150.5t166.5 -99.5l192 -74q170 -66 254 -164t84 -253q0 -172 -116 -277.5t-304 -114.5l-49 -77q36 12 74 12q67 0 110.5 -39.5t43.5 -106.5q0 -87 -67 -134.5
t-177 -47.5q-101 0 -170 35z" />
    <glyph glyph-name="scedilla" unicode="&#x15f;" horiz-adv-x="915" 
d="M295 -287q67 -28 141 -28q49 0 85 18t36 53q0 28 -23.5 43t-60.5 15q-41 0 -96 -19l-60 47l86 142q-119 15 -205 78t-120 169l129 54q25 -82 101.5 -129t168.5 -47q86 0 142.5 42t56.5 115q0 62 -44.5 104.5t-148.5 75.5l-110 35q-121 38 -183.5 112t-62.5 179
q0 125 97.5 198.5t244.5 73.5q112 0 198.5 -47t133.5 -133l-115 -71q-81 125 -225 125q-75 0 -133 -39.5t-58 -100.5q0 -57 36.5 -97.5t123.5 -68.5l117 -37q134 -42 203 -114t69 -182q0 -134 -86 -212t-227 -87l-51 -82q36 12 73 12q67 0 110.5 -39.5t43.5 -106.5
q0 -87 -67 -134.5t-177 -47.5q-101 0 -170 35z" />
    <glyph glyph-name="Scaron" unicode="&#x160;" horiz-adv-x="1124" 
d="M492 1573l-267 280h170l178 -188l183 188h170l-267 -280h-167zM582 -25q-176 0 -313.5 75t-188.5 188l129 92q132 -207 375 -207q125 0 209 65t84 174q0 184 -211 265l-215 82q-171 65 -246.5 157t-75.5 240q0 168 126 270.5t318 102.5q132 0 241 -55.5t171 -143.5
l-121 -98q-61 73 -132 111t-165 38q-120 0 -201 -62.5t-81 -160.5q0 -96 50.5 -150.5t166.5 -99.5l192 -74q170 -66 254 -164t84 -253q0 -180 -125 -286t-325 -106z" />
    <glyph glyph-name="scaron" unicode="&#x161;" horiz-adv-x="915" 
d="M135 1495h164l176 -211l176 211h164l-260 -311h-160zM475 -20q-143 0 -251 64.5t-146 186.5l129 54q25 -82 101.5 -129t168.5 -47q86 0 142.5 42t56.5 115q0 62 -44.5 104.5t-148.5 75.5l-110 35q-121 38 -183.5 112t-62.5 179q0 125 97.5 198.5t244.5 73.5
q112 0 198.5 -47t133.5 -133l-115 -71q-81 125 -225 125q-75 0 -133 -39.5t-58 -100.5q0 -57 36.5 -97.5t123.5 -68.5l117 -37q134 -42 203 -114t69 -182q0 -142 -95 -220.5t-249 -78.5z" />
    <glyph glyph-name="uni0162" unicode="&#x162;" horiz-adv-x="1161" 
d="M504 0v1307h-471v147h1095v-147h-471v-1307h-153zM606 -528h-86l49 178h-90v196h199v-196z" />
    <glyph glyph-name="uni0163" unicode="&#x163;" horiz-adv-x="817" 
d="M584 -10q-126 0 -211.5 76t-85.5 219v604h-260v135h260v285h143v-285h320v-135h-320v-592q0 -92 46.5 -135t119.5 -43q80 0 152 39l43 -123q-97 -45 -207 -45zM561 -528h-86l49 178h-90v196h199v-196z" />
    <glyph glyph-name="Tcaron" unicode="&#x164;" horiz-adv-x="1161" 
d="M498 1573l-267 280h170l179 -188l182 188h170l-266 -280h-168zM504 0v1307h-471v147h1095v-147h-471v-1307h-153z" />
    <glyph glyph-name="tcaron" unicode="&#x165;" horiz-adv-x="817" 
d="M512 1114l51 340h144l-93 -340h-102zM584 -10q-126 0 -211.5 76t-85.5 219v604h-260v135h260v285h143v-285h320v-135h-320v-592q0 -92 46.5 -135t119.5 -43q80 0 152 39l43 -123q-97 -45 -207 -45z" />
    <glyph glyph-name="Tbar" unicode="&#x166;" horiz-adv-x="1214" 
d="M530 0v678h-331v139h331v490h-471v147h1096v-147h-471v-490h332v-139h-332v-678h-154z" />
    <glyph glyph-name="tbar" unicode="&#x167;" horiz-adv-x="847" 
d="M49 575v125h260v189h-260v135h260v285h144v-285h319v-135h-319v-189h319v-125h-319v-278q0 -92 46 -135t119 -43q80 0 152 39l43 -123q-97 -45 -207 -45q-126 0 -211.5 76t-85.5 219v290h-260z" />
    <glyph glyph-name="Utilde" unicode="&#x168;" horiz-adv-x="1490" 
d="M401 1614l7 33q15 81 71.5 131.5t136.5 50.5q56 0 145 -44t118 -44q68 0 88 88h125l-7 -33q-15 -81 -71.5 -131.5t-136.5 -50.5q-43 0 -95 22t-96.5 44t-71.5 22q-68 0 -88 -88h-125zM745 -25q-251 0 -406 159.5t-155 428.5v891h156v-895q0 -207 109.5 -321.5
t295.5 -114.5t296 114.5t110 321.5v895h156v-891q0 -269 -155 -428.5t-407 -159.5z" />
    <glyph glyph-name="utilde" unicode="&#x169;" horiz-adv-x="1179" 
d="M233 1229l7 33q15 81 72 131.5t137 50.5q55 0 144 -44t118 -44q68 0 88 88h125l-6 -33q-15 -81 -72 -131.5t-137 -50.5q-44 0 -95.5 22t-96 44t-71.5 22q-68 0 -88 -88h-125zM1004 1024v-1024h-144v143q-53 -81 -140 -122t-185 -41q-163 0 -269 109.5t-106 293.5v641h143
v-621q0 -137 71.5 -213.5t192.5 -76.5q109 0 185 62.5t108 166.5v682h144z" />
    <glyph glyph-name="Umacron" unicode="&#x16a;" horiz-adv-x="1490" 
d="M422 1657v125h647v-125h-647zM745 -25q-251 0 -406 159.5t-155 428.5v891h156v-895q0 -207 109.5 -321.5t295.5 -114.5t296 114.5t110 321.5v895h156v-891q0 -269 -155 -428.5t-407 -159.5z" />
    <glyph glyph-name="umacron" unicode="&#x16b;" horiz-adv-x="1179" 
d="M256 1329v125h647v-125h-647zM1004 1024v-1024h-144v143q-53 -81 -140 -122t-185 -41q-163 0 -269 109.5t-106 293.5v641h143v-621q0 -137 71.5 -213.5t192.5 -76.5q109 0 185 62.5t108 166.5v682h144z" />
    <glyph glyph-name="Ubreve" unicode="&#x16c;" horiz-adv-x="1490" 
d="M745 1561q-134 0 -224.5 86t-90.5 227h105q0 -98 59.5 -154.5t150.5 -56.5t151 56.5t60 154.5h105q0 -141 -91 -227t-225 -86zM745 -25q-251 0 -406 159.5t-155 428.5v891h156v-895q0 -207 109.5 -321.5t295.5 -114.5t296 114.5t110 321.5v895h156v-891
q0 -269 -155 -428.5t-407 -159.5z" />
    <glyph glyph-name="ubreve" unicode="&#x16d;" horiz-adv-x="1179" 
d="M580 1157q-134 0 -225 86.5t-91 229.5v22h105v-22q0 -99 60 -156t151 -57t151 57t60 156v22h104v-22q0 -143 -90.5 -229.5t-224.5 -86.5zM1004 1024v-1024h-144v143q-53 -81 -140 -122t-185 -41q-163 0 -269 109.5t-106 293.5v641h143v-621q0 -137 71.5 -213.5
t192.5 -76.5q109 0 185 62.5t108 166.5v682h144z" />
    <glyph glyph-name="Uring" unicode="&#x16e;" horiz-adv-x="1490" 
d="M745 1542q-101 0 -174 72.5t-73 173.5t73 173.5t174 72.5q102 0 176 -72.5t74 -173.5t-74 -173.5t-176 -72.5zM745 1638q63 0 107.5 43.5t44.5 106.5q0 62 -44.5 106.5t-107.5 44.5q-61 0 -105 -44.5t-44 -106.5q0 -63 43.5 -106.5t105.5 -43.5zM745 -25
q-251 0 -406 159.5t-155 428.5v891h156v-895q0 -207 109.5 -321.5t295.5 -114.5t296 114.5t110 321.5v895h156v-891q0 -269 -155 -428.5t-407 -159.5z" />
    <glyph glyph-name="uring" unicode="&#x16f;" horiz-adv-x="1179" 
d="M582 1106q-103 0 -176.5 73.5t-73.5 176.5q0 101 73.5 174.5t176.5 73.5q101 0 174 -73.5t73 -174.5q0 -103 -73 -176.5t-174 -73.5zM582 1204q60 0 104.5 45.5t44.5 106.5t-44.5 105t-104.5 44q-62 0 -107 -44t-45 -105q0 -62 45 -107t107 -45zM1004 1024v-1024h-144
v143q-53 -81 -140 -122t-185 -41q-163 0 -269 109.5t-106 293.5v641h143v-621q0 -137 71.5 -213.5t192.5 -76.5q109 0 185 62.5t108 166.5v682h144z" />
    <glyph glyph-name="Uhungarumlaut" unicode="&#x170;" horiz-adv-x="1490" 
d="M539 1573l112 280h174l-176 -280h-110zM870 1573l113 280h174l-176 -280h-111zM745 -25q-251 0 -406 159.5t-155 428.5v891h156v-895q0 -207 109.5 -321.5t295.5 -114.5t296 114.5t110 321.5v895h156v-891q0 -269 -155 -428.5t-407 -159.5z" />
    <glyph glyph-name="uhungarumlaut" unicode="&#x171;" horiz-adv-x="1179" 
d="M373 1184l112 311h174l-176 -311h-110zM705 1184l112 311h174l-176 -311h-110zM1004 1024v-1024h-144v143q-53 -81 -140 -122t-185 -41q-163 0 -269 109.5t-106 293.5v641h143v-621q0 -137 71.5 -213.5t192.5 -76.5q109 0 185 62.5t108 166.5v682h144z" />
    <glyph glyph-name="Uogonek" unicode="&#x172;" horiz-adv-x="1490" 
d="M868 -418q-82 0 -138 45t-56 119q0 126 157 238q-67 -9 -86 -9q-251 0 -406 159.5t-155 428.5v891h156v-895q0 -207 109.5 -321.5t295.5 -114.5t296 114.5t110 321.5v895h156v-891q0 -147 -49 -266t-138 -193q-20 -17 -73.5 -59t-84 -68.5t-68.5 -63.5t-56.5 -70
t-18.5 -62q0 -31 20.5 -48.5t51.5 -17.5q42 0 76 19l53 -105q-60 -47 -152 -47z" />
    <glyph glyph-name="uogonek" unicode="&#x173;" horiz-adv-x="1179" 
d="M883 -418q-83 0 -133 48.5t-50 123.5q0 73 43 132t117 114v143q-53 -81 -140 -122t-185 -41q-163 0 -269 109.5t-106 293.5v641h143v-621q0 -137 71.5 -213.5t192.5 -76.5q109 0 185 62.5t108 166.5v682h144v-1024q-175 -119 -175 -221q0 -34 22 -53t56 -19q44 0 78 19
l49 -97q-60 -47 -151 -47z" />
    <glyph glyph-name="Wcircumflex" unicode="&#x174;" horiz-adv-x="2033" 
d="M670 1573l266 280h168l266 -280h-170l-182 188l-178 -188h-170zM494 0l-455 1454h164l364 -1167l381 1167h135l381 -1167l365 1167h166l-455 -1454h-135l-387 1188l-389 -1188h-135z" />
    <glyph glyph-name="wcircumflex" unicode="&#x175;" horiz-adv-x="1538" 
d="M428 1184l260 311h160l260 -311h-164l-176 211l-176 -211h-164zM1040 0l-270 780l-272 -780h-119l-350 1024h147l266 -778l271 778h110l271 -778l266 778h149l-350 -1024h-119z" />
    <glyph glyph-name="Ycircumflex" unicode="&#x176;" horiz-adv-x="1370" 
d="M336 1573l266 280h168l266 -280h-170l-182 188l-178 -188h-170zM608 0v616l-573 838h188l463 -678l463 678h188l-575 -840v-614h-154z" />
    <glyph glyph-name="ycircumflex" unicode="&#x177;" horiz-adv-x="1105" 
d="M215 1184l260 311h160l260 -311h-164l-176 211l-176 -211h-164zM426 -397h-162l211 448l-455 973h160l375 -813l375 813h162z" />
    <glyph glyph-name="Ydieresis" unicode="&#x178;" horiz-adv-x="1370" 
d="M459 1616q-46 0 -78.5 32t-32.5 76t32.5 76.5t78.5 32.5q44 0 75 -32t31 -77q0 -44 -31 -76t-75 -32zM913 1616q-46 0 -78 32t-32 76t32.5 76.5t77.5 32.5q44 0 75.5 -32.5t31.5 -76.5t-31.5 -76t-75.5 -32zM608 0v616l-573 838h188l463 -678l463 678h188l-575 -840v-614
h-154z" />
    <glyph glyph-name="Zacute" unicode="&#x179;" horiz-adv-x="1183" 
d="M551 1573l164 280h194l-229 -280h-129zM68 0v102l817 1205h-793v147h1000v-102l-818 -1205h840v-147h-1046z" />
    <glyph glyph-name="zacute" unicode="&#x17a;" horiz-adv-x="980" 
d="M424 1184l184 311h191l-248 -311h-127zM82 0v115l618 776h-610v133h795v-117l-617 -774h635v-133h-821z" />
    <glyph glyph-name="Zdotaccent" unicode="&#x17b;" horiz-adv-x="1183" 
d="M610 1616q-46 0 -78 32t-32 76t32 76.5t78 32.5q44 0 75.5 -32.5t31.5 -76.5t-31.5 -76t-75.5 -32zM68 0v102l817 1205h-793v147h1000v-102l-818 -1205h840v-147h-1046z" />
    <glyph glyph-name="zdotaccent" unicode="&#x17c;" horiz-adv-x="980" 
d="M487 1233q-46 0 -78 32t-32 76q0 45 32.5 77t77.5 32q44 0 75.5 -32.5t31.5 -76.5t-31.5 -76t-75.5 -32zM82 0v115l618 776h-610v133h795v-117l-617 -774h635v-133h-821z" />
    <glyph glyph-name="Zcaron" unicode="&#x17d;" horiz-adv-x="1183" 
d="M528 1573l-266 280h170l178 -188l183 188h170l-267 -280h-168zM68 0v102l817 1205h-793v147h1000v-102l-818 -1205h840v-147h-1046z" />
    <glyph glyph-name="zcaron" unicode="&#x17e;" horiz-adv-x="980" 
d="M147 1495h164l176 -211l177 211h163l-260 -311h-159zM82 0v115l618 776h-610v133h795v-117l-617 -774h635v-133h-821z" />
    <glyph glyph-name="uni018F" unicode="&#x18f;" horiz-adv-x="1673" 
d="M823 -25q-207 0 -379.5 99t-272 271.5t-99.5 381.5v88h1339q-29 224 -194 370t-394 146q-125 0 -242.5 -45.5t-195.5 -124.5l-109 109q102 97 247.5 153t299.5 56q207 0 379.5 -99t272.5 -271.5t100 -381.5t-100 -381.5t-272.5 -271.5t-379.5 -99zM823 123
q238 0 405.5 157.5t186.5 393.5h-1184q19 -236 186.5 -393.5t405.5 -157.5z" />
    <glyph glyph-name="Scommaaccent" unicode="&#x218;" horiz-adv-x="1124" 
d="M582 -25q-176 0 -313.5 75t-188.5 188l129 92q132 -207 375 -207q125 0 209 65t84 174q0 184 -211 265l-215 82q-171 65 -246.5 157t-75.5 240q0 168 126 270.5t318 102.5q132 0 241 -55.5t171 -143.5l-121 -98q-61 73 -132 111t-165 38q-120 0 -201 -62.5t-81 -160.5
q0 -96 50.5 -150.5t166.5 -99.5l192 -74q170 -66 254 -164t84 -253q0 -180 -125 -286t-325 -106zM608 -528h-86l49 178h-90v196h199v-196z" />
    <glyph glyph-name="scommaaccent" unicode="&#x219;" horiz-adv-x="915" 
d="M475 -20q-143 0 -251 64.5t-146 186.5l129 54q25 -82 101.5 -129t168.5 -47q86 0 142.5 42t56.5 115q0 62 -44.5 104.5t-148.5 75.5l-110 35q-121 38 -183.5 112t-62.5 179q0 125 97.5 198.5t244.5 73.5q112 0 198.5 -47t133.5 -133l-115 -71q-81 125 -225 125
q-75 0 -133 -39.5t-58 -100.5q0 -57 36.5 -97.5t123.5 -68.5l117 -37q134 -42 203 -114t69 -182q0 -142 -95 -220.5t-249 -78.5zM500 -528h-86l49 178h-90v196h198v-196z" />
    <glyph glyph-name="Tcommaaccent" unicode="&#x21a;" horiz-adv-x="1161" 
d="M504 0v1307h-471v147h1095v-147h-471v-1307h-153zM606 -528h-86l49 178h-90v196h199v-196z" />
    <glyph glyph-name="tcommaaccent" unicode="&#x21b;" horiz-adv-x="817" 
d="M584 -10q-126 0 -211.5 76t-85.5 219v604h-260v135h260v285h143v-285h320v-135h-320v-592q0 -92 46.5 -135t119.5 -43q80 0 152 39l43 -123q-97 -45 -207 -45zM561 -528h-86l49 178h-90v196h199v-196z" />
    <glyph glyph-name="uni0232" unicode="&#x232;" horiz-adv-x="1370" 
d="M360 1657v125h648v-125h-648zM608 0v616l-573 838h188l463 -678l463 678h188l-575 -840v-614h-154z" />
    <glyph glyph-name="uni0233" unicode="&#x233;" horiz-adv-x="1105" 
d="M231 1329v125h648v-125h-648zM426 -397h-162l211 448l-455 973h160l375 -813l375 813h162z" />
    <glyph glyph-name="dotlessj" unicode="&#x237;" horiz-adv-x="512" 
d="M68 -408q-34 0 -74.5 7.5t-56.5 15.5l30 125q56 -14 92 -14q59 0 96.5 41.5t37.5 132.5v1124h143v-1137q0 -144 -76 -219.5t-192 -75.5z" />
    <glyph glyph-name="uni0259" unicode="&#x259;" horiz-adv-x="1187" 
d="M580 -20q-104 0 -194 35.5t-157 100.5t-105.5 163.5t-39.5 218.5v39h864q-1 157 -107.5 265.5t-256.5 108.5q-117 0 -197 -48.5t-135 -143.5l-117 76q69 119 183 184t266 65q147 0 265 -71.5t182.5 -192.5t64.5 -268t-65.5 -268.5t-184 -192.5t-266.5 -71zM582 113
q125 0 227 81t127 216h-703q19 -136 115 -216.5t234 -80.5z" />
    <glyph glyph-name="uni02BB" unicode="&#x2bb;" horiz-adv-x="489" 
d="M344 1454l-96 -307h104v-225h-225v227l121 305h96z" />
    <glyph glyph-name="uni02BC" unicode="&#x2bc;" horiz-adv-x="466" 
d="M143 922l97 307h-105v225h225v-227l-120 -305h-97z" />
    <glyph glyph-name="circumflex" unicode="&#x2c6;" 
d="M-340 1184l260 311h160l260 -311h-164l-176 211l-176 -211h-164z" />
    <glyph glyph-name="caron" unicode="&#x2c7;" 
d="M-340 1495h164l176 -211l176 211h164l-260 -311h-160z" />
    <glyph glyph-name="breve" unicode="&#x2d8;" 
d="M0 1157q-134 0 -224.5 86.5t-90.5 229.5v22h104v-22q0 -99 60 -156t151 -57t151 57t60 156v22h104v-22q0 -143 -90.5 -229.5t-224.5 -86.5z" />
    <glyph glyph-name="dotaccent" unicode="&#x2d9;" 
d="M0 1233q-46 0 -78.5 32t-32.5 76t32.5 76.5t78.5 32.5q44 0 75 -32t31 -77q0 -44 -31 -76t-75 -32z" />
    <glyph glyph-name="ring" unicode="&#x2da;" 
d="M2 1106q-103 0 -176.5 73.5t-73.5 176.5q0 101 73.5 174.5t176.5 73.5q101 0 174.5 -73.5t73.5 -174.5q0 -103 -73.5 -176.5t-174.5 -73.5zM2 1204q60 0 105 45.5t45 106.5t-45 105t-105 44q-62 0 -107 -44t-45 -105q0 -62 45 -107t107 -45z" />
    <glyph glyph-name="ogonek" unicode="&#x2db;" 
d="M14 -418q-83 0 -132.5 48.5t-49.5 123.5q0 73 43 132t117 114h143q-174 -118 -174 -221q0 -34 22 -53t56 -19q44 0 78 19l49 -97q-60 -47 -152 -47z" />
    <glyph glyph-name="tilde" unicode="&#x2dc;" 
d="M-346 1229l6 33q15 81 72 131.5t137 50.5q55 0 144 -44t118 -44q68 0 88 88h125l-6 -33q-15 -81 -72 -131.5t-137 -50.5q-55 0 -144 44t-118 44q-68 0 -88 -88h-125z" />
    <glyph glyph-name="hungarumlaut" unicode="&#x2dd;" 
d="M-309 1184l112 311h174l-176 -311h-110zM23 1184l112 311h174l-176 -311h-110z" />
    <glyph glyph-name="uni0401" unicode="&#x401;" horiz-adv-x="1134" 
d="M389 1616q-46 0 -78 32t-32 76t32.5 76.5t77.5 32.5q44 0 75.5 -32.5t31.5 -76.5t-31.5 -76t-75.5 -32zM844 1616q-46 0 -78.5 32t-32.5 76t32.5 76.5t78.5 32.5q44 0 75 -32t31 -77q0 -44 -31 -76t-75 -32zM203 0v1454h829v-147h-674v-486h551v-147h-551v-527h674v-147
h-829z" />
    <glyph glyph-name="uni0402" unicode="&#x402;" horiz-adv-x="1519" 
d="M981 901q102 0 182.5 -26.5t132.5 -71.5t86.5 -108t49 -131.5t14.5 -147.5q0 -107 -35 -192t-97.5 -139t-145 -82t-179.5 -28q-91 0 -192 19l24 145q92 -18 172 -18q58 0 110 17t94.5 51t67.5 92.5t25 134.5q0 166 -77.5 252t-243.5 86q-116 0 -211.5 -19.5t-210.5 -62.5
v-672h-156v1307h-356v147h979v-147h-467v-488q224 82 434 82z" />
    <glyph glyph-name="uni0403" unicode="&#x403;" horiz-adv-x="1046" 
d="M549 1573l164 280h194l-229 -280h-129zM1012 1454v-147h-654v-1307h-155v1454h809z" />
    <glyph glyph-name="uni0404" unicode="&#x404;" horiz-adv-x="1546" 
d="M850 -25q-207 0 -379.5 99t-272.5 271.5t-100 381.5t100 381.5t272.5 271.5t379.5 99q198 0 365 -91t268 -249l-129 -82q-80 126 -212 200t-292 74q-230 0 -395 -147t-193 -373h785v-147h-789q15 -153 95.5 -276.5t210.5 -194t286 -70.5q160 0 292 74t212 200l129 -82
q-101 -158 -268 -249t-365 -91z" />
    <glyph glyph-name="uni0405" unicode="&#x405;" horiz-adv-x="1122" 
d="M582 -25q-176 0 -313.5 75t-188.5 188l129 92q132 -207 375 -207q125 0 209 65t84 174q0 184 -211 265l-215 82q-171 65 -246.5 157t-75.5 240q0 168 126 270.5t318 102.5q132 0 241 -55.5t171 -143.5l-121 -98q-61 73 -132 111t-165 38q-120 0 -201 -62.5t-81 -160.5
q0 -96 50.5 -150.5t166.5 -99.5l192 -74q170 -66 254 -164t84 -253q0 -180 -125 -286t-325 -106z" />
    <glyph glyph-name="uni0406" unicode="&#x406;" horiz-adv-x="561" 
d="M203 0v1454h155v-1454h-155z" />
    <glyph glyph-name="uni0407" unicode="&#x407;" horiz-adv-x="561" 
d="M78 1663q-47 0 -81 34t-34 81t33.5 79.5t81.5 32.5t81.5 -32.5t33.5 -79.5t-34 -81t-81 -34zM483 1663q-47 0 -80.5 34t-33.5 81t33.5 79.5t80.5 32.5q48 0 81.5 -32.5t33.5 -79.5t-34 -81t-81 -34zM203 0v1454h155v-1454h-155z" />
    <glyph glyph-name="uni0408" unicode="&#x408;" horiz-adv-x="958" 
d="M383 -25q-118 0 -213 46t-156 120l111 107q52 -61 111.5 -94t146.5 -33q112 0 171.5 65.5t59.5 214.5v1053h156v-1057q0 -209 -105 -315.5t-282 -106.5z" />
    <glyph glyph-name="uni0409" unicode="&#x409;" horiz-adv-x="2103" 
d="M283 1454h999v-633h260q229 0 361.5 -112.5t132.5 -286.5q0 -191 -132 -306.5t-362 -115.5h-416v1307h-688v-945q0 -387 -295 -387q-50 0 -116 15l30 139q36 -8 78 -8q78 0 113 57.5t35 210.5v1065zM1878 420q0 117 -88 186.5t-250 69.5h-258v-531h258q165 0 251.5 71
t86.5 204z" />
    <glyph glyph-name="uni040A" unicode="&#x40a;" horiz-adv-x="2138" 
d="M203 0v1454h155v-633h803v633h156v-633h260q229 0 361.5 -112.5t132.5 -286.5q0 -191 -132 -306.5t-362 -115.5h-416v674h-803v-674h-155zM1575 676h-258v-531h258q165 0 251.5 71t86.5 204q0 117 -88 186.5t-250 69.5z" />
    <glyph glyph-name="uni040B" unicode="&#x40b;" horiz-adv-x="1542" 
d="M391 1307h-356v147h979v-147h-467v-488q219 82 442 82q206 0 330.5 -118t124.5 -312v-471h-156v455q0 141 -80.5 220t-228.5 79q-226 0 -432 -82v-672h-156v1307z" />
    <glyph glyph-name="uni040C" unicode="&#x40c;" horiz-adv-x="1359" 
d="M639 1573l164 280h194l-229 -280h-129zM203 0v1454h153v-637l670 637h211l-723 -690l891 -764h-231l-818 702v-702h-153z" />
    <glyph glyph-name="uni040E" unicode="&#x40e;" horiz-adv-x="1411" 
d="M752 1561q-134 0 -225 86t-91 227h119q0 -95 54.5 -151t142.5 -56t142 56t54 151h119q0 -141 -90.5 -227t-224.5 -86zM262 -8l29 139q58 -10 115 -10q66 0 116 37t94 121l35 65l-569 1110h176l483 -944l506 944h166l-629 -1178q-86 -159 -167 -230t-197 -71
q-85 0 -158 17z" />
    <glyph glyph-name="uni040F" unicode="&#x40f;" horiz-adv-x="1525" 
d="M840 0v-303h-152v303h-485v1454h155v-1307h809v1307h156v-1454h-483z" />
    <glyph glyph-name="uni0410" unicode="&#x410;" horiz-adv-x="1454" 
d="M16 0l648 1454h124l650 -1454h-164l-201 453h-696l-201 -453h-160zM442 598h566l-283 637z" />
    <glyph glyph-name="uni0411" unicode="&#x411;" horiz-adv-x="1269" 
d="M709 834q220 0 354.5 -108.5t134.5 -309.5q0 -133 -63.5 -228t-173 -141.5t-252.5 -46.5h-506v1454h858v-147h-703v-473h351zM1040 416q0 131 -85 201.5t-244 70.5h-353v-543h353q159 0 244 71t85 200z" />
    <glyph glyph-name="uni0412" unicode="&#x412;" horiz-adv-x="1286" 
d="M203 0v1454h459q102 0 185 -30.5t137 -82.5t83 -118.5t29 -141.5q0 -212 -166 -309q262 -85 262 -348q0 -186 -136 -305t-362 -119h-491zM358 819h314q126 0 198 68.5t72 177.5q0 104 -73 176t-197 72h-314v-494zM358 141h353q159 0 243 74t84 197q0 122 -83 197t-242 75
h-355v-543z" />
    <glyph glyph-name="uni0413" unicode="&#x413;" horiz-adv-x="1046" 
d="M1012 1454v-147h-654v-1307h-155v1454h809z" />
    <glyph glyph-name="uni0414" unicode="&#x414;" horiz-adv-x="1542" 
d="M1317 -303v303h-1100v-303h-147v450h28q42 0 73.5 22.5t59 79t42 165.5t14.5 268v772h999v-1307h178v-450h-147zM442 1307v-656q0 -364 -96 -504h784v1160h-688z" />
    <glyph glyph-name="uni0415" unicode="&#x415;" horiz-adv-x="1134" 
d="M203 0v1454h829v-147h-674v-486h551v-147h-551v-527h674v-147h-829z" />
    <glyph glyph-name="uni0416" unicode="&#x416;" horiz-adv-x="1945" 
d="M201 0h-215l762 719l-703 735h197l653 -684v684h156v-684l653 684h197l-703 -735l762 -719h-215l-694 655v-655h-156v655z" />
    <glyph glyph-name="uni0417" unicode="&#x417;" horiz-adv-x="1167" 
d="M223 1200l-104 103q173 176 438 176q200 0 323.5 -110.5t123.5 -283.5q0 -101 -49 -187.5t-152 -137.5q125 -42 190.5 -137.5t65.5 -221.5q0 -100 -41 -182.5t-111.5 -134.5t-160.5 -80.5t-191 -28.5q-162 0 -297.5 62t-210.5 168l115 100q63 -87 170 -135.5t225 -48.5
q157 0 252.5 80.5t95.5 206.5q0 123 -84.5 199.5t-240.5 76.5h-187v135h193q124 0 194 73.5t70 182.5q0 116 -78 185.5t-221 72.5q-192 3 -328 -133z" />
    <glyph glyph-name="uni0418" unicode="&#x418;" horiz-adv-x="1626" 
d="M203 0v1454h155v-1190l928 1190h137v-1454h-155v1190l-928 -1190h-137z" />
    <glyph glyph-name="uni0419" unicode="&#x419;" horiz-adv-x="1626" 
d="M831 1561q-134 0 -224.5 86t-90.5 227h119q0 -95 54 -151t142 -56t142.5 56t54.5 151h119q0 -141 -91 -227t-225 -86zM203 0v1454h155v-1190l928 1190h137v-1454h-155v1190l-928 -1190h-137z" />
    <glyph glyph-name="uni041A" unicode="&#x41a;" horiz-adv-x="1359" 
d="M203 0v1454h153v-637l670 637h211l-723 -690l891 -764h-231l-818 702v-702h-153z" />
    <glyph glyph-name="uni041B" unicode="&#x41b;" horiz-adv-x="1484" 
d="M283 389v1065h999v-1454h-156v1307h-688v-945q0 -387 -295 -387q-50 0 -116 15l30 139q36 -8 78 -8q78 0 113 57.5t35 210.5z" />
    <glyph glyph-name="uni041C" unicode="&#x41c;" horiz-adv-x="1814" 
d="M203 0v1454h143l561 -879l561 879h144v-1454h-156v1147l-489 -766h-117l-492 770v-1151h-155z" />
    <glyph glyph-name="uni041D" unicode="&#x41d;" horiz-adv-x="1566" 
d="M203 0v1454h155v-633h850v633h156v-1454h-156v674h-850v-674h-155z" />
    <glyph glyph-name="uni041E" unicode="&#x41e;" horiz-adv-x="1699" 
d="M850 -25q-207 0 -379.5 99t-272.5 271.5t-100 381.5t100 381.5t272.5 271.5t379.5 99t379.5 -99t272.5 -271.5t100 -381.5t-100 -381.5t-272.5 -271.5t-379.5 -99zM850 123q166 0 302.5 79.5t214 218t77.5 306.5t-77.5 306.5t-214 218t-302.5 79.5t-302.5 -79.5
t-214 -218t-77.5 -306.5t77.5 -306.5t214 -218t302.5 -79.5z" />
    <glyph glyph-name="uni041F" unicode="&#x41f;" horiz-adv-x="1527" 
d="M1174 0v1307h-822v-1307h-149v1454h1122v-1454h-151z" />
    <glyph glyph-name="uni0420" unicode="&#x420;" horiz-adv-x="1196" 
d="M1130 999q0 -196 -135.5 -324t-359.5 -128h-277v-547h-155v1454h432q149 0 262.5 -60t173 -163t59.5 -232zM973 999q0 137 -88.5 223.5t-249.5 86.5h-277v-617h277q161 0 249.5 86t88.5 221z" />
    <glyph glyph-name="uni0421" unicode="&#x421;" horiz-adv-x="1548" 
d="M850 -25q-207 0 -379.5 99t-272.5 271.5t-100 381.5t100 381.5t272.5 271.5t379.5 99q198 0 365 -91t268 -249l-129 -82q-80 126 -212 200t-292 74q-166 0 -302.5 -79.5t-214 -218t-77.5 -306.5t77.5 -306.5t214 -218t302.5 -79.5q160 0 292 74t212 200l129 -82
q-101 -158 -268 -249t-365 -91z" />
    <glyph glyph-name="uni0422" unicode="&#x422;" horiz-adv-x="1161" 
d="M504 0v1307h-471v147h1095v-147h-471v-1307h-153z" />
    <glyph glyph-name="uni0423" unicode="&#x423;" horiz-adv-x="1411" 
d="M262 -8l29 139q58 -10 115 -10q66 0 116 37t94 121l35 65l-569 1110h176l483 -944l506 944h166l-629 -1178q-86 -159 -167 -230t-197 -71q-85 0 -158 17z" />
    <glyph glyph-name="uni0424" unicode="&#x424;" horiz-adv-x="1759" 
d="M956 -61h-153v194h-15q-324 0 -511 161.5t-187 440.5q0 277 186.5 437.5t511.5 160.5h15v183h153v-183h15q325 0 511.5 -160.5t186.5 -437.5q0 -279 -187 -440.5t-511 -161.5h-15v-194zM803 276v914h-17q-260 0 -399 -120t-139 -335q0 -218 138 -338.5t400 -120.5h17z
M956 276h17q262 0 400 120.5t138 338.5q0 215 -139 335t-399 120h-17v-914z" />
    <glyph glyph-name="uni0425" unicode="&#x425;" horiz-adv-x="1355" 
d="M1145 0l-467 606l-467 -606h-197l566 735l-545 719h190l453 -592l452 592h191l-545 -719l565 -735h-196z" />
    <glyph glyph-name="uni0426" unicode="&#x426;" horiz-adv-x="1552" 
d="M1296 147h181v-450h-152v303h-1122v1454h155v-1307h783v1307h155v-1307z" />
    <glyph glyph-name="uni0427" unicode="&#x427;" horiz-adv-x="1406" 
d="M1204 0h-155v641q-224 -78 -457 -78q-232 0 -364 115.5t-132 335.5v440h156v-426q0 -319 360 -319q235 0 437 77v668h155v-1454z" />
    <glyph glyph-name="uni0428" unicode="&#x428;" horiz-adv-x="2027" 
d="M203 0v1454h155v-1307h578v1307h156v-1307h577v1307h156v-1454h-1622z" />
    <glyph glyph-name="uni0429" unicode="&#x429;" horiz-adv-x="2080" 
d="M1853 -303v303h-1650v1454h155v-1307h578v1307h156v-1307h577v1307h156v-1307h180v-450h-152z" />
    <glyph glyph-name="uni042A" unicode="&#x42a;" horiz-adv-x="1435" 
d="M590 852h280q230 0 363 -116t133 -310t-133 -310t-363 -116h-436v1307h-401v147h557v-602zM590 145h274q166 0 255 73.5t89 207.5t-89 207.5t-255 73.5h-274v-562z" />
    <glyph glyph-name="uni042B" unicode="&#x42b;" horiz-adv-x="1705" 
d="M639 852q230 0 363 -116t133 -310t-133 -310t-363 -116h-436v1454h155v-602h281zM1348 0v1454h155v-1454h-155zM358 145h275q166 0 255 73.5t89 207.5t-89 207.5t-255 73.5h-275v-562z" />
    <glyph glyph-name="uni042C" unicode="&#x42c;" horiz-adv-x="1204" 
d="M639 852q230 0 363 -116t133 -310t-133 -310t-363 -116h-436v1454h155v-602h281zM358 145h275q166 0 255 73.5t89 207.5t-89 207.5t-255 73.5h-275v-562z" />
    <glyph glyph-name="uni042D" unicode="&#x42d;" horiz-adv-x="1546" 
d="M696 -25q-198 0 -365 91t-268 249l130 82q80 -126 211.5 -200t291.5 -74q156 0 286 70.5t210.5 194t95.5 276.5h-788v147h784q-28 226 -193 373t-395 147q-160 0 -291.5 -74t-211.5 -200l-130 82q101 158 268 249t365 91q207 0 379.5 -99t272.5 -271.5t100 -381.5
t-100 -381.5t-272.5 -271.5t-379.5 -99z" />
    <glyph glyph-name="uni042E" unicode="&#x42e;" horiz-adv-x="2181" 
d="M203 0v1454h155v-635h273q21 186 121 337t258 237t344 86q201 0 368.5 -99.5t264 -272t96.5 -380.5t-96.5 -380.5t-264 -272t-368.5 -99.5q-143 0 -273.5 53.5t-226.5 146.5t-156.5 222t-70.5 275h-269v-672h-155zM1925 727q0 168 -74.5 306.5t-206 218t-290.5 79.5
t-290.5 -79.5t-206.5 -218t-75 -306.5t75 -306.5t206.5 -218t290.5 -79.5t290.5 79.5t206 218t74.5 306.5z" />
    <glyph glyph-name="uni042F" unicode="&#x42f;" horiz-adv-x="1277" 
d="M-10 0l547 641q-174 24 -270.5 134t-96.5 265q0 184 132 299t357 115h416v-1454h-155v621h-205l-527 -621h-198zM328 1040q0 -128 87.5 -201t250.5 -73h254v543h-254q-162 0 -250 -73t-88 -196z" />
    <glyph glyph-name="uni0430" unicode="&#x430;" horiz-adv-x="1284" 
d="M608 -20q-149 0 -268.5 72t-184.5 193t-65 267t65 267t184.5 193t268.5 72q224 0 357 -145v125h143v-1024h-143v125q-133 -145 -357 -145zM614 113q119 0 210 51.5t141 134.5v426q-50 83 -141 134.5t-210 51.5q-165 0 -270.5 -115t-105.5 -284t105.5 -284t270.5 -115z
" />
    <glyph glyph-name="uni0431" unicode="&#x431;" horiz-adv-x="1292" 
d="M666 -20q-235 0 -383 159t-148 406v119q0 373 130 563t435 246l365 67l25 -133l-359 -66q-121 -22 -202.5 -62t-132.5 -106t-77.5 -146.5t-42.5 -199.5q72 104 178 154.5t228 50.5q155 0 275 -71t182.5 -187.5t62.5 -255.5q0 -148 -67 -270.5t-190.5 -195t-278.5 -72.5z
M666 113q171 0 280 115t109 290q0 168 -108.5 274.5t-276.5 106.5q-170 0 -278.5 -108.5t-108.5 -270.5q0 -176 107 -291.5t276 -115.5z" />
    <glyph glyph-name="uni0432" unicode="&#x432;" horiz-adv-x="1107" 
d="M176 0v1024h432q162 0 251 -71t89 -199q0 -132 -110 -207q178 -73 178 -254q0 -130 -91.5 -211.5t-275.5 -81.5h-473zM319 594h310q74 0 124 36t50 115q0 77 -49.5 112.5t-124.5 35.5h-310v-299zM319 131h349q94 0 147 43.5t53 124.5t-53 124.5t-147 43.5h-349v-336z" />
    <glyph glyph-name="uni0433" unicode="&#x433;" horiz-adv-x="829" 
d="M176 0v1024h621v-135h-478v-889h-143z" />
    <glyph glyph-name="uni0434" unicode="&#x434;" horiz-adv-x="1263" 
d="M94 135q32 0 56 14t46 49.5t34 109t12 181.5v535h792v-889h152v-395h-139v260h-838v-260h-139v395h24zM385 457q0 -127 -16.5 -197.5t-51.5 -124.5h574v754h-506v-432z" />
    <glyph glyph-name="uni0435" unicode="&#x435;" horiz-adv-x="1191" 
d="M618 -20q-157 0 -278 71.5t-184.5 192t-63.5 268.5q0 147 67 268.5t189.5 192.5t274.5 71q100 0 187 -35.5t152.5 -100t103 -163.5t38.5 -219v-39h-864q2 -160 107.5 -267t270.5 -107q121 0 202 48.5t136 143.5l117 -76q-69 -119 -184 -184t-271 -65zM616 911
q-132 0 -235 -80.5t-129 -216.5h702q-18 136 -112.5 216.5t-225.5 80.5z" />
    <glyph glyph-name="uni0436" unicode="&#x436;" horiz-adv-x="1564" 
d="M195 0h-199l573 522l-499 502h184l457 -465v465h143v-465l457 465h184l-500 -502l574 -522h-199l-516 471v-471h-143v471z" />
    <glyph glyph-name="uni0437" unicode="&#x437;" horiz-adv-x="968" 
d="M471 -20q-264 0 -410 206l115 76q107 -156 295 -156q129 0 190.5 51.5t61.5 133.5q0 180 -244 180h-155v127h157q97 0 151 40t54 120t-57.5 121t-157.5 41q-78 0 -146.5 -34t-115.5 -98l-113 70q61 88 159.5 137t219.5 49q162 0 256 -76t94 -202q0 -156 -131 -227
q80 -31 127 -99.5t47 -158.5q0 -133 -105 -217t-292 -84z" />
    <glyph glyph-name="uni0438" unicode="&#x438;" horiz-adv-x="1236" 
d="M176 0v1024h143v-797l615 797h127v-1024h-143v799l-615 -799h-127z" />
    <glyph glyph-name="uni0439" unicode="&#x439;" horiz-adv-x="1236" 
d="M633 1157q-134 0 -225 86.5t-91 229.5v22h119v-22q0 -94 54.5 -151.5t142.5 -57.5t142 57.5t54 151.5v22h119v-22q0 -143 -90.5 -229.5t-224.5 -86.5zM176 0v1024h143v-797l615 797h127v-1024h-143v799l-615 -799h-127z" />
    <glyph glyph-name="uni043A" unicode="&#x43a;" horiz-adv-x="1054" 
d="M176 0v1024h143v-465l488 465h188l-528 -502l606 -522h-207l-547 471v-471h-143z" />
    <glyph glyph-name="uni043B" unicode="&#x43b;" horiz-adv-x="1171" 
d="M121 -12q-47 0 -92 10l22 127q30 -6 58 -6q59 0 89.5 47.5t30.5 163.5v694h766v-1024h-143v889h-479v-598q0 -147 -68 -225t-184 -78z" />
    <glyph glyph-name="uni043C" unicode="&#x43c;" horiz-adv-x="1413" 
d="M649 268l-330 506v-774h-143v1024h135l396 -606l395 606h135v-1024h-143v774l-330 -506h-115z" />
    <glyph glyph-name="uni043D" unicode="&#x43d;" horiz-adv-x="1239" 
d="M176 0v1024h143v-432h601v432h143v-1024h-143v457h-601v-457h-143z" />
    <glyph glyph-name="uni043E" unicode="&#x43e;" horiz-adv-x="1249" 
d="M625 -20q-114 0 -214.5 42t-170 114t-110 169.5t-40.5 206.5t40.5 206.5t110 169.5t170 114t214.5 42q152 0 275 -71.5t191 -193t68 -267.5t-68 -267.5t-191 -193t-275 -71.5zM625 113q171 0 279 115.5t108 283.5t-108 283.5t-279 115.5t-279 -115.5t-108 -283.5
t108 -283.5t279 -115.5z" />
    <glyph glyph-name="uni043F" unicode="&#x43f;" horiz-adv-x="1216" 
d="M176 0v1024h864v-1024h-143v889h-578v-889h-143z" />
    <glyph glyph-name="uni0440" unicode="&#x440;" horiz-adv-x="1286" 
d="M176 -397v1421h143v-125q133 145 357 145q149 0 268.5 -72t184.5 -193t65 -267t-65 -267t-184.5 -193t-268.5 -72q-224 0 -357 145v-522h-143zM670 113q165 0 271 115.5t106 283.5t-106 283.5t-271 115.5q-119 0 -210 -51.5t-141 -134.5v-426q50 -83 141 -134.5
t210 -51.5z" />
    <glyph glyph-name="uni0441" unicode="&#x441;" horiz-adv-x="1161" 
d="M625 -20q-114 0 -214.5 42t-170 114t-110 169.5t-40.5 206.5t40.5 206.5t110 169.5t170 114t214.5 42q155 0 277.5 -72.5t191.5 -195.5l-125 -71q-47 95 -137 150.5t-207 55.5q-171 0 -279 -115.5t-108 -283.5t108 -283.5t279 -115.5q117 0 207 55.5t137 150.5l125 -71
q-69 -123 -191.5 -195.5t-277.5 -72.5z" />
    <glyph glyph-name="uni0442" unicode="&#x442;" horiz-adv-x="903" 
d="M373 0v889h-338v135h833v-135h-352v-889h-143z" />
    <glyph glyph-name="uni0443" unicode="&#x443;" horiz-adv-x="1107" 
d="M543 -158q-63 -135 -131.5 -192.5t-175.5 -57.5q-76 0 -132 17l25 127q48 -10 98 -10q55 0 96.5 35t82.5 124l73 160l-459 979h160l375 -811l375 811h162z" />
    <glyph glyph-name="uni0444" unicode="&#x444;" horiz-adv-x="1478" 
d="M811 -397h-143v377h-9q-131 0 -240 42.5t-180 116t-110 169.5t-39 204t39 204t110 169.5t180 116t240 42.5h9v451h143v-451h8q131 0 240 -42.5t180.5 -115.5t110.5 -169.5t39 -204.5t-39 -204.5t-110.5 -169.5t-180.5 -115.5t-240 -42.5h-8v-377zM819 911h-8v-798h8
q198 0 310 112.5t112 286.5q0 172 -114.5 285.5t-307.5 113.5zM668 113v798h-9q-193 0 -307 -113.5t-114 -285.5q0 -174 111.5 -286.5t309.5 -112.5h9z" />
    <glyph glyph-name="uni0445" unicode="&#x445;" horiz-adv-x="1060" 
d="M14 0l426 524l-383 500h174l299 -387l297 387h177l-386 -500l426 -524h-180l-334 412l-333 -412h-183z" />
    <glyph glyph-name="uni0446" unicode="&#x446;" horiz-adv-x="1259" 
d="M1184 135v-395h-140v260h-868v1024h143v-889h568v889h143v-889h154z" />
    <glyph glyph-name="uni0447" unicode="&#x447;" horiz-adv-x="1097" 
d="M922 0h-144v430q-149 -70 -309 -70q-178 0 -281.5 97.5t-103.5 269.5v297h143v-285q0 -245 265 -245q153 0 286 75v455h144v-1024z" />
    <glyph glyph-name="uni0448" unicode="&#x448;" horiz-adv-x="1667" 
d="M176 0v1024h143v-889h443v889h143v-889h443v889h143v-1024h-1315z" />
    <glyph glyph-name="uni0449" unicode="&#x449;" horiz-adv-x="1720" 
d="M1645 135v-395h-140v260h-1329v1024h143v-889h443v889h143v-889h443v889h143v-889h154z" />
    <glyph glyph-name="uni044A" unicode="&#x44a;" horiz-adv-x="1165" 
d="M332 0v893h-295v131h438v-389h250q95 0 168.5 -26.5t117.5 -71.5t66.5 -100t22.5 -118q0 -135 -96 -227t-281 -92h-391zM475 500v-365h250q108 0 167.5 48.5t59.5 135.5q0 86 -59 133.5t-166 47.5h-252z" />
    <glyph glyph-name="uni044B" unicode="&#x44b;" horiz-adv-x="1429" 
d="M1110 0v1024h143v-1024h-143zM176 0v1024h143v-389h250q95 0 168.5 -26.5t117.5 -71.5t66.5 -100t22.5 -118q0 -135 -96 -227t-281 -92h-391zM319 500v-365h250q108 0 168 48.5t60 135.5q0 86 -59.5 133.5t-166.5 47.5h-252z" />
    <glyph glyph-name="uni044C" unicode="&#x44c;" horiz-adv-x="1009" 
d="M176 0v1024h143v-389h250q95 0 168.5 -26.5t117.5 -71.5t66.5 -100t22.5 -118q0 -135 -96 -227t-281 -92h-391zM319 500v-365h250q108 0 168 48.5t60 135.5q0 86 -59.5 133.5t-166.5 47.5h-252z" />
    <glyph glyph-name="uni044D" unicode="&#x44d;" horiz-adv-x="1159" 
d="M535 -20q-155 0 -277.5 72.5t-191.5 195.5l124 71q47 -95 137.5 -150.5t207.5 -55.5q156 0 260 96.5t123 243.5h-515v135h512q-24 142 -126.5 232.5t-253.5 90.5q-117 0 -207.5 -55.5t-137.5 -150.5l-124 71q69 123 191.5 195.5t277.5 72.5q152 0 275 -71.5t191 -193
t68 -267.5t-68 -267.5t-191 -193t-275 -71.5z" />
    <glyph glyph-name="uni044E" unicode="&#x44e;" horiz-adv-x="1636" 
d="M319 590h209q27 198 166.5 326t339.5 128q146 0 263 -70.5t182 -192t65 -269.5t-65 -269.5t-182 -192t-263 -70.5q-207 0 -348 136t-160 343h-207v-459h-143v1024h143v-434zM1034 115q159 0 261 114t102 283t-102 283t-261 114t-260.5 -113.5t-101.5 -283.5t101.5 -283.5
t260.5 -113.5z" />
    <glyph glyph-name="uni044F" unicode="&#x44f;" horiz-adv-x="1060" 
d="M-4 0l438 410q-129 20 -202.5 101t-73.5 194q0 137 97 228t273 91h357v-1024h-144v389h-141l-414 -389h-190zM537 524h204v365h-204q-113 0 -172.5 -47.5t-59.5 -136.5q0 -88 61 -134.5t171 -46.5z" />
    <glyph glyph-name="uni0451" unicode="&#x451;" horiz-adv-x="1191" 
d="M395 1233q-46 0 -78 32t-32 76q0 45 32.5 77t77.5 32q44 0 75.5 -32.5t31.5 -76.5t-31.5 -76t-75.5 -32zM850 1233q-46 0 -78.5 32t-32.5 76t32.5 76.5t78.5 32.5q44 0 75 -32t31 -77q0 -44 -31 -76t-75 -32zM618 -20q-157 0 -278 71.5t-184.5 192t-63.5 268.5
q0 147 67 268.5t189.5 192.5t274.5 71q100 0 187 -35.5t152.5 -100t103 -163.5t38.5 -219v-39h-864q2 -160 107.5 -267t270.5 -107q121 0 202 48.5t136 143.5l117 -76q-69 -119 -184 -184t-271 -65zM616 911q-132 0 -235 -80.5t-129 -216.5h702q-18 136 -112.5 216.5
t-225.5 80.5z" />
    <glyph glyph-name="uni0452" unicode="&#x452;" horiz-adv-x="1200" 
d="M621 -385l30 125q68 -14 113 -14q59 0 96 41t37 133v718q0 137 -72.5 215t-203.5 78q-114 0 -192 -62t-110 -169v-680h-143v1186h-151v129h151v180h143v-180h361v-129h-361v-303q57 78 142.5 119.5t187.5 41.5q181 0 286 -111t105 -304v-742q0 -144 -76 -219.5
t-192 -75.5q-77 0 -151 23z" />
    <glyph glyph-name="uni0453" unicode="&#x453;" horiz-adv-x="829" 
d="M420 1184l184 311h191l-248 -311h-127zM176 0v1024h621v-135h-478v-889h-143z" />
    <glyph glyph-name="uni0454" unicode="&#x454;" horiz-adv-x="1159" 
d="M625 -20q-114 0 -214.5 42t-170 114t-110 169.5t-40.5 206.5t40.5 206.5t110 169.5t170 114t214.5 42q155 0 277.5 -72.5t191.5 -195.5l-125 -71q-47 95 -137 150.5t-207 55.5q-152 0 -254.5 -90.5t-126.5 -232.5h512v-135h-514q19 -147 123 -243.5t260 -96.5
q117 0 207 55.5t137 150.5l125 -71q-69 -123 -191.5 -195.5t-277.5 -72.5z" />
    <glyph glyph-name="uni0455" unicode="&#x455;" horiz-adv-x="915" 
d="M475 -20q-143 0 -251 64.5t-146 186.5l129 54q25 -82 101.5 -129t168.5 -47q86 0 142.5 42t56.5 115q0 62 -44.5 104.5t-148.5 75.5l-110 35q-121 38 -183.5 112t-62.5 179q0 125 97.5 198.5t244.5 73.5q112 0 198.5 -47t133.5 -133l-115 -71q-81 125 -225 125
q-75 0 -133 -39.5t-58 -100.5q0 -57 36.5 -97.5t123.5 -68.5l117 -37q134 -42 203 -114t69 -182q0 -142 -95 -220.5t-249 -78.5z" />
    <glyph glyph-name="uni0456" unicode="&#x456;" horiz-adv-x="495" 
d="M250 1290q-46 0 -78.5 32.5t-32.5 76.5t32.5 76t78.5 32q44 0 75 -32t31 -76q0 -45 -31 -77t-75 -32zM176 0v1024h143v-1024h-143z" />
    <glyph glyph-name="uni0457" unicode="&#x457;" horiz-adv-x="495" 
d="M45 1233q-47 0 -81 34t-34 81t33.5 79.5t81.5 32.5t81.5 -32.5t33.5 -79.5t-34 -81t-81 -34zM451 1233q-47 0 -81 34t-34 81t33.5 79.5t81.5 32.5q47 0 80.5 -32.5t33.5 -79.5t-33.5 -81t-80.5 -34zM176 0v1024h143v-1024h-143z" />
    <glyph glyph-name="uni0458" unicode="&#x458;" horiz-adv-x="512" 
d="M266 1290q-46 0 -78 32t-32 77q0 44 32 76t78 32q44 0 75.5 -32t31.5 -76t-31.5 -76.5t-75.5 -32.5zM68 -408q-34 0 -74.5 7.5t-56.5 15.5l30 125q56 -14 92 -14q59 0 96.5 41.5t37.5 132.5v1124h143v-1137q0 -144 -76 -219.5t-192 -75.5z" />
    <glyph glyph-name="uni0459" unicode="&#x459;" horiz-adv-x="1648" 
d="M229 1024h752v-432h250q87 0 156 -25t111.5 -67.5t64.5 -94.5t22 -110q0 -122 -92 -208.5t-262 -86.5h-393v889h-465v-598q0 -147 -68 -225t-184 -78q-47 0 -92 10l22 127q30 -6 58 -6q59 0 89.5 47.5t30.5 163.5v694zM981 457v-322h250q98 0 152.5 42.5t54.5 117.5
t-54.5 118.5t-152.5 43.5h-250z" />
    <glyph glyph-name="uni045A" unicode="&#x45a;" horiz-adv-x="1710" 
d="M1647 295q0 -122 -92.5 -208.5t-262.5 -86.5h-393v457h-580v-457h-143v1024h143v-432h580v432h143v-432h250q170 0 262.5 -87.5t92.5 -209.5zM1499 295q0 75 -54.5 118.5t-152.5 43.5h-250v-322h250q98 0 152.5 42.5t54.5 117.5z" />
    <glyph glyph-name="uni045B" unicode="&#x45b;" horiz-adv-x="1200" 
d="M897 0v621q0 138 -73.5 214t-200.5 76q-116 0 -194 -62.5t-110 -166.5v-682h-143v1186h-151v129h151v180h143v-180h361v-129h-361v-305q53 82 142 122.5t194 40.5q170 0 277.5 -109t107.5 -294v-641h-143z" />
    <glyph glyph-name="uni045C" unicode="&#x45c;" horiz-adv-x="1054" 
d="M504 1184l184 311h191l-248 -311h-127zM176 0v1024h143v-465l488 465h188l-528 -502l606 -522h-207l-547 471v-471h-143z" />
    <glyph glyph-name="uni045E" unicode="&#x45e;" horiz-adv-x="1107" 
d="M555 1157q-134 0 -224.5 86.5t-90.5 229.5v22h118v-22q0 -94 54.5 -151.5t142.5 -57.5t142.5 57.5t54.5 151.5v22h118v-22q0 -143 -90.5 -229.5t-224.5 -86.5zM543 -158q-63 -135 -131.5 -192.5t-175.5 -57.5q-76 0 -132 17l25 127q48 -10 98 -10q55 0 96.5 35t82.5 124
l73 160l-459 979h160l375 -811l375 811h162z" />
    <glyph glyph-name="uni045F" unicode="&#x45f;" horiz-adv-x="1230" 
d="M1055 0h-369v-260h-139v260h-371v1024h143v-889h592v889h144v-1024z" />
    <glyph glyph-name="uni0462" unicode="&#x462;" horiz-adv-x="1433" 
d="M586 852h280q230 0 363 -116t133 -310t-133 -310t-363 -116h-436v1104h-373v129h373v221h156v-221h467v-129h-467v-252zM586 145h274q166 0 255 73.5t89 207.5t-89 207.5t-255 73.5h-274v-562z" />
    <glyph glyph-name="uni0463" unicode="&#x463;" horiz-adv-x="1118" 
d="M39 895v129h242v471h143v-471h430v-129h-430v-260h250q95 0 168.5 -26.5t117.5 -71.5t66.5 -100t22.5 -118q0 -135 -96 -227t-281 -92h-391v895h-242zM676 500h-252v-365h250q108 0 167.5 48.5t59.5 135.5q0 86 -59 133.5t-166 47.5z" />
    <glyph glyph-name="uni0472" unicode="&#x472;" horiz-adv-x="1699" 
d="M850 -25q-207 0 -379.5 99t-272.5 271.5t-100 381.5t100 381.5t272.5 271.5t379.5 99t379.5 -99t272.5 -271.5t100 -381.5t-100 -381.5t-272.5 -271.5t-379.5 -99zM1124 750q75 0 159.5 22.5t152.5 63.5q-37 217 -199.5 356t-386.5 139q-161 0 -294.5 -75t-212.5 -206
t-87 -292q67 45 156 69.5t166 24.5q93 0 188 -25.5t186 -51t172 -25.5zM850 123q161 0 294.5 75t212.5 206t87 292q-67 -44 -156 -68t-164 -24q-67 0 -144 16t-135.5 35.5t-132.5 35.5t-134 16q-74 0 -159.5 -23.5t-154.5 -65.5q37 -217 199.5 -356t386.5 -139z" />
    <glyph glyph-name="uni0473" unicode="&#x473;" horiz-adv-x="1249" 
d="M625 -20q-114 0 -214.5 42t-170 114t-110 169.5t-40.5 206.5t40.5 206.5t110 169.5t170 114t214.5 42q152 0 275 -71.5t191 -193t68 -267.5t-68 -267.5t-191 -193t-275 -71.5zM625 911q-154 0 -258 -95.5t-125 -242.5h766q-21 147 -125 242.5t-258 95.5zM625 113
q153 0 257 94t126 239h-766q22 -145 126 -239t257 -94z" />
    <glyph glyph-name="uni0474" unicode="&#x474;" horiz-adv-x="1570" 
d="M197 1454l516 -1200l409 950q68 159 134.5 217t175.5 58q54 0 124 -19l-34 -139q-99 18 -147 -12.5t-101 -153.5l-498 -1155h-127l-626 1454h174z" />
    <glyph glyph-name="uni0475" unicode="&#x475;" horiz-adv-x="1210" 
d="M979 788l-371 -788h-112l-480 1024h160l375 -811l278 600q57 124 115 177.5t143 53.5q66 0 117 -22l-41 -123q-69 18 -107.5 -6.5t-76.5 -104.5z" />
    <glyph glyph-name="uni0490" unicode="&#x490;" horiz-adv-x="1046" 
d="M203 0v1454h657v303h152v-450h-654v-1307h-155z" />
    <glyph glyph-name="uni0491" unicode="&#x491;" horiz-adv-x="829" 
d="M176 0v1024h481v260h140v-395h-478v-889h-143z" />
    <glyph glyph-name="uni0492" unicode="&#x492;" horiz-adv-x="1077" 
d="M39 662v147h188v645h809v-147h-653v-498h379v-147h-379v-662h-156v662h-188z" />
    <glyph glyph-name="uni0493" unicode="&#x493;" horiz-adv-x="858" 
d="M203 0v481h-166v131h166v412h620v-135h-477v-277h281v-131h-281v-481h-143z" />
    <glyph glyph-name="uni0496" unicode="&#x496;" horiz-adv-x="1990" 
d="M201 0h-215l762 719l-703 735h197l653 -684v684h156v-684l653 684h197l-703 -735l606 -572h181v-450h-152v303h-88l-694 655v-655h-156v655z" />
    <glyph glyph-name="uni0497" unicode="&#x497;" horiz-adv-x="1605" 
d="M195 0h-199l573 522l-499 502h184l457 -465v465h143v-465l457 465h184l-500 -502l426 -387h168v-395h-139v260h-80l-516 471v-471h-143v471z" />
    <glyph glyph-name="uni049A" unicode="&#x49a;" horiz-adv-x="1402" 
d="M203 0v1454h153v-637l670 637h211l-723 -690l719 -617h182v-450h-151v303h-90l-818 702v-702h-153z" />
    <glyph glyph-name="uni049B" unicode="&#x49b;" horiz-adv-x="1093" 
d="M176 0v1024h143v-465l488 465h188l-528 -502l448 -387h172v-395h-139v260h-82l-547 471v-471h-143z" />
    <glyph glyph-name="uni04A2" unicode="&#x4a2;" horiz-adv-x="1619" 
d="M203 0v1454h155v-633h850v633h156v-1307h180v-450h-151v303h-185v674h-850v-674h-155z" />
    <glyph glyph-name="uni04A3" unicode="&#x4a3;" horiz-adv-x="1292" 
d="M176 0v1024h143v-432h601v432h143v-889h154v-395h-140v260h-157v457h-601v-457h-143z" />
    <glyph glyph-name="uni04AE" unicode="&#x4ae;" horiz-adv-x="1370" 
d="M608 0v616l-573 838h188l463 -678l463 678h188l-575 -840v-614h-154z" />
    <glyph glyph-name="uni04AF" unicode="&#x4af;" horiz-adv-x="1107" 
d="M483 -397v395l-465 1026h160l375 -840l375 840h162l-463 -1020v-401h-144z" />
    <glyph glyph-name="uni04B0" unicode="&#x4b0;" horiz-adv-x="1368" 
d="M606 0v469h-325v147h325l-573 838h188l463 -678l463 678h188l-573 -838h321v-147h-323v-469h-154z" />
    <glyph glyph-name="uni04B1" unicode="&#x4b1;" horiz-adv-x="1107" 
d="M199 -131v131h284l-465 1024h160l375 -840l375 840h162l-463 -1020v-4h286v-131h-286v-266h-144v266h-284z" />
    <glyph glyph-name="uni04B2" unicode="&#x4b2;" horiz-adv-x="1419" 
d="M1255 -303v303h-110l-467 606l-467 -606h-197l566 735l-545 719h190l453 -592l452 592h191l-545 -719l453 -588h178v-450h-152z" />
    <glyph glyph-name="uni04B3" unicode="&#x4b3;" horiz-adv-x="1114" 
d="M14 0l426 524l-383 500h174l299 -387l297 387h177l-386 -500l316 -389h158v-395h-140v260h-88l-334 412l-333 -412h-183z" />
    <glyph glyph-name="uni04B6" unicode="&#x4b6;" horiz-adv-x="1460" 
d="M1233 -303v303h-184v641q-224 -78 -457 -78q-232 0 -364 115.5t-132 335.5v440h156v-426q0 -319 360 -319q235 0 437 77v668h155v-1307h180v-450h-151z" />
    <glyph glyph-name="uni04B7" unicode="&#x4b7;" horiz-adv-x="1150" 
d="M936 -260v260h-158v430q-149 -70 -309 -70q-178 0 -281.5 97.5t-103.5 269.5v297h143v-285q0 -245 265 -245q153 0 286 75v455h144v-889h153v-395h-139z" />
    <glyph glyph-name="uni04BA" unicode="&#x4ba;" horiz-adv-x="1406" 
d="M203 1454h155v-641q224 78 457 78q232 0 364 -115.5t132 -335.5v-440h-156v426q0 319 -360 319q-235 0 -437 -77v-668h-155v1454z" />
    <glyph glyph-name="uni04BB" unicode="&#x4bb;" horiz-adv-x="1200" 
d="M176 0v1495h143v-614q53 82 142 122.5t194 40.5q170 0 277.5 -109t107.5 -294v-641h-143v621q0 138 -73.5 214t-200.5 76q-116 0 -194 -62.5t-110 -166.5v-682h-143z" />
    <glyph glyph-name="uni04C0" unicode="&#x4c0;" horiz-adv-x="561" 
d="M203 0v1454h155v-1454h-155z" />
    <glyph glyph-name="uni04CF" unicode="&#x4cf;" horiz-adv-x="495" 
d="M176 0v1495h143v-1495h-143z" />
    <glyph glyph-name="uni04D8" unicode="&#x4d8;" horiz-adv-x="1673" 
d="M1575 727q0 -209 -100 -381.5t-272.5 -271.5t-379.5 -99t-379.5 99t-272 271.5t-99.5 381.5v88h1339q-15 118 -69.5 216t-134 163t-179 101t-205.5 36q-125 0 -242.5 -45.5t-195.5 -124.5l-109 109q102 97 247.5 153t299.5 56q207 0 379.5 -99t272.5 -271.5t100 -381.5z
M823 123q151 0 281.5 68t214.5 195t96 288h-1184q19 -236 186.5 -393.5t405.5 -157.5z" />
    <glyph glyph-name="uni04D9" unicode="&#x4d9;" horiz-adv-x="1191" 
d="M573 1044q118 0 217.5 -41.5t167 -113.5t105 -169.5t37.5 -207.5q0 -147 -67 -268.5t-189.5 -192.5t-274.5 -71q-100 0 -187 35.5t-152.5 100t-103 163.5t-38.5 219v39h864q-2 160 -108 267t-271 107q-121 0 -201.5 -48.5t-135.5 -143.5l-117 76q146 249 454 249z
M575 113q132 0 235.5 80.5t129.5 216.5h-702q18 -136 112 -216.5t225 -80.5z" />
    <glyph glyph-name="uni04E2" unicode="&#x4e2;" horiz-adv-x="1626" 
d="M508 1657v125h647v-125h-647zM203 0v1454h155v-1190l928 1190h137v-1454h-155v1190l-928 -1190h-137z" />
    <glyph glyph-name="uni04E3" unicode="&#x4e3;" horiz-adv-x="1236" 
d="M309 1329v125h647v-125h-647zM176 0v1024h143v-797l615 797h127v-1024h-143v799l-615 -799h-127z" />
    <glyph glyph-name="uni04E8" unicode="&#x4e8;" horiz-adv-x="1699" 
d="M850 -25q-207 0 -379.5 99t-272.5 271.5t-100 381.5t100 381.5t272.5 271.5t379.5 99t379.5 -99t272.5 -271.5t100 -381.5t-100 -381.5t-272.5 -271.5t-379.5 -99zM850 1331q-153 0 -282 -68.5t-210 -189t-98 -270.5h1180q-17 150 -98 270.5t-210 189t-282 68.5zM850 123
q233 0 399 151t191 381h-1180q25 -230 191 -381t399 -151z" />
    <glyph glyph-name="uni04E9" unicode="&#x4e9;" horiz-adv-x="1249" 
d="M625 -20q-114 0 -214.5 42t-170 114t-110 169.5t-40.5 206.5t40.5 206.5t110 169.5t170 114t214.5 42q152 0 275 -71.5t191 -193t68 -267.5t-68 -267.5t-191 -193t-275 -71.5zM625 911q-154 0 -258 -95.5t-125 -242.5h766q-21 147 -125 242.5t-258 95.5zM625 113
q153 0 257 94t126 239h-766q22 -145 126 -239t257 -94z" />
    <glyph glyph-name="uni04EE" unicode="&#x4ee;" horiz-adv-x="1411" 
d="M428 1657v125h647v-125h-647zM262 -8l29 139q58 -10 115 -10q66 0 116 37t94 121l35 65l-569 1110h176l483 -944l506 944h166l-629 -1178q-86 -159 -167 -230t-197 -71q-85 0 -158 17z" />
    <glyph glyph-name="uni04EF" unicode="&#x4ef;" horiz-adv-x="1107" 
d="M231 1329v125h648v-125h-648zM543 -158q-63 -135 -131.5 -192.5t-175.5 -57.5q-76 0 -132 17l25 127q48 -10 98 -10q55 0 96.5 35t82.5 124l73 160l-459 979h160l375 -811l375 811h162z" />
    <glyph glyph-name="Wgrave" unicode="&#x1e80;" horiz-adv-x="2033" 
d="M1075 1573h-129l-229 280h194zM494 0l-455 1454h164l364 -1167l381 1167h135l381 -1167l365 1167h166l-455 -1454h-135l-387 1188l-389 -1188h-135z" />
    <glyph glyph-name="wgrave" unicode="&#x1e81;" horiz-adv-x="1538" 
d="M831 1184h-126l-248 311h190zM1040 0l-270 780l-272 -780h-119l-350 1024h147l266 -778l271 778h110l271 -778l266 778h149l-350 -1024h-119z" />
    <glyph glyph-name="Wacute" unicode="&#x1e82;" horiz-adv-x="2033" 
d="M958 1573l164 280h195l-230 -280h-129zM494 0l-455 1454h164l364 -1167l381 1167h135l381 -1167l365 1167h166l-455 -1454h-135l-387 1188l-389 -1188h-135z" />
    <glyph glyph-name="wacute" unicode="&#x1e83;" horiz-adv-x="1538" 
d="M705 1184l184 311h190l-248 -311h-126zM1040 0l-270 780l-272 -780h-119l-350 1024h147l266 -778l271 778h110l271 -778l266 778h149l-350 -1024h-119z" />
    <glyph glyph-name="Wdieresis" unicode="&#x1e84;" horiz-adv-x="2033" 
d="M793 1616q-46 0 -78.5 32t-32.5 76t32.5 76.5t78.5 32.5q44 0 75 -32t31 -77q0 -44 -31 -76t-75 -32zM1247 1616q-46 0 -78 32t-32 76t32.5 76.5t77.5 32.5q44 0 75.5 -32.5t31.5 -76.5t-31.5 -76t-75.5 -32zM494 0l-455 1454h164l364 -1167l381 1167h135l381 -1167
l365 1167h166l-455 -1454h-135l-387 1188l-389 -1188h-135z" />
    <glyph glyph-name="wdieresis" unicode="&#x1e85;" horiz-adv-x="1538" 
d="M543 1233q-46 0 -78.5 32t-32.5 76t32.5 76.5t78.5 32.5q44 0 75 -32t31 -77q0 -44 -31 -76t-75 -32zM997 1233q-46 0 -78 32t-32 76q0 45 32.5 77t77.5 32q44 0 75.5 -32.5t31.5 -76.5t-31.5 -76t-75.5 -32zM1040 0l-270 780l-272 -780h-119l-350 1024h147l266 -778
l271 778h110l271 -778l266 778h149l-350 -1024h-119z" />
    <glyph glyph-name="uni1E9E" unicode="&#x1e9e;" horiz-adv-x="1288" 
d="M203 0v1454h874v-102l-295 -449q199 -27 304.5 -138.5t105.5 -307.5q0 -149 -67.5 -253t-183 -154t-269.5 -50h-70v147h90q156 0 251 80.5t95 229.5t-95 229t-251 80h-90v123l279 424h-523v-1313h-155z" />
    <glyph glyph-name="uni1ECA" unicode="&#x1eca;" horiz-adv-x="561" 
d="M203 0v1454h155v-1454h-155zM281 -371q-46 0 -78.5 32.5t-32.5 76.5t32.5 76t78.5 32q44 0 75 -32t31 -76q0 -45 -31 -77t-75 -32z" />
    <glyph glyph-name="uni1ECB" unicode="&#x1ecb;" horiz-adv-x="495" 
d="M250 1290q-46 0 -78.5 32.5t-32.5 76.5t32.5 76t78.5 32q44 0 75 -32t31 -76q0 -45 -31 -77t-75 -32zM176 0v1024h143v-1024h-143zM250 -371q-46 0 -78.5 32.5t-32.5 76.5t32.5 76t78.5 32q44 0 75 -32t31 -76q0 -45 -31 -77t-75 -32z" />
    <glyph glyph-name="uni1ECC" unicode="&#x1ecc;" horiz-adv-x="1699" 
d="M850 -25q-207 0 -379.5 99t-272.5 271.5t-100 381.5t100 381.5t272.5 271.5t379.5 99t379.5 -99t272.5 -271.5t100 -381.5t-100 -381.5t-272.5 -271.5t-379.5 -99zM850 123q166 0 302.5 79.5t214 218t77.5 306.5t-77.5 306.5t-214 218t-302.5 79.5t-302.5 -79.5
t-214 -218t-77.5 -306.5t77.5 -306.5t214 -218t302.5 -79.5zM850 -371q-46 0 -78.5 32.5t-32.5 76.5t32.5 76t78.5 32q44 0 75 -32t31 -76q0 -45 -31 -77t-75 -32z" />
    <glyph glyph-name="uni1ECD" unicode="&#x1ecd;" horiz-adv-x="1249" 
d="M625 -20q-114 0 -214.5 42t-170 114t-110 169.5t-40.5 206.5t40.5 206.5t110 169.5t170 114t214.5 42q152 0 275 -71.5t191 -193t68 -267.5t-68 -267.5t-191 -193t-275 -71.5zM625 113q171 0 279 115.5t108 283.5t-108 283.5t-279 115.5t-279 -115.5t-108 -283.5
t108 -283.5t279 -115.5zM625 -371q-46 0 -78.5 32.5t-32.5 76.5t32.5 76t78.5 32q44 0 75 -32t31 -76q0 -45 -31 -77t-75 -32z" />
    <glyph glyph-name="uni1EE4" unicode="&#x1ee4;" horiz-adv-x="1490" 
d="M745 -25q-251 0 -406 159.5t-155 428.5v891h156v-895q0 -207 109.5 -321.5t295.5 -114.5t296 114.5t110 321.5v895h156v-891q0 -269 -155 -428.5t-407 -159.5zM745 -371q-45 0 -77.5 32.5t-32.5 76.5t32 76t78 32q44 0 75.5 -32t31.5 -76t-31.5 -76.5t-75.5 -32.5z" />
    <glyph glyph-name="uni1EE5" unicode="&#x1ee5;" horiz-adv-x="1179" 
d="M1004 1024v-1024h-144v143q-53 -81 -140 -122t-185 -41q-163 0 -269 109.5t-106 293.5v641h143v-621q0 -137 71.5 -213.5t192.5 -76.5q109 0 185 62.5t108 166.5v682h144zM580 -371q-46 0 -78.5 32.5t-32.5 76.5t32.5 76t78.5 32q44 0 75 -32t31 -76q0 -45 -31 -77
t-75 -32z" />
    <glyph glyph-name="Ygrave" unicode="&#x1ef2;" horiz-adv-x="1370" 
d="M741 1573h-129l-229 280h195zM608 0v616l-573 838h188l463 -678l463 678h188l-575 -840v-614h-154z" />
    <glyph glyph-name="ygrave" unicode="&#x1ef3;" horiz-adv-x="1105" 
d="M618 1184h-126l-248 311h190zM426 -397h-162l211 448l-455 973h160l375 -813l375 813h162z" />
    <glyph glyph-name="uni2007" unicode="&#x2007;" horiz-adv-x="1208" 
 />
    <glyph glyph-name="uni2008" unicode="&#x2008;" horiz-adv-x="499" 
 />
    <glyph glyph-name="uni2009" unicode="&#x2009;" horiz-adv-x="256" 
 />
    <glyph glyph-name="uni200B" unicode="&#x200b;" 
 />
    <glyph glyph-name="endash" unicode="&#x2013;" horiz-adv-x="1142" 
d="M139 500v147h865v-147h-865z" />
    <glyph glyph-name="emdash" unicode="&#x2014;" horiz-adv-x="1142" 
d="M139 500v147h865v-147h-865z" />
    <glyph glyph-name="quoteleft" unicode="&#x2018;" horiz-adv-x="489" 
d="M344 1454l-96 -307h104v-225h-225v227l121 305h96z" />
    <glyph glyph-name="quoteright" unicode="&#x2019;" horiz-adv-x="466" 
d="M143 922l97 307h-105v225h225v-227l-120 -305h-97z" />
    <glyph glyph-name="quotesinglbase" unicode="&#x201a;" horiz-adv-x="509" 
d="M150 -307l96 307h-105v225h226v-227l-121 -305h-96z" />
    <glyph glyph-name="quotedblleft" unicode="&#x201c;" horiz-adv-x="841" 
d="M344 1454l-96 -307h104v-225h-225v227l121 305h96zM696 1454l-96 -307h105v-225h-226v227l121 305h96z" />
    <glyph glyph-name="quotedblright" unicode="&#x201d;" horiz-adv-x="819" 
d="M143 922l97 307h-105v225h225v-227l-120 -305h-97zM496 922l96 307h-105v225h226v-227l-121 -305h-96z" />
    <glyph glyph-name="quotedblbase" unicode="&#x201e;" horiz-adv-x="862" 
d="M150 -307l96 307h-105v225h226v-227l-121 -305h-96zM502 -307l96 307h-104v225h225v-227l-121 -305h-96z" />
    <glyph glyph-name="dagger" unicode="&#x2020;" horiz-adv-x="1030" 
d="M446 -201v1092h-385v133h385v430h138v-430h385v-133h-385v-1092h-138z" />
    <glyph glyph-name="daggerdbl" unicode="&#x2021;" horiz-adv-x="1099" 
d="M1004 229h-386v-430h-137v430h-385v133h385v529h-385v133h385v430h137v-430h386v-133h-386v-529h386v-133z" />
    <glyph glyph-name="bullet" unicode="&#x2022;" horiz-adv-x="870" 
d="M434 340q-114 0 -196 81.5t-82 196.5t82 197t196 82q116 0 198.5 -82t82.5 -197t-82.5 -196.5t-198.5 -81.5z" />
    <glyph glyph-name="ellipsis" unicode="&#x2026;" horiz-adv-x="1441" 
d="M348 0h-225v225h225v-225zM819 0h-225v225h225v-225zM1290 0h-225v225h225v-225z" />
    <glyph glyph-name="perthousand" unicode="&#x2030;" horiz-adv-x="2904" 
d="M471 664q-167 0 -285 118.5t-118 284.5q0 167 118 285t285 118q166 0 284.5 -118t118.5 -285q0 -166 -118.5 -284.5t-284.5 -118.5zM477 0l922 1454h160l-922 -1454h-160zM471 799q110 0 188 79.5t78 188.5t-78 188.5t-188 79.5t-188 -79.5t-78 -188.5t78 -188.5
t188 -79.5zM2433 -16q-167 0 -285 118.5t-118 284.5q0 167 118 285.5t285 118.5q166 0 284.5 -118.5t118.5 -285.5q0 -166 -118.5 -284.5t-284.5 -118.5zM1565 -16q-167 0 -285.5 118.5t-118.5 284.5q0 167 118.5 285.5t285.5 118.5q166 0 284.5 -118.5t118.5 -285.5
q0 -166 -118.5 -284.5t-284.5 -118.5zM2433 119q110 0 188 79.5t78 188.5t-78 188.5t-188 79.5t-188 -79.5t-78 -188.5t78 -188.5t188 -79.5zM1565 119q110 0 188 79.5t78 188.5t-78 188.5t-188 79.5t-188.5 -79.5t-78.5 -188.5t78.5 -188.5t188.5 -79.5z" />
    <glyph glyph-name="guilsinglleft" unicode="&#x2039;" horiz-adv-x="616" 
d="M260 512l244 -414l-101 -65l-311 479l311 479l101 -65z" />
    <glyph glyph-name="guilsinglright" unicode="&#x203a;" horiz-adv-x="616" 
d="M356 512l-243 414l100 65l311 -479l-311 -479l-100 65z" />
    <glyph glyph-name="fraction" unicode="&#x2044;" horiz-adv-x="368" 
d="M-397 0l1024 1454h141l-1024 -1454h-141z" />
    <glyph glyph-name="uni2060" unicode="&#x2060;" horiz-adv-x="528" 
 />
    <glyph glyph-name="zero.superior" unicode="&#x2070;" horiz-adv-x="798" 
d="M401 827q-140 0 -229.5 94t-89.5 242v238q0 149 89.5 243.5t229.5 94.5q139 0 228.5 -94.5t89.5 -243.5v-238q0 -147 -90 -241.5t-228 -94.5zM401 948q85 0 139 58.5t54 156.5v238q0 99 -54 157t-139 58q-87 0 -140.5 -57.5t-53.5 -157.5v-238q0 -99 53.5 -157t140.5 -58
z" />
    <glyph glyph-name="four.superior" unicode="&#x2074;" horiz-adv-x="796" 
d="M502 840v229h-461v100l475 555h111v-538h121v-117h-121v-229h-125zM502 1186v350l-301 -350h301z" />
    <glyph glyph-name="five.superior" unicode="&#x2075;" horiz-adv-x="731" 
d="M377 827q-108 0 -199 61t-117 159l125 45q15 -63 67 -103.5t124 -40.5q74 0 122 51.5t48 124.5t-49 123.5t-123 50.5q-47 0 -86.5 -19.5t-61.5 -53.5h-125v499h512v-122h-387v-238q64 53 164 53q126 0 204.5 -86.5t78.5 -220.5q0 -122 -84 -202.5t-213 -80.5z" />
    <glyph glyph-name="six.superior" unicode="&#x2076;" horiz-adv-x="704" 
d="M348 827q-131 0 -217 85.5t-86 209.5q0 63 25 113.5t75 114.5l306 374h157l-258 -317q8 2 23 2q110 0 193 -83.5t83 -201.5q0 -126 -85 -211.5t-216 -85.5zM348 948q74 0 124 50.5t50 123.5q0 74 -50 125t-124 51q-75 0 -125.5 -51t-50.5 -125q0 -72 51 -123t125 -51z
" />
    <glyph glyph-name="seven.superior" unicode="&#x2077;" horiz-adv-x="675" 
d="M227 840h-139l410 762h-443v122h590v-106z" />
    <glyph glyph-name="eight.superior" unicode="&#x2078;" horiz-adv-x="737" 
d="M369 827q-131 0 -216 79t-85 200q0 77 34.5 135.5t96.5 91.5q-86 67 -86 174q0 101 72.5 166.5t183.5 65.5q113 0 184.5 -65t71.5 -167q0 -110 -86 -174q63 -32 97 -90.5t34 -136.5q0 -122 -84 -200.5t-217 -78.5zM369 1378q61 0 98 36t37 87q0 53 -37 88t-98 35
q-58 0 -95.5 -35t-37.5 -88q0 -51 37 -87t96 -36zM369 944q81 0 127.5 47t46.5 117t-46.5 117t-125.5 47q-80 0 -128 -47t-48 -117q0 -69 48 -116.5t126 -47.5z" />
    <glyph glyph-name="nine.superior" unicode="&#x2079;" horiz-adv-x="704" 
d="M94 840l258 317h-20q-110 0 -193.5 83t-83.5 202q0 126 85 211.5t216 85.5t217 -85.5t86 -209.5q0 -64 -25 -116.5t-75 -113.5l-307 -374h-158zM356 1266q74 0 125 51.5t51 124.5q0 74 -50.5 125t-125.5 51q-74 0 -124 -51t-50 -125q0 -73 50 -124.5t124 -51.5z" />
    <glyph glyph-name="zero.inferior" unicode="&#x2080;" horiz-adv-x="798" 
d="M401 -248q-140 0 -229.5 94t-89.5 242v238q0 149 89.5 243.5t229.5 94.5q139 0 228.5 -94.5t89.5 -243.5v-238q0 -147 -90 -241.5t-228 -94.5zM401 -127q85 0 139 58.5t54 156.5v238q0 99 -54 157t-139 58q-87 0 -140.5 -57.5t-53.5 -157.5v-238q0 -99 53.5 -157
t140.5 -58z" />
    <glyph glyph-name="one.inferior" unicode="&#x2081;" horiz-adv-x="419" 
d="M168 -236v768h-127v117h246v-885h-119z" />
    <glyph glyph-name="two.inferior" unicode="&#x2082;" horiz-adv-x="716" 
d="M63 -236v107l343 332q104 100 104 188q0 63 -43 106.5t-109 43.5q-62 0 -108 -41t-57 -105l-123 27q19 108 99.5 175t192.5 67q119 0 197 -73.5t78 -193.5q0 -81 -38.5 -148t-113.5 -138l-231 -226h393v-121h-584z" />
    <glyph glyph-name="three.inferior" unicode="&#x2083;" horiz-adv-x="727" 
d="M358 -250q-107 0 -198 61t-115 158l123 45q18 -63 69 -102t123 -39q75 0 126 46t51 116q0 75 -51 119.5t-132 44.5h-106v102l207 225h-357v123h523v-102l-218 -234q119 -9 190 -87t71 -191q0 -125 -85.5 -205t-220.5 -80z" />
    <glyph glyph-name="four.inferior" unicode="&#x2084;" horiz-adv-x="796" 
d="M502 -236v230h-461v100l475 555h111v-538h121v-117h-121v-230h-125zM502 111v350l-301 -350h301z" />
    <glyph glyph-name="five.inferior" unicode="&#x2085;" horiz-adv-x="731" 
d="M377 -248q-109 0 -199.5 61t-116.5 158l125 45q15 -63 67 -103t124 -40q74 0 122 51.5t48 124.5t-49 123.5t-123 50.5q-47 0 -86.5 -19.5t-61.5 -53.5h-125v499h512v-123h-387v-237q64 53 164 53q126 0 204.5 -86.5t78.5 -220.5q0 -122 -84 -202.5t-213 -80.5z" />
    <glyph glyph-name="six.inferior" unicode="&#x2086;" horiz-adv-x="704" 
d="M348 -248q-131 0 -217 85.5t-86 209.5q0 63 24.5 113t75.5 114l306 375h157l-258 -317q8 2 23 2q110 0 193 -83.5t83 -201.5q0 -126 -85 -211.5t-216 -85.5zM348 -127q74 0 124 50.5t50 123.5q0 74 -50 125t-124 51q-75 0 -125.5 -51t-50.5 -125q0 -73 51 -123.5
t125 -50.5z" />
    <glyph glyph-name="seven.inferior" unicode="&#x2087;" horiz-adv-x="675" 
d="M227 -236h-139l410 762h-443v123h590v-106z" />
    <glyph glyph-name="eight.inferior" unicode="&#x2088;" horiz-adv-x="737" 
d="M369 -248q-131 0 -216 79t-85 200q0 77 34.5 135.5t96.5 91.5q-86 67 -86 174q0 101 72.5 166.5t183.5 65.5q113 0 184.5 -65t71.5 -167q0 -110 -86 -174q63 -32 97 -90.5t34 -136.5q0 -122 -84 -200.5t-217 -78.5zM369 303q61 0 98 36t37 87q0 53 -37 88t-98 35
q-58 0 -95.5 -35t-37.5 -88q0 -51 37 -87t96 -36zM369 -131q81 0 127.5 47t46.5 117t-46.5 117t-125.5 47q-80 0 -128 -47t-48 -117q0 -69 48 -116.5t126 -47.5z" />
    <glyph glyph-name="nine.inferior" unicode="&#x2089;" horiz-adv-x="704" 
d="M94 -236l258 318h-20q-110 0 -193.5 83t-83.5 202q0 126 85 211.5t216 85.5t217 -85.5t86 -209.5q0 -64 -25 -116.5t-75 -113.5l-307 -375h-158zM356 190q74 0 125 52t51 125q0 74 -50.5 125t-125.5 51q-74 0 -124 -51t-50 -125q0 -73 50 -125t124 -52z" />
    <glyph glyph-name="Euro" unicode="&#x20ac;" horiz-adv-x="1609" 
d="M72 514l55 111h199q-7 58 -7 102q0 57 9 109h-256l55 110h223q68 237 262 385t439 148q158 0 270 -45t207 -123l-92 -109q-147 137 -385 137q-192 0 -340.5 -107t-210.5 -286h778l-55 -110h-752q-8 -47 -8 -109q0 -58 8 -102h645l-51 -111h-567q61 -180 210.5 -289.5
t342.5 -109.5q238 0 385 137l92 -109q-95 -78 -207 -123t-270 -45q-247 0 -442 149.5t-261 389.5h-276z" />
    <glyph glyph-name="uni20B4" unicode="&#x20b4;" horiz-adv-x="1249" 
d="M106 805v110h736q84 63 84 179q0 112 -77 183t-208 71q-196 0 -319 -156l-109 88q61 87 175 143t247 56q191 0 312.5 -102.5t121.5 -270.5q0 -119 -55 -191h110v-110h-1018zM106 543v110h1018v-110h-743q-72 -63 -72 -176q0 -114 91.5 -187.5t226.5 -73.5q244 0 377 211
l114 -79q-66 -115 -194 -189t-297 -74q-200 0 -330.5 104.5t-130.5 278.5q0 115 47 185h-107z" />
    <glyph glyph-name="uni20B8" unicode="&#x20b8;" horiz-adv-x="1239" 
d="M72 1343v111h1095v-111h-1095zM549 0v1051h-477v141h1095v-141h-475v-1051h-143z" />
    <glyph glyph-name="uni20BD" unicode="&#x20bd;" horiz-adv-x="1257" 
d="M285 0v305h-179v111h179v172h-179v141h179v725h413q227 0 358.5 -117.5t131.5 -312.5t-132 -315.5t-358 -120.5h-270v-172h453v-111h-453v-305h-143zM428 729h266q162 0 249 79.5t87 215.5q0 135 -86.5 212t-249.5 77h-266v-584z" />
    <glyph glyph-name="afii61352" unicode="&#x2116;" horiz-adv-x="2285" 
d="M1880 829q-130 0 -222.5 93.5t-92.5 224.5t92.5 224t222.5 93q131 0 224.5 -93.5t93.5 -223.5q0 -131 -94 -224.5t-224 -93.5zM1423 0h-137l-928 1190v-1190h-155v1454h137l928 -1190v1190h155v-1454zM1880 950q82 0 139.5 57.5t57.5 139.5t-57.5 139t-139.5 57
q-80 0 -137 -57.5t-57 -138.5q0 -82 57 -139.5t137 -57.5zM1575 614v121h612v-121h-612z" />
    <glyph glyph-name="uni2117" unicode="&#x2117;" horiz-adv-x="1697" 
d="M848 -25q-203 0 -376 101t-274.5 274.5t-101.5 376.5t101.5 376.5t274.5 274.5t376 101q204 0 377.5 -101t275 -274.5t101.5 -376.5t-101.5 -376.5t-275 -274.5t-377.5 -101zM848 113q166 0 308 82.5t225 224t83 307.5t-83 307.5t-225 224t-308 82.5q-165 0 -307 -82.5
t-225 -224t-83 -307.5t83 -307.5t225 -224t307 -82.5zM1159 856q0 -107 -74 -178.5t-190 -71.5h-111v-260h-137v764h248q116 0 190 -72.5t74 -181.5zM1026 856q0 55 -36 90t-97 35h-109v-248h109q60 0 96.5 34.5t36.5 88.5z" />
    <glyph glyph-name="trademark" unicode="&#x2122;" horiz-adv-x="1732" 
d="M813 651v803h121l254 -416l254 416h121v-803h-125v566l-199 -326h-102l-199 326v-566h-125zM311 651v680h-239v123h604v-123h-240v-680h-125z" />
    <glyph glyph-name="uni2150" unicode="&#x2150;" horiz-adv-x="1513" 
d="M166 569v768h-127v117h246v-885h-119zM39 0l1024 1454h141l-1024 -1454h-141zM1067 0h-139l409 762h-442v123h590v-107z" />
    <glyph glyph-name="uni2151" unicode="&#x2151;" horiz-adv-x="1509" 
d="M166 569v768h-127v117h246v-885h-119zM39 0l1024 1454h141l-1024 -1454h-141zM899 0l258 317h-20q-110 0 -193.5 83t-83.5 202q0 126 85 211.5t216 85.5t217 -85.5t86 -209.5q0 -64 -25 -116t-75 -113l-307 -375h-158zM1161 426q74 0 125 51.5t51 124.5q0 74 -50.5 125
t-125.5 51q-74 0 -124 -51t-50 -125q0 -73 50 -124.5t124 -51.5z" />
    <glyph glyph-name="uni2152" unicode="&#x2152;" horiz-adv-x="2072" 
d="M166 569v768h-127v117h246v-885h-119zM39 0l1024 1454h141l-1024 -1454h-141zM1675 -12q-140 0 -229.5 94t-89.5 242v237q0 149 89.5 243.5t229.5 94.5q139 0 228.5 -94.5t89.5 -243.5v-237q0 -147 -90 -241.5t-228 -94.5zM1022 0v768h-127v117h246v-885h-119zM1675 109
q85 0 139 58.5t54 156.5v237q0 99 -54 157t-139 58q-87 0 -140.5 -57.5t-53.5 -157.5v-237q0 -99 53.5 -157t140.5 -58z" />
    <glyph glyph-name="onethird" unicode="&#x2153;" horiz-adv-x="1531" 
d="M166 569v768h-127v117h246v-885h-119zM39 0l1024 1454h141l-1024 -1454h-141zM1163 -14q-107 0 -198 61t-115 158l123 45q18 -63 69 -102t123 -39q75 0 125.5 45.5t50.5 115.5q0 75 -50.5 119.5t-131.5 44.5h-106v103l207 225h-357v123h522v-103l-217 -233
q119 -9 189.5 -87.5t70.5 -191.5q0 -125 -85 -204.5t-220 -79.5z" />
    <glyph glyph-name="twothirds" unicode="&#x2154;" horiz-adv-x="1812" 
d="M63 569v107l343 332q104 100 104 188q0 64 -43 107t-109 43q-62 0 -108 -41t-57 -105l-123 27q19 108 99.5 174.5t192.5 66.5q119 0 197 -73t78 -193q0 -81 -38.5 -148.5t-113.5 -138.5l-231 -225h393v-121h-584zM319 0l1024 1454h142l-1024 -1454h-142zM1444 -14
q-108 0 -199 61t-115 158l123 45q18 -63 69.5 -102t123.5 -39q75 0 125.5 45.5t50.5 115.5q0 75 -50.5 119.5t-131.5 44.5h-107v103l207 225h-356v123h522v-103l-217 -233q119 -9 189.5 -87.5t70.5 -191.5q0 -125 -85 -204.5t-220 -79.5z" />
    <glyph glyph-name="uni2155" unicode="&#x2155;" horiz-adv-x="1536" 
d="M166 569v768h-127v117h246v-885h-119zM39 0l1024 1454h141l-1024 -1454h-141zM1182 -12q-109 0 -199.5 61t-116.5 158l125 45q15 -63 67 -103t124 -40q74 0 122 51.5t48 124.5t-49 123.5t-123 50.5q-47 0 -86.5 -20t-61.5 -54h-125v500h512v-123h-387v-238q65 54 164 54
q126 0 204.5 -87t78.5 -221q0 -122 -84 -202t-213 -80z" />
    <glyph glyph-name="uni2156" unicode="&#x2156;" horiz-adv-x="1816" 
d="M63 569v107l343 332q104 100 104 188q0 64 -43 107t-109 43q-62 0 -108 -41t-57 -105l-123 27q19 108 99.5 174.5t192.5 66.5q119 0 197 -73t78 -193q0 -81 -38.5 -148.5t-113.5 -138.5l-231 -225h393v-121h-584zM319 0l1024 1454h142l-1024 -1454h-142zM1462 -12
q-108 0 -198.5 60.5t-116.5 158.5l125 45q15 -63 66.5 -103t123.5 -40q74 0 122 51.5t48 124.5t-49 123.5t-123 50.5q-47 0 -86 -20t-61 -54h-125v500h512v-123h-387v-238q65 54 164 54q126 0 204 -87t78 -221q0 -122 -84 -202t-213 -80z" />
    <glyph glyph-name="uni2157" unicode="&#x2157;" horiz-adv-x="1826" 
d="M358 555q-107 0 -198 61t-115 158l123 45q18 -63 69 -102t123 -39q75 0 126 46t51 116q0 75 -51 119.5t-132 44.5h-106v102l207 225h-357v123h523v-102l-218 -234q119 -9 190 -87t71 -191q0 -125 -85.5 -205t-220.5 -80zM330 0l1024 1454h141l-1024 -1454h-141zM1473 -12
q-109 0 -199.5 61t-116.5 158l125 45q15 -63 67 -103t124 -40q74 0 121.5 51.5t47.5 124.5t-49 123.5t-123 50.5q-47 0 -86 -20t-61 -54h-125v500h512v-123h-387v-238q65 54 164 54q126 0 204 -87t78 -221q0 -122 -83.5 -202t-212.5 -80z" />
    <glyph glyph-name="uni2158" unicode="&#x2158;" horiz-adv-x="1896" 
d="M502 569v230h-461v100l475 555h111v-539h121v-116h-121v-230h-125zM399 0l1024 1454h142l-1024 -1454h-142zM502 915v351l-301 -351h301zM1542 -12q-108 0 -198.5 60.5t-116.5 158.5l125 45q15 -63 66.5 -103t123.5 -40q74 0 122 51.5t48 124.5t-49 123.5t-123 50.5
q-47 0 -86 -20t-61 -54h-125v500h512v-123h-387v-238q65 54 163 54q126 0 204.5 -87t78.5 -221q0 -122 -84 -202t-213 -80z" />
    <glyph glyph-name="uni2159" unicode="&#x2159;" horiz-adv-x="1413" 
d="M166 569v768h-127v117h246v-885h-119zM39 0l1024 1454h141l-1024 -1454h-141zM1057 -12q-131 0 -217 85.5t-86 209.5q0 63 24.5 113t75.5 114l305 375h158l-258 -318q8 2 22 2q111 0 194 -83t83 -201q0 -126 -85 -211.5t-216 -85.5zM1057 109q74 0 124 50.5t50 123.5
q0 74 -50 125t-124 51q-75 0 -125.5 -51t-50.5 -125q0 -73 50.5 -123.5t125.5 -50.5z" />
    <glyph glyph-name="uni215A" unicode="&#x215a;" horiz-adv-x="1708" 
d="M377 557q-109 0 -199.5 61t-116.5 158l125 45q15 -63 67 -103t124 -40q74 0 122 51.5t48 124.5t-49 123.5t-123 50.5q-47 0 -86.5 -20t-61.5 -54h-125v500h512v-123h-387v-237q64 53 164 53q126 0 204.5 -86.5t78.5 -220.5q0 -122 -84 -202.5t-213 -80.5zM334 0
l1024 1454h141l-1024 -1454h-141zM1352 -12q-131 0 -217 85.5t-86 209.5q0 63 24.5 113t75.5 114l305 375h158l-258 -318q8 2 22 2q111 0 194 -83t83 -201q0 -126 -85 -211.5t-216 -85.5zM1352 109q74 0 124 50.5t50 123.5q0 74 -50 125t-124 51q-75 0 -125.5 -51
t-50.5 -125q0 -73 51 -123.5t125 -50.5z" />
    <glyph glyph-name="oneeighth" unicode="&#x215b;" horiz-adv-x="1542" 
d="M166 569v768h-127v117h246v-885h-119zM39 0l1024 1454h141l-1024 -1454h-141zM1174 -12q-131 0 -216.5 78.5t-85.5 199.5q0 77 35 136t97 92q-86 67 -86 174q0 101 72.5 166t183.5 65q114 0 185 -64.5t71 -166.5q0 -109 -87 -174q63 -32 97.5 -91t34.5 -137
q0 -122 -84 -200t-217 -78zM1174 539q61 0 98 36t37 87q0 53 -37 87.5t-98 34.5q-58 0 -96 -34.5t-38 -87.5q0 -51 37.5 -87t96.5 -36zM1174 104q81 0 127.5 47t46.5 117t-46.5 117t-125.5 47q-80 0 -128.5 -47.5t-48.5 -116.5t48.5 -116.5t126.5 -47.5z" />
    <glyph glyph-name="threeeighths" unicode="&#x215c;" horiz-adv-x="1832" 
d="M358 555q-107 0 -198 61t-115 158l123 45q18 -63 69 -102t123 -39q75 0 126 46t51 116q0 75 -51 119.5t-132 44.5h-106v102l207 225h-357v123h523v-102l-218 -234q119 -9 190 -87t71 -191q0 -125 -85.5 -205t-220.5 -80zM330 0l1024 1454h141l-1024 -1454h-141zM1464 -12
q-131 0 -216 78.5t-85 199.5q0 77 34.5 136t96.5 92q-86 67 -86 174q0 101 72.5 166t183.5 65q114 0 185 -64.5t71 -166.5q0 -110 -86 -174q63 -32 97 -91t34 -137q0 -122 -84 -200t-217 -78zM1464 539q61 0 98 36t37 87q0 53 -37 87.5t-98 34.5q-58 0 -95.5 -34.5
t-37.5 -87.5q0 -51 37 -87t96 -36zM1464 104q81 0 127.5 47t46.5 117t-46.5 117t-125.5 47q-80 0 -128 -47t-48 -117q0 -69 48 -116.5t126 -47.5z" />
    <glyph glyph-name="fiveeighths" unicode="&#x215d;" horiz-adv-x="1837" 
d="M377 557q-109 0 -199.5 61t-116.5 158l125 45q15 -63 67 -103t124 -40q74 0 122 51.5t48 124.5t-49 123.5t-123 50.5q-47 0 -86.5 -20t-61.5 -54h-125v500h512v-123h-387v-237q64 53 164 53q126 0 204.5 -86.5t78.5 -220.5q0 -122 -84 -202.5t-213 -80.5zM334 0
l1024 1454h141l-1024 -1454h-141zM1468 -12q-131 0 -216 78.5t-85 199.5q0 77 34.5 136t96.5 92q-86 67 -86 174q0 101 72.5 166t183.5 65q114 0 185 -64.5t71 -166.5q0 -110 -86 -174q63 -32 97 -91t34 -137q0 -122 -84 -200t-217 -78zM1468 539q61 0 98.5 36t37.5 87
q0 53 -37.5 87.5t-98.5 34.5q-58 0 -95.5 -34.5t-37.5 -87.5q0 -51 37 -87t96 -36zM1468 104q81 0 127.5 47t46.5 117t-46.5 117t-125.5 47q-80 0 -128 -47t-48 -117q0 -69 48 -116.5t126 -47.5z" />
    <glyph glyph-name="seveneighths" unicode="&#x215e;" horiz-adv-x="1667" 
d="M227 569h-139l410 762h-443v123h590v-106zM164 0l1024 1454h141l-1024 -1454h-141zM1298 -12q-131 0 -216 78.5t-85 199.5q0 77 34.5 136t96.5 92q-86 67 -86 174q0 101 72.5 166t183.5 65q114 0 185 -64.5t71 -166.5q0 -110 -86 -174q63 -32 97 -91t34 -137
q0 -122 -84 -200t-217 -78zM1298 539q61 0 98.5 36t37.5 87q0 53 -37.5 87.5t-98.5 34.5q-58 0 -95.5 -34.5t-37.5 -87.5q0 -51 37 -87t96 -36zM1298 104q81 0 128 47t47 117t-47 117t-126 47q-80 0 -128 -47t-48 -117q0 -69 48 -116.5t126 -47.5z" />
    <glyph glyph-name="uni215F" unicode="&#x215f;" horiz-adv-x="804" 
d="M166 569v768h-127v117h246v-885h-119zM39 0l1024 1454h141l-1024 -1454h-141z" />
    <glyph glyph-name="uni2190" unicode="&#x2190;" horiz-adv-x="1683" 
d="M717 -115l-627 627l627 627l82 -86l-480 -480h1246v-122h-1246l480 -482z" />
    <glyph glyph-name="uni2191" unicode="&#x2191;" horiz-adv-x="1447" 
d="M662 0v1249l-482 -479l-84 82l627 627l627 -627l-86 -82l-480 479v-1249h-122z" />
    <glyph glyph-name="uni2192" unicode="&#x2192;" horiz-adv-x="1683" 
d="M967 -115l-82 86l479 480h-1245v122h1245l-479 482l82 84l626 -627z" />
    <glyph glyph-name="uni2193" unicode="&#x2193;" horiz-adv-x="1441" 
d="M721 -25l-627 627l84 82l481 -479v1249h123v-1249l480 479l86 -82z" />
    <glyph glyph-name="uni2196" unicode="&#x2196;" horiz-adv-x="1505" 
d="M1325 -25l-993 992v-680h-117v884h887v-118h-684l993 -992z" />
    <glyph glyph-name="uni2197" unicode="&#x2197;" horiz-adv-x="1505" 
d="M180 -25l-86 86l993 992h-684v118h887v-884h-116v680z" />
    <glyph glyph-name="uni2198" unicode="&#x2198;" horiz-adv-x="1492" 
d="M410 0v119h684l-994 991l86 86l994 -991v680h116v-885h-886z" />
    <glyph glyph-name="uni2199" unicode="&#x2199;" horiz-adv-x="1492" 
d="M1307 1196l86 -86l-994 -991h684v-119h-886v885h116v-680z" />
    <glyph glyph-name="uni21B0" unicode="&#x21b0;" horiz-adv-x="1736" 
d="M1444 -397v848h-1125l480 -480l-82 -86l-627 627l627 627l82 -84l-480 -482h1246v-970h-121z" />
    <glyph glyph-name="uni21B1" unicode="&#x21b1;" horiz-adv-x="1736" 
d="M172 -397v970h1245l-479 482l82 84l627 -627l-627 -627l-82 86l479 480h-1124v-848h-121z" />
    <glyph glyph-name="uni21B2" unicode="&#x21b2;" horiz-adv-x="1763" 
d="M721 -119l-627 627l627 627l82 -86l-479 -480h1124v885h121v-1008h-1245l479 -481z" />
    <glyph glyph-name="uni21B3" unicode="&#x21b3;" horiz-adv-x="1763" 
d="M1042 -119l-81 84l479 481h-1245v1008h120v-885h1125l-479 480l81 86l627 -627z" />
    <glyph glyph-name="minus" unicode="&#x2212;" horiz-adv-x="1155" 
d="M143 528v129h869v-129h-869z" />
    <glyph glyph-name="commaaccent" unicode="&#xf6c3;" 
d="M27 -528h-86l49 178h-90v196h198v-196z" />
    <glyph glyph-name="cyrbreve.case" unicode="&#xf6d1;" 
d="M0 1561q-134 0 -224.5 86t-90.5 227h118q0 -95 54.5 -151t142.5 -56t142.5 56t54.5 151h118q0 -141 -90.5 -227t-224.5 -86z" />
    <glyph glyph-name="cyrbreve" unicode="&#xf6d4;" 
d="M0 1157q-134 0 -224.5 86.5t-90.5 229.5v22h118v-22q0 -94 54.5 -151.5t142.5 -57.5t142.5 57.5t54.5 151.5v22h118v-22q0 -143 -90.5 -229.5t-224.5 -86.5z" />
    <glyph glyph-name="uniFB00" unicode="&#xfb00;" horiz-adv-x="1576" 
d="M272 0v889h-239v135h239v172q0 144 85.5 227.5t224.5 83.5q114 0 198 -49l-55 -121q-77 37 -143 37q-79 0 -122.5 -51.5t-43.5 -138.5v-160h305v-135h-305v-889h-144zM1061 0v889h-221v135h221v172q0 144 85 227.5t224 83.5q115 0 199 -49l-56 -121q-77 37 -143 37
q-79 0 -122.5 -51.5t-43.5 -138.5v-160h350v-135h-350v-889h-143z" />
    <glyph glyph-name="fi" unicode="&#xfb01;" horiz-adv-x="1284" 
d="M272 0v889h-239v135h239v172q0 144 85.5 227.5t224.5 83.5q114 0 198 -49l-55 -121q-77 37 -143 37q-79 0 -122.5 -51.5t-43.5 -138.5v-160h350v-135h-350v-889h-144zM1038 1290q-46 0 -78 32t-32 77q0 44 32 76t78 32q44 0 75.5 -32t31.5 -76t-31.5 -76.5t-75.5 -32.5z
M965 0v1024h143v-1024h-143z" />
    <glyph glyph-name="fl" unicode="&#xfb02;" horiz-adv-x="1284" 
d="M272 0v889h-239v135h239v172q0 144 85.5 227.5t224.5 83.5q114 0 198 -49l-55 -121q-77 37 -143 37q-79 0 -122.5 -51.5t-43.5 -138.5v-160h350v-135h-350v-889h-144zM965 0v1495h143v-1495h-143z" />
    <glyph glyph-name="uniFB03" unicode="&#xfb03;" horiz-adv-x="2072" 
d="M1827 1290q-46 0 -78.5 32.5t-32.5 76.5t32.5 76t78.5 32q44 0 75 -32t31 -76q0 -45 -31 -77t-75 -32zM272 0v889h-239v135h239v172q0 144 85.5 227.5t224.5 83.5q114 0 198 -49l-55 -121q-77 37 -143 37q-79 0 -122.5 -51.5t-43.5 -138.5v-160h305v-135h-305v-889h-144z
M1061 0v889h-221v135h221v172q0 144 85 227.5t224 83.5q115 0 199 -49l-56 -121q-77 37 -143 37q-79 0 -122.5 -51.5t-43.5 -138.5v-160h350v-135h-350v-889h-143zM1753 0v1024h143v-1024h-143z" />
    <glyph glyph-name="uniFB04" unicode="&#xfb04;" horiz-adv-x="2072" 
d="M272 0v889h-239v135h239v172q0 144 85.5 227.5t224.5 83.5q114 0 198 -49l-55 -121q-77 37 -143 37q-79 0 -122.5 -51.5t-43.5 -138.5v-160h305v-135h-305v-889h-144zM1061 0v889h-221v135h221v172q0 144 85 227.5t224 83.5q115 0 199 -49l-56 -121q-77 37 -143 37
q-79 0 -122.5 -51.5t-43.5 -138.5v-160h350v-135h-350v-889h-143zM1753 0v1495h143v-1495h-143z" />
    <glyph glyph-name="uniFEFF" unicode="&#xfeff;" 
 />
    <glyph glyph-name="CR" horiz-adv-x="501" 
 />
    <glyph glyph-name="L_periodcentered" horiz-adv-x="1128" 
d="M203 0v1454h155v-1307h727v-147h-882zM850 692q-46 0 -78.5 32.5t-32.5 76.5t32.5 76t78.5 32q44 0 75 -32t31 -76q0 -45 -31 -77t-75 -32z" />
    <glyph glyph-name="l_periodcentered" horiz-adv-x="770" 
d="M176 0v1495h143v-1495h-143zM635 659q-46 0 -78.5 32.5t-32.5 76.5t32.5 76.5t78.5 32.5q44 0 75 -32t31 -77t-31 -77t-75 -32z" />
    <glyph glyph-name="uni0446.loclBGR" horiz-adv-x="1255" 
d="M881 1024h143v-811q0 -41 18 -59.5t56 -18.5h80v-395h-140v260h-8q-62 0 -100.5 31.5t-38.5 101.5v19q-115 -172 -346 -172q-170 0 -277.5 109t-107.5 294v641h143v-621q0 -138 73.5 -214t201.5 -76q114 0 192.5 62.5t110.5 166.5v682z" />
    <glyph glyph-name="uni043F.loclBGR" horiz-adv-x="1200" 
d="M176 0v1024h143v-143q53 82 142 122.5t194 40.5q170 0 277.5 -109t107.5 -294v-641h-143v621q0 138 -73.5 214t-200.5 76q-116 0 -194 -62.5t-110 -166.5v-682h-143z" />
    <glyph glyph-name="uni0437.loclBGR" horiz-adv-x="983" 
d="M12 -180l119 90q20 -33 48 -64t67.5 -61.5t93 -49t111.5 -18.5q143 0 218.5 77.5t75.5 199.5q0 120 -71.5 201t-210.5 81h-168v136h164q116 0 178.5 77t62.5 185q0 104 -65.5 169.5t-179.5 65.5q-93 0 -168.5 -49.5t-120.5 -116.5l-109 86q62 92 165 153.5t243 61.5
q174 0 278.5 -102t104.5 -256q0 -233 -172 -332q217 -100 217 -364q0 -177 -118.5 -292.5t-313.5 -115.5q-292 0 -449 238z" />
    <glyph glyph-name="uni0448.loclBGR" horiz-adv-x="1806" 
d="M303 1024v-618q0 -137 68 -215t182 -78q95 0 166.5 54.5t105.5 162.5q-2 18 -2 53v641h144v-618q0 -137 68 -215t182 -78q97 0 167.5 54t102.5 146v711h143v-1024h-143v119q-53 -71 -133.5 -105t-171.5 -34q-104 0 -181 48.5t-122 131.5q-56 -87 -148 -133.5t-199 -46.5
q-171 0 -271.5 108.5t-100.5 294.5v641h143z" />
    <glyph glyph-name="uni0433.loclBGR" horiz-adv-x="899" 
d="M432 -20q-154 0 -249 78.5t-95 220.5q0 110 69 182t203 114l117 37q87 28 123.5 68.5t36.5 97.5q0 61 -58 100.5t-133 39.5q-144 0 -225 -125l-115 71q47 86 133.5 133t198.5 47q147 0 244.5 -73.5t97.5 -198.5q0 -105 -62 -179t-183 -112l-111 -35
q-104 -33 -148.5 -75.5t-44.5 -104.5q0 -73 56.5 -115t142.5 -42q92 0 168.5 47t101.5 129l129 -54q-38 -122 -146 -186.5t-251 -64.5z" />
    <glyph glyph-name="uni0438.loclBGR" horiz-adv-x="1179" 
d="M1004 1024v-1024h-144v143q-53 -81 -140 -122t-185 -41q-163 0 -269 109.5t-106 293.5v641h143v-621q0 -137 71.5 -213.5t192.5 -76.5q109 0 185 62.5t108 166.5v682h144z" />
    <glyph glyph-name="uni044E.loclBGR" horiz-adv-x="1636" 
d="M319 590h209q27 198 166.5 326t339.5 128q146 0 263 -70.5t182 -192t65 -269.5t-65 -269.5t-182 -192t-263 -70.5q-207 0 -348 136t-160 343h-207v-459h-143v1495h143v-905zM1034 115q159 0 261 114t102 283t-102 283t-261 114t-260.5 -113.5t-101.5 -283.5t101.5 -283.5
t260.5 -113.5z" />
    <glyph glyph-name="uni0432.loclBGR" horiz-adv-x="1118" 
d="M571 -20q-192 0 -301.5 110t-109.5 309v725q0 181 96.5 286.5t290.5 105.5q105 0 184.5 -32.5t124.5 -87.5t66.5 -119t21.5 -136q0 -235 -164 -326q120 -52 183 -154.5t63 -240.5q0 -201 -113 -320.5t-303 -119.5h-39zM303 1147v-275h232q129 0 195.5 68t66.5 188
q0 252 -250 252q-114 0 -179 -58.5t-65 -174.5zM559 113h62q127 0 192.5 85t65.5 228q0 130 -82 220.5t-222 90.5h-272v-331q0 -141 64 -217t192 -76z" />
    <glyph glyph-name="uni0434.loclBGR" horiz-adv-x="1286" 
d="M606 -418q-158 0 -280.5 57t-184.5 146l113 96q128 -166 352 -166q68 0 130.5 21.5t115 63t84 112t31.5 160.5v82q-134 -146 -357 -146q-148 0 -267.5 69.5t-185.5 188t-65 260.5q1 143 67 261t185 187.5t266 69.5q224 0 357 -145v125h143v-961q0 -152 -67.5 -262.5
t-180 -164.5t-256.5 -54zM616 141q119 0 210 52t141 135v397q-50 83 -141 134.5t-210 51.5q-163 0 -270.5 -111t-105.5 -274t108 -274t268 -111z" />
    <glyph glyph-name="uni0439.loclBGR" horiz-adv-x="1179" 
d="M582 1157q-134 0 -225 86.5t-91 229.5v22h119v-22q0 -94 54.5 -151.5t142.5 -57.5t142 57.5t54 151.5v22h119v-22q0 -143 -90.5 -229.5t-224.5 -86.5zM1004 1024v-1024h-144v143q-53 -81 -140 -122t-185 -41q-163 0 -269 109.5t-106 293.5v641h143v-621
q0 -137 71.5 -213.5t192.5 -76.5q109 0 185 62.5t108 166.5v682h144z" />
    <glyph glyph-name="uni0431.loclSRB" horiz-adv-x="1236" 
d="M154 1202q-2 137 102.5 215t321.5 78h401l25 -131h-420q-141 0 -215 -39.5t-74 -132.5t74 -132.5t215 -39.5h39q118 0 217.5 -41t165.5 -111t102.5 -162t36.5 -194q0 -146 -67 -267.5t-188.5 -193t-271.5 -71.5t-271.5 71.5t-188 193t-66.5 267.5q0 135 65 250.5
t177 179.5q-79 29 -129 97.5t-51 162.5zM618 113q167 0 273 114t106 285q0 164 -105 270.5t-274 106.5t-273.5 -106.5t-104.5 -270.5q0 -171 105.5 -285t272.5 -114z" />
    <glyph glyph-name="uni044C.loclBGR" horiz-adv-x="997" 
d="M551 -20h-10q-190 0 -284.5 90t-94.5 237v717h143v-389h246q98 0 172.5 -26.5t118.5 -73t66 -104t22 -124.5t-22 -124t-66 -103.5t-118.5 -73t-172.5 -26.5zM543 113q239 0 239 194q0 193 -233 193h-244v-191q0 -196 238 -196z" />
    <glyph glyph-name="uni0449.loclBGR" horiz-adv-x="1861" 
d="M303 1024v-618q0 -137 68 -215t182 -78q95 0 166.5 54.5t105.5 162.5q-2 18 -2 53v641h144v-618q0 -137 68 -215t182 -78q97 0 166 53t104 143v715h143v-811q0 -41 18 -59.5t56 -18.5h80v-395h-139v260h-9q-62 0 -100.5 31.5t-38.5 101.5q-103 -153 -315 -153
q-104 0 -181 48.5t-122 131.5q-56 -87 -148 -133.5t-199 -46.5q-171 0 -271.5 108.5t-100.5 294.5v641h143z" />
    <glyph glyph-name="uni0442.loclBGR" horiz-adv-x="1806" 
d="M625 1044q104 0 181 -48.5t122 -131.5q56 87 147.5 133.5t198.5 46.5q171 0 272 -108.5t101 -294.5v-641h-144v618q0 137 -68 215t-182 78q-95 0 -166.5 -54.5t-105.5 -162.5q2 -18 2 -53v-641h-143v618q0 137 -68 215t-182 78q-97 0 -168 -54t-103 -146v-711h-143v1024
h143v-119q53 71 134 105t172 34z" />
    <glyph glyph-name="uni043A.loclBGR" horiz-adv-x="1054" 
d="M176 0v1495h143v-936l488 465h188l-528 -502l606 -522h-205l-549 471v-471h-143z" />
    <glyph glyph-name="uni0436.loclBGR" horiz-adv-x="1564" 
d="M195 0h-199l573 522l-499 502h184l457 -465v936h143v-936l457 465h184l-500 -502l574 -522h-199l-516 471v-471h-143v471z" />
    <glyph glyph-name="uni044A.loclBGR" horiz-adv-x="1163" 
d="M719 -20h-10q-190 0 -284.5 90t-94.5 237v582h-295v135h438v-389h246q98 0 172.5 -26.5t118.5 -73t66 -104t22 -124.5t-22 -124t-66 -103.5t-118.5 -73t-172.5 -26.5zM950 307q0 193 -233 193h-244v-191q0 -196 238 -196q122 0 180.5 48t58.5 146z" />
    <glyph glyph-name="apple" horiz-adv-x="1095" 
d="M479 1382l264 99l-268 -516l477 20l-850 -1008l496 824l-420 -25zM748 1464q10 0 10 -10t-10 -10q-11 0 -11 10t11 10zM768 1444q10 0 10 -10q0 -11 -10 -11t-10 11q0 10 10 10zM748 1444q10 0 10 -10q0 -11 -10 -11q-11 0 -11 11q0 10 11 10zM727 1423q10 0 10 -10
t-10 -10t-10 10t10 10zM748 1423q10 0 10 -10t-10 -10q-11 0 -11 10t11 10zM768 1423q10 0 10 -10t-10 -10t-10 10t10 10zM788 1423q11 0 11 -10t-11 -10q-10 0 -10 10t10 10zM727 1403q10 0 10 -10q0 -11 -10 -11t-10 11q0 10 10 10zM748 1403q10 0 10 -10q0 -11 -10 -11
q-11 0 -11 11q0 10 11 10zM768 1403q10 0 10 -10q0 -11 -10 -11t-10 11q0 10 10 10zM788 1403q11 0 11 -10q0 -11 -11 -11q-10 0 -10 11q0 10 10 10zM727 1382q10 0 10 -10t-10 -10t-10 10t10 10zM748 1382q10 0 10 -10t-10 -10q-11 0 -11 10t11 10zM768 1382q10 0 10 -10
t-10 -10t-10 10t10 10zM707 1382q10 0 10 -10t-10 -10q-11 0 -11 10t11 10zM727 1362q10 0 10 -10q0 -11 -10 -11t-10 11q0 10 10 10zM748 1362q10 0 10 -10q0 -11 -10 -11q-11 0 -11 11q0 10 11 10zM768 1362q10 0 10 -10q0 -11 -10 -11t-10 11q0 10 10 10zM707 1362
q10 0 10 -10q0 -11 -10 -11q-11 0 -11 11q0 10 11 10zM707 1341q10 0 10 -10t-10 -10q-11 0 -11 10t11 10zM727 1341q10 0 10 -10t-10 -10t-10 10t10 10zM748 1341q10 0 10 -10t-10 -10q-11 0 -11 10t11 10zM686 1341q10 0 10 -10t-10 -10t-10 10t10 10zM727 1321
q10 0 10 -10q0 -11 -10 -11t-10 11q0 10 10 10zM686 1321q10 0 10 -10q0 -11 -10 -11t-10 11q0 10 10 10zM707 1321q10 0 10 -10q0 -11 -10 -11q-11 0 -11 11q0 10 11 10zM727 1300q10 0 10 -10t-10 -10t-10 10t10 10zM666 1300q10 0 10 -10t-10 -10q-11 0 -11 10t11 10z
M686 1300q10 0 10 -10t-10 -10t-10 10t10 10zM707 1300q10 0 10 -10t-10 -10q-11 0 -11 10t11 10zM666 1280q10 0 10 -10t-10 -10q-11 0 -11 10t11 10zM686 1280q10 0 10 -10t-10 -10t-10 10t10 10zM707 1280q10 0 10 -10t-10 -10q-11 0 -11 10t11 10zM645 1260q10 0 10 -11
q0 -10 -10 -10t-10 10q0 11 10 11zM666 1260q10 0 10 -11q0 -10 -10 -10q-11 0 -11 10q0 11 11 11zM686 1260q10 0 10 -11q0 -10 -10 -10t-10 10q0 11 10 11zM707 1260q10 0 10 -11q0 -10 -10 -10q-11 0 -11 10q0 11 11 11zM686 1239q10 0 10 -10t-10 -10t-10 10t10 10z
M625 1239q10 0 10 -10t-10 -10q-11 0 -11 10t11 10zM645 1239q10 0 10 -10t-10 -10t-10 10t10 10zM666 1239q10 0 10 -10t-10 -10q-11 0 -11 10t11 10zM686 1219q10 0 10 -11q0 -10 -10 -10t-10 10q0 11 10 11zM625 1219q10 0 10 -11q0 -10 -10 -10q-11 0 -11 10q0 11 11 11
zM645 1219q10 0 10 -11q0 -10 -10 -10t-10 10q0 11 10 11zM666 1219q10 0 10 -11q0 -10 -10 -10q-11 0 -11 10q0 11 11 11zM604 1198q10 0 10 -10t-10 -10t-10 10t10 10zM625 1198q10 0 10 -10t-10 -10q-11 0 -11 10t11 10zM645 1198q10 0 10 -10t-10 -10t-10 10t10 10z
M666 1198q10 0 10 -10t-10 -10q-11 0 -11 10t11 10zM604 1178q10 0 10 -11q0 -10 -10 -10t-10 10q0 11 10 11zM625 1178q10 0 10 -11q0 -10 -10 -10q-11 0 -11 10q0 11 11 11zM645 1178q10 0 10 -11q0 -10 -10 -10t-10 10q0 11 10 11zM604 1157q10 0 10 -10t-10 -10t-10 10
t10 10zM625 1157q10 0 10 -10t-10 -10q-11 0 -11 10t11 10zM645 1157q10 0 10 -10t-10 -10t-10 10t10 10zM584 1157q10 0 10 -10t-10 -10q-11 0 -11 10t11 10zM604 1137q10 0 10 -11q0 -10 -10 -10t-10 10q0 11 10 11zM625 1137q10 0 10 -11q0 -10 -10 -10q-11 0 -11 10
q0 11 11 11zM584 1137q10 0 10 -11q0 -10 -10 -10q-11 0 -11 10q0 11 11 11zM604 1116q10 0 10 -10t-10 -10t-10 10t10 10zM625 1116q10 0 10 -10t-10 -10q-11 0 -11 10t11 10zM584 1116q10 0 10 -10t-10 -10q-11 0 -11 10t11 10zM563 1116q10 0 10 -10t-10 -10t-10 10
t10 10zM584 1096q10 0 10 -11q0 -10 -10 -10q-11 0 -11 10q0 11 11 11zM604 1096q10 0 10 -11q0 -10 -10 -10t-10 10q0 11 10 11zM563 1096q10 0 10 -11q0 -10 -10 -10t-10 10q0 11 10 11zM604 1075q10 0 10 -10t-10 -10t-10 10t10 10zM543 1075q10 0 10 -10t-10 -10
q-11 0 -11 10t11 10zM563 1075q10 0 10 -10t-10 -10t-10 10t10 10zM584 1075q10 0 10 -10t-10 -10q-11 0 -11 10t11 10zM584 1055q10 0 10 -11q0 -10 -10 -10q-11 0 -11 10q0 11 11 11zM543 1055q10 0 10 -11q0 -10 -10 -10q-11 0 -11 10q0 11 11 11zM563 1055q10 0 10 -11
q0 -10 -10 -10t-10 10q0 11 10 11zM522 1034q10 0 10 -10t-10 -10t-10 10t10 10zM563 1034q10 0 10 -10t-10 -10t-10 10t10 10zM584 1034q10 0 10 -10t-10 -10q-11 0 -11 10t11 10zM543 1034q10 0 10 -10t-10 -10q-11 0 -11 10t11 10zM522 1014q10 0 10 -10q0 -11 -10 -11
t-10 11q0 10 10 10zM543 1014q10 0 10 -10q0 -11 -10 -11q-11 0 -11 11q0 10 11 10zM563 1014q10 0 10 -10q0 -11 -10 -11t-10 11q0 10 10 10zM563 993q10 0 10 -10t-10 -10t-10 10t10 10zM502 993q10 0 10 -10t-10 -10t-10 10t10 10zM522 993q10 0 10 -10t-10 -10t-10 10
t10 10zM543 993q10 0 10 -10t-10 -10q-11 0 -11 10t11 10zM952 973q11 0 11 -10q0 -11 -11 -11q-10 0 -10 11q0 10 10 10zM973 952q10 0 10 -10t-10 -10t-10 10t10 10zM952 952q11 0 11 -10t-11 -10q-10 0 -10 10t10 10zM932 952q10 0 10 -10t-10 -10t-10 10t10 10zM973 932
q10 0 10 -10q0 -11 -10 -11t-10 11q0 10 10 10zM932 932q10 0 10 -10q0 -11 -10 -11t-10 11q0 10 10 10zM952 932q11 0 11 -10q0 -11 -11 -11q-10 0 -10 11q0 10 10 10zM932 911q10 0 10 -10t-10 -10t-10 10t10 10zM911 911q11 0 11 -10t-11 -10q-10 0 -10 10t10 10z
M993 911q11 0 11 -10t-11 -10q-10 0 -10 10t10 10zM973 911q10 0 10 -10t-10 -10t-10 10t10 10zM952 911q11 0 11 -10t-11 -10q-10 0 -10 10t10 10zM911 891q11 0 11 -10q0 -11 -11 -11q-10 0 -10 11q0 10 10 10zM993 891q11 0 11 -10q0 -11 -11 -11q-10 0 -10 11
q0 10 10 10zM973 891q10 0 10 -10q0 -11 -10 -11t-10 11q0 10 10 10zM952 891q11 0 11 -10q0 -11 -11 -11q-10 0 -10 11q0 10 10 10zM932 891q10 0 10 -10q0 -11 -10 -11t-10 11q0 10 10 10zM891 891q10 0 10 -10q0 -11 -10 -11t-10 11q0 10 10 10zM952 870q11 0 11 -10
t-11 -10q-10 0 -10 10t10 10zM870 870q11 0 11 -10t-11 -10q-10 0 -10 10t10 10zM891 870q10 0 10 -10t-10 -10t-10 10t10 10zM911 870q11 0 11 -10t-11 -10q-10 0 -10 10t10 10zM932 870q10 0 10 -10t-10 -10t-10 10t10 10zM973 870q10 0 10 -10t-10 -10t-10 10t10 10z
M870 850q11 0 11 -10q0 -11 -11 -11q-10 0 -10 11q0 10 10 10zM850 850q10 0 10 -10q0 -11 -10 -11t-10 11q0 10 10 10zM952 850q11 0 11 -10q0 -11 -11 -11q-10 0 -10 11q0 10 10 10zM932 850q10 0 10 -10q0 -11 -10 -11t-10 11q0 10 10 10zM911 850q11 0 11 -10
q0 -11 -11 -11q-10 0 -10 11q0 10 10 10zM891 850q10 0 10 -10q0 -11 -10 -11t-10 11q0 10 10 10zM870 829q11 0 11 -10t-11 -10q-10 0 -10 10t10 10zM850 829q10 0 10 -10t-10 -10t-10 10t10 10zM829 829q11 0 11 -10t-11 -10q-10 0 -10 10t10 10zM932 829q10 0 10 -10
t-10 -10t-10 10t10 10zM911 829q11 0 11 -10t-11 -10q-10 0 -10 10t10 10zM891 829q10 0 10 -10t-10 -10t-10 10t10 10zM870 809q11 0 11 -10q0 -11 -11 -11q-10 0 -10 11q0 10 10 10zM891 809q10 0 10 -10q0 -11 -10 -11t-10 11q0 10 10 10zM829 809q11 0 11 -10
q0 -11 -11 -11q-10 0 -10 11q0 10 10 10zM809 809q10 0 10 -10q0 -11 -10 -11t-10 11q0 10 10 10zM850 809q10 0 10 -10q0 -11 -10 -11t-10 11q0 10 10 10zM911 809q11 0 11 -10q0 -11 -11 -11q-10 0 -10 11q0 10 10 10zM543 788q10 0 10 -10t-10 -10q-11 0 -11 10t11 10z
M522 788q10 0 10 -10t-10 -10t-10 10t10 10zM502 788q10 0 10 -10t-10 -10t-10 10t10 10zM481 788q11 0 11 -10t-11 -10q-10 0 -10 10t10 10zM461 788q10 0 10 -10t-10 -10t-10 10t10 10zM440 788q11 0 11 -10t-11 -10q-10 0 -10 10t10 10zM420 788q10 0 10 -10t-10 -10
t-10 10t10 10zM399 788q11 0 11 -10t-11 -10q-10 0 -10 10t10 10zM870 788q11 0 11 -10t-11 -10q-10 0 -10 10t10 10zM850 788q10 0 10 -10t-10 -10t-10 10t10 10zM829 788q11 0 11 -10t-11 -10q-10 0 -10 10t10 10zM809 788q10 0 10 -10t-10 -10t-10 10t10 10zM891 788
q10 0 10 -10t-10 -10t-10 10t10 10zM563 788q10 0 10 -10t-10 -10t-10 10t10 10zM850 768q10 0 10 -10t-10 -10t-10 10t10 10zM195 768q10 0 10 -10t-10 -10q-11 0 -11 10t11 10zM215 768q10 0 10 -10t-10 -10t-10 10t10 10zM236 768q10 0 10 -10t-10 -10q-11 0 -11 10
t11 10zM256 768q10 0 10 -10t-10 -10t-10 10t10 10zM276 768q11 0 11 -10t-11 -10q-10 0 -10 10t10 10zM297 768q10 0 10 -10t-10 -10t-10 10t10 10zM788 768q11 0 11 -10t-11 -10q-10 0 -10 10t10 10zM809 768q10 0 10 -10t-10 -10t-10 10t10 10zM317 768q11 0 11 -10
t-11 -10q-10 0 -10 10t10 10zM338 768q10 0 10 -10t-10 -10t-10 10t10 10zM358 768q11 0 11 -10t-11 -10q-10 0 -10 10t10 10zM379 768q10 0 10 -10t-10 -10t-10 10t10 10zM399 768q11 0 11 -10t-11 -10q-10 0 -10 10t10 10zM420 768q10 0 10 -10t-10 -10t-10 10t10 10z
M829 768q11 0 11 -10t-11 -10q-10 0 -10 10t10 10zM870 768q11 0 11 -10t-11 -10q-10 0 -10 10t10 10zM440 768q11 0 11 -10t-11 -10q-10 0 -10 10t10 10zM461 768q10 0 10 -10t-10 -10t-10 10t10 10zM481 768q11 0 11 -10t-11 -10q-10 0 -10 10t10 10zM502 768q10 0 10 -10
t-10 -10t-10 10t10 10zM522 768q10 0 10 -10t-10 -10t-10 10t10 10zM543 768q10 0 10 -10t-10 -10q-11 0 -11 10t11 10zM809 748q10 0 10 -11q0 -10 -10 -10t-10 10q0 11 10 11zM850 748q10 0 10 -11q0 -10 -10 -10t-10 10q0 11 10 11zM195 748q10 0 10 -11q0 -10 -10 -10
q-11 0 -11 10q0 11 11 11zM215 748q10 0 10 -11q0 -10 -10 -10t-10 10q0 11 10 11zM236 748q10 0 10 -11q0 -10 -10 -10q-11 0 -11 10q0 11 11 11zM256 748q10 0 10 -11q0 -10 -10 -10t-10 10q0 11 10 11zM829 748q11 0 11 -11q0 -10 -11 -10q-10 0 -10 10q0 11 10 11z
M543 748q10 0 10 -11q0 -10 -10 -10q-11 0 -11 10q0 11 11 11zM522 748q10 0 10 -11q0 -10 -10 -10t-10 10q0 11 10 11zM502 748q10 0 10 -11q0 -10 -10 -10t-10 10q0 11 10 11zM481 748q11 0 11 -11q0 -10 -11 -10q-10 0 -10 10q0 11 10 11zM461 748q10 0 10 -11
q0 -10 -10 -10t-10 10q0 11 10 11zM440 748q11 0 11 -11q0 -10 -11 -10q-10 0 -10 10q0 11 10 11zM276 748q11 0 11 -11q0 -10 -11 -10q-10 0 -10 10q0 11 10 11zM297 748q10 0 10 -11q0 -10 -10 -10t-10 10q0 11 10 11zM317 748q11 0 11 -11q0 -10 -11 -10q-10 0 -10 10
q0 11 10 11zM338 748q10 0 10 -11q0 -10 -10 -10t-10 10q0 11 10 11zM358 748q11 0 11 -11q0 -10 -11 -10q-10 0 -10 10q0 11 10 11zM379 748q10 0 10 -11q0 -10 -10 -10t-10 10q0 11 10 11zM399 748q11 0 11 -11q0 -10 -11 -10q-10 0 -10 10q0 11 10 11zM788 748
q11 0 11 -11q0 -10 -11 -10q-10 0 -10 10q0 11 10 11zM768 748q10 0 10 -11q0 -10 -10 -10t-10 10q0 11 10 11zM420 748q10 0 10 -11q0 -10 -10 -10t-10 10q0 11 10 11zM748 727q10 0 10 -10t-10 -10q-11 0 -11 10t11 10zM379 727q10 0 10 -10t-10 -10t-10 10t10 10z
M358 727q11 0 11 -10t-11 -10q-10 0 -10 10t10 10zM338 727q10 0 10 -10t-10 -10t-10 10t10 10zM317 727q11 0 11 -10t-11 -10q-10 0 -10 10t10 10zM768 727q10 0 10 -10t-10 -10t-10 10t10 10zM850 727q10 0 10 -10t-10 -10t-10 10t10 10zM829 727q11 0 11 -10t-11 -10
q-10 0 -10 10t10 10zM297 727q10 0 10 -10t-10 -10t-10 10t10 10zM276 727q11 0 11 -10t-11 -10q-10 0 -10 10t10 10zM256 727q10 0 10 -10t-10 -10t-10 10t10 10zM236 727q10 0 10 -10t-10 -10q-11 0 -11 10t11 10zM215 727q10 0 10 -10t-10 -10t-10 10t10 10zM809 727
q10 0 10 -10t-10 -10t-10 10t10 10zM788 727q11 0 11 -10t-11 -10q-10 0 -10 10t10 10zM829 707q11 0 11 -11q0 -10 -11 -10q-10 0 -10 10q0 11 10 11zM809 707q10 0 10 -11q0 -10 -10 -10t-10 10q0 11 10 11zM788 707q11 0 11 -11q0 -10 -11 -10q-10 0 -10 10q0 11 10 11z
M768 707q10 0 10 -11q0 -10 -10 -10t-10 10q0 11 10 11zM748 707q10 0 10 -11q0 -10 -10 -10q-11 0 -11 10q0 11 11 11zM727 707q10 0 10 -11q0 -10 -10 -10t-10 10q0 11 10 11zM768 686q10 0 10 -10t-10 -10t-10 10t10 10zM788 686q11 0 11 -10t-11 -10q-10 0 -10 10t10 10
zM809 686q10 0 10 -10t-10 -10t-10 10t10 10zM748 686q10 0 10 -10t-10 -10q-11 0 -11 10t11 10zM727 686q10 0 10 -10t-10 -10t-10 10t10 10zM707 686q10 0 10 -10t-10 -10q-11 0 -11 10t11 10zM748 666q10 0 10 -11q0 -10 -10 -10q-11 0 -11 10q0 11 11 11zM788 666
q11 0 11 -11q0 -10 -11 -10q-10 0 -10 10q0 11 10 11zM768 666q10 0 10 -11q0 -10 -10 -10t-10 10q0 11 10 11zM707 666q10 0 10 -11q0 -10 -10 -10q-11 0 -11 10q0 11 11 11zM727 666q10 0 10 -11q0 -10 -10 -10t-10 10q0 11 10 11zM727 645q10 0 10 -10t-10 -10t-10 10
t10 10zM707 645q10 0 10 -10t-10 -10q-11 0 -11 10t11 10zM686 645q10 0 10 -10t-10 -10t-10 10t10 10zM748 645q10 0 10 -10t-10 -10q-11 0 -11 10t11 10zM768 645q10 0 10 -10t-10 -10t-10 10t10 10zM686 625q10 0 10 -11q0 -10 -10 -10t-10 10q0 11 10 11zM666 625
q10 0 10 -11q0 -10 -10 -10q-11 0 -11 10q0 11 11 11zM707 625q10 0 10 -11q0 -10 -10 -10q-11 0 -11 10q0 11 11 11zM727 625q10 0 10 -11q0 -10 -10 -10t-10 10q0 11 10 11zM748 625q10 0 10 -11q0 -10 -10 -10q-11 0 -11 10q0 11 11 11zM645 604q10 0 10 -10t-10 -10
t-10 10t10 10zM666 604q10 0 10 -10t-10 -10q-11 0 -11 10t11 10zM686 604q10 0 10 -10t-10 -10t-10 10t10 10zM707 604q10 0 10 -10t-10 -10q-11 0 -11 10t11 10zM727 604q10 0 10 -10t-10 -10t-10 10t10 10zM686 584q10 0 10 -11q0 -10 -10 -10t-10 10q0 11 10 11z
M625 584q10 0 10 -11q0 -10 -10 -10q-11 0 -11 10q0 11 11 11zM645 584q10 0 10 -11q0 -10 -10 -10t-10 10q0 11 10 11zM666 584q10 0 10 -11q0 -10 -10 -10q-11 0 -11 10q0 11 11 11zM707 584q10 0 10 -11q0 -10 -10 -10q-11 0 -11 10q0 11 11 11zM645 563q10 0 10 -10
t-10 -10t-10 10t10 10zM666 563q10 0 10 -10t-10 -10q-11 0 -11 10t11 10zM686 563q10 0 10 -10t-10 -10t-10 10t10 10zM604 563q10 0 10 -10t-10 -10t-10 10t10 10zM625 563q10 0 10 -10t-10 -10q-11 0 -11 10t11 10zM645 543q10 0 10 -11q0 -10 -10 -10t-10 10q0 11 10 11
zM604 543q10 0 10 -11q0 -10 -10 -10t-10 10q0 11 10 11zM625 543q10 0 10 -11q0 -10 -10 -10q-11 0 -11 10q0 11 11 11zM666 543q10 0 10 -11q0 -10 -10 -10q-11 0 -11 10q0 11 11 11zM645 522q10 0 10 -10t-10 -10t-10 10t10 10zM625 522q10 0 10 -10t-10 -10
q-11 0 -11 10t11 10zM604 522q10 0 10 -10t-10 -10t-10 10t10 10zM584 522q10 0 10 -10t-10 -10q-11 0 -11 10t11 10zM625 502q10 0 10 -10q0 -11 -10 -11q-11 0 -11 11q0 10 11 10zM604 502q10 0 10 -10q0 -11 -10 -11t-10 11q0 10 10 10zM584 502q10 0 10 -10
q0 -11 -10 -11q-11 0 -11 11q0 10 11 10zM563 502q10 0 10 -10q0 -11 -10 -11t-10 11q0 10 10 10zM604 481q10 0 10 -10t-10 -10t-10 10t10 10zM584 481q10 0 10 -10t-10 -10q-11 0 -11 10t11 10zM563 481q10 0 10 -10t-10 -10t-10 10t10 10zM543 481q10 0 10 -10t-10 -10
q-11 0 -11 10t11 10zM584 461q10 0 10 -10q0 -11 -10 -11q-11 0 -11 11q0 10 11 10zM563 461q10 0 10 -10q0 -11 -10 -11t-10 11q0 10 10 10zM543 461q10 0 10 -10q0 -11 -10 -11q-11 0 -11 11q0 10 11 10zM522 461q10 0 10 -10q0 -11 -10 -11t-10 11q0 10 10 10zM584 440
q10 0 10 -10t-10 -10q-11 0 -11 10t11 10zM563 440q10 0 10 -10t-10 -10t-10 10t10 10zM543 440q10 0 10 -10t-10 -10q-11 0 -11 10t11 10zM522 440q10 0 10 -10t-10 -10t-10 10t10 10zM502 440q10 0 10 -10t-10 -10t-10 10t10 10zM563 420q10 0 10 -10q0 -11 -10 -11
t-10 11q0 10 10 10zM522 420q10 0 10 -10q0 -11 -10 -11t-10 11q0 10 10 10zM481 420q11 0 11 -10q0 -11 -11 -11q-10 0 -10 11q0 10 10 10zM502 420q10 0 10 -10q0 -11 -10 -11t-10 11q0 10 10 10zM543 420q10 0 10 -10q0 -11 -10 -11q-11 0 -11 11q0 10 11 10zM522 399
q10 0 10 -10t-10 -10t-10 10t10 10zM543 399q10 0 10 -10t-10 -10q-11 0 -11 10t11 10zM481 399q11 0 11 -10t-11 -10q-10 0 -10 10t10 10zM502 399q10 0 10 -10t-10 -10t-10 10t10 10zM522 379q10 0 10 -10q0 -11 -10 -11t-10 11q0 10 10 10zM481 379q11 0 11 -10
q0 -11 -11 -11q-10 0 -10 11q0 10 10 10zM502 379q10 0 10 -10q0 -11 -10 -11t-10 11q0 10 10 10zM461 379q10 0 10 -10q0 -11 -10 -11t-10 11q0 10 10 10zM440 358q11 0 11 -10t-11 -10q-10 0 -10 10t10 10zM502 358q10 0 10 -10t-10 -10t-10 10t10 10zM481 358
q11 0 11 -10t-11 -10q-10 0 -10 10t10 10zM461 358q10 0 10 -10t-10 -10t-10 10t10 10zM481 338q11 0 11 -10q0 -11 -11 -11q-10 0 -10 11q0 10 10 10zM461 338q10 0 10 -10q0 -11 -10 -11t-10 11q0 10 10 10zM440 338q11 0 11 -10q0 -11 -11 -11q-10 0 -10 11q0 10 10 10z
M420 338q10 0 10 -10q0 -11 -10 -11t-10 11q0 10 10 10zM461 317q10 0 10 -10t-10 -10t-10 10t10 10zM440 317q11 0 11 -10t-11 -10q-10 0 -10 10t10 10zM420 317q10 0 10 -10t-10 -10t-10 10t10 10zM399 317q11 0 11 -10t-11 -10q-10 0 -10 10t10 10zM399 297q11 0 11 -10
q0 -11 -11 -11q-10 0 -10 11q0 10 10 10zM420 297q10 0 10 -10q0 -11 -10 -11t-10 11q0 10 10 10zM440 297q11 0 11 -10q0 -11 -11 -11q-10 0 -10 11q0 10 10 10zM379 297q10 0 10 -10q0 -11 -10 -11t-10 11q0 10 10 10zM379 276q10 0 10 -10t-10 -10t-10 10t10 10zM399 276
q11 0 11 -10t-11 -10q-10 0 -10 10t10 10zM420 276q10 0 10 -10t-10 -10t-10 10t10 10zM358 256q11 0 11 -10t-11 -10q-10 0 -10 10t10 10zM379 256q10 0 10 -10t-10 -10t-10 10t10 10zM399 256q11 0 11 -10t-11 -10q-10 0 -10 10t10 10zM338 236q10 0 10 -11q0 -10 -10 -10
t-10 10q0 11 10 11zM358 236q11 0 11 -11q0 -10 -11 -10q-10 0 -10 10q0 11 10 11zM379 236q10 0 10 -11q0 -10 -10 -10t-10 10q0 11 10 11zM317 215q11 0 11 -10t-11 -10q-10 0 -10 10t10 10zM338 215q10 0 10 -10t-10 -10t-10 10t10 10zM358 215q11 0 11 -10t-11 -10
q-10 0 -10 10t10 10zM338 195q10 0 10 -11q0 -10 -10 -10t-10 10q0 11 10 11zM317 195q11 0 11 -11q0 -10 -11 -10q-10 0 -10 10q0 11 10 11zM358 195q11 0 11 -11q0 -10 -11 -10q-10 0 -10 10q0 11 10 11zM297 195q10 0 10 -11q0 -10 -10 -10t-10 10q0 11 10 11zM317 174
q11 0 11 -10t-11 -10q-10 0 -10 10t10 10zM338 174q10 0 10 -10t-10 -10t-10 10t10 10zM276 174q11 0 11 -10t-11 -10q-10 0 -10 10t10 10zM297 174q10 0 10 -10t-10 -10t-10 10t10 10zM276 154q11 0 11 -11q0 -10 -11 -10q-10 0 -10 10q0 11 10 11zM317 154q11 0 11 -11
q0 -10 -11 -10q-10 0 -10 10q0 11 10 11zM297 154q10 0 10 -11q0 -10 -10 -10t-10 10q0 11 10 11zM256 133q10 0 10 -10t-10 -10t-10 10t10 10zM276 133q11 0 11 -10t-11 -10q-10 0 -10 10t10 10zM297 133q10 0 10 -10t-10 -10t-10 10t10 10zM236 113q10 0 10 -11
q0 -10 -10 -10q-11 0 -11 10q0 11 11 11zM256 113q10 0 10 -11q0 -10 -10 -10t-10 10q0 11 10 11zM276 113q11 0 11 -11q0 -10 -11 -10q-10 0 -10 10q0 11 10 11zM215 92q10 0 10 -10t-10 -10t-10 10t10 10zM256 92q10 0 10 -10t-10 -10t-10 10t10 10zM236 92q10 0 10 -10
t-10 -10q-11 0 -11 10t11 10zM195 72q10 0 10 -11q0 -10 -10 -10q-11 0 -11 10q0 11 11 11zM215 72q10 0 10 -11q0 -10 -10 -10t-10 10q0 11 10 11zM236 72q10 0 10 -11q0 -10 -10 -10q-11 0 -11 10q0 11 11 11zM195 51q10 0 10 -10t-10 -10q-11 0 -11 10t11 10zM215 51
q10 0 10 -10t-10 -10t-10 10t10 10zM174 51q10 0 10 -10t-10 -10t-10 10t10 10zM154 31q10 0 10 -11q0 -10 -10 -10q-11 0 -11 10q0 11 11 11zM174 31q10 0 10 -11q0 -10 -10 -10t-10 10q0 11 10 11zM195 31q10 0 10 -11q0 -10 -10 -10q-11 0 -11 10q0 11 11 11zM154 10
q10 0 10 -10t-10 -10q-11 0 -11 10t11 10zM174 10q10 0 10 -10t-10 -10t-10 10t10 10zM133 -10q10 0 10 -10q0 -11 -10 -11t-10 11q0 10 10 10zM154 -10q10 0 10 -10q0 -11 -10 -11q-11 0 -11 11q0 10 11 10zM133 -31q10 0 10 -10t-10 -10t-10 10t10 10z" />
    <glyph glyph-name="dot" horiz-adv-x="499" 
d="M252 1290q-46 0 -78.5 32.5t-32.5 76.5t32.5 76t78.5 32q44 0 75 -32t31 -76q0 -45 -31 -77t-75 -32z" />
    <glyph glyph-name="dotaccent.l" 
d="M0 -109q-46 0 -78.5 32.5t-32.5 76.5t32.5 76.5t78.5 32.5q44 0 75 -32t31 -77t-31 -77t-75 -32z" />
    <glyph glyph-name="dotaccent.low" 
d="M0 -371q-46 0 -78.5 32.5t-32.5 76.5t32.5 76t78.5 32q44 0 75 -32t31 -76q0 -45 -31 -77t-75 -32z" />
    <glyph glyph-name="caron.slovak" 
d="M-98 1114l51 340h143l-92 -340h-102z" />
    <glyph glyph-name="commaaccent.top" 
d="M-29 1616h86l-49 -178h90v-197h-198v197z" />
    <glyph glyph-name="dieresis.i" 
d="M-203 1233q-47 0 -80.5 34t-33.5 81t33.5 79.5t80.5 32.5q48 0 81.5 -32.5t33.5 -79.5t-34 -81t-81 -34zM203 1233q-47 0 -81 34t-34 81t33.5 79.5t81.5 32.5q47 0 80.5 -32.5t33.5 -79.5t-33.5 -81t-80.5 -34z" />
    <glyph glyph-name="zero.slashed" horiz-adv-x="1269" 
d="M635 -20q-221 0 -363.5 150t-142.5 388v422q0 238 142.5 388.5t363.5 150.5t363.5 -150.5t142.5 -388.5v-422q0 -238 -142.5 -388t-363.5 -150zM272 940v-377l717 477q-28 140 -123 219.5t-231 79.5q-161 0 -262 -107.5t-101 -291.5zM635 119q161 0 261.5 107.5
t100.5 291.5v377l-716 -477q28 -140 123 -219.5t231 -79.5z" />
    <glyph glyph-name="one.pof" horiz-adv-x="563" 
d="M238 0v1014h-164v133h307v-1147h-143z" />
    <glyph glyph-name="two.pof" horiz-adv-x="987" 
d="M90 0v113l471 428q74 69 118 135.5t44 140.5q0 92 -66.5 154.5t-164.5 62.5q-92 0 -161.5 -56t-82.5 -142l-144 26q22 133 131.5 219t260.5 86q161 0 266.5 -97.5t105.5 -248.5q0 -102 -53.5 -192.5t-155.5 -182.5l-346 -315h572v-131h-795z" />
    <glyph glyph-name="three.pof" horiz-adv-x="1009" 
d="M492 -158q-152 0 -279 87.5t-160 226.5l146 49q24 -100 102.5 -162.5t190.5 -62.5q115 0 196.5 75.5t81.5 192.5q0 126 -77.5 198t-203.5 72h-147v117l326 373h-545v139h735v-119l-328 -375q175 -6 281.5 -121t106.5 -284q0 -174 -119.5 -290t-306.5 -116z" />
    <glyph glyph-name="four.pof" horiz-adv-x="1091" 
d="M705 -139v358h-670v113l688 815h125v-795h172v-133h-172v-358h-143zM705 352v570l-482 -570h482z" />
    <glyph glyph-name="five.pof" horiz-adv-x="1009" 
d="M524 -158q-152 0 -279 87.5t-161 226.5l147 49q24 -101 102 -163t191 -62q111 0 186.5 84t75.5 204q0 122 -75.5 205.5t-192.5 83.5q-73 0 -133 -30t-94 -83h-150v703h711v-139h-567v-406q37 37 104.5 64t145.5 28q111 1 202 -54.5t143 -153.5t52 -218
q0 -181 -117.5 -303.5t-290.5 -122.5z" />
    <glyph glyph-name="six.pof" horiz-adv-x="1028" 
d="M512 -20q-182 0 -302 122.5t-120 298.5q0 93 37 170t102 154l463 559h185l-388 -469q32 4 56 4q157 0 273 -124t116 -289q0 -117 -53 -214.5t-150.5 -154.5t-218.5 -57zM238 403q0 -122 77 -205t197 -83q121 0 198.5 83t77.5 205q0 121 -77.5 204t-198.5 83
q-120 0 -197 -83t-77 -204z" />
    <glyph glyph-name="seven.pof" horiz-adv-x="899" 
d="M266 -139h-160l586 1147h-645v139h815v-117z" />
    <glyph glyph-name="eight.pof" horiz-adv-x="1036" 
d="M518 -20q-183 0 -300.5 114t-117.5 289q0 116 54 204t153 134q-137 91 -137 256q0 142 99 235t249 93q152 0 249 -92.5t97 -235.5q0 -81 -34.5 -146.5t-98.5 -107.5q98 -48 151.5 -136t53.5 -204q0 -176 -116.5 -289.5t-301.5 -113.5zM518 778q94 0 150.5 58.5
t56.5 140.5q0 84 -56.5 141.5t-150.5 57.5q-92 0 -149.5 -57.5t-57.5 -141.5q0 -81 58 -140t149 -59zM518 113q124 0 198.5 77t74.5 193q0 117 -74 192.5t-199 75.5q-123 0 -198.5 -76t-75.5 -192q0 -115 76 -192.5t198 -77.5z" />
    <glyph glyph-name="nine.pof" horiz-adv-x="1019" 
d="M516 1165q182 0 302 -123t120 -299q0 -93 -37 -169t-102 -154l-463 -559h-184l387 469q-32 -4 -56 -4q-157 0 -273 124t-116 289q0 117 53 214.5t150.5 154.5t218.5 57zM791 741q0 122 -77.5 205.5t-197.5 83.5q-121 0 -198.5 -83.5t-77.5 -205.5q0 -121 77.5 -203.5
t198.5 -82.5q120 0 197.5 83t77.5 203z" />
    <glyph glyph-name="zero.pof" horiz-adv-x="1112" 
d="M555 -20q-188 0 -308 120.5t-120 311.5v323q0 191 120 311.5t308 120.5t309 -120.5t121 -311.5v-323q0 -191 -121 -311.5t-309 -120.5zM555 113q128 0 207.5 80t79.5 219v323q0 139 -79.5 219t-207.5 80q-127 0 -206 -80t-79 -219v-323q0 -139 79 -219t206 -80z" />
    <glyph glyph-name="zero.slashed.pof" horiz-adv-x="1112" 
d="M555 -20q-188 0 -308 120.5t-120 311.5v323q0 191 120 311.5t308 120.5t309 -120.5t121 -311.5v-323q0 -191 -121 -311.5t-309 -120.5zM270 735v-276l559 372q-25 96 -97.5 149.5t-176.5 53.5q-127 0 -206 -80t-79 -219zM555 113q128 0 207.5 80t79.5 219v276l-559 -373
q25 -96 97.5 -149t174.5 -53z" />
    <glyph glyph-name="one.tlf" horiz-adv-x="1208" 
d="M692 137h365v-137h-873v137h365v1176h-262v141h405v-1317z" />
    <glyph glyph-name="two.tlf" horiz-adv-x="1208" 
d="M125 0v117l561 542q211 203 211 379q0 127 -86.5 214t-212.5 87q-117 0 -204.5 -75.5t-100.5 -190.5l-146 27q22 162 150 270.5t305 108.5q191 0 316.5 -125t125.5 -312q0 -241 -253 -479l-445 -426h719v-137h-940z" />
    <glyph glyph-name="three.tlf" horiz-adv-x="1208" 
d="M590 -20q-114 0 -220 42.5t-183.5 124t-102.5 185.5l149 49q27 -116 123.5 -189t233.5 -73q139 0 241.5 90t102.5 227q0 148 -94.5 233t-249.5 85h-168v118l395 441h-657v141h852v-123l-391 -436q137 -3 242.5 -64.5t161.5 -164.5t56 -230t-61.5 -231t-174 -164.5
t-255.5 -60.5z" />
    <glyph glyph-name="four.tlf" horiz-adv-x="1208" 
d="M819 0v414h-788v116l809 924h123v-903h204v-137h-204v-414h-144zM819 551v682l-596 -682h596z" />
    <glyph glyph-name="five.tlf" horiz-adv-x="1208" 
d="M629 -20q-114 0 -220 42.5t-183.5 124t-102.5 185.5l149 49q27 -116 123.5 -189t233.5 -73q134 0 227.5 100t93.5 240q0 143 -92.5 241.5t-236.5 98.5q-90 0 -163 -34t-116 -95h-154v784h816v-141h-672v-490q43 48 124 82.5t179 34.5q202 0 332.5 -144t130.5 -360
q0 -122 -62 -226.5t-170.5 -167t-236.5 -62.5z" />
    <glyph glyph-name="six.tlf" horiz-adv-x="1208" 
d="M598 -20q-134 0 -246.5 64t-176.5 173t-64 236q0 186 159 364l561 637h187l-471 -536q34 10 84 10q92 0 177 -39.5t145 -104t96 -150t36 -175.5q0 -130 -64 -240t-176.5 -174.5t-246.5 -64.5zM598 119q144 0 242 99.5t98 240.5t-98 240.5t-242 99.5t-242 -99.5
t-98 -240.5t98 -240.5t242 -99.5z" />
    <glyph glyph-name="seven.tlf" horiz-adv-x="1208" 
d="M381 0h-160l686 1313h-764v141h936v-117z" />
    <glyph glyph-name="eight.tlf" horiz-adv-x="1208" 
d="M604 -20q-210 0 -344.5 128.5t-134.5 325.5q0 133 65 234.5t183 154.5q-75 47 -118.5 122t-43.5 165q0 160 113 264.5t280 104.5q172 0 282.5 -104t110.5 -265q0 -91 -41.5 -166t-115.5 -121q117 -52 180 -153.5t63 -235.5q0 -199 -132 -326.5t-347 -127.5zM604 883
q116 0 184 67.5t68 161.5q0 98 -67.5 162.5t-184.5 64.5q-112 0 -182 -65t-70 -162q0 -93 70 -161t182 -68zM604 119q154 0 245 88.5t91 224.5q0 138 -90 225.5t-244 87.5q-152 0 -245 -88t-93 -225q0 -134 93 -223.5t243 -89.5z" />
    <glyph glyph-name="nine.tlf" horiz-adv-x="1208" 
d="M188 0l476 541q-37 -11 -84 -11q-123 0 -228.5 66.5t-166 174.5t-60.5 228q0 199 141.5 339.5t345.5 140.5q101 0 191.5 -38t155.5 -101.5t103 -151t38 -182.5q0 -185 -160 -365l-565 -641h-187zM612 659q144 0 242 99.5t98 240.5t-98 240.5t-242 99.5t-242 -99.5
t-98 -240.5t98 -240.5t242 -99.5z" />
    <glyph glyph-name="zero.tlf" horiz-adv-x="1208" 
d="M604 -20q-221 0 -363.5 150t-142.5 388v422q0 238 142.5 388.5t363.5 150.5t363.5 -150.5t142.5 -388.5v-422q0 -238 -142.5 -388t-363.5 -150zM604 119q161 0 262 107.5t101 291.5v422q0 184 -101 291.5t-262 107.5t-261.5 -107.5t-100.5 -291.5v-422
q0 -184 100.5 -291.5t261.5 -107.5z" />
    <glyph glyph-name="zero.slashed.tlf" horiz-adv-x="1208" 
d="M604 -20q-221 0 -363.5 150t-142.5 388v422q0 238 142.5 388.5t363.5 150.5t363.5 -150.5t142.5 -388.5v-422q0 -238 -142.5 -388t-363.5 -150zM242 940v-377l716 477q-28 140 -123 219.5t-231 79.5q-161 0 -261.5 -107.5t-100.5 -291.5zM604 119q161 0 262 107.5
t101 291.5v377l-717 -477q28 -140 123 -219.5t231 -79.5z" />
    <glyph glyph-name="zero.slashed.superior" horiz-adv-x="798" 
d="M401 827q-140 0 -229.5 94t-89.5 242v238q0 149 89.5 243.5t229.5 94.5q139 0 228.5 -94.5t89.5 -243.5v-238q0 -147 -90 -241.5t-228 -94.5zM207 1401v-180l381 241q-15 72 -66 113t-121 41q-87 0 -140.5 -57.5t-53.5 -157.5zM401 948q85 0 139 58.5t54 156.5v187
l-383 -242q15 -75 65.5 -117.5t124.5 -42.5z" />
    <glyph glyph-name="zero.slashed.inferior" horiz-adv-x="796" 
d="M399 -248q-140 0 -229.5 94t-89.5 242v238q0 149 89.5 243.5t229.5 94.5q139 0 228.5 -94.5t89.5 -243.5v-238q0 -147 -90 -241.5t-228 -94.5zM205 326v-181l381 242q-15 72 -66 113t-121 41q-87 0 -140.5 -57.5t-53.5 -157.5zM399 -127q85 0 139 58.5t54 156.5v186
l-383 -241q15 -75 65.5 -117.5t124.5 -42.5z" />
    <glyph glyph-name="one.numr" horiz-adv-x="419" 
d="M166 569v768h-127v117h246v-885h-119z" />
    <glyph glyph-name="two.numr" horiz-adv-x="716" 
d="M63 569v107l343 332q104 100 104 188q0 64 -43 107t-109 43q-62 0 -108 -41t-57 -105l-123 27q19 108 99.5 174.5t192.5 66.5q119 0 197 -73t78 -193q0 -81 -38.5 -148.5t-113.5 -138.5l-231 -225h393v-121h-584z" />
    <glyph glyph-name="three.numr" horiz-adv-x="727" 
d="M358 555q-107 0 -198 61t-115 158l123 45q18 -63 69 -102t123 -39q75 0 126 46t51 116q0 75 -51 119.5t-132 44.5h-106v102l207 225h-357v123h523v-102l-218 -234q119 -9 190 -87t71 -191q0 -125 -85.5 -205t-220.5 -80z" />
    <glyph glyph-name="four.numr" horiz-adv-x="796" 
d="M502 569v230h-461v100l475 555h111v-539h121v-116h-121v-230h-125zM502 915v351l-301 -351h301z" />
    <glyph glyph-name="five.numr" horiz-adv-x="731" 
d="M377 557q-109 0 -199.5 61t-116.5 158l125 45q15 -63 67 -103t124 -40q74 0 122 51.5t48 124.5t-49 123.5t-123 50.5q-47 0 -86.5 -20t-61.5 -54h-125v500h512v-123h-387v-237q64 53 164 53q126 0 204.5 -86.5t78.5 -220.5q0 -122 -84 -202.5t-213 -80.5z" />
    <glyph glyph-name="six.numr" horiz-adv-x="704" 
d="M348 557q-131 0 -217 85.5t-86 209.5q0 63 24.5 113t75.5 114l306 375h157l-258 -317q8 2 23 2q110 0 193 -83.5t83 -201.5q0 -126 -85 -211.5t-216 -85.5zM348 678q74 0 124 50.5t50 123.5q0 74 -50 125t-124 51q-75 0 -125.5 -51t-50.5 -125q0 -72 51 -123t125 -51z
" />
    <glyph glyph-name="seven.numr" horiz-adv-x="675" 
d="M227 569h-139l410 762h-443v123h590v-106z" />
    <glyph glyph-name="eight.numr" horiz-adv-x="737" 
d="M369 557q-131 0 -216 79t-85 200q0 77 34.5 135.5t96.5 91.5q-86 67 -86 174q0 101 72.5 166t183.5 65q114 0 185 -64.5t71 -166.5q0 -110 -86 -174q63 -32 97 -90.5t34 -136.5q0 -122 -84 -200.5t-217 -78.5zM369 1108q61 0 98 36t37 87q0 53 -37 88t-98 35
q-58 0 -95.5 -35t-37.5 -88q0 -51 37 -87t96 -36zM369 674q81 0 127.5 47t46.5 117t-46.5 116.5t-125.5 46.5q-80 0 -128 -47t-48 -116t48 -116.5t126 -47.5z" />
    <glyph glyph-name="nine.numr" horiz-adv-x="704" 
d="M94 569l258 318h-20q-110 0 -193.5 82.5t-83.5 201.5q0 126 85 211.5t216 85.5t217 -85t86 -209q0 -64 -25 -116.5t-75 -113.5l-307 -375h-158zM356 995q74 0 125 51.5t51 124.5q0 74 -50.5 125.5t-125.5 51.5q-74 0 -124 -51.5t-50 -125.5q0 -73 50 -124.5t124 -51.5z
" />
    <glyph glyph-name="zero.numr" horiz-adv-x="798" 
d="M401 557q-140 0 -229.5 94t-89.5 242v237q0 149 89.5 243.5t229.5 94.5q139 0 228.5 -94.5t89.5 -243.5v-237q0 -147 -90 -241.5t-228 -94.5zM401 678q85 0 139 58.5t54 156.5v237q0 99 -54 157.5t-139 58.5q-87 0 -140.5 -58t-53.5 -158v-237q0 -99 53.5 -157t140.5 -58
z" />
    <glyph glyph-name="zero.slashed.numr" horiz-adv-x="798" 
d="M401 557q-140 0 -229.5 94t-89.5 242v237q0 149 89.5 243.5t229.5 94.5q139 0 228.5 -94.5t89.5 -243.5v-237q0 -147 -90 -241.5t-228 -94.5zM207 1130v-180l381 242q-15 72 -66 113t-121 41q-87 0 -140.5 -58t-53.5 -158zM401 678q85 0 139 58.5t54 156.5v186l-383 -241
q15 -75 65.5 -117.5t124.5 -42.5z" />
    <glyph glyph-name="one.dnom" horiz-adv-x="419" 
d="M168 0v768h-127v117h246v-885h-119z" />
    <glyph glyph-name="two.dnom" horiz-adv-x="716" 
d="M63 0v106l343 332q104 100 104 189q0 63 -43 106t-109 43q-63 0 -108.5 -41t-56.5 -104l-123 26q19 108 99.5 175t192.5 67q119 0 197 -73t78 -193q0 -81 -38.5 -148.5t-113.5 -138.5l-231 -225h393v-121h-584z" />
    <glyph glyph-name="three.dnom" horiz-adv-x="727" 
d="M358 -14q-107 0 -198 61t-115 158l123 45q18 -63 69 -102t123 -39q76 0 126.5 45.5t50.5 115.5q0 75 -51 119.5t-132 44.5h-106v103l207 225h-357v123h523v-103l-218 -233q119 -9 190 -87.5t71 -191.5q0 -125 -85.5 -204.5t-220.5 -79.5z" />
    <glyph glyph-name="four.dnom" horiz-adv-x="796" 
d="M502 0v229h-461v101l475 555h111v-539h121v-117h-121v-229h-125zM502 346v350l-301 -350h301z" />
    <glyph glyph-name="five.dnom" horiz-adv-x="731" 
d="M377 -12q-109 0 -199.5 61t-116.5 158l125 45q15 -63 67 -103t124 -40q74 0 122 51.5t48 124.5t-49 123.5t-123 50.5q-47 0 -86.5 -20t-61.5 -54h-125v500h512v-123h-387v-238q65 54 164 54q126 0 204.5 -87t78.5 -221q0 -122 -84 -202t-213 -80z" />
    <glyph glyph-name="six.dnom" horiz-adv-x="704" 
d="M348 -12q-131 0 -217 85.5t-86 209.5q0 63 24.5 113t75.5 114l306 375h157l-258 -318q8 2 23 2q111 0 193.5 -83t82.5 -201q0 -126 -85 -211.5t-216 -85.5zM348 109q74 0 124 50.5t50 123.5q0 74 -50 125t-124 51q-75 0 -125.5 -51t-50.5 -125q0 -73 51 -123.5t125 -50.5
z" />
    <glyph glyph-name="seven.dnom" horiz-adv-x="675" 
d="M229 0h-139l410 762h-443v123h590v-107z" />
    <glyph glyph-name="eight.dnom" horiz-adv-x="737" 
d="M369 -12q-131 0 -216 78.5t-85 199.5q0 77 34.5 136t96.5 92q-86 67 -86 174q0 101 72.5 166t183.5 65q114 0 185 -64.5t71 -166.5q0 -110 -86 -174q63 -32 97 -91t34 -137q0 -122 -84 -200t-217 -78zM369 539q61 0 98 36t37 87q0 53 -37 87.5t-98 34.5
q-58 0 -95.5 -34.5t-37.5 -87.5q0 -51 37 -87t96 -36zM369 104q81 0 127.5 47t46.5 117t-46.5 117t-125.5 47q-80 0 -128 -47t-48 -117q0 -69 48 -116.5t126 -47.5z" />
    <glyph glyph-name="nine.dnom" horiz-adv-x="704" 
d="M94 0l258 317h-20q-110 0 -193.5 83t-83.5 202q0 126 85 211.5t216 85.5t217 -85.5t86 -209.5q0 -64 -25 -116t-75 -113l-307 -375h-158zM356 426q74 0 125 51.5t51 124.5q0 74 -50.5 125t-125.5 51q-74 0 -124 -51t-50 -125q0 -73 50 -124.5t124 -51.5z" />
    <glyph glyph-name="zero.dnom" horiz-adv-x="798" 
d="M401 -12q-140 0 -229.5 94t-89.5 242v237q0 149 89.5 243.5t229.5 94.5q139 0 228.5 -94.5t89.5 -243.5v-237q0 -147 -90 -241.5t-228 -94.5zM401 109q85 0 139 58.5t54 156.5v237q0 99 -54 157t-139 58q-87 0 -140.5 -57.5t-53.5 -157.5v-237q0 -99 53.5 -157t140.5 -58
z" />
    <glyph glyph-name="zero.slashed.dnom" horiz-adv-x="800" 
d="M401 -12q-140 0 -229.5 94t-89.5 242v237q0 149 89.5 243.5t229.5 94.5q139 0 228.5 -94.5t89.5 -243.5v-237q0 -147 -90 -241.5t-228 -94.5zM207 561v-180l381 242q-15 72 -66 112.5t-121 40.5q-87 0 -140.5 -57.5t-53.5 -157.5zM401 109q85 0 139 58.5t54 156.5v186
l-383 -242q15 -75 65.5 -117t124.5 -42z" />
    <glyph glyph-name="hyphen.case" horiz-adv-x="792" 
d="M145 653v148h502v-148h-502z" />
    <glyph glyph-name="uni00AD.case" horiz-adv-x="792" 
d="M145 653v148h502v-148h-502z" />
    <glyph glyph-name="endash.case" horiz-adv-x="1155" 
d="M145 653v148h865v-148h-865z" />
    <glyph glyph-name="emdash.case" horiz-adv-x="1155" 
d="M145 653v148h865v-148h-865z" />
    <glyph glyph-name="questiondown.case" horiz-adv-x="1069" 
d="M473 1454h225v-225h-225v225zM643 985v-41q0 -119 -190 -264q-52 -39 -81.5 -65.5t-58.5 -61.5t-41 -73.5t-12 -86.5q0 -115 86.5 -196.5t206.5 -81.5q114 0 201.5 53.5t134.5 144.5l119 -67q-65 -123 -185 -197t-270 -74q-185 0 -310.5 124.5t-125.5 293.5
q0 47 9.5 90.5t30 80t39 63.5t49.5 56.5t48 44t47 38.5q85 65 112 94q48 54 48 105v20h143z" />
    <glyph glyph-name="exclamdown.case" horiz-adv-x="552" 
d="M375 1221h-225v225h225v-225zM322 985l26 -389v-596h-143v596l26 389h91z" />
    <glyph glyph-name="guilsinglleft.case" horiz-adv-x="665" 
d="M281 727l243 -414l-100 -65l-311 479l311 479l100 -65z" />
    <glyph glyph-name="guilsinglright.case" horiz-adv-x="665" 
d="M385 727l-244 414l101 65l311 -479l-311 -479l-101 65z" />
    <glyph glyph-name="guillemotleft.case" horiz-adv-x="1001" 
d="M616 727l244 -414l-100 -65l-311 479l311 479l100 -65zM281 727l243 -414l-100 -65l-311 479l311 479l100 -65z" />
    <glyph glyph-name="guillemotright.case" horiz-adv-x="1001" 
d="M721 727l-244 414l101 65l311 -479l-311 -479l-101 65zM385 727l-244 414l101 65l311 -479l-311 -479l-101 65z" />
    <glyph glyph-name="parenleft.case" horiz-adv-x="538" 
d="M242 725q0 -483 221 -932l-94 -51q-263 477 -263 983t263 983l94 -51q-221 -449 -221 -932z" />
    <glyph glyph-name="parenright.case" horiz-adv-x="538" 
d="M297 725q0 483 -221 932l94 51q262 -475 262 -983t-262 -983l-94 51q221 449 221 932z" />
    <glyph glyph-name="bracketleft.case" horiz-adv-x="626" 
d="M205 -256v1966h360v-129h-225v-1708h225v-129h-360z" />
    <glyph glyph-name="bracketright.case" horiz-adv-x="622" 
d="M418 -256h-361v129h226v1708h-226v129h361v-1966z" />
    <glyph glyph-name="braceleft.case" horiz-adv-x="638" 
d="M475 -256q-143 0 -197.5 70t-54.5 223v471q0 83 -23.5 118.5t-97.5 35.5h-34v129h34q74 0 97.5 35t23.5 118v473q0 153 54 223t196 70h111v-129h-99q-78 0 -102.5 -35t-24.5 -123v-465q0 -100 -21.5 -150.5t-84.5 -80.5q63 -33 84.5 -83t21.5 -150v-463
q0 -89 24.5 -123.5t102.5 -34.5h99v-129h-109z" />
    <glyph glyph-name="braceright.case" horiz-adv-x="638" 
d="M164 -256h-109v129h99q78 0 102.5 34.5t24.5 123.5v463q0 100 21.5 150t84.5 83q-63 30 -84.5 80.5t-21.5 150.5v465q0 88 -24.5 123t-102.5 35h-99v129h111q142 0 196 -70t54 -223v-473q0 -83 23.5 -118t97.5 -35h34v-129h-34q-74 0 -97.5 -35.5t-23.5 -118.5v-471
q0 -153 -54.5 -223t-197.5 -70z" />
    <glyph glyph-name="bar.case" horiz-adv-x="542" 
d="M203 -113v1680h137v-1680h-137z" />
    <glyph glyph-name="brokenbar.case" horiz-adv-x="542" 
d="M203 815v752h137v-752h-137zM203 -113v752h137v-752h-137z" />
    <glyph glyph-name="periodcentered.case" horiz-adv-x="516" 
d="M356 606h-225v225h225v-225z" />
    <glyph glyph-name="plus.case" horiz-adv-x="1024" 
d="M78 662v129h366v366h136v-366h366v-129h-366v-367h-136v367h-366z" />
    <glyph glyph-name="minus.case" horiz-adv-x="1159" 
d="M145 662v129h869v-129h-869z" />
    <glyph glyph-name="multiply.case" horiz-adv-x="1019" 
d="M209 336l-96 94l301 297l-301 297l96 94l301 -295l301 295l96 -94l-301 -297l301 -297l-96 -94l-301 295z" />
    <glyph glyph-name="equal.case" horiz-adv-x="1159" 
d="M145 887v129h869v-129h-869zM145 438v129h869v-129h-869z" />
    <glyph glyph-name="less.case" horiz-adv-x="948" 
d="M825 111l-727 481v149l727 480v-164l-592 -391l592 -392v-163z" />
    <glyph glyph-name="greater.case" horiz-adv-x="948" 
d="M123 111v163l592 392l-592 391v164l727 -480v-149z" />
    <glyph glyph-name="acute.case" 
d="M-180 1573l164 280h194l-229 -280h-129z" />
    <glyph glyph-name="breve.case" 
d="M0 1561q-134 0 -224.5 86t-90.5 227h104q0 -98 60 -154.5t151 -56.5t151 56.5t60 154.5h104q0 -141 -90.5 -227t-224.5 -86z" />
    <glyph glyph-name="caron.case" 
d="M-82 1573l-266 280h170l178 -188l182 188h170l-266 -280h-168z" />
    </font>
</defs>
</svg>
